<svg width="1474" height="648" viewBox="0 0 1474 648" fill="none" xmlns="http://www.w3.org/2000/svg">
<g clip-path="url(#clip0_192_2334)">
<rect width="1474" height="648" fill="white"/>
<rect x="188" y="10" width="303" height="76" fill="#007BFF"/>
<rect x="188" y="318" width="303" height="79" fill="#007BFF"/>
<rect x="188" y="398" width="302" height="80" fill="#CCE5FF"/>
<rect x="188" y="557" width="302" height="77" fill="#CCE5FF"/>
<rect x="188" y="478" width="303" height="79" fill="#007BFF"/>
<rect x="719" y="9" width="751" height="631" fill="white" stroke="#274867" stroke-width="2"/>
<rect x="187" y="9" width="304" height="625" stroke="#274867" stroke-width="2"/>
<line x1="187" y1="86" x2="492" y2="86" stroke="#274867" stroke-width="2"/>
<line x1="109" y1="9" x2="414" y2="9" stroke="#274867" stroke-width="2"/>
<line x1="186" y1="318" x2="491" y2="318" stroke="#274867" stroke-width="2"/>
<line x1="118" y1="155" x2="1471" y2="155" stroke="#274867" stroke-width="4"/>
<line x1="718" y1="84" x2="1471" y2="84.0001" stroke="#274867" stroke-width="2"/>
<line x1="794" y1="10" x2="794" y2="156" stroke="#274867" stroke-width="2"/>
<path d="M718.5 9L490.5 86.5" stroke="#274867" stroke-width="2"/>
<line x1="870" y1="10" x2="870" y2="156" stroke="#274867" stroke-width="2"/>
<line x1="946" y1="10" x2="946" y2="156" stroke="#274867" stroke-width="2"/>
<line x1="1022" y1="10" x2="1022" y2="156" stroke="#274867" stroke-width="2"/>
<line x1="1098" y1="10" x2="1098" y2="156" stroke="#274867" stroke-width="2"/>
<line x1="1174" y1="10" x2="1174" y2="156" stroke="#274867" stroke-width="2"/>
<line x1="1250" y1="10" x2="1250" y2="156" stroke="#274867" stroke-width="2"/>
<line x1="1191" y1="232" x2="1191" y2="309" stroke="#274867" stroke-width="2"/>
<line x1="855" y1="232" x2="855" y2="309" stroke="#274867" stroke-width="2"/>
<line x1="1105" y1="397" x2="1105" y2="474" stroke="#274867" stroke-width="2"/>
<line x1="1180" y1="397" x2="1180" y2="474" stroke="#274867" stroke-width="2"/>
<line x1="1171" y1="564" x2="1171" y2="640" stroke="#274867" stroke-width="2"/>
<line x1="1096" y1="564" x2="1096" y2="640" stroke="#274867" stroke-width="2"/>
<line x1="1021" y1="564" x2="1021" y2="640" stroke="#274867" stroke-width="2"/>
<line x1="946" y1="564" x2="946" y2="640" stroke="#274867" stroke-width="2"/>
<line x1="871" y1="564" x2="871" y2="640" stroke="#274867" stroke-width="2"/>
<path d="M489.5 318L719 640" stroke="#274867" stroke-width="2"/>
<line x1="1265" y1="232" x2="1265" y2="309" stroke="#274867" stroke-width="2"/>
<line x1="1339" y1="232" x2="1339" y2="309" stroke="#274867" stroke-width="2"/>
<line x1="1413" y1="232" x2="1413" y2="309" stroke="#274867" stroke-width="2"/>
<line x1="1326" y1="10" x2="1326" y2="156" stroke="#274867" stroke-width="2"/>
<line x1="1402" y1="10" x2="1402" y2="156" stroke="#274867" stroke-width="2"/>
<line x1="118" y1="397" x2="491" y2="397" stroke="#274867" stroke-width="2"/>
<line x1="186" y1="479" x2="491" y2="479" stroke="#274867" stroke-width="2"/>
<line x1="118" y1="557" x2="491" y2="557" stroke="#274867" stroke-width="2"/>
<rect x="1115" y="233" width="355" height="75" stroke="#274867" stroke-width="2"/>
<rect x="795" y="565" width="453" height="75" stroke="#274867" stroke-width="2"/>
<rect x="780" y="233" width="151" height="75" stroke="#274867" stroke-width="2"/>
<rect x="1029" y="398" width="226" height="75" stroke="#274867" stroke-width="2"/>
<path d="M311.9 46.325C312.675 46.45 314.35 46.8 315.275 47C317.95 47.6 319.75 48.975 319.75 52.025C319.75 54.825 317.525 57.325 313 57.325C308.825 57.325 306.1 55.125 305.825 52.025H308.1C308.5 54.45 310.65 55.275 313.1 55.275C315.575 55.275 317.475 54.125 317.475 52.075C317.475 50.15 316.2 49.425 314.45 49.025C313.55 48.825 311.8 48.5 310.925 48.3C308.325 47.775 306.6 46.375 306.6 43.775C306.6 41 308.85 38.825 312.875 38.825C316.575 38.825 318.95 40.775 319.35 43.65H317.075C316.65 41.85 315.425 40.875 312.825 40.875C310.675 40.875 308.875 41.85 308.875 43.725C308.875 45.45 310.4 46 311.9 46.325ZM326.202 44.4H329.377V46.25H326.202V53.175C326.202 54.45 326.752 55.1 328.452 55.1H329.377V57H328.402C325.677 57 324.077 56.15 324.077 53.475V46.25H321.902V44.4H324.077V40.6H326.202V44.4ZM340.897 57V55.675H340.347C339.572 56.65 338.222 57.325 336.422 57.325C333.522 57.325 331.897 55.375 331.897 53.225C331.897 51.2 333.222 49.05 336.722 49.05H340.822V48.55C340.822 47.025 339.947 45.925 337.747 45.925C335.872 45.925 334.922 46.65 334.822 47.75H332.697C332.872 45.425 334.872 44.075 337.697 44.075C340.872 44.075 342.897 45.6 342.897 48.425V57H340.897ZM336.947 55.475C339.047 55.475 340.822 53.9 340.822 51.9V50.75H337.047C334.972 50.75 334.022 51.65 334.022 53.15C334.022 54.575 335.072 55.475 336.947 55.475ZM355.313 53.2H357.438C356.963 55.675 355.063 57.325 352.138 57.325C348.213 57.325 346.013 54.425 346.013 50.7C346.013 46.9 348.213 44.075 352.138 44.075C355.138 44.075 356.938 45.725 357.363 48.05H355.238C354.838 46.775 353.863 45.925 352.138 45.925C349.288 45.925 348.138 48.15 348.138 50.65C348.138 53.175 349.313 55.475 352.138 55.475C353.938 55.475 354.988 54.6 355.313 53.2ZM372.056 57H369.781L366.181 50.15H365.631L362.731 53.35V57H360.606V38.825H362.731V50.725L368.681 44.4L371.206 44.4L367.581 48.275L372.056 57Z" fill="white"/>
<path d="M287.357 112.2H277.132V118H285.407V120.05H277.132V128H274.882V110.15L287.357 110.15V112.2ZM297.042 115.4V117.4H295.992C293.492 117.4 291.967 118.925 291.967 121.7V128H289.842V115.4L291.892 115.4V116.9H292.442C293.067 116.125 294.267 115.4 296.092 115.4H297.042ZM310.753 120.95V121.675H301.153C301.228 124.675 302.578 126.475 305.178 126.475C306.953 126.475 308.003 125.725 308.378 124.525H310.528C310.128 126.675 308.303 128.325 305.178 128.325C301.253 128.325 299.053 125.45 299.053 121.575C299.053 117.7 301.303 115.075 305.128 115.075C308.878 115.075 310.678 117.85 310.753 120.95ZM305.078 116.925C302.803 116.925 301.553 118.3 301.278 119.9H308.553C308.428 118.3 307.203 116.925 305.078 116.925ZM324.986 120.95V121.675H315.386C315.461 124.675 316.811 126.475 319.411 126.475C321.186 126.475 322.236 125.725 322.611 124.525H324.761C324.361 126.675 322.536 128.325 319.411 128.325C315.486 128.325 313.286 125.45 313.286 121.575C313.286 117.7 315.536 115.075 319.361 115.075C323.111 115.075 324.911 117.85 324.986 120.95ZM319.311 116.925C317.036 116.925 315.786 118.3 315.511 119.9H322.786C322.661 118.3 321.436 116.925 319.311 116.925ZM338.753 120.15L339.953 120.35L341.378 120.575C343.578 120.95 344.978 122.075 344.978 124.375C344.978 126.45 343.203 128.325 339.803 128.325C336.228 128.325 334.478 126.75 334.203 124.35H336.353C336.553 125.775 337.803 126.475 339.703 126.475C341.603 126.475 342.853 125.8 342.853 124.425C342.853 123.325 342.153 122.725 340.553 122.45L337.728 121.975C335.928 121.65 334.703 120.7 334.703 118.8C334.703 116.7 336.278 115.075 339.678 115.075C342.653 115.075 344.378 116.475 344.653 118.675H342.528C342.353 117.475 341.153 116.925 339.578 116.925C337.953 116.925 336.853 117.525 336.853 118.6C336.853 119.575 337.478 119.95 338.753 120.15ZM354.144 116.925C351.344 116.925 350.194 119.225 350.194 121.7C350.194 124.175 351.344 126.475 354.144 126.475C356.669 126.475 358.019 124.5 358.019 121.7C358.019 118.9 356.669 116.925 354.144 116.925ZM348.094 115.4H350.144V116.75H350.694C351.394 115.875 352.619 115.075 354.619 115.075C358.094 115.075 360.144 117.975 360.144 121.7C360.144 125.5 358.094 128.325 354.619 128.325C352.619 128.325 351.444 127.55 350.769 126.65H350.219V133H348.094V115.4ZM371.5 128V126.675H370.95C370.175 127.65 368.825 128.325 367.025 128.325C364.125 128.325 362.5 126.375 362.5 124.225C362.5 122.2 363.825 120.05 367.325 120.05H371.425V119.55C371.425 118.025 370.55 116.925 368.35 116.925C366.475 116.925 365.525 117.65 365.425 118.75H363.3C363.475 116.425 365.475 115.075 368.3 115.075C371.475 115.075 373.5 116.6 373.5 119.425V128H371.5ZM367.55 126.475C369.65 126.475 371.425 124.9 371.425 122.9V121.75H367.65C365.575 121.75 364.625 122.65 364.625 124.15C364.625 125.575 365.675 126.475 367.55 126.475ZM385.916 124.2H388.041C387.566 126.675 385.666 128.325 382.741 128.325C378.816 128.325 376.616 125.425 376.616 121.7C376.616 117.9 378.816 115.075 382.741 115.075C385.741 115.075 387.541 116.725 387.966 119.05H385.841C385.441 117.775 384.466 116.925 382.741 116.925C379.891 116.925 378.741 119.15 378.741 121.65C378.741 124.175 379.916 126.475 382.741 126.475C384.541 126.475 385.591 125.6 385.916 124.2ZM402.135 120.95V121.675H392.535C392.61 124.675 393.96 126.475 396.56 126.475C398.335 126.475 399.385 125.725 399.76 124.525H401.91C401.51 126.675 399.685 128.325 396.56 128.325C392.635 128.325 390.435 125.45 390.435 121.575C390.435 117.7 392.685 115.075 396.51 115.075C400.26 115.075 402.06 117.85 402.135 120.95ZM396.46 116.925C394.185 116.925 392.935 118.3 392.66 119.9H399.935C399.81 118.3 398.585 116.925 396.46 116.925Z" fill="#274867"/>
<path d="M287.357 251.2H277.132V257H285.407V259.05H277.132V267H274.882V249.15H287.357V251.2ZM297.042 254.4V256.4H295.992C293.492 256.4 291.967 257.925 291.967 260.7V267H289.842V254.4H291.892V255.9H292.442C293.067 255.125 294.267 254.4 296.092 254.4H297.042ZM310.753 259.95V260.675H301.153C301.228 263.675 302.578 265.475 305.178 265.475C306.953 265.475 308.003 264.725 308.378 263.525H310.528C310.128 265.675 308.303 267.325 305.178 267.325C301.253 267.325 299.053 264.45 299.053 260.575C299.053 256.7 301.303 254.075 305.128 254.075C308.878 254.075 310.678 256.85 310.753 259.95ZM305.078 255.925C302.803 255.925 301.553 257.3 301.278 258.9H308.553C308.428 257.3 307.203 255.925 305.078 255.925ZM324.986 259.95V260.675H315.386C315.461 263.675 316.811 265.475 319.411 265.475C321.186 265.475 322.236 264.725 322.611 263.525H324.761C324.361 265.675 322.536 267.325 319.411 267.325C315.486 267.325 313.286 264.45 313.286 260.575C313.286 256.7 315.536 254.075 319.361 254.075C323.111 254.075 324.911 256.85 324.986 259.95ZM319.311 255.925C317.036 255.925 315.786 257.3 315.511 258.9H322.786C322.661 257.3 321.436 255.925 319.311 255.925ZM338.753 259.15L339.953 259.35L341.378 259.575C343.578 259.95 344.978 261.075 344.978 263.375C344.978 265.45 343.203 267.325 339.803 267.325C336.228 267.325 334.478 265.75 334.203 263.35H336.353C336.553 264.775 337.803 265.475 339.703 265.475C341.603 265.475 342.853 264.8 342.853 263.425C342.853 262.325 342.153 261.725 340.553 261.45L337.728 260.975C335.928 260.65 334.703 259.7 334.703 257.8C334.703 255.7 336.278 254.075 339.678 254.075C342.653 254.075 344.378 255.475 344.653 257.675H342.528C342.353 256.475 341.153 255.925 339.578 255.925C337.953 255.925 336.853 256.525 336.853 257.6C336.853 258.575 337.478 258.95 338.753 259.15ZM354.144 255.925C351.344 255.925 350.194 258.225 350.194 260.7C350.194 263.175 351.344 265.475 354.144 265.475C356.669 265.475 358.019 263.5 358.019 260.7C358.019 257.9 356.669 255.925 354.144 255.925ZM348.094 254.4H350.144V255.75H350.694C351.394 254.875 352.619 254.075 354.619 254.075C358.094 254.075 360.144 256.975 360.144 260.7C360.144 264.5 358.094 267.325 354.619 267.325C352.619 267.325 351.444 266.55 350.769 265.65H350.219V272H348.094V254.4ZM371.5 267V265.675H370.95C370.175 266.65 368.825 267.325 367.025 267.325C364.125 267.325 362.5 265.375 362.5 263.225C362.5 261.2 363.825 259.05 367.325 259.05H371.425V258.55C371.425 257.025 370.55 255.925 368.35 255.925C366.475 255.925 365.525 256.65 365.425 257.75H363.3C363.475 255.425 365.475 254.075 368.3 254.075C371.475 254.075 373.5 255.6 373.5 258.425V267H371.5ZM367.55 265.475C369.65 265.475 371.425 263.9 371.425 261.9V260.75H367.65C365.575 260.75 364.625 261.65 364.625 263.15C364.625 264.575 365.675 265.475 367.55 265.475ZM385.916 263.2H388.041C387.566 265.675 385.666 267.325 382.741 267.325C378.816 267.325 376.616 264.425 376.616 260.7C376.616 256.9 378.816 254.075 382.741 254.075C385.741 254.075 387.541 255.725 387.966 258.05H385.841C385.441 256.775 384.466 255.925 382.741 255.925C379.891 255.925 378.741 258.15 378.741 260.65C378.741 263.175 379.916 265.475 382.741 265.475C384.541 265.475 385.591 264.6 385.916 263.2ZM402.135 259.95V260.675H392.535C392.61 263.675 393.96 265.475 396.56 265.475C398.335 265.475 399.385 264.725 399.76 263.525H401.91C401.51 265.675 399.685 267.325 396.56 267.325C392.635 267.325 390.435 264.45 390.435 260.575C390.435 256.7 392.685 254.075 396.51 254.075C400.26 254.075 402.06 256.85 402.135 259.95ZM396.46 255.925C394.185 255.925 392.935 257.3 392.66 258.9H399.935C399.81 257.3 398.585 255.925 396.46 255.925Z" fill="#274867"/>
<path d="M40.4005 45.325C41.1755 45.45 42.8505 45.8 43.7755 46C46.4505 46.6 48.2505 47.975 48.2505 51.025C48.2505 53.825 46.0255 56.325 41.5005 56.325C37.3255 56.325 34.6005 54.125 34.3255 51.025H36.6005C37.0005 53.45 39.1505 54.275 41.6005 54.275C44.0755 54.275 45.9755 53.125 45.9755 51.075C45.9755 49.15 44.7005 48.425 42.9505 48.025C42.0505 47.825 40.3005 47.5 39.4255 47.3C36.8255 46.775 35.1005 45.375 35.1005 42.775C35.1005 40 37.3505 37.825 41.3755 37.825C45.0755 37.825 47.4505 39.775 47.8505 42.65H45.5755C45.1505 40.85 43.9255 39.875 41.3255 39.875C39.1755 39.875 37.3755 40.85 37.3755 42.725C37.3755 44.45 38.9005 45 40.4005 45.325ZM54.7021 43.4H57.8771V45.25H54.7021V52.175C54.7021 53.45 55.2521 54.1 56.9521 54.1H57.8771V56H56.9021C54.1771 56 52.5771 55.15 52.5771 52.475V45.25H50.4021V43.4H52.5771V39.6H54.7021V43.4ZM69.3968 56V54.675H68.8468C68.0718 55.65 66.7218 56.325 64.9218 56.325C62.0218 56.325 60.3968 54.375 60.3968 52.225C60.3968 50.2 61.7218 48.05 65.2218 48.05H69.3218V47.55C69.3218 46.025 68.4468 44.925 66.2468 44.925C64.3718 44.925 63.4218 45.65 63.3218 46.75H61.1968C61.3718 44.425 63.3718 43.075 66.1968 43.075C69.3718 43.075 71.3968 44.6 71.3968 47.425V56H69.3968ZM65.4468 54.475C67.5468 54.475 69.3218 52.9 69.3218 50.9V49.75H65.5468C63.4718 49.75 62.5218 50.65 62.5218 52.15C62.5218 53.575 63.5718 54.475 65.4468 54.475ZM83.8128 52.2L85.9378 52.2C85.4628 54.675 83.5628 56.325 80.6378 56.325C76.7128 56.325 74.5128 53.425 74.5128 49.7C74.5128 45.9 76.7128 43.075 80.6378 43.075C83.6378 43.075 85.4378 44.725 85.8628 47.05H83.7378C83.3378 45.775 82.3628 44.925 80.6378 44.925C77.7878 44.925 76.6378 47.15 76.6378 49.65C76.6378 52.175 77.8128 54.475 80.6378 54.475C82.4378 54.475 83.4878 53.6 83.8128 52.2ZM100.556 56H98.2812L94.6812 49.15H94.1312L91.2312 52.35V56H89.1062V37.825H91.2312V49.725L97.1812 43.4H99.7062L96.0812 47.275L100.556 56ZM32.4114 86L30.5614 80.525L22.7364 80.525L20.8864 86H18.5864L24.7614 68.15H28.5614L34.7614 86H32.4114ZM26.1364 70.45L23.4114 78.475H29.8614L27.1364 70.45H26.1364ZM46.4495 67.825H48.5745L48.5745 86H46.5245V84.65H45.9745C45.2745 85.525 44.0495 86.325 42.0495 86.325C38.5745 86.325 36.5245 83.425 36.5245 79.7C36.5245 75.9 38.5745 73.075 42.0495 73.075C44.0495 73.075 45.1995 73.85 45.8995 74.75H46.4495V67.825ZM42.5245 84.475C45.3245 84.475 46.4745 82.175 46.4745 79.7C46.4745 77.225 45.3245 74.925 42.5245 74.925C39.9995 74.925 38.6495 76.9 38.6495 79.7C38.6495 82.5 39.9995 84.475 42.5245 84.475ZM61.8304 67.825H63.9554L63.9554 86H61.9054V84.65H61.3554C60.6554 85.525 59.4304 86.325 57.4304 86.325C53.9554 86.325 51.9054 83.425 51.9054 79.7C51.9054 75.9 53.9554 73.075 57.4304 73.075C59.4304 73.075 60.5804 73.85 61.2804 74.75H61.8304V67.825ZM57.9054 84.475C60.7054 84.475 61.8554 82.175 61.8554 79.7C61.8554 77.225 60.7054 74.925 57.9054 74.925C55.3804 74.925 54.0304 76.9 54.0304 79.7C54.0304 82.5 55.3804 84.475 57.9054 84.475ZM75.2612 73.4V75.4L74.2112 75.4C71.7112 75.4 70.1862 76.925 70.1862 79.7V86H68.0612L68.0612 73.4H70.1112V74.9H70.6612C71.2862 74.125 72.4862 73.4 74.3112 73.4L75.2612 73.4ZM88.9716 78.95V79.675H79.3716C79.4466 82.675 80.7966 84.475 83.3966 84.475C85.1716 84.475 86.2216 83.725 86.5966 82.525H88.7466C88.3466 84.675 86.5216 86.325 83.3966 86.325C79.4716 86.325 77.2716 83.45 77.2716 79.575C77.2716 75.7 79.5216 73.075 83.3466 73.075C87.0966 73.075 88.8966 75.85 88.9716 78.95ZM83.2966 74.925C81.0216 74.925 79.7716 76.3 79.4966 77.9H86.7716C86.6466 76.3 85.4216 74.925 83.2966 74.925ZM95.78 78.15L96.98 78.35L98.405 78.575C100.605 78.95 102.005 80.075 102.005 82.375C102.005 84.45 100.23 86.325 96.83 86.325C93.255 86.325 91.505 84.75 91.23 82.35H93.38C93.58 83.775 94.83 84.475 96.73 84.475C98.63 84.475 99.88 83.8 99.88 82.425C99.88 81.325 99.18 80.725 97.58 80.45L94.755 79.975C92.955 79.65 91.73 78.7 91.73 76.8C91.73 74.7 93.305 73.075 96.705 73.075C99.68 73.075 101.405 74.475 101.68 76.675H99.555C99.38 75.475 98.18 74.925 96.605 74.925C94.98 74.925 93.88 75.525 93.88 76.6C93.88 77.575 94.505 77.95 95.78 78.15ZM108.622 78.15L109.822 78.35L111.247 78.575C113.447 78.95 114.847 80.075 114.847 82.375C114.847 84.45 113.072 86.325 109.672 86.325C106.097 86.325 104.347 84.75 104.072 82.35H106.222C106.422 83.775 107.672 84.475 109.572 84.475C111.472 84.475 112.722 83.8 112.722 82.425C112.722 81.325 112.022 80.725 110.422 80.45L107.597 79.975C105.797 79.65 104.572 78.7 104.572 76.8C104.572 74.7 106.147 73.075 109.547 73.075C112.522 73.075 114.247 74.475 114.522 76.675H112.397C112.222 75.475 111.022 74.925 109.447 74.925C107.822 74.925 106.722 75.525 106.722 76.6C106.722 77.575 107.347 77.95 108.622 78.15ZM37.2999 105.325C38.0749 105.45 39.7499 105.8 40.6749 106C43.3499 106.6 45.1499 107.975 45.1499 111.025C45.1499 113.825 42.9249 116.325 38.3999 116.325C34.2249 116.325 31.4999 114.125 31.2249 111.025H33.4999C33.8999 113.45 36.0499 114.275 38.4999 114.275C40.9749 114.275 42.8749 113.125 42.8749 111.075C42.8749 109.15 41.5999 108.425 39.8499 108.025C38.9499 107.825 37.1999 107.5 36.3249 107.3C33.7249 106.775 31.9999 105.375 31.9999 102.775C31.9999 100 34.2499 97.825 38.2749 97.825C41.9749 97.825 44.3499 99.775 44.7499 102.65H42.4749C42.0499 100.85 40.8249 99.875 38.2249 99.875C36.0749 99.875 34.2749 100.85 34.2749 102.725C34.2749 104.45 35.7999 105 37.2999 105.325ZM54.7265 104.925C51.9265 104.925 50.7765 107.225 50.7765 109.7C50.7765 112.175 51.9265 114.475 54.7265 114.475C57.2515 114.475 58.6015 112.5 58.6015 109.7C58.6015 106.9 57.2515 104.925 54.7265 104.925ZM48.6765 103.4H50.7265V104.75H51.2765C51.9765 103.875 53.2015 103.075 55.2015 103.075C58.6765 103.075 60.7265 105.975 60.7265 109.7C60.7265 113.5 58.6765 116.325 55.2015 116.325C53.2015 116.325 52.0265 115.55 51.3515 114.65H50.8015V121H48.6765V103.4ZM72.0823 116V114.675H71.5323C70.7573 115.65 69.4073 116.325 67.6073 116.325C64.7073 116.325 63.0823 114.375 63.0823 112.225C63.0823 110.2 64.4073 108.05 67.9073 108.05H72.0073V107.55C72.0073 106.025 71.1323 104.925 68.9323 104.925C67.0573 104.925 66.1073 105.65 66.0073 106.75H63.8823C64.0573 104.425 66.0573 103.075 68.8823 103.075C72.0573 103.075 74.0823 104.6 74.0823 107.425V116H72.0823ZM68.1323 114.475C70.2323 114.475 72.0073 112.9 72.0073 110.9V109.75H68.2323C66.1573 109.75 65.2073 110.65 65.2073 112.15C65.2073 113.575 66.2573 114.475 68.1323 114.475ZM86.4983 112.2H88.6233C88.1483 114.675 86.2483 116.325 83.3233 116.325C79.3983 116.325 77.1983 113.425 77.1983 109.7C77.1983 105.9 79.3983 103.075 83.3233 103.075C86.3233 103.075 88.1233 104.725 88.5483 107.05H86.4233C86.0233 105.775 85.0483 104.925 83.3233 104.925C80.4733 104.925 79.3233 107.15 79.3233 109.65C79.3233 112.175 80.4983 114.475 83.3233 114.475C85.1233 114.475 86.1733 113.6 86.4983 112.2ZM102.717 108.95V109.675L93.1167 109.675C93.1917 112.675 94.5417 114.475 97.1417 114.475C98.9167 114.475 99.9667 113.725 100.342 112.525H102.492C102.092 114.675 100.267 116.325 97.1417 116.325C93.2167 116.325 91.0167 113.45 91.0167 109.575C91.0167 105.7 93.2667 103.075 97.0917 103.075C100.842 103.075 102.642 105.85 102.717 108.95ZM97.0417 104.925C94.7667 104.925 93.5167 106.3 93.2417 107.9L100.517 107.9C100.392 106.3 99.1667 104.925 97.0417 104.925Z" fill="#274867"/>
<path d="M50.2256 264.15H52.4756V282H50.2256V273.85H40.2506V282H38.0006V264.15H40.2506V271.75H50.2256V264.15ZM67.7191 274.95V275.675H58.1191C58.1941 278.675 59.5441 280.475 62.1441 280.475C63.9191 280.475 64.9691 279.725 65.3441 278.525H67.4941C67.0941 280.675 65.2691 282.325 62.1441 282.325C58.2191 282.325 56.0191 279.45 56.0191 275.575C56.0191 271.7 58.2691 269.075 62.0941 269.075C65.8441 269.075 67.6441 271.85 67.7191 274.95ZM62.0441 270.925C59.7691 270.925 58.5191 272.3 58.2441 273.9H65.5191C65.3941 272.3 64.1691 270.925 62.0441 270.925ZM79.0525 282V280.675H78.5025C77.7275 281.65 76.3775 282.325 74.5775 282.325C71.6775 282.325 70.0525 280.375 70.0525 278.225C70.0525 276.2 71.3775 274.05 74.8775 274.05H78.9775V273.55C78.9775 272.025 78.1025 270.925 75.9025 270.925C74.0275 270.925 73.0775 271.65 72.9775 272.75H70.8525C71.0275 270.425 73.0275 269.075 75.8525 269.075C79.0275 269.075 81.0525 270.6 81.0525 273.425V282H79.0525ZM75.1025 280.475C77.2025 280.475 78.9775 278.9 78.9775 276.9V275.75H75.2025C73.1275 275.75 72.1775 276.65 72.1775 278.15C72.1775 279.575 73.2275 280.475 75.1025 280.475ZM90.9936 270.925C88.1936 270.925 87.0436 273.225 87.0436 275.7C87.0436 278.175 88.1936 280.475 90.9936 280.475C93.5186 280.475 94.8686 278.5 94.8686 275.7C94.8686 272.9 93.5186 270.925 90.9936 270.925ZM84.9436 269.4H86.9936V270.75H87.5436C88.2436 269.875 89.4686 269.075 91.4686 269.075C94.9436 269.075 96.9936 271.975 96.9936 275.7C96.9936 279.5 94.9436 282.325 91.4686 282.325C89.4686 282.325 88.2936 281.55 87.6186 280.65H87.0686V287H84.9436V269.4ZM32.4114 312L30.5614 306.525H22.7364L20.8864 312H18.5864L24.7614 294.15H28.5614L34.7614 312H32.4114ZM26.1364 296.45L23.4114 304.475H29.8614L27.1364 296.45H26.1364ZM46.4495 293.825H48.5745L48.5745 312H46.5245V310.65H45.9745C45.2745 311.525 44.0495 312.325 42.0495 312.325C38.5745 312.325 36.5245 309.425 36.5245 305.7C36.5245 301.9 38.5745 299.075 42.0495 299.075C44.0495 299.075 45.1995 299.85 45.8995 300.75H46.4495V293.825ZM42.5245 310.475C45.3245 310.475 46.4745 308.175 46.4745 305.7C46.4745 303.225 45.3245 300.925 42.5245 300.925C39.9995 300.925 38.6495 302.9 38.6495 305.7C38.6495 308.5 39.9995 310.475 42.5245 310.475ZM61.8304 293.825H63.9554L63.9554 312H61.9054V310.65H61.3554C60.6554 311.525 59.4304 312.325 57.4304 312.325C53.9554 312.325 51.9054 309.425 51.9054 305.7C51.9054 301.9 53.9554 299.075 57.4304 299.075C59.4304 299.075 60.5804 299.85 61.2804 300.75H61.8304V293.825ZM57.9054 310.475C60.7054 310.475 61.8554 308.175 61.8554 305.7C61.8554 303.225 60.7054 300.925 57.9054 300.925C55.3804 300.925 54.0304 302.9 54.0304 305.7C54.0304 308.5 55.3804 310.475 57.9054 310.475ZM75.2612 299.4V301.4H74.2112C71.7112 301.4 70.1862 302.925 70.1862 305.7V312H68.0612L68.0612 299.4H70.1112V300.9H70.6612C71.2862 300.125 72.4862 299.4 74.3112 299.4H75.2612ZM88.9716 304.95V305.675H79.3716C79.4466 308.675 80.7966 310.475 83.3966 310.475C85.1716 310.475 86.2216 309.725 86.5966 308.525H88.7466C88.3466 310.675 86.5216 312.325 83.3966 312.325C79.4716 312.325 77.2716 309.45 77.2716 305.575C77.2716 301.7 79.5216 299.075 83.3466 299.075C87.0966 299.075 88.8966 301.85 88.9716 304.95ZM83.2966 300.925C81.0216 300.925 79.7716 302.3 79.4966 303.9H86.7716C86.6466 302.3 85.4216 300.925 83.2966 300.925ZM95.78 304.15L96.98 304.35L98.405 304.575C100.605 304.95 102.005 306.075 102.005 308.375C102.005 310.45 100.23 312.325 96.83 312.325C93.255 312.325 91.505 310.75 91.23 308.35H93.38C93.58 309.775 94.83 310.475 96.73 310.475C98.63 310.475 99.88 309.8 99.88 308.425C99.88 307.325 99.18 306.725 97.58 306.45L94.755 305.975C92.955 305.65 91.73 304.7 91.73 302.8C91.73 300.7 93.305 299.075 96.705 299.075C99.68 299.075 101.405 300.475 101.68 302.675H99.555C99.38 301.475 98.18 300.925 96.605 300.925C94.98 300.925 93.88 301.525 93.88 302.6C93.88 303.575 94.505 303.95 95.78 304.15ZM108.622 304.15L109.822 304.35L111.247 304.575C113.447 304.95 114.847 306.075 114.847 308.375C114.847 310.45 113.072 312.325 109.672 312.325C106.097 312.325 104.347 310.75 104.072 308.35H106.222C106.422 309.775 107.672 310.475 109.572 310.475C111.472 310.475 112.722 309.8 112.722 308.425C112.722 307.325 112.022 306.725 110.422 306.45L107.597 305.975C105.797 305.65 104.572 304.7 104.572 302.8C104.572 300.7 106.147 299.075 109.547 299.075C112.522 299.075 114.247 300.475 114.522 302.675H112.397C112.222 301.475 111.022 300.925 109.447 300.925C107.822 300.925 106.722 301.525 106.722 302.6C106.722 303.575 107.347 303.95 108.622 304.15ZM37.2999 331.325C38.0749 331.45 39.7499 331.8 40.6749 332C43.3499 332.6 45.1499 333.975 45.1499 337.025C45.1499 339.825 42.9249 342.325 38.3999 342.325C34.2249 342.325 31.4999 340.125 31.2249 337.025H33.4999C33.8999 339.45 36.0499 340.275 38.4999 340.275C40.9749 340.275 42.8749 339.125 42.8749 337.075C42.8749 335.15 41.5999 334.425 39.8499 334.025C38.9499 333.825 37.1999 333.5 36.3249 333.3C33.7249 332.775 31.9999 331.375 31.9999 328.775C31.9999 326 34.2499 323.825 38.2749 323.825C41.9749 323.825 44.3499 325.775 44.7499 328.65H42.4749C42.0499 326.85 40.8249 325.875 38.2249 325.875C36.0749 325.875 34.2749 326.85 34.2749 328.725C34.2749 330.45 35.7999 331 37.2999 331.325ZM54.7265 330.925C51.9265 330.925 50.7765 333.225 50.7765 335.7C50.7765 338.175 51.9265 340.475 54.7265 340.475C57.2515 340.475 58.6015 338.5 58.6015 335.7C58.6015 332.9 57.2515 330.925 54.7265 330.925ZM48.6765 329.4H50.7265V330.75H51.2765C51.9765 329.875 53.2015 329.075 55.2015 329.075C58.6765 329.075 60.7265 331.975 60.7265 335.7C60.7265 339.5 58.6765 342.325 55.2015 342.325C53.2015 342.325 52.0265 341.55 51.3515 340.65H50.8015V347H48.6765V329.4ZM72.0823 342V340.675H71.5323C70.7573 341.65 69.4073 342.325 67.6073 342.325C64.7073 342.325 63.0823 340.375 63.0823 338.225C63.0823 336.2 64.4073 334.05 67.9073 334.05H72.0073V333.55C72.0073 332.025 71.1323 330.925 68.9323 330.925C67.0573 330.925 66.1073 331.65 66.0073 332.75H63.8823C64.0573 330.425 66.0573 329.075 68.8823 329.075C72.0573 329.075 74.0823 330.6 74.0823 333.425V342H72.0823ZM68.1323 340.475C70.2323 340.475 72.0073 338.9 72.0073 336.9V335.75H68.2323C66.1573 335.75 65.2073 336.65 65.2073 338.15C65.2073 339.575 66.2573 340.475 68.1323 340.475ZM86.4983 338.2H88.6233C88.1483 340.675 86.2483 342.325 83.3233 342.325C79.3983 342.325 77.1983 339.425 77.1983 335.7C77.1983 331.9 79.3983 329.075 83.3233 329.075C86.3233 329.075 88.1233 330.725 88.5483 333.05H86.4233C86.0233 331.775 85.0483 330.925 83.3233 330.925C80.4733 330.925 79.3233 333.15 79.3233 335.65C79.3233 338.175 80.4983 340.475 83.3233 340.475C85.1233 340.475 86.1733 339.6 86.4983 338.2ZM102.717 334.95V335.675H93.1167C93.1917 338.675 94.5417 340.475 97.1417 340.475C98.9167 340.475 99.9667 339.725 100.342 338.525H102.492C102.092 340.675 100.267 342.325 97.1417 342.325C93.2167 342.325 91.0167 339.45 91.0167 335.575C91.0167 331.7 93.2667 329.075 97.0917 329.075C100.842 329.075 102.642 331.85 102.717 334.95ZM97.0417 330.925C94.7667 330.925 93.5167 332.3 93.2417 333.9H100.517C100.392 332.3 99.1667 330.925 97.0417 330.925Z" fill="#274867"/>
<path d="M41.2721 450.15H47.9471C53.4221 450.15 56.1971 453.7 56.1971 459.075C56.1971 464.425 53.4221 468 47.9471 468H41.2721V450.15ZM43.5221 465.95H47.9471C52.2721 465.95 53.9221 462.8 53.9221 459.075C53.9221 455.35 52.2721 452.2 47.9471 452.2H43.5221V465.95ZM67.6512 468V466.675H67.1012C66.3262 467.65 64.9762 468.325 63.1762 468.325C60.2762 468.325 58.6512 466.375 58.6512 464.225C58.6512 462.2 59.9762 460.05 63.4762 460.05H67.5762V459.55C67.5762 458.025 66.7012 456.925 64.5012 456.925C62.6262 456.925 61.6762 457.65 61.5762 458.75H59.4512C59.6262 456.425 61.6262 455.075 64.4512 455.075C67.6262 455.075 69.6512 456.6 69.6512 459.425V468H67.6512ZM63.7012 466.475C65.8012 466.475 67.5762 464.9 67.5762 462.9V461.75H63.8012C61.7262 461.75 60.7762 462.65 60.7762 464.15C60.7762 465.575 61.8262 466.475 63.7012 466.475ZM76.4672 455.4H79.6422V457.25H76.4672V464.175C76.4672 465.45 77.0172 466.1 78.7172 466.1H79.6422V468H78.6672C75.9422 468 74.3422 467.15 74.3422 464.475V457.25H72.1672V455.4H74.3422V451.6H76.4672V455.4ZM91.1619 468V466.675H90.6119C89.8369 467.65 88.4869 468.325 86.6869 468.325C83.7869 468.325 82.1619 466.375 82.1619 464.225C82.1619 462.2 83.4869 460.05 86.9869 460.05H91.0869V459.55C91.0869 458.025 90.2119 456.925 88.0119 456.925C86.1369 456.925 85.1869 457.65 85.0869 458.75H82.9619C83.1369 456.425 85.1369 455.075 87.9619 455.075C91.1369 455.075 93.1619 456.6 93.1619 459.425V468H91.1619ZM87.2119 466.475C89.3119 466.475 91.0869 464.9 91.0869 462.9V461.75H87.3119C85.2369 461.75 84.2869 462.65 84.2869 464.15C84.2869 465.575 85.3369 466.475 87.2119 466.475ZM21.0768 487.325C21.8518 487.45 23.5268 487.8 24.4518 488C27.1268 488.6 28.9268 489.975 28.9268 493.025C28.9268 495.825 26.7018 498.325 22.1768 498.325C18.0018 498.325 15.2768 496.125 15.0018 493.025H17.2768C17.6768 495.45 19.8268 496.275 22.2768 496.275C24.7518 496.275 26.6518 495.125 26.6518 493.075C26.6518 491.15 25.3768 490.425 23.6268 490.025C22.7268 489.825 20.9768 489.5 20.1018 489.3C17.5018 488.775 15.7768 487.375 15.7768 484.775C15.7768 482 18.0268 479.825 22.0518 479.825C25.7518 479.825 28.1268 481.775 28.5268 484.65H26.2518C25.8268 482.85 24.6018 481.875 22.0018 481.875C19.8518 481.875 18.0518 482.85 18.0518 484.725C18.0518 486.45 19.5768 487 21.0768 487.325ZM43.3783 490.95V491.675H33.7783C33.8533 494.675 35.2033 496.475 37.8033 496.475C39.5783 496.475 40.6283 495.725 41.0033 494.525H43.1533C42.7533 496.675 40.9283 498.325 37.8033 498.325C33.8783 498.325 31.6783 495.45 31.6783 491.575C31.6783 487.7 33.9283 485.075 37.7533 485.075C41.5033 485.075 43.3033 487.85 43.3783 490.95ZM37.7033 486.925C35.4283 486.925 34.1783 488.3 33.9033 489.9H41.1783C41.0533 488.3 39.8283 486.925 37.7033 486.925ZM55.9117 485.4H57.9617L57.9617 497.375C57.9617 500.9 55.7617 503.175 52.0867 503.175C48.8617 503.175 46.7617 501.825 46.3867 499.325H48.4867C48.8617 500.825 50.1617 501.375 52.0617 501.375C54.6617 501.375 55.8367 499.8 55.8367 497.275V496.275H55.2867C54.6117 497.15 53.4117 497.95 51.5117 497.95C48.0367 497.95 45.9117 495.2 45.9117 491.525C45.9117 487.825 48.0367 485.075 51.5117 485.075C53.4867 485.075 54.6867 485.875 55.3617 486.75H55.9117V485.4ZM51.9117 496.1C54.6117 496.1 55.8867 493.925 55.8867 491.525C55.8867 489.1 54.6117 486.925 51.9117 486.925C49.4367 486.925 48.0367 488.75 48.0367 491.525C48.0367 494.25 49.4367 496.1 51.9117 496.1ZM75.2926 485.075C78.1926 485.075 79.4426 486.95 79.4426 489.85V498H77.3176V490.075C77.3176 488 76.5176 486.975 74.8926 486.975C72.9176 486.975 71.8176 488.5 71.8176 490.625V498H69.6926V490.125C69.6926 488.05 68.8676 486.975 67.2926 486.975C65.1926 486.975 64.1926 488.75 64.1926 491.025V498H62.0676L62.0676 485.4H64.1176V486.625H64.6676C65.2926 485.65 66.2676 485.075 67.8676 485.075C69.3926 485.075 70.5176 485.625 71.1926 486.75H71.7426C72.5176 485.625 73.7176 485.075 75.2926 485.075ZM94.2572 490.95V491.675H84.6572C84.7322 494.675 86.0822 496.475 88.6822 496.475C90.4572 496.475 91.5072 495.725 91.8822 494.525H94.0322C93.6322 496.675 91.8072 498.325 88.6822 498.325C84.7572 498.325 82.5572 495.45 82.5572 491.575C82.5572 487.7 84.8072 485.075 88.6322 485.075C92.3822 485.075 94.1822 487.85 94.2572 490.95ZM88.5822 486.925C86.3072 486.925 85.0572 488.3 84.7822 489.9H92.0572C91.9322 488.3 90.7072 486.925 88.5822 486.925ZM108.766 498H106.641V490.45C106.641 488.125 105.566 486.975 103.441 486.975C101.191 486.975 99.6906 488.95 99.6906 491.175V498H97.5656V485.4H99.6156V486.75H100.166C100.866 485.775 102.266 485.075 103.966 485.075C107.066 485.075 108.766 486.975 108.766 490V498ZM115.579 485.4H118.754V487.25H115.579V494.175C115.579 495.45 116.129 496.1 117.829 496.1H118.754V498H117.779C115.054 498 113.454 497.15 113.454 494.475V487.25H111.279V485.4H113.454V481.6H115.579V485.4Z" fill="#274867"/>
<path d="M321.226 347.15H323.476V365H321.226V356.85H311.251V365H309.001V347.15H311.251V354.75H321.226V347.15ZM338.719 357.95V358.675H329.119C329.194 361.675 330.544 363.475 333.144 363.475C334.919 363.475 335.969 362.725 336.344 361.525H338.494C338.094 363.675 336.269 365.325 333.144 365.325C329.219 365.325 327.019 362.45 327.019 358.575C327.019 354.7 329.269 352.075 333.094 352.075C336.844 352.075 338.644 354.85 338.719 357.95ZM333.044 353.925C330.769 353.925 329.519 355.3 329.244 356.9H336.519C336.394 355.3 335.169 353.925 333.044 353.925ZM350.053 365V363.675H349.503C348.728 364.65 347.378 365.325 345.578 365.325C342.678 365.325 341.053 363.375 341.053 361.225C341.053 359.2 342.378 357.05 345.878 357.05H349.978V356.55C349.978 355.025 349.103 353.925 346.903 353.925C345.028 353.925 344.078 354.65 343.978 355.75H341.853C342.028 353.425 344.028 352.075 346.853 352.075C350.028 352.075 352.053 353.6 352.053 356.425V365H350.053ZM346.103 363.475C348.203 363.475 349.978 361.9 349.978 359.9V358.75H346.203C344.128 358.75 343.178 359.65 343.178 361.15C343.178 362.575 344.228 363.475 346.103 363.475ZM361.994 353.925C359.194 353.925 358.044 356.225 358.044 358.7C358.044 361.175 359.194 363.475 361.994 363.475C364.519 363.475 365.869 361.5 365.869 358.7C365.869 355.9 364.519 353.925 361.994 353.925ZM355.944 352.4H357.994V353.75H358.544C359.244 352.875 360.469 352.075 362.469 352.075C365.944 352.075 367.994 354.975 367.994 358.7C367.994 362.5 365.944 365.325 362.469 365.325C360.469 365.325 359.294 364.55 358.619 363.65H358.069V370H355.944V352.4Z" fill="white"/>
<path d="M247.899 413.15H250.149V424.625C250.149 428.85 247.699 431.325 243.124 431.325C238.549 431.325 236.099 428.85 236.099 424.625V413.15H238.349V424.6C238.349 427.4 239.999 429.275 243.124 429.275C246.249 429.275 247.899 427.4 247.899 424.6V413.15ZM265.629 431H263.504V423.45C263.504 421.125 262.429 419.975 260.304 419.975C258.054 419.975 256.554 421.95 256.554 424.175V431H254.429V418.4H256.479V419.75H257.029C257.729 418.775 259.129 418.075 260.829 418.075C263.929 418.075 265.629 419.975 265.629 423V431ZM271.767 415.125H269.517V412.825H271.767V415.125ZM271.692 418.4V431H269.567V418.4H271.692ZM287.065 431H284.94V423.45C284.94 421.125 283.865 419.975 281.74 419.975C279.49 419.975 277.99 421.95 277.99 424.175V431H275.865V418.4H277.915V419.75H278.465C279.165 418.775 280.565 418.075 282.265 418.075C285.365 418.075 287.065 419.975 287.065 423V431ZM293.203 415.125H290.953V412.825H293.203V415.125ZM293.128 418.4V431H291.003V418.4H293.128ZM300.225 418.4H303.4V420.25H300.225V427.175C300.225 428.45 300.775 429.1 302.475 429.1H303.4V431H302.425C299.7 431 298.1 430.15 298.1 427.475V420.25H295.925V418.4H298.1V414.6H300.225V418.4ZM309.145 415.125H306.895V412.825H309.145V415.125ZM309.07 418.4V431H306.945V418.4H309.07ZM321.268 431V429.675H320.718C319.943 430.65 318.593 431.325 316.793 431.325C313.893 431.325 312.268 429.375 312.268 427.225C312.268 425.2 313.593 423.05 317.093 423.05H321.193V422.55C321.193 421.025 320.318 419.925 318.118 419.925C316.243 419.925 315.293 420.65 315.193 421.75H313.068C313.243 419.425 315.243 418.075 318.068 418.075C321.243 418.075 323.268 419.6 323.268 422.425V431H321.268ZM317.318 429.475C319.418 429.475 321.193 427.9 321.193 425.9V424.75H317.418C315.343 424.75 314.393 425.65 314.393 427.15C314.393 428.575 315.443 429.475 317.318 429.475ZM327.159 412.825H329.284V431H327.159V412.825ZM335.634 415.125H333.384V412.825H335.634V415.125ZM335.559 418.4V431H333.434V418.4H335.559ZM349.357 431H338.882V428.6L346.557 420.775V420.25H339.307V418.4H349.282V420.775L341.632 428.6V429.15H349.357V431ZM363.523 423.95V424.675H353.923C353.998 427.675 355.348 429.475 357.948 429.475C359.723 429.475 360.773 428.725 361.148 427.525H363.298C362.898 429.675 361.073 431.325 357.948 431.325C354.023 431.325 351.823 428.45 351.823 424.575C351.823 420.7 354.073 418.075 357.898 418.075C361.648 418.075 363.448 420.85 363.523 423.95ZM357.848 419.925C355.573 419.925 354.323 421.3 354.048 422.9H361.323C361.198 421.3 359.973 419.925 357.848 419.925ZM375.982 412.825H378.107V431H376.057V429.65H375.507C374.807 430.525 373.582 431.325 371.582 431.325C368.107 431.325 366.057 428.425 366.057 424.7C366.057 420.9 368.107 418.075 371.582 418.075C373.582 418.075 374.732 418.85 375.432 419.75H375.982V412.825ZM372.057 429.475C374.857 429.475 376.007 427.175 376.007 424.7C376.007 422.225 374.857 419.925 372.057 419.925C369.532 419.925 368.182 421.9 368.182 424.7C368.182 427.5 369.532 429.475 372.057 429.475ZM389.396 413.15H396.071C401.546 413.15 404.321 416.7 404.321 422.075C404.321 427.425 401.546 431 396.071 431H389.396V413.15ZM391.646 428.95H396.071C400.396 428.95 402.046 425.8 402.046 422.075C402.046 418.35 400.396 415.2 396.071 415.2H391.646V428.95ZM415.775 431V429.675H415.225C414.45 430.65 413.1 431.325 411.3 431.325C408.4 431.325 406.775 429.375 406.775 427.225C406.775 425.2 408.1 423.05 411.6 423.05H415.7V422.55C415.7 421.025 414.825 419.925 412.625 419.925C410.75 419.925 409.8 420.65 409.7 421.75H407.575C407.75 419.425 409.75 418.075 412.575 418.075C415.75 418.075 417.775 419.6 417.775 422.425V431H415.775ZM411.825 429.475C413.925 429.475 415.7 427.9 415.7 425.9V424.75H411.925C409.85 424.75 408.9 425.65 408.9 427.15C408.9 428.575 409.95 429.475 411.825 429.475ZM424.591 418.4H427.766V420.25H424.591V427.175C424.591 428.45 425.141 429.1 426.841 429.1H427.766V431H426.791C424.066 431 422.466 430.15 422.466 427.475V420.25H420.291V418.4H422.466V414.6H424.591V418.4ZM439.285 431V429.675H438.735C437.96 430.65 436.61 431.325 434.81 431.325C431.91 431.325 430.285 429.375 430.285 427.225C430.285 425.2 431.61 423.05 435.11 423.05H439.21V422.55C439.21 421.025 438.335 419.925 436.135 419.925C434.26 419.925 433.31 420.65 433.21 421.75H431.085C431.26 419.425 433.26 418.075 436.085 418.075C439.26 418.075 441.285 419.6 441.285 422.425V431H439.285ZM435.335 429.475C437.435 429.475 439.21 427.9 439.21 425.9V424.75H435.435C433.36 424.75 432.41 425.65 432.41 427.15C432.41 428.575 433.46 429.475 435.335 429.475ZM263.732 450.325C264.507 450.45 266.182 450.8 267.107 451C269.782 451.6 271.582 452.975 271.582 456.025C271.582 458.825 269.357 461.325 264.832 461.325C260.657 461.325 257.932 459.125 257.657 456.025H259.932C260.332 458.45 262.482 459.275 264.932 459.275C267.407 459.275 269.307 458.125 269.307 456.075C269.307 454.15 268.032 453.425 266.282 453.025C265.382 452.825 263.632 452.5 262.757 452.3C260.157 451.775 258.432 450.375 258.432 447.775C258.432 445 260.682 442.825 264.707 442.825C268.407 442.825 270.782 444.775 271.182 447.65H268.907C268.482 445.85 267.257 444.875 264.657 444.875C262.507 444.875 260.707 445.85 260.707 447.725C260.707 449.45 262.232 450 263.732 450.325ZM286.033 453.95V454.675H276.433C276.508 457.675 277.858 459.475 280.458 459.475C282.233 459.475 283.283 458.725 283.658 457.525H285.808C285.408 459.675 283.583 461.325 280.458 461.325C276.533 461.325 274.333 458.45 274.333 454.575C274.333 450.7 276.583 448.075 280.408 448.075C284.158 448.075 285.958 450.85 286.033 453.95ZM280.358 449.925C278.083 449.925 276.833 451.3 276.558 452.9H283.833C283.708 451.3 282.483 449.925 280.358 449.925ZM298.567 448.4H300.617V460.375C300.617 463.9 298.417 466.175 294.742 466.175C291.517 466.175 289.417 464.825 289.042 462.325H291.142C291.517 463.825 292.817 464.375 294.717 464.375C297.317 464.375 298.492 462.8 298.492 460.275V459.275H297.942C297.267 460.15 296.067 460.95 294.167 460.95C290.692 460.95 288.567 458.2 288.567 454.525C288.567 450.825 290.692 448.075 294.167 448.075C296.142 448.075 297.342 448.875 298.017 449.75H298.567V448.4ZM294.567 459.1C297.267 459.1 298.542 456.925 298.542 454.525C298.542 452.1 297.267 449.925 294.567 449.925C292.092 449.925 290.692 451.75 290.692 454.525C290.692 457.25 292.092 459.1 294.567 459.1ZM317.947 448.075C320.847 448.075 322.097 449.95 322.097 452.85V461H319.972V453.075C319.972 451 319.172 449.975 317.547 449.975C315.572 449.975 314.472 451.5 314.472 453.625V461H312.347V453.125C312.347 451.05 311.522 449.975 309.947 449.975C307.847 449.975 306.847 451.75 306.847 454.025V461H304.722V448.4H306.772V449.625H307.322C307.947 448.65 308.922 448.075 310.522 448.075C312.047 448.075 313.172 448.625 313.847 449.75H314.397C315.172 448.625 316.372 448.075 317.947 448.075ZM336.912 453.95V454.675H327.312C327.387 457.675 328.737 459.475 331.337 459.475C333.112 459.475 334.162 458.725 334.537 457.525H336.687C336.287 459.675 334.462 461.325 331.337 461.325C327.412 461.325 325.212 458.45 325.212 454.575C325.212 450.7 327.462 448.075 331.287 448.075C335.037 448.075 336.837 450.85 336.912 453.95ZM331.237 449.925C328.962 449.925 327.712 451.3 327.437 452.9H334.712C334.587 451.3 333.362 449.925 331.237 449.925ZM351.42 461H349.295V453.45C349.295 451.125 348.22 449.975 346.095 449.975C343.845 449.975 342.345 451.95 342.345 454.175V461H340.22V448.4H342.27V449.75H342.82C343.52 448.775 344.92 448.075 346.62 448.075C349.72 448.075 351.42 449.975 351.42 453V461ZM358.233 448.4H361.408V450.25H358.233V457.175C358.233 458.45 358.783 459.1 360.483 459.1H361.408V461H360.433C357.708 461 356.108 460.15 356.108 457.475V450.25H353.933V448.4H356.108V444.6H358.233V448.4ZM383.611 451.3V451.85C385.111 452.55 386.111 454.15 386.111 455.975C386.111 458.825 384.136 461 380.061 461H372.086V443.15H379.861C383.636 443.15 385.561 445.225 385.561 447.675C385.561 449.275 384.911 450.6 383.611 451.3ZM374.336 445.15V450.725H379.811C381.786 450.725 383.286 450.075 383.286 447.875C383.286 445.85 381.561 445.15 379.761 445.15H374.336ZM374.336 459H379.911C381.936 459 383.836 458.275 383.836 455.8C383.836 453.5 382.036 452.7 379.936 452.7H374.336V459ZM394.615 450.325C395.39 450.45 397.065 450.8 397.99 451C400.665 451.6 402.465 452.975 402.465 456.025C402.465 458.825 400.24 461.325 395.715 461.325C391.54 461.325 388.815 459.125 388.54 456.025L390.815 456.025C391.215 458.45 393.365 459.275 395.815 459.275C398.29 459.275 400.19 458.125 400.19 456.075C400.19 454.15 398.915 453.425 397.165 453.025C396.265 452.825 394.515 452.5 393.64 452.3C391.04 451.775 389.315 450.375 389.315 447.775C389.315 445 391.565 442.825 395.59 442.825C399.29 442.825 401.665 444.775 402.065 447.65H399.79C399.365 445.85 398.14 444.875 395.54 444.875C393.39 444.875 391.59 445.85 391.59 447.725C391.59 449.45 393.115 450 394.615 450.325ZM411.217 450.325C411.992 450.45 413.667 450.8 414.592 451C417.267 451.6 419.067 452.975 419.067 456.025C419.067 458.825 416.842 461.325 412.317 461.325C408.142 461.325 405.417 459.125 405.142 456.025H407.417C407.817 458.45 409.967 459.275 412.417 459.275C414.892 459.275 416.792 458.125 416.792 456.075C416.792 454.15 415.517 453.425 413.767 453.025C412.867 452.825 411.117 452.5 410.242 452.3C407.642 451.775 405.917 450.375 405.917 447.775C405.917 445 408.167 442.825 412.192 442.825C415.892 442.825 418.267 444.775 418.667 447.65H416.392C415.967 445.85 414.742 444.875 412.142 444.875C409.992 444.875 408.192 445.85 408.192 447.725C408.192 449.45 409.717 450 411.217 450.325Z" fill="#274867"/>
<path d="M252.217 491.15H254.467V509H252.217V491.15ZM270.146 509H268.021V501.45C268.021 499.125 266.946 497.975 264.821 497.975C262.571 497.975 261.071 499.95 261.071 502.175V509H258.946V496.4H260.996V497.75H261.546C262.246 496.775 263.646 496.075 265.346 496.075C268.446 496.075 270.146 497.975 270.146 501V509ZM276.284 493.125H274.034V490.825H276.284V493.125ZM276.209 496.4V509H274.084V496.4H276.209ZM283.307 496.4H286.482V498.25H283.307V505.175C283.307 506.45 283.857 507.1 285.557 507.1H286.482V509H285.507C282.782 509 281.182 508.15 281.182 505.475V498.25H279.007V496.4H281.182V492.6H283.307V496.4ZM292.227 493.125H289.977V490.825H292.227V493.125ZM292.152 496.4V509H290.027V496.4H292.152ZM304.349 509V507.675H303.799C303.024 508.65 301.674 509.325 299.874 509.325C296.974 509.325 295.349 507.375 295.349 505.225C295.349 503.2 296.674 501.05 300.174 501.05H304.274V500.55C304.274 499.025 303.399 497.925 301.199 497.925C299.324 497.925 298.374 498.65 298.274 499.75H296.149C296.324 497.425 298.324 496.075 301.149 496.075C304.324 496.075 306.349 497.6 306.349 500.425V509H304.349ZM300.399 507.475C302.499 507.475 304.274 505.9 304.274 503.9V502.75H300.499C298.424 502.75 297.474 503.65 297.474 505.15C297.474 506.575 298.524 507.475 300.399 507.475ZM310.24 490.825H312.365V509H310.24V490.825ZM318.716 493.125H316.466V490.825H318.716V493.125ZM318.641 496.4V509H316.516V496.4H318.641ZM332.439 509H321.964V506.6L329.639 498.775V498.25H322.389V496.4H332.364V498.775L324.714 506.6V507.15H332.439V509ZM346.605 501.95V502.675H337.005C337.08 505.675 338.43 507.475 341.03 507.475C342.805 507.475 343.855 506.725 344.23 505.525H346.38C345.98 507.675 344.155 509.325 341.03 509.325C337.105 509.325 334.905 506.45 334.905 502.575C334.905 498.7 337.155 496.075 340.98 496.075C344.73 496.075 346.53 498.85 346.605 501.95ZM340.93 497.925C338.655 497.925 337.405 499.3 337.13 500.9H344.405C344.28 499.3 343.055 497.925 340.93 497.925ZM359.063 490.825H361.188V509H359.138V507.65H358.588C357.888 508.525 356.663 509.325 354.663 509.325C351.188 509.325 349.138 506.425 349.138 502.7C349.138 498.9 351.188 496.075 354.663 496.075C356.663 496.075 357.813 496.85 358.513 497.75H359.063V490.825ZM355.138 507.475C357.938 507.475 359.088 505.175 359.088 502.7C359.088 500.225 357.938 497.925 355.138 497.925C352.613 497.925 351.263 499.9 351.263 502.7C351.263 505.5 352.613 507.475 355.138 507.475ZM372.477 491.15H379.152C384.627 491.15 387.402 494.7 387.402 500.075C387.402 505.425 384.627 509 379.152 509H372.477V491.15ZM374.727 506.95H379.152C383.477 506.95 385.127 503.8 385.127 500.075C385.127 496.35 383.477 493.2 379.152 493.2H374.727V506.95ZM398.856 509V507.675H398.306C397.531 508.65 396.181 509.325 394.381 509.325C391.481 509.325 389.856 507.375 389.856 505.225C389.856 503.2 391.181 501.05 394.681 501.05H398.781V500.55C398.781 499.025 397.906 497.925 395.706 497.925C393.831 497.925 392.881 498.65 392.781 499.75H390.656C390.831 497.425 392.831 496.075 395.656 496.075C398.831 496.075 400.856 497.6 400.856 500.425V509H398.856ZM394.906 507.475C397.006 507.475 398.781 505.9 398.781 503.9V502.75H395.006C392.931 502.75 391.981 503.65 391.981 505.15C391.981 506.575 393.031 507.475 394.906 507.475ZM407.672 496.4H410.847V498.25H407.672V505.175C407.672 506.45 408.222 507.1 409.922 507.1H410.847V509H409.872C407.147 509 405.547 508.15 405.547 505.475V498.25H403.372V496.4H405.547V492.6H407.672V496.4ZM422.367 509V507.675H421.817C421.042 508.65 419.692 509.325 417.892 509.325C414.992 509.325 413.367 507.375 413.367 505.225C413.367 503.2 414.692 501.05 418.192 501.05H422.292V500.55C422.292 499.025 421.417 497.925 419.217 497.925C417.342 497.925 416.392 498.65 416.292 499.75H414.167C414.342 497.425 416.342 496.075 419.167 496.075C422.342 496.075 424.367 497.6 424.367 500.425V509H422.367ZM418.417 507.475C420.517 507.475 422.292 505.9 422.292 503.9V502.75H418.517C416.442 502.75 415.492 503.65 415.492 505.15C415.492 506.575 416.542 507.475 418.417 507.475ZM292.077 528.325C292.852 528.45 294.527 528.8 295.452 529C298.127 529.6 299.927 530.975 299.927 534.025C299.927 536.825 297.702 539.325 293.177 539.325C289.002 539.325 286.277 537.125 286.002 534.025H288.277C288.677 536.45 290.827 537.275 293.277 537.275C295.752 537.275 297.652 536.125 297.652 534.075C297.652 532.15 296.377 531.425 294.627 531.025C293.727 530.825 291.977 530.5 291.102 530.3C288.502 529.775 286.777 528.375 286.777 525.775C286.777 523 289.027 520.825 293.052 520.825C296.752 520.825 299.127 522.775 299.527 525.65H297.252C296.827 523.85 295.602 522.875 293.002 522.875C290.852 522.875 289.052 523.85 289.052 525.725C289.052 527.45 290.577 528 292.077 528.325ZM314.378 531.95V532.675H304.778C304.853 535.675 306.203 537.475 308.803 537.475C310.578 537.475 311.628 536.725 312.003 535.525H314.153C313.753 537.675 311.928 539.325 308.803 539.325C304.878 539.325 302.678 536.45 302.678 532.575C302.678 528.7 304.928 526.075 308.753 526.075C312.503 526.075 314.303 528.85 314.378 531.95ZM308.703 527.925C306.428 527.925 305.178 529.3 304.903 530.9H312.178C312.053 529.3 310.828 527.925 308.703 527.925ZM326.912 526.4H328.962V538.375C328.962 541.9 326.762 544.175 323.087 544.175C319.862 544.175 317.762 542.825 317.387 540.325H319.487C319.862 541.825 321.162 542.375 323.062 542.375C325.662 542.375 326.837 540.8 326.837 538.275V537.275H326.287C325.612 538.15 324.412 538.95 322.512 538.95C319.037 538.95 316.912 536.2 316.912 532.525C316.912 528.825 319.037 526.075 322.512 526.075C324.487 526.075 325.687 526.875 326.362 527.75H326.912V526.4ZM322.912 537.1C325.612 537.1 326.887 534.925 326.887 532.525C326.887 530.1 325.612 527.925 322.912 527.925C320.437 527.925 319.037 529.75 319.037 532.525C319.037 535.25 320.437 537.1 322.912 537.1ZM346.293 526.075C349.193 526.075 350.443 527.95 350.443 530.85V539H348.318V531.075C348.318 529 347.518 527.975 345.893 527.975C343.918 527.975 342.818 529.5 342.818 531.625V539H340.693V531.125C340.693 529.05 339.868 527.975 338.293 527.975C336.193 527.975 335.193 529.75 335.193 532.025V539H333.068V526.4H335.118V527.625H335.668C336.293 526.65 337.268 526.075 338.868 526.075C340.393 526.075 341.518 526.625 342.193 527.75H342.743C343.518 526.625 344.718 526.075 346.293 526.075ZM365.257 531.95V532.675H355.657C355.732 535.675 357.082 537.475 359.682 537.475C361.457 537.475 362.507 536.725 362.882 535.525H365.032C364.632 537.675 362.807 539.325 359.682 539.325C355.757 539.325 353.557 536.45 353.557 532.575C353.557 528.7 355.807 526.075 359.632 526.075C363.382 526.075 365.182 528.85 365.257 531.95ZM359.582 527.925C357.307 527.925 356.057 529.3 355.782 530.9H363.057C362.932 529.3 361.707 527.925 359.582 527.925ZM379.766 539H377.641V531.45C377.641 529.125 376.566 527.975 374.441 527.975C372.191 527.975 370.691 529.95 370.691 532.175V539H368.566V526.4H370.616V527.75H371.166C371.866 526.775 373.266 526.075 374.966 526.075C378.066 526.075 379.766 527.975 379.766 531V539ZM386.579 526.4H389.754V528.25H386.579V535.175C386.579 536.45 387.129 537.1 388.829 537.1H389.754V539H388.779C386.054 539 384.454 538.15 384.454 535.475V528.25H382.279V526.4H384.454V522.6H386.579V526.4Z" fill="white"/>
<path d="M264.898 597.925H267.273C266.548 601.1 264.123 603.325 260.198 603.325C254.873 603.325 251.948 599.375 251.948 594.075C251.948 588.775 254.923 584.825 260.223 584.825C263.848 584.825 266.348 586.75 267.073 589.825H264.698C264.023 587.925 262.698 586.875 260.223 586.875C256.073 586.875 254.223 590.3 254.223 594.075C254.223 597.875 256.048 601.275 260.198 601.275C262.698 601.275 264.323 600 264.898 597.925ZM275.992 590.075C279.917 590.075 282.192 592.975 282.192 596.7C282.192 600.425 279.917 603.325 275.992 603.325C272.042 603.325 269.792 600.425 269.792 596.7C269.792 592.975 272.042 590.075 275.992 590.075ZM275.992 601.475C278.767 601.475 280.067 599.175 280.067 596.7C280.067 594.225 278.767 591.925 275.992 591.925C273.192 591.925 271.917 594.225 271.917 596.7C271.917 599.175 273.192 601.475 275.992 601.475ZM294.658 584.825H296.783V603H294.733V601.65H294.183C293.483 602.525 292.258 603.325 290.258 603.325C286.783 603.325 284.733 600.425 284.733 596.7C284.733 592.9 286.783 590.075 290.258 590.075C292.258 590.075 293.408 590.85 294.108 591.75H294.658V584.825ZM290.733 601.475C293.533 601.475 294.683 599.175 294.683 596.7C294.683 594.225 293.533 591.925 290.733 591.925C288.208 591.925 286.858 593.9 286.858 596.7C286.858 599.5 288.208 601.475 290.733 601.475ZM311.814 595.95V596.675H302.214C302.289 599.675 303.639 601.475 306.239 601.475C308.014 601.475 309.064 600.725 309.439 599.525H311.589C311.189 601.675 309.364 603.325 306.239 603.325C302.314 603.325 300.114 600.45 300.114 596.575C300.114 592.7 302.364 590.075 306.189 590.075C309.939 590.075 311.739 592.85 311.814 595.95ZM306.139 591.925C303.864 591.925 302.614 593.3 302.339 594.9H309.614C309.489 593.3 308.264 591.925 306.139 591.925ZM327.306 592.325C328.081 592.45 329.756 592.8 330.681 593C333.356 593.6 335.156 594.975 335.156 598.025C335.156 600.825 332.931 603.325 328.406 603.325C324.231 603.325 321.506 601.125 321.231 598.025H323.506C323.906 600.45 326.056 601.275 328.506 601.275C330.981 601.275 332.881 600.125 332.881 598.075C332.881 596.15 331.606 595.425 329.856 595.025C328.956 594.825 327.206 594.5 326.331 594.3C323.731 593.775 322.006 592.375 322.006 589.775C322.006 587 324.256 584.825 328.281 584.825C331.981 584.825 334.356 586.775 334.756 589.65H332.481C332.056 587.85 330.831 586.875 328.231 586.875C326.081 586.875 324.281 587.85 324.281 589.725C324.281 591.45 325.806 592 327.306 592.325ZM349.607 595.95V596.675H340.007C340.082 599.675 341.432 601.475 344.032 601.475C345.807 601.475 346.857 600.725 347.232 599.525H349.382C348.982 601.675 347.157 603.325 344.032 603.325C340.107 603.325 337.907 600.45 337.907 596.575C337.907 592.7 340.157 590.075 343.982 590.075C347.732 590.075 349.532 592.85 349.607 595.95ZM343.932 591.925C341.657 591.925 340.407 593.3 340.132 594.9H347.407C347.282 593.3 346.057 591.925 343.932 591.925ZM362.141 590.4H364.191V602.375C364.191 605.9 361.991 608.175 358.316 608.175C355.091 608.175 352.991 606.825 352.616 604.325H354.716C355.091 605.825 356.391 606.375 358.291 606.375C360.891 606.375 362.066 604.8 362.066 602.275V601.275H361.516C360.841 602.15 359.641 602.95 357.741 602.95C354.266 602.95 352.141 600.2 352.141 596.525C352.141 592.825 354.266 590.075 357.741 590.075C359.716 590.075 360.916 590.875 361.591 591.75H362.141V590.4ZM358.141 601.1C360.841 601.1 362.116 598.925 362.116 596.525C362.116 594.1 360.841 591.925 358.141 591.925C355.666 591.925 354.266 593.75 354.266 596.525C354.266 599.25 355.666 601.1 358.141 601.1ZM381.522 590.075C384.422 590.075 385.672 591.95 385.672 594.85V603H383.547V595.075C383.547 593 382.747 591.975 381.122 591.975C379.147 591.975 378.047 593.5 378.047 595.625V603H375.922V595.125C375.922 593.05 375.097 591.975 373.522 591.975C371.422 591.975 370.422 593.75 370.422 596.025V603H368.297V590.4H370.347V591.625H370.897C371.522 590.65 372.497 590.075 374.097 590.075C375.622 590.075 376.747 590.625 377.422 591.75H377.972C378.747 590.625 379.947 590.075 381.522 590.075ZM400.486 595.95V596.675H390.886C390.961 599.675 392.311 601.475 394.911 601.475C396.686 601.475 397.736 600.725 398.111 599.525H400.261C399.861 601.675 398.036 603.325 394.911 603.325C390.986 603.325 388.786 600.45 388.786 596.575C388.786 592.7 391.036 590.075 394.861 590.075C398.611 590.075 400.411 592.85 400.486 595.95ZM394.811 591.925C392.536 591.925 391.286 593.3 391.011 594.9H398.286C398.161 593.3 396.936 591.925 394.811 591.925ZM414.995 603H412.87V595.45C412.87 593.125 411.795 591.975 409.67 591.975C407.42 591.975 405.92 593.95 405.92 596.175V603H403.795V590.4H405.845V591.75H406.395C407.095 590.775 408.495 590.075 410.195 590.075C413.295 590.075 414.995 591.975 414.995 595V603ZM421.808 590.4H424.983V592.25H421.808V599.175C421.808 600.45 422.358 601.1 424.058 601.1H424.983V603H424.008C421.283 603 419.683 602.15 419.683 599.475V592.25H417.508V590.4H419.683V586.6H421.808V590.4Z" fill="#274867"/>
<path d="M140 148L140 20" stroke="#274867" stroke-width="2"/>
<path d="M133 28.5996L147.109 28.5996L139.98 12.0007L133 28.5996Z" fill="#274867"/>
<path d="M147.109 136L133 136L140.129 152.599L147.109 136Z" fill="#274867"/>
<path d="M140 381L140 238" stroke="#274867" stroke-width="2"/>
<path d="M133 241.594L147.109 241.594L139.98 224.995L133 241.594Z" fill="#274867"/>
<path d="M147.109 369L133 369L140.129 385.599L147.109 369Z" fill="#274867"/>
<path d="M140 545L140 412" stroke="#274867" stroke-width="2"/>
<path d="M133 415.594L147.109 415.594L139.98 398.995L133 415.594Z" fill="#274867"/>
<path d="M147.109 538L133 538L140.129 554.599L147.109 538Z" fill="#274867"/>
</g>
<defs>
<clipPath id="clip0_192_2334">
<rect width="1474" height="648" fill="white"/>
</clipPath>
</defs>
</svg>
