<svg width="1474" height="846" viewBox="0 0 1474 846" fill="none" xmlns="http://www.w3.org/2000/svg">
<g clip-path="url(#clip0_192_2456)">
<rect width="1474" height="846" fill="white"/>
<rect x="69" y="105" width="464" height="727" stroke="#274867" stroke-width="2"/>
<rect x="588" y="105" width="865" height="727" fill="white" stroke="#274867" stroke-width="2"/>
<line x1="587" y1="274" x2="1454" y2="274" stroke="#274867" stroke-width="4"/>
<line x1="587" y1="192" x2="1454" y2="192" stroke="#274867" stroke-width="2"/>
<line x1="675" y1="106" x2="675" y2="275" stroke="#274867" stroke-width="2"/>
<line x1="762" y1="106" x2="762" y2="275" stroke="#274867" stroke-width="2"/>
<line x1="850" y1="106" x2="850" y2="275" stroke="#274867" stroke-width="2"/>
<line x1="937" y1="106" x2="937" y2="275" stroke="#274867" stroke-width="2"/>
<line x1="1025" y1="106" x2="1025" y2="275" stroke="#274867" stroke-width="2"/>
<line x1="1112" y1="106" x2="1112" y2="275" stroke="#274867" stroke-width="2"/>
<line x1="1199" y1="106" x2="1199" y2="275" stroke="#274867" stroke-width="2"/>
<line x1="1131" y1="362" x2="1131" y2="451" stroke="#274867" stroke-width="2"/>
<line x1="745" y1="362" x2="745" y2="451" stroke="#274867" stroke-width="2"/>
<line x1="1033" y1="552" x2="1033" y2="641" stroke="#274867" stroke-width="2"/>
<line x1="1120" y1="552" x2="1120" y2="641" stroke="#274867" stroke-width="2"/>
<line x1="1109" y1="744" x2="1109" y2="832" stroke="#274867" stroke-width="2"/>
<line x1="1022" y1="744" x2="1022" y2="832" stroke="#274867" stroke-width="2"/>
<line x1="936" y1="744" x2="936" y2="832" stroke="#274867" stroke-width="2"/>
<line x1="850" y1="744" x2="850" y2="832" stroke="#274867" stroke-width="2"/>
<line x1="763" y1="744" x2="763" y2="832" stroke="#274867" stroke-width="2"/>
<line x1="1217" y1="362" x2="1217" y2="451" stroke="#274867" stroke-width="2"/>
<line x1="1302" y1="362" x2="1302" y2="451" stroke="#274867" stroke-width="2"/>
<line x1="1387" y1="362" x2="1387" y2="451" stroke="#274867" stroke-width="2"/>
<line x1="1287" y1="106" x2="1287" y2="275" stroke="#274867" stroke-width="2"/>
<line x1="1374" y1="106" x2="1374" y2="275" stroke="#274867" stroke-width="2"/>
<rect x="1044" y="363" width="343" height="87" stroke="#274867" stroke-width="2"/>
<rect x="676" y="745" width="521" height="87" stroke="#274867" stroke-width="2"/>
<rect x="658" y="363" width="174" height="87" stroke="#274867" stroke-width="2"/>
<rect x="946" y="553" width="260" height="87" stroke="#274867" stroke-width="2"/>
<line x1="937" y1="106" x2="937" y2="191" stroke="#274867" stroke-width="6"/>
<line x1="1287" y1="106" x2="1287" y2="191" stroke="#274867" stroke-width="6"/>
<path d="M800.211 160V157.66H805.191V141.76H804.591L800.181 144.73V141.97L804.561 139H807.831V157.66H812.421V160H800.211Z" fill="#274867"/>
<path d="M1009.78 143.49C1013.26 143.49 1014.76 145.74 1014.76 149.22V159H1012.21V149.49C1012.21 147 1011.25 145.77 1009.3 145.77C1006.93 145.77 1005.61 147.6 1005.61 150.15V159H1003.06V149.55C1003.06 147.06 1002.07 145.77 1000.18 145.77C997.66 145.77 996.46 147.9 996.46 150.63V159H993.91V143.88H996.37V145.35H997.03C997.78 144.18 998.95 143.49 1000.87 143.49C1002.7 143.49 1004.05 144.15 1004.86 145.5H1005.52C1006.45 144.15 1007.89 143.49 1009.78 143.49ZM1032.54 150.54V151.41H1021.02C1021.11 155.01 1022.73 157.17 1025.85 157.17C1027.98 157.17 1029.24 156.27 1029.69 154.83H1032.27C1031.79 157.41 1029.6 159.39 1025.85 159.39C1021.14 159.39 1018.5 155.94 1018.5 151.29C1018.5 146.64 1021.2 143.49 1025.79 143.49C1030.29 143.49 1032.45 146.82 1032.54 150.54ZM1025.73 145.71C1023 145.71 1021.5 147.36 1021.17 149.28H1029.9C1029.75 147.36 1028.28 145.71 1025.73 145.71ZM1052.38 143.49C1055.86 143.49 1057.36 145.74 1057.36 149.22V159H1054.81V149.49C1054.81 147 1053.85 145.77 1051.9 145.77C1049.53 145.77 1048.21 147.6 1048.21 150.15V159H1045.66V149.55C1045.66 147.06 1044.67 145.77 1042.78 145.77C1040.26 145.77 1039.06 147.9 1039.06 150.63V159H1036.51V143.88H1038.97V145.35H1039.63C1040.38 144.18 1041.55 143.49 1043.47 143.49C1045.3 143.49 1046.65 144.15 1047.46 145.5H1048.12C1049.05 144.15 1050.49 143.49 1052.38 143.49ZM1068.54 143.49C1073.25 143.49 1075.98 146.97 1075.98 151.44C1075.98 155.91 1073.25 159.39 1068.54 159.39C1063.8 159.39 1061.1 155.91 1061.1 151.44C1061.1 146.97 1063.8 143.49 1068.54 143.49ZM1068.54 157.17C1071.87 157.17 1073.43 154.41 1073.43 151.44C1073.43 148.47 1071.87 145.71 1068.54 145.71C1065.18 145.71 1063.65 148.47 1063.65 151.44C1063.65 154.41 1065.18 157.17 1068.54 157.17ZM1088.6 143.88V146.28H1087.34C1084.34 146.28 1082.51 148.11 1082.51 151.44V159H1079.96V143.88H1082.42V145.68H1083.08C1083.83 144.75 1085.27 143.88 1087.46 143.88H1088.6ZM1097.1 165H1094.52L1097.64 157.59L1091.19 143.88H1093.92L1098.54 153.84H1099.29L1103.49 143.88H1106.16L1097.1 165ZM1127.14 159V157.41H1126.48C1125.55 158.58 1123.93 159.39 1121.77 159.39C1118.29 159.39 1116.34 157.05 1116.34 154.47C1116.34 152.04 1117.93 149.46 1122.13 149.46H1127.05V148.86C1127.05 147.03 1126 145.71 1123.36 145.71C1121.11 145.71 1119.97 146.58 1119.85 147.9H1117.3C1117.51 145.11 1119.91 143.49 1123.3 143.49C1127.11 143.49 1129.54 145.32 1129.54 148.71V159H1127.14ZM1122.4 157.17C1124.92 157.17 1127.05 155.28 1127.05 152.88V151.5H1122.52C1120.03 151.5 1118.89 152.58 1118.89 154.38C1118.89 156.09 1120.15 157.17 1122.4 157.17ZM1145.19 137.19H1147.74V159H1145.28V157.38H1144.62C1143.78 158.43 1142.31 159.39 1139.91 159.39C1135.74 159.39 1133.28 155.91 1133.28 151.44C1133.28 146.88 1135.74 143.49 1139.91 143.49C1142.31 143.49 1143.69 144.42 1144.53 145.5H1145.19V137.19ZM1140.48 157.17C1143.84 157.17 1145.22 154.41 1145.22 151.44C1145.22 148.47 1143.84 145.71 1140.48 145.71C1137.45 145.71 1135.83 148.08 1135.83 151.44C1135.83 154.8 1137.45 157.17 1140.48 157.17ZM1163.65 137.19H1166.2V159H1163.74V157.38H1163.08C1162.24 158.43 1160.77 159.39 1158.37 159.39C1154.2 159.39 1151.74 155.91 1151.74 151.44C1151.74 146.88 1154.2 143.49 1158.37 143.49C1160.77 143.49 1162.15 144.42 1162.99 145.5H1163.65V137.19ZM1158.94 157.17C1162.3 157.17 1163.68 154.41 1163.68 151.44C1163.68 148.47 1162.3 145.71 1158.94 145.71C1155.91 145.71 1154.29 148.08 1154.29 151.44C1154.29 154.8 1155.91 157.17 1158.94 157.17ZM1179.77 143.88V146.28H1178.51C1175.51 146.28 1173.68 148.11 1173.68 151.44V159H1171.13V143.88H1173.59V145.68H1174.25C1175 144.75 1176.44 143.88 1178.63 143.88H1179.77ZM1196.22 150.54V151.41H1184.7C1184.79 155.01 1186.41 157.17 1189.53 157.17C1191.66 157.17 1192.92 156.27 1193.37 154.83H1195.95C1195.47 157.41 1193.28 159.39 1189.53 159.39C1184.82 159.39 1182.18 155.94 1182.18 151.29C1182.18 146.64 1184.88 143.49 1189.47 143.49C1193.97 143.49 1196.13 146.82 1196.22 150.54ZM1189.41 145.71C1186.68 145.71 1185.18 147.36 1184.85 149.28H1193.58C1193.43 147.36 1191.96 145.71 1189.41 145.71ZM1204.39 149.58L1205.83 149.82L1207.54 150.09C1210.18 150.54 1211.86 151.89 1211.86 154.65C1211.86 157.14 1209.73 159.39 1205.65 159.39C1201.36 159.39 1199.26 157.5 1198.93 154.62H1201.51C1201.75 156.33 1203.25 157.17 1205.53 157.17C1207.81 157.17 1209.31 156.36 1209.31 154.71C1209.31 153.39 1208.47 152.67 1206.55 152.34L1203.16 151.77C1201 151.38 1199.53 150.24 1199.53 147.96C1199.53 145.44 1201.42 143.49 1205.5 143.49C1209.07 143.49 1211.14 145.17 1211.47 147.81H1208.92C1208.71 146.37 1207.27 145.71 1205.38 145.71C1203.43 145.71 1202.11 146.43 1202.11 147.72C1202.11 148.89 1202.86 149.34 1204.39 149.58ZM1219.8 149.58L1221.24 149.82L1222.95 150.09C1225.59 150.54 1227.27 151.89 1227.27 154.65C1227.27 157.14 1225.14 159.39 1221.06 159.39C1216.77 159.39 1214.67 157.5 1214.34 154.62H1216.92C1217.16 156.33 1218.66 157.17 1220.94 157.17C1223.22 157.17 1224.72 156.36 1224.72 154.71C1224.72 153.39 1223.88 152.67 1221.96 152.34L1218.57 151.77C1216.41 151.38 1214.94 150.24 1214.94 147.96C1214.94 145.44 1216.83 143.49 1220.91 143.49C1224.48 143.49 1226.55 145.17 1226.88 147.81H1224.33C1224.12 146.37 1222.68 145.71 1220.79 145.71C1218.84 145.71 1217.52 146.43 1217.52 147.72C1217.52 148.89 1218.27 149.34 1219.8 149.58Z" fill="#007BFF"/>
<path d="M892.485 138.58C896.925 138.58 900.225 141.94 900.225 149.5C900.225 157.06 896.925 160.39 892.485 160.39C888.045 160.39 884.775 157.06 884.775 149.5C884.775 141.94 888.045 138.58 892.485 138.58ZM892.485 158.05C895.995 158.05 897.585 154.69 897.585 149.5C897.585 144.28 895.995 140.92 892.485 140.92C889.005 140.92 887.415 144.28 887.415 149.5C887.415 154.69 889.005 158.05 892.485 158.05Z" fill="#274867"/>
<path d="M1346.49 395.58C1350.93 395.58 1354.23 398.94 1354.23 406.5C1354.23 414.06 1350.93 417.39 1346.49 417.39C1342.05 417.39 1338.78 414.06 1338.78 406.5C1338.78 398.94 1342.05 395.58 1346.49 395.58ZM1346.49 415.05C1350 415.05 1351.59 411.69 1351.59 406.5C1351.59 401.28 1350 397.92 1346.49 397.92C1343.01 397.92 1341.42 401.28 1341.42 406.5C1341.42 411.69 1343.01 415.05 1346.49 415.05Z" fill="#274867"/>
<path d="M1255.5 401.79H1252.86C1253.1 397.59 1256.13 395.58 1259.85 395.58C1263.78 395.58 1266.66 397.77 1266.66 401.97C1266.66 404.82 1264.5 407.49 1262.01 409.56L1256.73 414V414.66H1267.32V417H1252.89V414.03L1255.98 411.51C1257.66 410.16 1259.64 408.48 1260.75 407.46C1262.19 406.17 1264.02 404.46 1264.02 401.97C1264.02 399.33 1262.34 397.92 1259.79 397.92C1257.42 397.92 1255.77 399.15 1255.5 401.79Z" fill="#274867"/>
<path d="M1377.87 289.58H1380.57V311H1377.87V301.22H1365.9V311H1363.2V289.58H1365.9V298.7H1377.87V289.58ZM1398.86 302.54V303.41H1387.34C1387.43 307.01 1389.05 309.17 1392.17 309.17C1394.3 309.17 1395.56 308.27 1396.01 306.83H1398.59C1398.11 309.41 1395.92 311.39 1392.17 311.39C1387.46 311.39 1384.82 307.94 1384.82 303.29C1384.82 298.64 1387.52 295.49 1392.11 295.49C1396.61 295.49 1398.77 298.82 1398.86 302.54ZM1392.05 297.71C1389.32 297.71 1387.82 299.36 1387.49 301.28H1396.22C1396.07 299.36 1394.6 297.71 1392.05 297.71ZM1412.46 311V309.41H1411.8C1410.87 310.58 1409.25 311.39 1407.09 311.39C1403.61 311.39 1401.66 309.05 1401.66 306.47C1401.66 304.04 1403.25 301.46 1407.45 301.46H1412.37V300.86C1412.37 299.03 1411.32 297.71 1408.68 297.71C1406.43 297.71 1405.29 298.58 1405.17 299.9H1402.62C1402.83 297.11 1405.23 295.49 1408.62 295.49C1412.43 295.49 1414.86 297.32 1414.86 300.71V311H1412.46ZM1407.72 309.17C1410.24 309.17 1412.37 307.28 1412.37 304.88V303.5H1407.84C1405.35 303.5 1404.21 304.58 1404.21 306.38C1404.21 308.09 1405.47 309.17 1407.72 309.17ZM1426.79 297.71C1423.43 297.71 1422.05 300.47 1422.05 303.44C1422.05 306.41 1423.43 309.17 1426.79 309.17C1429.82 309.17 1431.44 306.8 1431.44 303.44C1431.44 300.08 1429.82 297.71 1426.79 297.71ZM1419.53 295.88H1421.99V297.5H1422.65C1423.49 296.45 1424.96 295.49 1427.36 295.49C1431.53 295.49 1433.99 298.97 1433.99 303.44C1433.99 308 1431.53 311.39 1427.36 311.39C1424.96 311.39 1423.55 310.46 1422.74 309.38H1422.08V317H1419.53V295.88Z" fill="#274867"/>
<path d="M421.863 62.19C422.793 62.34 424.803 62.76 425.913 63C429.123 63.72 431.283 65.37 431.283 69.03C431.283 72.39 428.613 75.39 423.183 75.39C418.173 75.39 414.903 72.75 414.573 69.03H417.303C417.783 71.94 420.363 72.93 423.303 72.93C426.273 72.93 428.553 71.55 428.553 69.09C428.553 66.78 427.023 65.91 424.923 65.43C423.843 65.19 421.743 64.8 420.693 64.56C417.573 63.93 415.503 62.25 415.503 59.13C415.503 55.8 418.203 53.19 423.033 53.19C427.473 53.19 430.323 55.53 430.803 58.98H428.073C427.563 56.82 426.093 55.65 422.973 55.65C420.393 55.65 418.233 56.82 418.233 59.07C418.233 61.14 420.063 61.8 421.863 62.19ZM439.025 59.88L442.835 59.88V62.1L439.025 62.1V70.41C439.025 71.94 439.685 72.72 441.725 72.72H442.835V75H441.665C438.395 75 436.475 73.98 436.475 70.77V62.1H433.865V59.88H436.475V55.32L439.025 55.32V59.88ZM456.658 75V73.41H455.998C455.068 74.58 453.448 75.39 451.288 75.39C447.808 75.39 445.858 73.05 445.858 70.47C445.858 68.04 447.448 65.46 451.648 65.46H456.568V64.86C456.568 63.03 455.518 61.71 452.878 61.71C450.628 61.71 449.488 62.58 449.368 63.9H446.818C447.028 61.11 449.428 59.49 452.818 59.49C456.628 59.49 459.058 61.32 459.058 64.71V75H456.658ZM451.918 73.17C454.438 73.17 456.568 71.28 456.568 68.88V67.5H452.038C449.548 67.5 448.408 68.58 448.408 70.38C448.408 72.09 449.668 73.17 451.918 73.17ZM472.368 59.88V62.28H471.108C468.108 62.28 466.278 64.11 466.278 67.44V75H463.728V59.88H466.188V61.68H466.848C467.598 60.75 469.038 59.88 471.228 59.88H472.368ZM480.187 59.88H483.997V62.1H480.187V70.41C480.187 71.94 480.847 72.72 482.887 72.72H483.997V75H482.827C479.557 75 477.637 73.98 477.637 70.77V62.1H475.027V59.88H477.637V55.32H480.187V59.88ZM500.74 65.58L502.18 65.82L503.89 66.09C506.53 66.54 508.21 67.89 508.21 70.65C508.21 73.14 506.08 75.39 502 75.39C497.71 75.39 495.61 73.5 495.28 70.62H497.86C498.1 72.33 499.6 73.17 501.88 73.17C504.16 73.17 505.66 72.36 505.66 70.71C505.66 69.39 504.82 68.67 502.9 68.34L499.51 67.77C497.35 67.38 495.88 66.24 495.88 63.96C495.88 61.44 497.77 59.49 501.85 59.49C505.42 59.49 507.49 61.17 507.82 63.81H505.27C505.06 62.37 503.62 61.71 501.73 61.71C499.78 61.71 498.46 62.43 498.46 63.72C498.46 64.89 499.21 65.34 500.74 65.58ZM515.46 59.88H519.27V62.1H515.46V70.41C515.46 71.94 516.12 72.72 518.16 72.72H519.27V75H518.1C514.83 75 512.91 73.98 512.91 70.77V62.1H510.3V59.88H512.91V55.32H515.46V59.88ZM533.094 75V73.41H532.434C531.504 74.58 529.884 75.39 527.724 75.39C524.244 75.39 522.294 73.05 522.294 70.47C522.294 68.04 523.884 65.46 528.084 65.46H533.004V64.86C533.004 63.03 531.954 61.71 529.314 61.71C527.064 61.71 525.924 62.58 525.804 63.9H523.254C523.464 61.11 525.864 59.49 529.254 59.49C533.064 59.49 535.494 61.32 535.494 64.71V75L533.094 75ZM528.354 73.17C530.874 73.17 533.004 71.28 533.004 68.88V67.5H528.474C525.984 67.5 524.844 68.58 524.844 70.38C524.844 72.09 526.104 73.17 528.354 73.17ZM550.393 70.44H552.943C552.373 73.41 550.093 75.39 546.583 75.39C541.873 75.39 539.233 71.91 539.233 67.44C539.233 62.88 541.873 59.49 546.583 59.49C550.183 59.49 552.343 61.47 552.853 64.26H550.303C549.823 62.73 548.653 61.71 546.583 61.71C543.163 61.71 541.783 64.38 541.783 67.38C541.783 70.41 543.193 73.17 546.583 73.17C548.743 73.17 550.003 72.12 550.393 70.44ZM570.485 75H567.755L563.435 66.78H562.775L559.295 70.62V75H556.745V53.19H559.295V67.47L566.435 59.88H569.465L565.115 64.53L570.485 75Z" fill="#274867"/>
<path d="M101.588 139.82H104.978L105.908 134H108.038L107.108 139.82H111.188L112.118 134H114.248L113.318 139.82H116.318V141.86H112.988L112.178 147.14H115.208V149.18H111.848L110.918 155H108.758L109.688 149.18H105.638L104.708 155H102.548L103.478 149.18H100.478V147.14H103.808L104.648 141.86H101.588V139.82ZM106.778 141.86L105.968 147.14H110.018L110.858 141.86H106.778ZM122.49 135.95H119.79V133.19H122.49V135.95ZM122.4 139.88V155H119.85V139.88H122.4ZM140.847 155H138.297V145.94C138.297 143.15 137.007 141.77 134.457 141.77C131.757 141.77 129.957 144.14 129.957 146.81V155H127.407V139.88H129.867V141.5H130.527C131.367 140.33 133.047 139.49 135.087 139.49C138.807 139.49 140.847 141.77 140.847 145.4V155ZM155.743 150.44H158.293C157.723 153.41 155.443 155.39 151.933 155.39C147.223 155.39 144.583 151.91 144.583 147.44C144.583 142.88 147.223 139.49 151.933 139.49C155.533 139.49 157.693 141.47 158.203 144.26H155.653C155.173 142.73 154.003 141.71 151.933 141.71C148.513 141.71 147.133 144.38 147.133 147.38C147.133 150.41 148.543 153.17 151.933 153.17C154.093 153.17 155.353 152.12 155.743 150.44ZM162.095 133.19H164.645V155H162.095V133.19ZM169.325 139.88H171.875V148.94C171.875 151.73 173.165 153.11 175.715 153.11C178.385 153.11 180.215 150.8 180.215 148.07V139.88H182.765V155H180.305V153.38H179.645C178.805 154.55 177.125 155.39 175.085 155.39C171.365 155.39 169.325 153.11 169.325 149.48V139.88ZM198.651 133.19H201.201V155H198.741V153.38L198.081 153.38C197.241 154.43 195.771 155.39 193.371 155.39C189.201 155.39 186.741 151.91 186.741 147.44C186.741 142.88 189.201 139.49 193.371 139.49C195.771 139.49 197.151 140.42 197.991 141.5H198.651V133.19ZM193.941 153.17C197.301 153.17 198.681 150.41 198.681 147.44C198.681 144.47 197.301 141.71 193.941 141.71C190.911 141.71 189.291 144.08 189.291 147.44C189.291 150.8 190.911 153.17 193.941 153.17ZM219.238 146.54V147.41H207.718C207.808 151.01 209.428 153.17 212.548 153.17C214.678 153.17 215.938 152.27 216.388 150.83H218.968C218.488 153.41 216.298 155.39 212.548 155.39C207.838 155.39 205.198 151.94 205.198 147.29C205.198 142.64 207.898 139.49 212.488 139.49C216.988 139.49 219.148 142.82 219.238 146.54ZM212.428 141.71C209.698 141.71 208.198 143.36 207.868 145.28H216.598C216.448 143.36 214.978 141.71 212.428 141.71ZM246.828 151.88V154.16L231.708 147.53V145.46L246.828 138.83V141.11L235.188 146.18V146.84L246.828 151.88ZM254.59 135.95H251.89V133.19H254.59V135.95ZM254.5 139.88V155H251.95V139.88H254.5ZM266.017 139.49C270.727 139.49 273.457 142.97 273.457 147.44C273.457 151.91 270.727 155.39 266.017 155.39C261.277 155.39 258.577 151.91 258.577 147.44C258.577 142.97 261.277 139.49 266.017 139.49ZM266.017 153.17C269.347 153.17 270.907 150.41 270.907 147.44C270.907 144.47 269.347 141.71 266.017 141.71C262.657 141.71 261.127 144.47 261.127 147.44C261.127 150.41 262.657 153.17 266.017 153.17ZM281.637 145.58L283.077 145.82L284.787 146.09C287.427 146.54 289.107 147.89 289.107 150.65C289.107 153.14 286.977 155.39 282.897 155.39C278.607 155.39 276.507 153.5 276.177 150.62H278.757C278.997 152.33 280.497 153.17 282.777 153.17C285.057 153.17 286.557 152.36 286.557 150.71C286.557 149.39 285.717 148.67 283.797 148.34L280.407 147.77C278.247 147.38 276.777 146.24 276.777 143.96C276.777 141.44 278.667 139.49 282.747 139.49C286.317 139.49 288.387 141.17 288.717 143.81H286.167C285.957 142.37 284.517 141.71 282.627 141.71C280.677 141.71 279.357 142.43 279.357 143.72C279.357 144.89 280.107 145.34 281.637 145.58ZM296.357 139.88H300.167V142.1H296.357V150.41C296.357 151.94 297.017 152.72 299.057 152.72H300.167V155H298.997C295.727 155 293.807 153.98 293.807 150.77V142.1H291.197V139.88H293.807V135.32H296.357V139.88ZM313 139.88V142.28H311.74C308.74 142.28 306.91 144.11 306.91 147.44V155H304.36V139.88H306.82V141.68H307.48C308.23 140.75 309.67 139.88 311.86 139.88H313ZM329.453 146.54V147.41H317.933C318.023 151.01 319.643 153.17 322.763 153.17C324.893 153.17 326.153 152.27 326.603 150.83H329.183C328.703 153.41 326.513 155.39 322.763 155.39C318.053 155.39 315.413 151.94 315.413 147.29C315.413 142.64 318.113 139.49 322.703 139.49C327.203 139.49 329.363 142.82 329.453 146.54ZM322.643 141.71C319.913 141.71 318.413 143.36 318.083 145.28H326.813C326.663 143.36 325.193 141.71 322.643 141.71ZM343.053 155V153.41H342.393C341.463 154.58 339.843 155.39 337.683 155.39C334.203 155.39 332.253 153.05 332.253 150.47C332.253 148.04 333.843 145.46 338.043 145.46H342.963V144.86C342.963 143.03 341.913 141.71 339.273 141.71C337.023 141.71 335.883 142.58 335.763 143.9H333.213C333.423 141.11 335.823 139.49 339.213 139.49C343.023 139.49 345.453 141.32 345.453 144.71V155H343.053ZM338.313 153.17C340.833 153.17 342.963 151.28 342.963 148.88V147.5H338.433C335.943 147.5 334.803 148.58 334.803 150.38C334.803 152.09 336.063 153.17 338.313 153.17ZM365.992 139.49C369.472 139.49 370.972 141.74 370.972 145.22V155H368.422V145.49C368.422 143 367.462 141.77 365.512 141.77C363.142 141.77 361.822 143.6 361.822 146.15V155H359.272V145.55C359.272 143.06 358.282 141.77 356.392 141.77C353.872 141.77 352.672 143.9 352.672 146.63V155H350.122V139.88H352.582V141.35H353.242C353.992 140.18 355.162 139.49 357.082 139.49C358.912 139.49 360.262 140.15 361.072 141.5H361.732C362.662 140.15 364.102 139.49 365.992 139.49ZM375.79 154.16V151.88L387.4 146.84V146.18L375.79 141.11V138.83L390.91 145.46V147.53L375.79 154.16Z" fill="#FF0000"/>
<path d="M104.559 197.95H101.859V195.19H104.559V197.95ZM104.469 201.88V217H101.919V201.88H104.469ZM122.917 217H120.367V207.94C120.367 205.15 119.077 203.77 116.527 203.77C113.827 203.77 112.027 206.14 112.027 208.81V217H109.477V201.88H111.937V203.5H112.597C113.437 202.33 115.117 201.49 117.157 201.49C120.877 201.49 122.917 203.77 122.917 207.4V217ZM131.092 201.88H134.902V204.1H131.092V212.41C131.092 213.94 131.752 214.72 133.792 214.72H134.902V217H133.732C130.462 217 128.542 215.98 128.542 212.77V204.1H125.932V201.88H128.542V197.32H131.092V201.88Z" fill="#6E3AA3"/>
<path d="M163.315 201.49C166.795 201.49 168.295 203.74 168.295 207.22V217H165.745V207.49C165.745 205 164.785 203.77 162.835 203.77C160.465 203.77 159.145 205.6 159.145 208.15V217H156.595V207.55C156.595 205.06 155.605 203.77 153.715 203.77C151.195 203.77 149.995 205.9 149.995 208.63V217H147.445V201.88H149.905V203.35H150.565C151.315 202.18 152.485 201.49 154.405 201.49C156.235 201.49 157.585 202.15 158.395 203.5H159.055C159.985 202.15 161.425 201.49 163.315 201.49ZM182.593 217V215.41H181.933C181.003 216.58 179.383 217.39 177.223 217.39C173.743 217.39 171.793 215.05 171.793 212.47C171.793 210.04 173.383 207.46 177.583 207.46H182.503V206.86C182.503 205.03 181.453 203.71 178.813 203.71C176.563 203.71 175.423 204.58 175.303 205.9H172.753C172.963 203.11 175.363 201.49 178.753 201.49C182.563 201.49 184.993 203.32 184.993 206.71V217H182.593ZM177.853 215.17C180.373 215.17 182.503 213.28 182.503 210.88V209.5H177.973C175.483 209.5 174.343 210.58 174.343 212.38C174.343 214.09 175.603 215.17 177.853 215.17ZM192.362 197.95L189.662 197.95V195.19L192.362 195.19V197.95ZM192.272 201.88V217H189.722V201.88H192.272ZM210.719 217H208.169V207.94C208.169 205.15 206.879 203.77 204.329 203.77C201.629 203.77 199.829 206.14 199.829 208.81V217L197.279 217V201.88H199.739V203.5H200.399C201.239 202.33 202.919 201.49 204.959 201.49C208.679 201.49 210.719 203.77 210.719 207.4V217ZM216.765 207.64C216.765 213.67 219.135 217.96 221.595 221.23H219.135C216.525 218.14 214.365 213.61 214.365 207.64C214.365 201.73 216.465 197.35 218.925 194.23H221.385C218.985 197.5 216.765 201.7 216.765 207.64ZM226.723 207.64C226.723 201.7 224.503 197.5 222.103 194.23H224.563C227.023 197.35 229.123 201.73 229.123 207.64C229.123 213.61 226.963 218.14 224.353 221.23H221.893C224.353 217.96 226.723 213.67 226.723 207.64ZM244.131 207.4V208.06C245.121 208.39 245.781 209.32 245.781 211.21V216.22C245.781 218.38 246.771 219.19 248.451 219.19H249.441V221.23H248.271C245.421 221.23 243.381 219.58 243.381 216.46V211.66C243.381 209.83 243.021 208.78 241.491 208.78H241.071V206.68H241.491C243.021 206.68 243.381 205.63 243.381 203.8V199C243.381 195.88 245.421 194.23 248.271 194.23H249.441V196.27H248.451C246.771 196.27 245.781 197.08 245.781 199.24V204.25C245.781 206.14 245.121 207.07 244.131 207.4Z" fill="#274867"/>
<path d="M126.529 251.95H123.829V249.19H126.529V251.95ZM126.439 255.88V271H123.889V255.88H126.439ZM144.886 271H142.336V261.94C142.336 259.15 141.046 257.77 138.496 257.77C135.796 257.77 133.996 260.14 133.996 262.81V271H131.446V255.88H133.906V257.5H134.566C135.406 256.33 137.086 255.49 139.126 255.49C142.846 255.49 144.886 257.77 144.886 261.4V271ZM153.062 255.88H156.872V258.1H153.062V266.41C153.062 267.94 153.722 268.72 155.762 268.72H156.872V271H155.702C152.432 271 150.512 269.98 150.512 266.77V258.1H147.902V255.88H150.512V251.32H153.062V255.88Z" fill="#6E3AA3"/>
<path d="M173.615 261.58L175.055 261.82L176.765 262.09C179.405 262.54 181.085 263.89 181.085 266.65C181.085 269.14 178.955 271.39 174.875 271.39C170.585 271.39 168.485 269.5 168.155 266.62H170.735C170.975 268.33 172.475 269.17 174.755 269.17C177.035 269.17 178.535 268.36 178.535 266.71C178.535 265.39 177.695 264.67 175.775 264.34L172.385 263.77C170.225 263.38 168.755 262.24 168.755 259.96C168.755 257.44 170.645 255.49 174.725 255.49C178.295 255.49 180.365 257.17 180.695 259.81H178.145C177.935 258.37 176.495 257.71 174.605 257.71C172.655 257.71 171.335 258.43 171.335 259.72C171.335 260.89 172.085 261.34 173.615 261.58ZM188.335 255.88H192.145V258.1H188.335V266.41C188.335 267.94 188.995 268.72 191.035 268.72H192.145V271H190.975C187.705 271 185.785 269.98 185.785 266.77V258.1H183.175V255.88H185.785V251.32H188.335V255.88ZM205.969 271V269.41H205.309C204.379 270.58 202.759 271.39 200.599 271.39C197.119 271.39 195.169 269.05 195.169 266.47C195.169 264.04 196.759 261.46 200.959 261.46H205.879V260.86C205.879 259.03 204.829 257.71 202.189 257.71C199.939 257.71 198.799 258.58 198.679 259.9H196.129C196.339 257.11 198.739 255.49 202.129 255.49C205.939 255.49 208.369 257.32 208.369 260.71V271H205.969ZM201.229 269.17C203.749 269.17 205.879 267.28 205.879 264.88V263.5H201.349C198.859 263.5 197.719 264.58 197.719 266.38C197.719 268.09 198.979 269.17 201.229 269.17ZM223.268 266.44H225.818C225.248 269.41 222.968 271.39 219.458 271.39C214.748 271.39 212.108 267.91 212.108 263.44C212.108 258.88 214.748 255.49 219.458 255.49C223.058 255.49 225.218 257.47 225.728 260.26H223.178C222.698 258.73 221.528 257.71 219.458 257.71C216.038 257.71 214.658 260.38 214.658 263.38C214.658 266.41 216.068 269.17 219.458 269.17C221.618 269.17 222.878 268.12 223.268 266.44ZM243.36 271H240.63L236.31 262.78H235.65L232.17 266.62V271H229.62V249.19H232.17V263.47L239.31 255.88H242.34L237.99 260.53L243.36 271ZM251.182 271L244.342 249.58H247.192L253.042 268.24H254.542L260.392 249.58H263.182L256.342 271H251.182ZM274.348 271V269.41H273.688C272.758 270.58 271.138 271.39 268.978 271.39C265.498 271.39 263.548 269.05 263.548 266.47C263.548 264.04 265.138 261.46 269.338 261.46H274.258V260.86C274.258 259.03 273.208 257.71 270.568 257.71C268.318 257.71 267.178 258.58 267.058 259.9H264.508C264.718 257.11 267.118 255.49 270.508 255.49C274.318 255.49 276.748 257.32 276.748 260.71V271H274.348ZM269.608 269.17C272.128 269.17 274.258 267.28 274.258 264.88V263.5H269.728C267.238 263.5 266.098 264.58 266.098 266.38C266.098 268.09 267.358 269.17 269.608 269.17ZM290.057 255.88V258.28H288.797C285.797 258.28 283.967 260.11 283.967 263.44V271H281.417V255.88H283.877V257.68H284.537C285.287 256.75 286.727 255.88 288.917 255.88H290.057ZM317.079 264.37V266.56L301.899 266.56V264.37L317.079 264.37ZM317.079 258.4V260.59L301.899 260.59V258.4L317.079 258.4ZM365.706 271H364.206V267.52H367.326V271.57L365.646 274.45H364.026L365.706 271.57V271ZM367.326 259.36H364.206V255.88H367.326V259.36Z" fill="#274867"/>
<path d="M329.799 271V268.66H334.779V252.76H334.179L329.769 255.73V252.97L334.149 250H337.419V268.66H342.009V271H329.799ZM352.506 249.58C356.946 249.58 360.246 252.94 360.246 260.5C360.246 268.06 356.946 271.39 352.506 271.39C348.066 271.39 344.796 268.06 344.796 260.5C344.796 252.94 348.066 249.58 352.506 249.58ZM352.506 269.05C356.016 269.05 357.606 265.69 357.606 260.5C357.606 255.28 356.016 251.92 352.506 251.92C349.026 251.92 347.436 255.28 347.436 260.5C347.436 265.69 349.026 269.05 352.506 269.05Z" fill="#007BFF"/>
<path d="M37.77 271V268.66H42.75V252.76H42.15L37.74 255.73V252.97L42.12 250H45.39V268.66H49.98V271H37.77Z" fill="#FF0000"/>
<path d="M41.23 342.79H38.59C38.83 338.59 41.86 336.58 45.58 336.58C49.51 336.58 52.39 338.77 52.39 342.97C52.39 345.82 50.23 348.49 47.74 350.56L42.46 355V355.66H53.05V358H38.62V355.03L41.71 352.51C43.39 351.16 45.37 349.48 46.48 348.46C47.92 347.17 49.75 345.46 49.75 342.97C49.75 340.33 48.07 338.92 45.52 338.92C43.15 338.92 41.5 340.15 41.23 342.79Z" fill="#FF0000"/>
<path d="M39.37 395H51.64V397.94L46.39 402.44V403.07C49.99 403.16 52.63 405.41 52.63 409.46C52.63 413.81 49.51 416.39 45.22 416.39C40.96 416.39 38.11 413.69 37.87 410.12H40.51C40.75 412.52 42.7 414.05 45.22 414.05C48.1 414.05 49.99 412.34 49.99 409.46C49.99 406.7 48.34 404.99 45.25 404.99C44.5 404.99 43.9 405.05 43.42 405.17V402.38L48.55 397.94V397.28H39.37V395Z" fill="#FF0000"/>
<path d="M51.13 466.74H54.01V469.08H51.13V474H48.55V469.08H38.17V466.08L47.44 453H51.13V466.74ZM40.93 466.74H48.58V455.97H47.92L40.93 466.08V466.74Z" fill="#FF0000"/>
<path d="M46.51 517.87C50.71 517.87 53.26 520.99 53.26 524.89C53.26 529.45 50.32 532.39 46.06 532.39C41.44 532.39 38.98 529.66 38.74 526.12H41.35C41.68 528.73 43.39 530.05 45.94 530.05C48.73 530.05 50.62 528.13 50.62 525.01C50.62 522.13 48.85 520.09 46.03 520.09C44.14 520.09 42.76 520.75 41.86 522.07H39.22L40.15 511H52.15V513.28H42.28L41.8 519.34H42.46C43.42 518.47 44.56 517.87 46.51 517.87Z" fill="#FF0000"/>
<path d="M126.3 338.95H123.6V336.19H126.3V338.95ZM126.21 342.88V358H123.66V342.88H126.21ZM144.657 358H142.107V348.94C142.107 346.15 140.817 344.77 138.267 344.77C135.567 344.77 133.767 347.14 133.767 349.81V358H131.217V342.88H133.677V344.5H134.337C135.177 343.33 136.857 342.49 138.897 342.49C142.617 342.49 144.657 344.77 144.657 348.4V358ZM152.832 342.88H156.642V345.1H152.832V353.41C152.832 354.94 153.492 355.72 155.532 355.72H156.642V358H155.472C152.202 358 150.282 356.98 150.282 353.77V345.1H147.672V342.88H150.282V338.32H152.832V342.88Z" fill="#6E3AA3"/>
<path d="M172.846 336.58H174.856L174.706 341.65L179.506 339.91L180.136 341.86L175.276 343.3L178.366 347.29L176.716 348.52L173.836 344.35L170.986 348.52L169.336 347.29L172.426 343.3L167.596 341.86L168.226 339.91L172.996 341.65L172.846 336.58ZM196.864 358H194.314V348.94C194.314 346.21 193.024 344.77 190.474 344.77C187.774 344.77 185.974 347.14 185.974 349.81V358H183.424V336.19H185.974V344.5H186.634C187.444 343.33 189.094 342.49 191.134 342.49C194.824 342.49 196.864 344.77 196.864 348.4V358ZM214.639 349.54V350.41H203.119C203.209 354.01 204.829 356.17 207.949 356.17C210.079 356.17 211.339 355.27 211.789 353.83H214.369C213.889 356.41 211.699 358.39 207.949 358.39C203.239 358.39 200.599 354.94 200.599 350.29C200.599 345.64 203.299 342.49 207.889 342.49C212.389 342.49 214.549 345.82 214.639 349.54ZM207.829 344.71C205.099 344.71 203.599 346.36 203.269 348.28H211.999C211.849 346.36 210.379 344.71 207.829 344.71ZM228.239 358V356.41H227.579C226.649 357.58 225.029 358.39 222.869 358.39C219.389 358.39 217.439 356.05 217.439 353.47C217.439 351.04 219.029 348.46 223.229 348.46H228.149V347.86C228.149 346.03 227.099 344.71 224.459 344.71C222.209 344.71 221.069 345.58 220.949 346.9H218.399C218.609 344.11 221.009 342.49 224.399 342.49C228.209 342.49 230.639 344.32 230.639 347.71V358H228.239ZM223.499 356.17C226.019 356.17 228.149 354.28 228.149 351.88V350.5H223.619C221.129 350.5 219.989 351.58 219.989 353.38C219.989 355.09 221.249 356.17 223.499 356.17ZM242.569 344.71C239.209 344.71 237.829 347.47 237.829 350.44C237.829 353.41 239.209 356.17 242.569 356.17C245.599 356.17 247.219 353.8 247.219 350.44C247.219 347.08 245.599 344.71 242.569 344.71ZM235.309 342.88H237.769V344.5H238.429C239.269 343.45 240.739 342.49 243.139 342.49C247.309 342.49 249.769 345.97 249.769 350.44C249.769 355 247.309 358.39 243.139 358.39C240.739 358.39 239.329 357.46 238.519 356.38H237.859V364H235.309V342.88ZM257.369 358L250.529 336.58H253.379L259.229 355.24H260.729L266.579 336.58H269.369L262.529 358H257.369ZM280.534 358V356.41H279.874C278.944 357.58 277.324 358.39 275.164 358.39C271.684 358.39 269.734 356.05 269.734 353.47C269.734 351.04 271.324 348.46 275.524 348.46H280.444V347.86C280.444 346.03 279.394 344.71 276.754 344.71C274.504 344.71 273.364 345.58 273.244 346.9H270.694C270.904 344.11 273.304 342.49 276.694 342.49C280.504 342.49 282.934 344.32 282.934 347.71V358H280.534ZM275.794 356.17C278.314 356.17 280.444 354.28 280.444 351.88V350.5H275.914C273.424 350.5 272.284 351.58 272.284 353.38C272.284 355.09 273.544 356.17 275.794 356.17ZM296.244 342.88V345.28H294.984C291.984 345.28 290.154 347.11 290.154 350.44V358H287.604V342.88H290.064V344.68H290.724C291.474 343.75 292.914 342.88 295.104 342.88H296.244ZM300.936 358H299.436V354.52H302.556V358.57L300.876 361.45H299.256L300.936 358.57V358ZM302.556 346.36H299.436V342.88H302.556V346.36Z" fill="#274867"/>
<path d="M137.15 416H134.6V406.94C134.6 404.21 133.31 402.77 130.76 402.77C128.06 402.77 126.26 405.14 126.26 407.81V416H123.71V394.19H126.26V402.5H126.92C127.73 401.33 129.38 400.49 131.42 400.49C135.11 400.49 137.15 402.77 137.15 406.4V416ZM154.925 407.54V408.41H143.405C143.495 412.01 145.115 414.17 148.235 414.17C150.365 414.17 151.625 413.27 152.075 411.83H154.655C154.175 414.41 151.985 416.39 148.235 416.39C143.525 416.39 140.885 412.94 140.885 408.29C140.885 403.64 143.585 400.49 148.175 400.49C152.675 400.49 154.835 403.82 154.925 407.54ZM148.115 402.71C145.385 402.71 143.885 404.36 143.555 406.28H152.285C152.135 404.36 150.665 402.71 148.115 402.71ZM168.526 416V414.41H167.866C166.936 415.58 165.316 416.39 163.156 416.39C159.676 416.39 157.726 414.05 157.726 411.47C157.726 409.04 159.316 406.46 163.516 406.46H168.436V405.86C168.436 404.03 167.386 402.71 164.746 402.71C162.496 402.71 161.356 403.58 161.236 404.9H158.686C158.896 402.11 161.296 400.49 164.686 400.49C168.496 400.49 170.926 402.32 170.926 405.71V416H168.526ZM163.786 414.17C166.306 414.17 168.436 412.28 168.436 409.88V408.5H163.906C161.416 408.5 160.276 409.58 160.276 411.38C160.276 413.09 161.536 414.17 163.786 414.17ZM182.855 402.71C179.495 402.71 178.115 405.47 178.115 408.44C178.115 411.41 179.495 414.17 182.855 414.17C185.885 414.17 187.505 411.8 187.505 408.44C187.505 405.08 185.885 402.71 182.855 402.71ZM175.595 400.88H178.055V402.5H178.715C179.555 401.45 181.025 400.49 183.425 400.49C187.595 400.49 190.055 403.97 190.055 408.44C190.055 413 187.595 416.39 183.425 416.39C181.025 416.39 179.615 415.46 178.805 414.38H178.145V422H175.595V400.88ZM197.655 416L190.815 394.58H193.665L199.515 413.24H201.015L206.865 394.58H209.655L202.815 416H197.655ZM220.82 416V414.41H220.16C219.23 415.58 217.61 416.39 215.45 416.39C211.97 416.39 210.02 414.05 210.02 411.47C210.02 409.04 211.61 406.46 215.81 406.46H220.73V405.86C220.73 404.03 219.68 402.71 217.04 402.71C214.79 402.71 213.65 403.58 213.53 404.9H210.98C211.19 402.11 213.59 400.49 216.98 400.49C220.79 400.49 223.22 402.32 223.22 405.71V416H220.82ZM216.08 414.17C218.6 414.17 220.73 412.28 220.73 409.88V408.5H216.2C213.71 408.5 212.57 409.58 212.57 411.38C212.57 413.09 213.83 414.17 216.08 414.17ZM236.53 400.88V403.28H235.27C232.27 403.28 230.44 405.11 230.44 408.44V416H227.89V400.88H230.35V402.68H231.01C231.76 401.75 233.2 400.88 235.39 400.88H236.53ZM263.552 409.37V411.56H248.372V409.37H263.552ZM263.552 403.4V405.59H248.372V403.4H263.552ZM379.826 416H378.326V412.52H381.446V416.57L379.766 419.45H378.146L379.826 416.57V416ZM381.446 404.36H378.326V400.88H381.446V404.36Z" fill="#274867"/>
<path d="M290.402 416H287.852V406.94C287.852 404.15 286.562 402.77 284.012 402.77C281.312 402.77 279.512 405.14 279.512 407.81V416H276.962V400.88H279.422V402.5H280.082C280.922 401.33 282.602 400.49 284.642 400.49C288.362 400.49 290.402 402.77 290.402 406.4V416ZM308.177 407.54V408.41H296.657C296.747 412.01 298.367 414.17 301.487 414.17C303.617 414.17 304.877 413.27 305.327 411.83H307.907C307.427 414.41 305.237 416.39 301.487 416.39C296.777 416.39 294.137 412.94 294.137 408.29C294.137 403.64 296.837 400.49 301.427 400.49C305.927 400.49 308.087 403.82 308.177 407.54ZM301.367 402.71C298.637 402.71 297.137 404.36 296.807 406.28H305.537C305.387 404.36 303.917 402.71 301.367 402.71ZM318.507 405.83H321.748L324.268 413.3H324.928L326.668 400.88H329.128L326.938 416H323.038L320.398 408.35H319.768L317.128 416H313.168L311.008 400.88H313.468L315.268 413.3H315.928L318.507 405.83Z" fill="#00C514"/>
<path d="M343.939 396.95H341.239V394.19H343.939V396.95ZM343.849 400.88V416H341.299V400.88H343.849ZM362.296 416H359.746V406.94C359.746 404.15 358.456 402.77 355.906 402.77C353.206 402.77 351.406 405.14 351.406 407.81V416H348.856V400.88H351.316V402.5H351.976C352.816 401.33 354.496 400.49 356.536 400.49C360.256 400.49 362.296 402.77 362.296 406.4V416ZM370.472 400.88H374.282V403.1H370.472V411.41C370.472 412.94 371.132 413.72 373.172 413.72H374.282V416H373.112C369.842 416 367.922 414.98 367.922 411.77V403.1H365.312V400.88H367.922V396.32H370.472V400.88Z" fill="#6E3AA3"/>
<path d="M127.12 452.58H129.13L128.98 457.65L133.78 455.91L134.41 457.86L129.55 459.3L132.64 463.29L130.99 464.52L128.11 460.35L125.26 464.52L123.61 463.29L126.7 459.3L121.87 457.86L122.5 455.91L127.27 457.65L127.12 452.58ZM151.138 474H148.588V464.94C148.588 462.21 147.298 460.77 144.748 460.77C142.048 460.77 140.248 463.14 140.248 465.81V474H137.698V452.19H140.248V460.5H140.908C141.718 459.33 143.368 458.49 145.408 458.49C149.098 458.49 151.138 460.77 151.138 464.4V474ZM168.914 465.54V466.41H157.394C157.484 470.01 159.104 472.17 162.224 472.17C164.354 472.17 165.614 471.27 166.064 469.83H168.644C168.164 472.41 165.974 474.39 162.224 474.39C157.514 474.39 154.874 470.94 154.874 466.29C154.874 461.64 157.574 458.49 162.164 458.49C166.664 458.49 168.824 461.82 168.914 465.54ZM162.104 460.71C159.374 460.71 157.874 462.36 157.544 464.28H166.274C166.124 462.36 164.654 460.71 162.104 460.71ZM182.514 474V472.41H181.854C180.924 473.58 179.304 474.39 177.144 474.39C173.664 474.39 171.714 472.05 171.714 469.47C171.714 467.04 173.304 464.46 177.504 464.46H182.424V463.86C182.424 462.03 181.374 460.71 178.734 460.71C176.484 460.71 175.344 461.58 175.224 462.9H172.674C172.884 460.11 175.284 458.49 178.674 458.49C182.484 458.49 184.914 460.32 184.914 463.71V474H182.514ZM177.774 472.17C180.294 472.17 182.424 470.28 182.424 467.88V466.5H177.894C175.404 466.5 174.264 467.58 174.264 469.38C174.264 471.09 175.524 472.17 177.774 472.17ZM196.843 460.71C193.483 460.71 192.103 463.47 192.103 466.44C192.103 469.41 193.483 472.17 196.843 472.17C199.873 472.17 201.493 469.8 201.493 466.44C201.493 463.08 199.873 460.71 196.843 460.71ZM189.583 458.88H192.043V460.5H192.703C193.543 459.45 195.013 458.49 197.413 458.49C201.583 458.49 204.043 461.97 204.043 466.44C204.043 471 201.583 474.39 197.413 474.39C195.013 474.39 193.603 473.46 192.793 472.38H192.133V480H189.583V458.88ZM211.643 474L204.803 452.58H207.653L213.503 471.24H215.003L220.853 452.58H223.643L216.803 474H211.643ZM234.809 474V472.41H234.149C233.219 473.58 231.599 474.39 229.439 474.39C225.959 474.39 224.009 472.05 224.009 469.47C224.009 467.04 225.599 464.46 229.799 464.46H234.719V463.86C234.719 462.03 233.669 460.71 231.029 460.71C228.779 460.71 227.639 461.58 227.519 462.9H224.969C225.179 460.11 227.579 458.49 230.969 458.49C234.779 458.49 237.209 460.32 237.209 463.71V474H234.809ZM230.069 472.17C232.589 472.17 234.719 470.28 234.719 467.88V466.5H230.189C227.699 466.5 226.559 467.58 226.559 469.38C226.559 471.09 227.819 472.17 230.069 472.17ZM250.518 458.88V461.28H249.258C246.258 461.28 244.428 463.11 244.428 466.44V474H241.878V458.88H244.338V460.68H244.998C245.748 459.75 247.188 458.88 249.378 458.88H250.518ZM277.54 467.37V469.56H262.36V467.37H277.54ZM277.54 461.4V463.59H262.36V461.4H277.54ZM328.511 474H327.011V470.52H330.131V474.57L328.451 477.45H326.831L328.511 474.57V474ZM330.131 462.36H327.011V458.88H330.131V462.36Z" fill="#274867"/>
<path d="M292.72 458.79H290.08C290.32 454.59 293.35 452.58 297.07 452.58C301 452.58 303.88 454.77 303.88 458.97C303.88 461.82 301.72 464.49 299.23 466.56L293.95 471V471.66H304.54V474H290.11V471.03L293.2 468.51C294.88 467.16 296.86 465.48 297.97 464.46C299.41 463.17 301.24 461.46 301.24 458.97C301.24 456.33 299.56 454.92 297.01 454.92C294.64 454.92 292.99 456.15 292.72 458.79ZM315.311 452.58C319.751 452.58 323.051 455.94 323.051 463.5C323.051 471.06 319.751 474.39 315.311 474.39C310.871 474.39 307.601 471.06 307.601 463.5C307.601 455.94 310.871 452.58 315.311 452.58ZM315.311 472.05C318.821 472.05 320.411 468.69 320.411 463.5C320.411 458.28 318.821 454.92 315.311 454.92C311.831 454.92 310.241 458.28 310.241 463.5C310.241 468.69 311.831 472.05 315.311 472.05Z" fill="#007BFF"/>
<path d="M134.44 510.19H136.99V532H134.53V530.38H133.87C133.03 531.43 131.56 532.39 129.16 532.39C124.99 532.39 122.53 528.91 122.53 524.44C122.53 519.88 124.99 516.49 129.16 516.49C131.56 516.49 132.94 517.42 133.78 518.5H134.44V510.19ZM129.73 530.17C133.09 530.17 134.47 527.41 134.47 524.44C134.47 521.47 133.09 518.71 129.73 518.71C126.7 518.71 125.08 521.08 125.08 524.44C125.08 527.8 126.7 530.17 129.73 530.17ZM155.027 523.54V524.41H143.507C143.597 528.01 145.217 530.17 148.337 530.17C150.467 530.17 151.727 529.27 152.177 527.83H154.757C154.277 530.41 152.087 532.39 148.337 532.39C143.627 532.39 140.987 528.94 140.987 524.29C140.987 519.64 143.687 516.49 148.277 516.49C152.777 516.49 154.937 519.82 155.027 523.54ZM148.217 518.71C145.487 518.71 143.987 520.36 143.657 522.28H152.387C152.237 520.36 150.767 518.71 148.217 518.71ZM158.997 510.19H161.547V532H158.997V510.19ZM179.578 523.54V524.41H168.058C168.148 528.01 169.768 530.17 172.888 530.17C175.018 530.17 176.278 529.27 176.728 527.83H179.308C178.828 530.41 176.638 532.39 172.888 532.39C168.178 532.39 165.538 528.94 165.538 524.29C165.538 519.64 168.238 516.49 172.828 516.49C177.328 516.49 179.488 519.82 179.578 523.54ZM172.768 518.71C170.038 518.71 168.538 520.36 168.208 522.28H176.938C176.788 520.36 175.318 518.71 172.768 518.71ZM187.058 516.88H190.868V519.1H187.058V527.41C187.058 528.94 187.718 529.72 189.758 529.72H190.868V532H189.698C186.428 532 184.508 530.98 184.508 527.77V519.1H181.898V516.88H184.508V512.32H187.058V516.88ZM207.937 523.54V524.41H196.417C196.507 528.01 198.127 530.17 201.247 530.17C203.377 530.17 204.637 529.27 205.087 527.83H207.667C207.187 530.41 204.997 532.39 201.247 532.39C196.537 532.39 193.897 528.94 193.897 524.29C193.897 519.64 196.597 516.49 201.187 516.49C205.687 516.49 207.847 519.82 207.937 523.54ZM201.127 518.71C198.397 518.71 196.897 520.36 196.567 522.28H205.297C205.147 520.36 203.677 518.71 201.127 518.71ZM233.697 532H231.147V522.94C231.147 520.21 229.857 518.77 227.307 518.77C224.607 518.77 222.807 521.14 222.807 523.81V532H220.257V510.19H222.807V518.5H223.467C224.277 517.33 225.927 516.49 227.967 516.49C231.657 516.49 233.697 518.77 233.697 522.4V532ZM251.472 523.54V524.41H239.952C240.042 528.01 241.662 530.17 244.782 530.17C246.912 530.17 248.172 529.27 248.622 527.83H251.202C250.722 530.41 248.532 532.39 244.782 532.39C240.072 532.39 237.432 528.94 237.432 524.29C237.432 519.64 240.132 516.49 244.722 516.49C249.222 516.49 251.382 519.82 251.472 523.54ZM244.662 518.71C241.932 518.71 240.432 520.36 240.102 522.28H248.832C248.682 520.36 247.212 518.71 244.662 518.71ZM265.072 532V530.41H264.412C263.482 531.58 261.862 532.39 259.702 532.39C256.222 532.39 254.272 530.05 254.272 527.47C254.272 525.04 255.862 522.46 260.062 522.46H264.982V521.86C264.982 520.03 263.932 518.71 261.292 518.71C259.042 518.71 257.902 519.58 257.782 520.9H255.232C255.442 518.11 257.842 516.49 261.232 516.49C265.042 516.49 267.472 518.32 267.472 521.71V532H265.072ZM260.332 530.17C262.852 530.17 264.982 528.28 264.982 525.88V524.5H260.452C257.962 524.5 256.822 525.58 256.822 527.38C256.822 529.09 258.082 530.17 260.332 530.17ZM279.402 518.71C276.042 518.71 274.662 521.47 274.662 524.44C274.662 527.41 276.042 530.17 279.402 530.17C282.432 530.17 284.052 527.8 284.052 524.44C284.052 521.08 282.432 518.71 279.402 518.71ZM272.142 516.88H274.602V518.5H275.262C276.102 517.45 277.572 516.49 279.972 516.49C284.142 516.49 286.602 519.97 286.602 524.44C286.602 529 284.142 532.39 279.972 532.39C277.572 532.39 276.162 531.46 275.352 530.38H274.692V538H272.142V516.88ZM294.202 532L287.362 510.58H290.212L296.062 529.24H297.562L303.412 510.58H306.202L299.362 532H294.202ZM317.367 532V530.41H316.707C315.777 531.58 314.157 532.39 311.997 532.39C308.517 532.39 306.567 530.05 306.567 527.47C306.567 525.04 308.157 522.46 312.357 522.46H317.277V521.86C317.277 520.03 316.227 518.71 313.587 518.71C311.337 518.71 310.197 519.58 310.077 520.9H307.527C307.737 518.11 310.137 516.49 313.527 516.49C317.337 516.49 319.767 518.32 319.767 521.71V532H317.367ZM312.627 530.17C315.147 530.17 317.277 528.28 317.277 525.88V524.5H312.747C310.257 524.5 309.117 525.58 309.117 527.38C309.117 529.09 310.377 530.17 312.627 530.17ZM333.077 516.88V519.28H331.817C328.817 519.28 326.987 521.11 326.987 524.44V532H324.437V516.88H326.897V518.68H327.557C328.307 517.75 329.747 516.88 331.937 516.88H333.077ZM337.769 532H336.269V528.52H339.389V532.57L337.709 535.45H336.089L337.769 532.57V532ZM339.389 520.36H336.269V516.88H339.389V520.36Z" fill="#274867"/>
<path d="M132.1 574.88V577.28H130.84C127.84 577.28 126.01 579.11 126.01 582.44V590H123.46V574.88H125.92V576.68H126.58C127.33 575.75 128.77 574.88 130.96 574.88H132.1ZM148.552 581.54V582.41H137.032C137.122 586.01 138.742 588.17 141.862 588.17C143.992 588.17 145.252 587.27 145.702 585.83H148.282C147.802 588.41 145.612 590.39 141.862 590.39C137.152 590.39 134.512 586.94 134.512 582.29C134.512 577.64 137.212 574.49 141.802 574.49C146.302 574.49 148.462 577.82 148.552 581.54ZM141.742 576.71C139.012 576.71 137.512 578.36 137.182 580.28H145.912C145.762 578.36 144.292 576.71 141.742 576.71ZM156.033 574.88H159.843V577.1H156.033V585.41C156.033 586.94 156.693 587.72 158.733 587.72H159.843V590H158.673C155.403 590 153.483 588.98 153.483 585.77V577.1H150.873V574.88H153.483V570.32H156.033V574.88ZM163.796 574.88H166.346V583.94C166.346 586.73 167.636 588.11 170.186 588.11C172.856 588.11 174.686 585.8 174.686 583.07V574.88H177.236V590H174.776V588.38H174.116C173.276 589.55 171.596 590.39 169.556 590.39C165.836 590.39 163.796 588.11 163.796 584.48V574.88ZM190.782 574.88V577.28H189.522C186.522 577.28 184.692 579.11 184.692 582.44V590H182.142V574.88H184.602V576.68H185.262C186.012 575.75 187.452 574.88 189.642 574.88H190.782ZM207.564 590H205.014V580.94C205.014 578.15 203.724 576.77 201.174 576.77C198.474 576.77 196.674 579.14 196.674 581.81V590H194.124V574.88H196.584V576.5H197.244C198.084 575.33 199.764 574.49 201.804 574.49C205.524 574.49 207.564 576.77 207.564 580.4V590Z" fill="#6E3AA3"/>
<path d="M240.679 590H239.179V586.52H242.299V590.57L240.619 593.45H238.999L240.679 590.57V590ZM242.299 578.36H239.179V574.88H242.299V578.36Z" fill="#274867"/>
<path d="M227.479 568.58C231.919 568.58 235.219 571.94 235.219 579.5C235.219 587.06 231.919 590.39 227.479 590.39C223.039 590.39 219.769 587.06 219.769 579.5C219.769 571.94 223.039 568.58 227.479 568.58ZM227.479 588.05C230.989 588.05 232.579 584.69 232.579 579.5C232.579 574.28 230.989 570.92 227.479 570.92C223.999 570.92 222.409 574.28 222.409 579.5C222.409 584.69 223.999 588.05 227.479 588.05Z" fill="#007BFF"/>
<path d="M105.48 643.06V642.4C104.49 642.07 103.83 641.14 103.83 639.25V634.24C103.83 632.08 102.84 631.27 101.16 631.27H100.17V629.23H101.34C104.19 629.23 106.23 630.88 106.23 634V638.8C106.23 640.63 106.59 641.68 108.12 641.68H108.54V643.78H108.12C106.59 643.78 106.23 644.83 106.23 646.66V651.46C106.23 654.58 104.19 656.23 101.34 656.23H100.17V654.19H101.16C102.84 654.19 103.83 653.38 103.83 651.22V646.21C103.83 644.32 104.49 643.39 105.48 643.06Z" fill="#274867"/>
<path d="M695.485 25.95H692.785V23.19H695.485V25.95ZM695.395 29.88V45H692.845V29.88H695.395ZM713.842 45H711.292V35.94C711.292 33.15 710.002 31.77 707.452 31.77C704.752 31.77 702.952 34.14 702.952 36.81V45H700.402V29.88H702.862V31.5H703.522C704.362 30.33 706.042 29.49 708.082 29.49C711.802 29.49 713.842 31.77 713.842 35.4V45ZM722.018 29.88H725.828V32.1H722.018V40.41C722.018 41.94 722.678 42.72 724.718 42.72H725.828V45H724.658C721.388 45 719.468 43.98 719.468 40.77V32.1L716.858 32.1V29.88L719.468 29.88V25.32L722.018 25.32V29.88ZM731.402 35.64C731.402 41.67 733.772 45.96 736.232 49.23H733.772C731.162 46.14 729.002 41.61 729.002 35.64C729.002 29.73 731.102 25.35 733.562 22.23H736.022C733.622 25.5 731.402 29.7 731.402 35.64ZM749.309 37.74H752.189V40.08H749.309V45H746.729V40.08L736.349 40.08V37.08L745.619 24L749.309 24V37.74ZM739.109 37.74L746.759 37.74V26.97H746.099L739.109 37.08V37.74ZM772.187 29.49C776.357 29.49 778.817 32.88 778.817 37.44C778.817 41.91 776.357 45.39 772.187 45.39C769.787 45.39 768.317 44.43 767.477 43.38H766.817V45H764.357V23.19L766.907 23.19V31.5H767.567C768.377 30.42 769.787 29.49 772.187 29.49ZM771.617 43.17C774.647 43.17 776.267 40.8 776.267 37.44C776.267 34.08 774.647 31.71 771.617 31.71C768.257 31.71 766.877 34.47 766.877 37.44C766.877 40.41 768.257 43.17 771.617 43.17ZM786.894 51H784.314L787.434 43.59L780.984 29.88H783.714L788.334 39.84H789.084L793.284 29.88L795.954 29.88L786.894 51ZM802.467 29.88L806.277 29.88V32.1L802.467 32.1V40.41C802.467 41.94 803.127 42.72 805.167 42.72H806.277V45H805.107C801.837 45 799.917 43.98 799.917 40.77V32.1H797.307V29.88H799.917V25.32H802.467V29.88ZM823.346 36.54V37.41H811.826C811.916 41.01 813.536 43.17 816.656 43.17C818.786 43.17 820.046 42.27 820.496 40.83H823.076C822.596 43.41 820.406 45.39 816.656 45.39C811.946 45.39 809.306 41.94 809.306 37.29C809.306 32.64 812.006 29.49 816.596 29.49C821.096 29.49 823.256 32.82 823.346 36.54ZM816.536 31.71C813.806 31.71 812.306 33.36 811.976 35.28H820.706C820.556 33.36 819.086 31.71 816.536 31.71ZM829.836 35.64C829.836 29.7 827.616 25.5 825.216 22.23H827.676C830.136 25.35 832.236 29.73 832.236 35.64C832.236 41.61 830.076 46.14 827.466 49.23H825.006C827.466 45.96 829.836 41.67 829.836 35.64Z" fill="#274867"/>
<path d="M1042.33 23.58H1044.34L1044.19 28.65L1048.99 26.91L1049.62 28.86L1044.76 30.3L1047.85 34.29L1046.2 35.52L1043.32 31.35L1040.47 35.52L1038.82 34.29L1041.91 30.3L1037.08 28.86L1037.71 26.91L1042.48 28.65L1042.33 23.58ZM1055.6 25.95H1052.9V23.19H1055.6V25.95ZM1055.51 29.88V45H1052.96V29.88H1055.51ZM1073.96 45H1071.41V35.94C1071.41 33.15 1070.12 31.77 1067.57 31.77C1064.87 31.77 1063.07 34.14 1063.07 36.81V45H1060.52V29.88H1062.98V31.5L1063.64 31.5C1064.48 30.33 1066.16 29.49 1068.2 29.49C1071.92 29.49 1073.96 31.77 1073.96 35.4V45ZM1082.14 29.88H1085.95V32.1H1082.14V40.41C1082.14 41.94 1082.8 42.72 1084.84 42.72H1085.95V45H1084.78C1081.51 45 1079.59 43.98 1079.59 40.77V32.1H1076.98V29.88H1079.59V25.32H1082.14V29.88ZM1091.52 35.64C1091.52 41.67 1093.89 45.96 1096.35 49.23H1093.89C1091.28 46.14 1089.12 41.61 1089.12 35.64C1089.12 29.73 1091.22 25.35 1093.68 22.23H1096.14C1093.74 25.5 1091.52 29.7 1091.52 35.64ZM1109.43 37.74H1112.31V40.08H1109.43V45H1106.85V40.08H1096.47V37.08L1105.74 24H1109.43V37.74ZM1099.23 37.74H1106.88V26.97H1106.22L1099.23 37.08V37.74ZM1132.31 29.49C1136.48 29.49 1138.94 32.88 1138.94 37.44C1138.94 41.91 1136.48 45.39 1132.31 45.39C1129.91 45.39 1128.44 44.43 1127.6 43.38H1126.94V45H1124.48V23.19H1127.03V31.5H1127.69C1128.5 30.42 1129.91 29.49 1132.31 29.49ZM1131.74 43.17C1134.77 43.17 1136.39 40.8 1136.39 37.44C1136.39 34.08 1134.77 31.71 1131.74 31.71C1128.38 31.71 1127 34.47 1127 37.44C1127 40.41 1128.38 43.17 1131.74 43.17ZM1147.01 51L1144.43 51L1147.55 43.59L1141.1 29.88H1143.83L1148.45 39.84H1149.2L1153.4 29.88H1156.07L1147.01 51ZM1162.59 29.88H1166.4V32.1H1162.59V40.41C1162.59 41.94 1163.25 42.72 1165.29 42.72H1166.4V45H1165.23C1161.96 45 1160.04 43.98 1160.04 40.77V32.1H1157.43V29.88H1160.04V25.32H1162.59V29.88ZM1183.47 36.54V37.41L1171.95 37.41C1172.04 41.01 1173.66 43.17 1176.78 43.17C1178.91 43.17 1180.17 42.27 1180.62 40.83H1183.2C1182.72 43.41 1180.53 45.39 1176.78 45.39C1172.07 45.39 1169.43 41.94 1169.43 37.29C1169.43 32.64 1172.13 29.49 1176.72 29.49C1181.22 29.49 1183.38 32.82 1183.47 36.54ZM1176.66 31.71C1173.93 31.71 1172.43 33.36 1172.1 35.28L1180.83 35.28C1180.68 33.36 1179.21 31.71 1176.66 31.71ZM1189.96 35.64C1189.96 29.7 1187.74 25.5 1185.34 22.23H1187.8C1190.26 25.35 1192.36 29.73 1192.36 35.64C1192.36 41.61 1190.2 46.14 1187.59 49.23H1185.13C1187.59 45.96 1189.96 41.67 1189.96 35.64Z" fill="#274867"/>
<path d="M588 122L588 34L662 34" stroke="#274867" stroke-width="2"/>
<path d="M658.406 27V41.1091L675.005 33.9802L658.406 27Z" fill="#274867"/>
<path d="M939 122L939 34L1013 34" stroke="#274867" stroke-width="2"/>
<path d="M1009.41 27V41.1091L1026.01 33.9802L1009.41 27Z" fill="#274867"/>
<path d="M935.004 122L935.004 34L861.004 34" stroke="#274867" stroke-width="2"/>
<path d="M864.598 27V41.1091L847.999 33.9802L864.598 27Z" fill="#274867"/>
<path d="M1287 122L1287 34L1213 34" stroke="#274867" stroke-width="2"/>
<path d="M1216.6 27V41.1091L1200 33.9802L1216.6 27Z" fill="#274867"/>
<path d="M373.504 261.504L575.867 152.622" stroke="#274867" stroke-width="2"/>
<path d="M569.223 148.406L576.365 160.574L587.071 146.023L569.223 148.406Z" fill="#274867"/>
<path d="M1025 192.5C899 303 974.001 402.5 1029.64 405.546" stroke="#274867" stroke-width="2"/>
<path d="M1026.04 398.547V412.656L1042.64 405.527L1026.04 398.547Z" fill="#274867"/>
<path d="M314 349.004L981.363 199.954" stroke="#274867" stroke-width="2"/>
<path d="M975.715 193.719L979.049 207.428L993.493 196.578L975.715 193.719Z" fill="#274867"/>
<path d="M392.004 408L943.146 324.9" stroke="#274867" stroke-width="2"/>
<path d="M937.75 318.445L940.527 332.278L955.398 322.022L937.75 318.445Z" fill="#274867"/>
<path d="M343 466.5L1204.14 407.97" stroke="#274867" stroke-width="2"/>
<path d="M1199.33 400.582L1200.7 414.625L1216.53 405.924L1199.33 400.582Z" fill="#274867"/>
</g>
<defs>
<clipPath id="clip0_192_2456">
<rect width="1474" height="846" fill="white"/>
</clipPath>
</defs>
</svg>
