<svg width="1474" height="464" viewBox="0 0 1474 464" fill="none" xmlns="http://www.w3.org/2000/svg">
<g clip-path="url(#clip0_257_1956)">
<rect width="1474" height="464" fill="white"/>
<rect x="16" y="14" width="1441" height="71" fill="#CCE5FF"/>
<rect x="16" y="85" width="1441" height="366" fill="white"/>
<rect x="17" y="15" width="1441" height="435" stroke="#274867" stroke-width="2"/>
<line x1="400" y1="14" x2="400" y2="451" stroke="#274867" stroke-width="2"/>
<line x1="1457" y1="86" x2="16" y2="86" stroke="#274867" stroke-width="2"/>
<line x1="1457" y1="159" x2="16" y2="159" stroke="#274867" stroke-width="2"/>
<line x1="1457" y1="232" x2="16" y2="232" stroke="#274867" stroke-width="2"/>
<line x1="1457" y1="305" x2="16" y2="305" stroke="#274867" stroke-width="2"/>
<line x1="1457" y1="378" x2="16" y2="378" stroke="#274867" stroke-width="2"/>
<line x1="904" y1="14" x2="904" y2="451" stroke="#274867" stroke-width="2"/>
<path d="M65.336 59L62.968 51.992H52.952L50.584 59H47.64L55.544 36.152H60.408L68.344 59H65.336ZM57.304 39.096L53.816 49.368H62.072L58.584 39.096H57.304ZM71.5928 35.736H74.3128V59H71.5928V35.736ZM91.3695 42.872H93.9935V58.2C93.9935 62.712 91.1775 65.624 86.4735 65.624C82.3455 65.624 79.6575 63.896 79.1775 60.696L81.8655 60.696C82.3455 62.616 84.0095 63.32 86.4415 63.32C89.7695 63.32 91.2735 61.304 91.2735 58.072V56.792H90.5695C89.7055 57.912 88.1695 58.936 85.7375 58.936C81.2895 58.936 78.5695 55.416 78.5695 50.712C78.5695 45.976 81.2895 42.456 85.7375 42.456C88.2655 42.456 89.8015 43.48 90.6655 44.6H91.3695V42.872ZM86.2495 56.568C89.7055 56.568 91.3375 53.784 91.3375 50.712C91.3375 47.608 89.7055 44.824 86.2495 44.824C83.0815 44.824 81.2895 47.16 81.2895 50.712C81.2895 54.2 83.0815 56.568 86.2495 56.568ZM106.193 42.456C111.217 42.456 114.129 46.168 114.129 50.936C114.129 55.704 111.217 59.416 106.193 59.416C101.137 59.416 98.257 55.704 98.257 50.936C98.257 46.168 101.137 42.456 106.193 42.456ZM106.193 57.048C109.745 57.048 111.409 54.104 111.409 50.936C111.409 47.768 109.745 44.824 106.193 44.824C102.609 44.824 100.977 47.768 100.977 50.936C100.977 54.104 102.609 57.048 106.193 57.048ZM127.59 42.872V45.432H126.246C123.046 45.432 121.094 47.384 121.094 50.936V59H118.374V42.872H120.998V44.792H121.702C122.502 43.8 124.038 42.872 126.374 42.872H127.59ZM136.664 65.4H133.911L137.24 57.496L130.36 42.872H133.272L138.2 53.496H139L143.48 42.872H146.328L136.664 65.4ZM153.274 42.872H157.338V45.24H153.274V54.104C153.274 55.736 153.978 56.568 156.154 56.568H157.338V59H156.09C152.602 59 150.554 57.912 150.554 54.488V45.24H147.77V42.872H150.554V38.008H153.274V42.872ZM176.148 59H173.428V49.336C173.428 46.424 172.052 44.888 169.332 44.888C166.452 44.888 164.532 47.416 164.532 50.264V59H161.812V35.736H164.532V44.6H165.236C166.1 43.352 167.86 42.456 170.036 42.456C173.972 42.456 176.148 44.888 176.148 48.76V59ZM198.052 42.456C201.764 42.456 203.364 44.856 203.364 48.568V59H200.644V48.856C200.644 46.2 199.62 44.888 197.54 44.888C195.012 44.888 193.604 46.84 193.604 49.56V59H190.884V48.92C190.884 46.264 189.828 44.888 187.812 44.888C185.124 44.888 183.844 47.16 183.844 50.072V59H181.124V42.872H183.748V44.44H184.452C185.252 43.192 186.5 42.456 188.548 42.456C190.5 42.456 191.94 43.16 192.804 44.6H193.508C194.5 43.16 196.036 42.456 198.052 42.456Z" fill="#274867"/>
<path d="M51.192 114.832H52.792V118.544H49.464V114.224L51.256 111.152H52.984L51.192 114.224V114.832ZM71.2603 123.952L72.7963 124.208L74.6203 124.496C77.4363 124.976 79.2283 126.416 79.2283 129.36C79.2283 132.016 76.9563 134.416 72.6042 134.416C68.0283 134.416 65.7883 132.4 65.4363 129.328H68.1883C68.4443 131.152 70.0443 132.048 72.4763 132.048C74.9083 132.048 76.5083 131.184 76.5083 129.424C76.5083 128.016 75.6123 127.248 73.5642 126.896L69.9483 126.288C67.6443 125.872 66.0763 124.656 66.0763 122.224C66.0763 119.536 68.0923 117.456 72.4443 117.456C76.2523 117.456 78.4603 119.248 78.8123 122.064H76.0923C75.8683 120.528 74.3323 119.824 72.3163 119.824C70.2363 119.824 68.8283 120.592 68.8283 121.968C68.8283 123.216 69.6283 123.696 71.2603 123.952ZM86.9618 117.872H91.0258V120.24H86.9618V129.104C86.9618 130.736 87.6658 131.568 89.8418 131.568H91.0258V134H89.7778C86.2898 134 84.2418 132.912 84.2418 129.488V120.24H81.4578V117.872H84.2418V113.008H86.9618V117.872ZM106.961 110.736H109.681V134H107.057V132.272H106.353C105.457 133.392 103.889 134.416 101.329 134.416C96.881 134.416 94.257 130.704 94.257 125.936C94.257 121.072 96.881 117.456 101.329 117.456C103.889 117.456 105.361 118.448 106.257 119.6H106.961V110.736ZM101.937 132.048C105.521 132.048 106.993 129.104 106.993 125.936C106.993 122.768 105.521 119.824 101.937 119.824C98.705 119.824 96.977 122.352 96.977 125.936C96.977 129.52 98.705 132.048 101.937 132.048ZM118.105 134H114.777V130.288H118.105V134ZM118.105 121.584H114.777V117.872H118.105V121.584ZM135.261 134H131.933V130.288H135.261V134ZM135.261 121.584H131.933V117.872H135.261V121.584ZM151.255 129.136H153.975C153.367 132.304 150.935 134.416 147.191 134.416C142.167 134.416 139.351 130.704 139.351 125.936C139.351 121.072 142.167 117.456 147.191 117.456C151.031 117.456 153.335 119.568 153.879 122.544H151.159C150.647 120.912 149.399 119.824 147.191 119.824C143.543 119.824 142.071 122.672 142.071 125.872C142.071 129.104 143.575 132.048 147.191 132.048C149.495 132.048 150.839 130.928 151.255 129.136ZM164.974 117.456C169.998 117.456 172.91 121.168 172.91 125.936C172.91 130.704 169.998 134.416 164.974 134.416C159.918 134.416 157.038 130.704 157.038 125.936C157.038 121.168 159.918 117.456 164.974 117.456ZM164.974 132.048C168.526 132.048 170.19 129.104 170.19 125.936C170.19 122.768 168.526 119.824 164.974 119.824C161.39 119.824 159.758 122.768 159.758 125.936C159.758 129.104 161.39 132.048 164.974 132.048ZM176.899 117.872H179.619V127.536C179.619 130.512 180.995 131.984 183.715 131.984C186.563 131.984 188.515 129.52 188.515 126.608V117.872H191.235V134H188.611V132.272H187.907C187.011 133.52 185.219 134.416 183.043 134.416C179.075 134.416 176.899 131.984 176.899 128.112V117.872ZM210.804 134H208.084V124.336C208.084 121.36 206.708 119.888 203.988 119.888C201.108 119.888 199.188 122.416 199.188 125.264V134H196.468V117.872H199.092V119.6H199.796C200.692 118.352 202.484 117.456 204.66 117.456C208.628 117.456 210.804 119.888 210.804 123.76V134ZM219.524 117.872H223.588V120.24H219.524V129.104C219.524 130.736 220.228 131.568 222.404 131.568H223.588V134H222.34C218.852 134 216.804 132.912 216.804 129.488V120.24H214.02V117.872H216.804V113.008H219.524V117.872ZM229.502 114.864H227.902V111.152H231.23V115.472L229.438 118.544H227.71L229.502 115.472V114.864Z" fill="#274867"/>
<path d="M442.416 110.736C449.36 110.736 453.072 116.016 453.072 122.576C453.072 129.136 449.36 134.416 442.416 134.416C435.44 134.416 431.76 129.136 431.76 122.576C431.76 116.016 435.44 110.736 442.416 110.736ZM442.416 131.792C447.856 131.792 450.16 127.344 450.16 122.576C450.16 117.808 447.856 113.36 442.416 113.36C436.976 113.36 434.672 117.808 434.672 122.576C434.672 127.344 436.976 131.792 442.416 131.792ZM458.94 124.016C458.94 130.448 461.468 135.024 464.092 138.512H461.468C458.684 135.216 456.38 130.384 456.38 124.016C456.38 117.712 458.62 113.04 461.244 109.712H463.868C461.308 113.2 458.94 117.68 458.94 124.016ZM481.21 134H478.49V124.336C478.49 121.36 477.114 119.888 474.394 119.888C471.514 119.888 469.594 122.416 469.594 125.264V134H466.874V117.872H469.498V119.6H470.202C471.098 118.352 472.89 117.456 475.066 117.456C479.034 117.456 481.21 119.888 481.21 123.76V134ZM488.875 124.016C488.875 117.68 486.507 113.2 483.947 109.712H486.571C489.195 113.04 491.435 117.712 491.435 124.016C491.435 130.384 489.131 135.216 486.347 138.512H483.723C486.347 135.024 488.875 130.448 488.875 124.016Z" fill="#274867"/>
<path d="M948.416 110.736C955.36 110.736 959.072 116.016 959.072 122.576C959.072 129.136 955.36 134.416 948.416 134.416C941.44 134.416 937.76 129.136 937.76 122.576C937.76 116.016 941.44 110.736 948.416 110.736ZM948.416 131.792C953.856 131.792 956.16 127.344 956.16 122.576C956.16 117.808 953.856 113.36 948.416 113.36C942.976 113.36 940.672 117.808 940.672 122.576C940.672 127.344 942.976 131.792 948.416 131.792ZM964.94 124.016C964.94 130.448 967.468 135.024 970.092 138.512H967.468C964.684 135.216 962.38 130.384 962.38 124.016C962.38 117.712 964.62 113.04 967.244 109.712H969.868C967.308 113.2 964.94 117.68 964.94 124.016ZM987.21 134H984.49V124.336C984.49 121.36 983.114 119.888 980.394 119.888C977.514 119.888 975.594 122.416 975.594 125.264V134H972.874V117.872H975.498V119.6H976.202C977.098 118.352 978.89 117.456 981.066 117.456C985.034 117.456 987.21 119.888 987.21 123.76V134ZM994.875 124.016C994.875 117.68 992.507 113.2 989.947 109.712H992.571C995.195 113.04 997.435 117.712 997.435 124.016C997.435 130.384 995.131 135.216 992.347 138.512H989.723C992.347 135.024 994.875 130.448 994.875 124.016Z" fill="#274867"/>
<path d="M51.192 187.832H52.792V191.544H49.464V187.224L51.256 184.152H52.984L51.192 187.224V187.832ZM71.2603 196.952L72.7963 197.208L74.6203 197.496C77.4363 197.976 79.2283 199.416 79.2283 202.36C79.2283 205.016 76.9563 207.416 72.6042 207.416C68.0283 207.416 65.7883 205.4 65.4363 202.328H68.1883C68.4443 204.152 70.0443 205.048 72.4763 205.048C74.9083 205.048 76.5083 204.184 76.5083 202.424C76.5083 201.016 75.6123 200.248 73.5642 199.896L69.9483 199.288C67.6443 198.872 66.0763 197.656 66.0763 195.224C66.0763 192.536 68.0923 190.456 72.4443 190.456C76.2523 190.456 78.4603 192.248 78.8123 195.064H76.0923C75.8683 193.528 74.3323 192.824 72.3163 192.824C70.2363 192.824 68.8283 193.592 68.8283 194.968C68.8283 196.216 69.6283 196.696 71.2603 196.952ZM86.9618 190.872H91.0258V193.24H86.9618V202.104C86.9618 203.736 87.6658 204.568 89.8418 204.568H91.0258V207H89.7778C86.2898 207 84.2418 205.912 84.2418 202.488V193.24H81.4578V190.872H84.2418V186.008H86.9618V190.872ZM106.961 183.736H109.681V207H107.057V205.272H106.353C105.457 206.392 103.889 207.416 101.329 207.416C96.881 207.416 94.257 203.704 94.257 198.936C94.257 194.072 96.881 190.456 101.329 190.456C103.889 190.456 105.361 191.448 106.257 192.6H106.961V183.736ZM101.937 205.048C105.521 205.048 106.993 202.104 106.993 198.936C106.993 195.768 105.521 192.824 101.937 192.824C98.705 192.824 96.977 195.352 96.977 198.936C96.977 202.52 98.705 205.048 101.937 205.048ZM118.105 207H114.777V203.288H118.105V207ZM118.105 194.584H114.777V190.872H118.105V194.584ZM135.261 207H131.933V203.288H135.261V207ZM135.261 194.584H131.933V190.872H135.261V194.584ZM150.615 207V205.304H149.911C148.919 206.552 147.191 207.416 144.887 207.416C141.175 207.416 139.095 204.92 139.095 202.168C139.095 199.576 140.791 196.824 145.271 196.824H150.519V196.184C150.519 194.232 149.399 192.824 146.583 192.824C144.183 192.824 142.967 193.752 142.839 195.16L140.119 195.16C140.343 192.184 142.903 190.456 146.519 190.456C150.583 190.456 153.175 192.408 153.175 196.024V207H150.615ZM145.559 205.048C148.247 205.048 150.519 203.032 150.519 200.472V199L145.687 199C143.031 199 141.815 200.152 141.815 202.072C141.815 203.896 143.159 205.048 145.559 205.048ZM169.067 202.136H171.787C171.179 205.304 168.747 207.416 165.003 207.416C159.979 207.416 157.163 203.704 157.163 198.936C157.163 194.072 159.979 190.456 165.003 190.456C168.843 190.456 171.147 192.568 171.691 195.544H168.971C168.459 193.912 167.211 192.824 165.003 192.824C161.355 192.824 159.883 195.672 159.883 198.872C159.883 202.104 161.387 205.048 165.003 205.048C167.307 205.048 168.651 203.928 169.067 202.136ZM186.755 202.136H189.475C188.867 205.304 186.435 207.416 182.691 207.416C177.667 207.416 174.851 203.704 174.851 198.936C174.851 194.072 177.667 190.456 182.691 190.456C186.531 190.456 188.835 192.568 189.379 195.544H186.659C186.147 193.912 184.899 192.824 182.691 192.824C179.043 192.824 177.571 195.672 177.571 198.872C177.571 202.104 179.075 205.048 182.691 205.048C184.995 205.048 186.339 203.928 186.755 202.136ZM193.274 190.872H195.994V200.536C195.994 203.512 197.37 204.984 200.09 204.984C202.938 204.984 204.89 202.52 204.89 199.608V190.872H207.61V207H204.986V205.272H204.282C203.386 206.52 201.594 207.416 199.418 207.416C195.45 207.416 193.274 204.984 193.274 201.112V190.872ZM229.771 190.456C233.483 190.456 235.083 192.856 235.083 196.568V207H232.363V196.856C232.363 194.2 231.339 192.888 229.259 192.888C226.731 192.888 225.323 194.84 225.323 197.56V207H222.603V196.92C222.603 194.264 221.547 192.888 219.531 192.888C216.843 192.888 215.563 195.16 215.563 198.072V207H212.843V190.872H215.467V192.44H216.171C216.971 191.192 218.219 190.456 220.267 190.456C222.219 190.456 223.659 191.16 224.523 192.6H225.227C226.219 191.16 227.755 190.456 229.771 190.456ZM239.806 190.872H242.526V200.536C242.526 203.512 243.902 204.984 246.622 204.984C249.47 204.984 251.422 202.52 251.422 199.608V190.872H254.142V207H251.518V205.272H250.814C249.918 206.52 248.126 207.416 245.95 207.416C241.982 207.416 239.806 204.984 239.806 201.112V190.872ZM259.374 183.736H262.094V207H259.374V183.736ZM277.615 207V205.304H276.911C275.919 206.552 274.191 207.416 271.887 207.416C268.175 207.416 266.095 204.92 266.095 202.168C266.095 199.576 267.791 196.824 272.271 196.824H277.519V196.184C277.519 194.232 276.399 192.824 273.583 192.824C271.183 192.824 269.967 193.752 269.839 195.16H267.119C267.343 192.184 269.903 190.456 273.519 190.456C277.583 190.456 280.175 192.408 280.175 196.024V207H277.615ZM272.559 205.048C275.247 205.048 277.519 203.032 277.519 200.472V199H272.687C270.031 199 268.815 200.152 268.815 202.072C268.815 203.896 270.159 205.048 272.559 205.048ZM288.899 190.872H292.963V193.24H288.899V202.104C288.899 203.736 289.603 204.568 291.779 204.568H292.963V207H291.715C288.227 207 286.179 205.912 286.179 202.488V193.24H283.395V190.872H286.179V186.008H288.899V190.872ZM311.171 197.976V198.904L298.883 198.904C298.979 202.744 300.707 205.048 304.035 205.048C306.307 205.048 307.651 204.088 308.131 202.552H310.883C310.371 205.304 308.035 207.416 304.035 207.416C299.011 207.416 296.195 203.736 296.195 198.776C296.195 193.816 299.075 190.456 303.97 190.456C308.771 190.456 311.075 194.008 311.171 197.976ZM303.907 192.824C300.995 192.824 299.395 194.584 299.043 196.632L308.355 196.632C308.195 194.584 306.627 192.824 303.907 192.824ZM316.845 187.864H315.245V184.152H318.573V188.472L316.781 191.544H315.053L316.845 188.472V187.864Z" fill="#274867"/>
<path d="M442.416 183.736C449.36 183.736 453.072 189.016 453.072 195.576C453.072 202.136 449.36 207.416 442.416 207.416C435.44 207.416 431.76 202.136 431.76 195.576C431.76 189.016 435.44 183.736 442.416 183.736ZM442.416 204.792C447.856 204.792 450.16 200.344 450.16 195.576C450.16 190.808 447.856 186.36 442.416 186.36C436.976 186.36 434.672 190.808 434.672 195.576C434.672 200.344 436.976 204.792 442.416 204.792ZM458.94 197.016C458.94 203.448 461.468 208.024 464.092 211.512H461.468C458.684 208.216 456.38 203.384 456.38 197.016C456.38 190.712 458.62 186.04 461.244 182.712H463.868C461.308 186.2 458.94 190.68 458.94 197.016ZM481.21 207H478.49V197.336C478.49 194.36 477.114 192.888 474.394 192.888C471.514 192.888 469.594 195.416 469.594 198.264V207H466.874V190.872H469.498V192.6H470.202C471.098 191.352 472.89 190.456 475.066 190.456C479.034 190.456 481.21 192.888 481.21 196.76V207ZM488.875 197.016C488.875 190.68 486.507 186.2 483.947 182.712H486.571C489.195 186.04 491.435 190.712 491.435 197.016C491.435 203.384 489.131 208.216 486.347 211.512H483.723C486.347 208.024 488.875 203.448 488.875 197.016Z" fill="#274867"/>
<path d="M948.416 183.736C955.36 183.736 959.072 189.016 959.072 195.576C959.072 202.136 955.36 207.416 948.416 207.416C941.44 207.416 937.76 202.136 937.76 195.576C937.76 189.016 941.44 183.736 948.416 183.736ZM948.416 204.792C953.856 204.792 956.16 200.344 956.16 195.576C956.16 190.808 953.856 186.36 948.416 186.36C942.976 186.36 940.672 190.808 940.672 195.576C940.672 200.344 942.976 204.792 948.416 204.792ZM964.94 197.016C964.94 203.448 967.468 208.024 970.092 211.512H967.468C964.684 208.216 962.38 203.384 962.38 197.016C962.38 190.712 964.62 186.04 967.244 182.712H969.868C967.308 186.2 964.94 190.68 964.94 197.016ZM987.21 207H984.49V197.336C984.49 194.36 983.114 192.888 980.394 192.888C977.514 192.888 975.594 195.416 975.594 198.264V207H972.874V190.872H975.498V192.6H976.202C977.098 191.352 978.89 190.456 981.066 190.456C985.034 190.456 987.21 192.888 987.21 196.76V207ZM994.875 197.016C994.875 190.68 992.507 186.2 989.947 182.712H992.571C995.195 186.04 997.435 190.712 997.435 197.016C997.435 203.384 995.131 208.216 992.347 211.512H989.723C992.347 208.024 994.875 203.448 994.875 197.016Z" fill="#274867"/>
<path d="M51.192 258.832H52.792V262.544H49.464V258.224L51.256 255.152H52.984L51.192 258.224V258.832ZM71.2603 267.952L72.7963 268.208L74.6203 268.496C77.4363 268.976 79.2283 270.416 79.2283 273.36C79.2283 276.016 76.9563 278.416 72.6042 278.416C68.0283 278.416 65.7883 276.4 65.4363 273.328H68.1883C68.4443 275.152 70.0443 276.048 72.4763 276.048C74.9083 276.048 76.5083 275.184 76.5083 273.424C76.5083 272.016 75.6123 271.248 73.5642 270.896L69.9483 270.288C67.6443 269.872 66.0763 268.656 66.0763 266.224C66.0763 263.536 68.0923 261.456 72.4443 261.456C76.2523 261.456 78.4603 263.248 78.8123 266.064H76.0923C75.8683 264.528 74.3323 263.824 72.3163 263.824C70.2363 263.824 68.8283 264.592 68.8283 265.968C68.8283 267.216 69.6283 267.696 71.2603 267.952ZM86.9618 261.872H91.0258V264.24H86.9618V273.104C86.9618 274.736 87.6658 275.568 89.8418 275.568H91.0258V278H89.7778C86.2898 278 84.2418 276.912 84.2418 273.488V264.24H81.4578V261.872H84.2418V257.008H86.9618V261.872ZM106.961 254.736H109.681V278H107.057V276.272H106.353C105.457 277.392 103.889 278.416 101.329 278.416C96.881 278.416 94.257 274.704 94.257 269.936C94.257 265.072 96.881 261.456 101.329 261.456C103.889 261.456 105.361 262.448 106.257 263.6H106.961V254.736ZM101.937 276.048C105.521 276.048 106.993 273.104 106.993 269.936C106.993 266.768 105.521 263.824 101.937 263.824C98.705 263.824 96.977 266.352 96.977 269.936C96.977 273.52 98.705 276.048 101.937 276.048ZM118.105 278H114.777V274.288H118.105V278ZM118.105 265.584H114.777V261.872H118.105V265.584ZM135.261 278H131.933V274.288H135.261V278ZM135.261 265.584H131.933V261.872H135.261V265.584ZM149.559 261.872V264.432H148.215C145.015 264.432 143.063 266.384 143.063 269.936V278H140.343V261.872H142.967V263.792H143.671C144.471 262.8 146.007 261.872 148.343 261.872H149.559ZM167.108 268.976V269.904H154.82C154.916 273.744 156.644 276.048 159.972 276.048C162.244 276.048 163.588 275.088 164.068 273.552H166.82C166.308 276.304 163.972 278.416 159.972 278.416C154.948 278.416 152.132 274.736 152.132 269.776C152.132 264.816 155.012 261.456 159.908 261.456C164.708 261.456 167.012 265.008 167.108 268.976ZM159.844 263.824C156.932 263.824 155.332 265.584 154.98 267.632H164.292C164.132 265.584 162.564 263.824 159.844 263.824ZM174.767 278L169.423 261.872H172.239L176.751 275.44H178.063L182.415 261.872H185.263L179.855 278H174.767ZM202.327 268.976V269.904H190.039C190.135 273.744 191.863 276.048 195.191 276.048C197.463 276.048 198.807 275.088 199.287 273.552H202.039C201.527 276.304 199.191 278.416 195.191 278.416C190.167 278.416 187.351 274.736 187.351 269.776C187.351 264.816 190.231 261.456 195.127 261.456C199.927 261.456 202.231 265.008 202.327 268.976ZM195.063 263.824C192.151 263.824 190.551 265.584 190.199 267.632H199.511C199.351 265.584 197.783 263.824 195.063 263.824ZM215.778 261.872V264.432H214.434C211.234 264.432 209.282 266.384 209.282 269.936V278H206.562V261.872H209.186V263.792H209.89C210.69 262.8 212.226 261.872 214.562 261.872H215.778ZM223.823 267.952L225.359 268.208L227.183 268.496C229.999 268.976 231.791 270.416 231.791 273.36C231.791 276.016 229.519 278.416 225.167 278.416C220.591 278.416 218.351 276.4 217.999 273.328H220.751C221.007 275.152 222.607 276.048 225.039 276.048C227.471 276.048 229.071 275.184 229.071 273.424C229.071 272.016 228.175 271.248 226.127 270.896L222.511 270.288C220.207 269.872 218.639 268.656 218.639 266.224C218.639 263.536 220.655 261.456 225.007 261.456C228.815 261.456 231.023 263.248 231.375 266.064L228.655 266.064C228.431 264.528 226.895 263.824 224.879 263.824C222.799 263.824 221.391 264.592 221.391 265.968C221.391 267.216 222.191 267.696 223.823 267.952ZM249.764 268.976V269.904H237.476C237.572 273.744 239.3 276.048 242.628 276.048C244.9 276.048 246.244 275.088 246.724 273.552H249.476C248.964 276.304 246.628 278.416 242.628 278.416C237.604 278.416 234.788 274.736 234.788 269.776C234.788 264.816 237.668 261.456 242.564 261.456C247.364 261.456 249.668 265.008 249.764 268.976ZM242.5 263.824C239.588 263.824 237.988 265.584 237.636 267.632H246.948C246.788 265.584 245.22 263.824 242.5 263.824ZM255.439 258.864H253.839V255.152H257.167V259.472L255.375 262.544H253.647L255.439 259.472V258.864Z" fill="#274867"/>
<path d="M442.416 254.736C449.36 254.736 453.072 260.016 453.072 266.576C453.072 273.136 449.36 278.416 442.416 278.416C435.44 278.416 431.76 273.136 431.76 266.576C431.76 260.016 435.44 254.736 442.416 254.736ZM442.416 275.792C447.856 275.792 450.16 271.344 450.16 266.576C450.16 261.808 447.856 257.36 442.416 257.36C436.976 257.36 434.672 261.808 434.672 266.576C434.672 271.344 436.976 275.792 442.416 275.792ZM458.94 268.016C458.94 274.448 461.468 279.024 464.092 282.512H461.468C458.684 279.216 456.38 274.384 456.38 268.016C456.38 261.712 458.62 257.04 461.244 253.712H463.868C461.308 257.2 458.94 261.68 458.94 268.016ZM481.21 278H478.49V268.336C478.49 265.36 477.114 263.888 474.394 263.888C471.514 263.888 469.594 266.416 469.594 269.264V278H466.874V261.872H469.498V263.6H470.202C471.098 262.352 472.89 261.456 475.066 261.456C479.034 261.456 481.21 263.888 481.21 267.76V278ZM488.875 268.016C488.875 261.68 486.507 257.2 483.947 253.712H486.571C489.195 257.04 491.435 261.712 491.435 268.016C491.435 274.384 489.131 279.216 486.347 282.512H483.723C486.347 279.024 488.875 274.448 488.875 268.016Z" fill="#274867"/>
<path d="M948.416 254.736C955.36 254.736 959.072 260.016 959.072 266.576C959.072 273.136 955.36 278.416 948.416 278.416C941.44 278.416 937.76 273.136 937.76 266.576C937.76 260.016 941.44 254.736 948.416 254.736ZM948.416 275.792C953.856 275.792 956.16 271.344 956.16 266.576C956.16 261.808 953.856 257.36 948.416 257.36C942.976 257.36 940.672 261.808 940.672 266.576C940.672 271.344 942.976 275.792 948.416 275.792ZM964.94 268.016C964.94 274.448 967.468 279.024 970.092 282.512H967.468C964.684 279.216 962.38 274.384 962.38 268.016C962.38 261.712 964.62 257.04 967.244 253.712H969.868C967.308 257.2 964.94 261.68 964.94 268.016ZM987.21 278H984.49V268.336C984.49 265.36 983.114 263.888 980.394 263.888C977.514 263.888 975.594 266.416 975.594 269.264V278H972.874V261.872H975.498V263.6H976.202C977.098 262.352 978.89 261.456 981.066 261.456C985.034 261.456 987.21 263.888 987.21 267.76V278ZM994.875 268.016C994.875 261.68 992.507 257.2 989.947 253.712H992.571C995.195 257.04 997.435 261.712 997.435 268.016C997.435 274.384 995.131 279.216 992.347 282.512H989.723C992.347 279.024 994.875 274.448 994.875 268.016Z" fill="#274867"/>
<path d="M51.192 330.832H52.792V334.544H49.464V330.224L51.256 327.152H52.984L51.192 330.224V330.832ZM71.2603 339.952L72.7963 340.208L74.6203 340.496C77.4363 340.976 79.2283 342.416 79.2283 345.36C79.2283 348.016 76.9563 350.416 72.6042 350.416C68.0283 350.416 65.7883 348.4 65.4363 345.328H68.1883C68.4443 347.152 70.0443 348.048 72.4763 348.048C74.9083 348.048 76.5083 347.184 76.5083 345.424C76.5083 344.016 75.6123 343.248 73.5642 342.896L69.9483 342.288C67.6443 341.872 66.0763 340.656 66.0763 338.224C66.0763 335.536 68.0923 333.456 72.4443 333.456C76.2523 333.456 78.4603 335.248 78.8123 338.064H76.0923C75.8683 336.528 74.3323 335.824 72.3163 335.824C70.2363 335.824 68.8283 336.592 68.8283 337.968C68.8283 339.216 69.6283 339.696 71.2603 339.952ZM86.9618 333.872H91.0258V336.24H86.9618V345.104C86.9618 346.736 87.6658 347.568 89.8418 347.568H91.0258V350H89.7778C86.2898 350 84.2418 348.912 84.2418 345.488V336.24H81.4578V333.872H84.2418V329.008H86.9618V333.872ZM106.961 326.736H109.681V350H107.057V348.272H106.353C105.457 349.392 103.889 350.416 101.329 350.416C96.881 350.416 94.257 346.704 94.257 341.936C94.257 337.072 96.881 333.456 101.329 333.456C103.889 333.456 105.361 334.448 106.257 335.6H106.961V326.736ZM101.937 348.048C105.521 348.048 106.993 345.104 106.993 341.936C106.993 338.768 105.521 335.824 101.937 335.824C98.705 335.824 96.977 338.352 96.977 341.936C96.977 345.52 98.705 348.048 101.937 348.048ZM118.105 350H114.777V346.288H118.105V350ZM118.105 337.584H114.777V333.872H118.105V337.584ZM135.261 350H131.933V346.288H135.261V350ZM135.261 337.584H131.933V333.872H135.261V337.584ZM148.471 336.24H144.087V350H141.367V336.24H138.583V333.872H141.367V332.016C141.367 328.336 143.415 326.736 146.903 326.736H148.471V329.104H146.935C144.791 329.104 144.087 330.448 144.087 332.112V333.872H148.471V336.24ZM154.615 329.68H151.735V326.736H154.615V329.68ZM154.519 333.872V350H151.799V333.872H154.519ZM174.21 350H171.49V340.336C171.49 337.36 170.114 335.888 167.394 335.888C164.514 335.888 162.594 338.416 162.594 341.264V350H159.874V333.872H162.498V335.6H163.202C164.098 334.352 165.89 333.456 168.066 333.456C172.034 333.456 174.21 335.888 174.21 339.76V350ZM190.899 326.736H193.619V350H190.995V348.272H190.291C189.395 349.392 187.827 350.416 185.267 350.416C180.819 350.416 178.195 346.704 178.195 341.936C178.195 337.072 180.819 333.456 185.267 333.456C187.827 333.456 189.299 334.448 190.195 335.6H190.899V326.736ZM185.875 348.048C189.459 348.048 190.931 345.104 190.931 341.936C190.931 338.768 189.459 335.824 185.875 335.824C182.643 335.824 180.915 338.352 180.915 341.936C180.915 345.52 182.643 348.048 185.875 348.048ZM200.314 330.864H198.714V327.152H202.042V331.472L200.25 334.544H198.522L200.314 331.472V330.864Z" fill="#274867"/>
<path d="M442.416 326.736C449.36 326.736 453.072 332.016 453.072 338.576C453.072 345.136 449.36 350.416 442.416 350.416C435.44 350.416 431.76 345.136 431.76 338.576C431.76 332.016 435.44 326.736 442.416 326.736ZM442.416 347.792C447.856 347.792 450.16 343.344 450.16 338.576C450.16 333.808 447.856 329.36 442.416 329.36C436.976 329.36 434.672 333.808 434.672 338.576C434.672 343.344 436.976 347.792 442.416 347.792ZM458.94 340.016C458.94 346.448 461.468 351.024 464.092 354.512H461.468C458.684 351.216 456.38 346.384 456.38 340.016C456.38 333.712 458.62 329.04 461.244 325.712H463.868C461.308 329.2 458.94 333.68 458.94 340.016ZM481.21 350H478.49V340.336C478.49 337.36 477.114 335.888 474.394 335.888C471.514 335.888 469.594 338.416 469.594 341.264V350H466.874V333.872H469.498V335.6H470.202C471.098 334.352 472.89 333.456 475.066 333.456C479.034 333.456 481.21 335.888 481.21 339.76V350ZM488.875 340.016C488.875 333.68 486.507 329.2 483.947 325.712H486.571C489.195 329.04 491.435 333.712 491.435 340.016C491.435 346.384 489.131 351.216 486.347 354.512H483.723C486.347 351.024 488.875 346.448 488.875 340.016Z" fill="#274867"/>
<path d="M948.416 326.736C955.36 326.736 959.072 332.016 959.072 338.576C959.072 345.136 955.36 350.416 948.416 350.416C941.44 350.416 937.76 345.136 937.76 338.576C937.76 332.016 941.44 326.736 948.416 326.736ZM948.416 347.792C953.856 347.792 956.16 343.344 956.16 338.576C956.16 333.808 953.856 329.36 948.416 329.36C942.976 329.36 940.672 333.808 940.672 338.576C940.672 343.344 942.976 347.792 948.416 347.792ZM964.94 340.016C964.94 346.448 967.468 351.024 970.092 354.512H967.468C964.684 351.216 962.38 346.384 962.38 340.016C962.38 333.712 964.62 329.04 967.244 325.712H969.868C967.308 329.2 964.94 333.68 964.94 340.016ZM987.21 350H984.49V340.336C984.49 337.36 983.114 335.888 980.394 335.888C977.514 335.888 975.594 338.416 975.594 341.264V350H972.874V333.872H975.498V335.6H976.202C977.098 334.352 978.89 333.456 981.066 333.456C985.034 333.456 987.21 335.888 987.21 339.76V350ZM994.875 340.016C994.875 333.68 992.507 329.2 989.947 325.712H992.571C995.195 329.04 997.435 333.712 997.435 340.016C997.435 346.384 995.131 351.216 992.347 354.512H989.723C992.347 351.024 994.875 346.448 994.875 340.016Z" fill="#274867"/>
<path d="M51.192 404.832H52.792V408.544H49.464V404.224L51.256 401.152H52.984L51.192 404.224V404.832ZM71.2603 413.952L72.7963 414.208L74.6203 414.496C77.4363 414.976 79.2283 416.416 79.2283 419.36C79.2283 422.016 76.9563 424.416 72.6042 424.416C68.0283 424.416 65.7883 422.4 65.4363 419.328H68.1883C68.4443 421.152 70.0443 422.048 72.4763 422.048C74.9083 422.048 76.5083 421.184 76.5083 419.424C76.5083 418.016 75.6123 417.248 73.5642 416.896L69.9483 416.288C67.6443 415.872 66.0763 414.656 66.0763 412.224C66.0763 409.536 68.0923 407.456 72.4443 407.456C76.2523 407.456 78.4603 409.248 78.8123 412.064H76.0923C75.8683 410.528 74.3323 409.824 72.3163 409.824C70.2363 409.824 68.8283 410.592 68.8283 411.968C68.8283 413.216 69.6283 413.696 71.2603 413.952ZM86.9618 407.872H91.0258V410.24H86.9618V419.104C86.9618 420.736 87.6658 421.568 89.8418 421.568H91.0258V424H89.7778C86.2898 424 84.2418 422.912 84.2418 419.488V410.24H81.4578V407.872H84.2418V403.008H86.9618V407.872ZM106.961 400.736H109.681V424H107.057V422.272H106.353C105.457 423.392 103.889 424.416 101.329 424.416C96.881 424.416 94.257 420.704 94.257 415.936C94.257 411.072 96.881 407.456 101.329 407.456C103.889 407.456 105.361 408.448 106.257 409.6H106.961V400.736ZM101.937 422.048C105.521 422.048 106.993 419.104 106.993 415.936C106.993 412.768 105.521 409.824 101.937 409.824C98.705 409.824 96.977 412.352 96.977 415.936C96.977 419.52 98.705 422.048 101.937 422.048ZM118.105 424H114.777V420.288H118.105V424ZM118.105 411.584H114.777V407.872H118.105V411.584ZM135.261 424H131.933V420.288H135.261V424ZM135.261 411.584H131.933V407.872H135.261V411.584ZM144.823 413.952L146.359 414.208L148.183 414.496C150.999 414.976 152.791 416.416 152.791 419.36C152.791 422.016 150.519 424.416 146.167 424.416C141.591 424.416 139.351 422.4 138.999 419.328H141.751C142.007 421.152 143.607 422.048 146.039 422.048C148.471 422.048 150.071 421.184 150.071 419.424C150.071 418.016 149.175 417.248 147.127 416.896L143.511 416.288C141.207 415.872 139.639 414.656 139.639 412.224C139.639 409.536 141.655 407.456 146.007 407.456C149.815 407.456 152.023 409.248 152.375 412.064H149.655C149.431 410.528 147.895 409.824 145.879 409.824C143.799 409.824 142.391 410.592 142.391 411.968C142.391 413.216 143.191 413.696 144.823 413.952ZM163.724 407.456C168.748 407.456 171.66 411.168 171.66 415.936C171.66 420.704 168.748 424.416 163.724 424.416C158.668 424.416 155.788 420.704 155.788 415.936C155.788 411.168 158.668 407.456 163.724 407.456ZM163.724 422.048C167.276 422.048 168.94 419.104 168.94 415.936C168.94 412.768 167.276 409.824 163.724 409.824C160.14 409.824 158.508 412.768 158.508 415.936C158.508 419.104 160.14 422.048 163.724 422.048ZM185.121 407.872V410.432H183.777C180.577 410.432 178.625 412.384 178.625 415.936V424H175.905V407.872H178.529V409.792H179.233C180.033 408.8 181.569 407.872 183.905 407.872H185.121ZM193.462 407.872H197.526V410.24H193.462V419.104C193.462 420.736 194.166 421.568 196.342 421.568H197.526V424H196.278C192.79 424 190.742 422.912 190.742 419.488V410.24H187.958V407.872H190.742V403.008H193.462V407.872ZM203.439 404.864H201.839V401.152H205.167V405.472L203.375 408.544H201.647L203.439 405.472V404.864Z" fill="#274867"/>
<path d="M442.416 400.736C449.36 400.736 453.072 406.016 453.072 412.576C453.072 419.136 449.36 424.416 442.416 424.416C435.44 424.416 431.76 419.136 431.76 412.576C431.76 406.016 435.44 400.736 442.416 400.736ZM442.416 421.792C447.856 421.792 450.16 417.344 450.16 412.576C450.16 407.808 447.856 403.36 442.416 403.36C436.976 403.36 434.672 407.808 434.672 412.576C434.672 417.344 436.976 421.792 442.416 421.792ZM458.94 414.016C458.94 420.448 461.468 425.024 464.092 428.512H461.468C458.684 425.216 456.38 420.384 456.38 414.016C456.38 407.712 458.62 403.04 461.244 399.712H463.868C461.308 403.2 458.94 407.68 458.94 414.016ZM481.21 424H478.49V414.336C478.49 411.36 477.114 409.888 474.394 409.888C471.514 409.888 469.594 412.416 469.594 415.264V424H466.874V407.872H469.498V409.6H470.202C471.098 408.352 472.89 407.456 475.066 407.456C479.034 407.456 481.21 409.888 481.21 413.76V424ZM488.875 414.016C488.875 407.68 486.507 403.2 483.947 399.712H486.571C489.195 403.04 491.435 407.712 491.435 414.016C491.435 420.384 489.131 425.216 486.347 428.512H483.723C486.347 425.024 488.875 420.448 488.875 414.016Z" fill="#274867"/>
<path d="M948.416 400.736C955.36 400.736 959.072 406.016 959.072 412.576C959.072 419.136 955.36 424.416 948.416 424.416C941.44 424.416 937.76 419.136 937.76 412.576C937.76 406.016 941.44 400.736 948.416 400.736ZM948.416 421.792C953.856 421.792 956.16 417.344 956.16 412.576C956.16 407.808 953.856 403.36 948.416 403.36C942.976 403.36 940.672 407.808 940.672 412.576C940.672 417.344 942.976 421.792 948.416 421.792ZM964.94 414.016C964.94 420.448 967.468 425.024 970.092 428.512H967.468C964.684 425.216 962.38 420.384 962.38 414.016C962.38 407.712 964.62 403.04 967.244 399.712H969.868C967.308 403.2 964.94 407.68 964.94 414.016ZM987.21 424H984.49V414.336C984.49 411.36 983.114 409.888 980.394 409.888C977.514 409.888 975.594 412.416 975.594 415.264V424H972.874V407.872H975.498V409.6H976.202C977.098 408.352 978.89 407.456 981.066 407.456C985.034 407.456 987.21 409.888 987.21 413.76V424ZM993.435 414.592H990.907L997.307 401.856H999.323L1005.69 414.592H1003.19L998.587 405.376H998.01L993.435 414.592ZM1011.57 407.776H1008.76C1009.01 403.296 1012.25 401.152 1016.21 401.152C1020.41 401.152 1023.48 403.488 1023.48 407.968C1023.48 411.008 1021.17 413.856 1018.52 416.064L1012.89 420.8V421.504H1024.18V424H1008.79V420.832L1012.09 418.144C1013.88 416.704 1015.99 414.912 1017.17 413.824C1018.71 412.448 1020.66 410.624 1020.66 407.968C1020.66 405.152 1018.87 403.648 1016.15 403.648C1013.62 403.648 1011.86 404.96 1011.57 407.776ZM1031 414.016C1031 407.68 1028.63 403.2 1026.07 399.712H1028.7C1031.32 403.04 1033.56 407.712 1033.56 414.016C1033.56 420.384 1031.26 425.216 1028.47 428.512H1025.85C1028.47 425.024 1031 420.448 1031 414.016ZM1053.57 407.456C1058.59 407.456 1061.5 411.168 1061.5 415.936C1061.5 420.704 1058.59 424.416 1053.57 424.416C1048.51 424.416 1045.63 420.704 1045.63 415.936C1045.63 411.168 1048.51 407.456 1053.57 407.456ZM1053.57 422.048C1057.12 422.048 1058.78 419.104 1058.78 415.936C1058.78 412.768 1057.12 409.824 1053.57 409.824C1049.98 409.824 1048.35 412.768 1048.35 415.936C1048.35 419.104 1049.98 422.048 1053.57 422.048ZM1074.97 407.872V410.432H1073.62C1070.42 410.432 1068.47 412.384 1068.47 415.936V424H1065.75V407.872H1068.37V409.792H1069.08C1069.88 408.8 1071.41 407.872 1073.75 407.872H1074.97ZM1097.23 400.736C1104.17 400.736 1107.88 406.016 1107.88 412.576C1107.88 419.136 1104.17 424.416 1097.23 424.416C1090.25 424.416 1086.57 419.136 1086.57 412.576C1086.57 406.016 1090.25 400.736 1097.23 400.736ZM1097.23 421.792C1102.67 421.792 1104.97 417.344 1104.97 412.576C1104.97 407.808 1102.67 403.36 1097.23 403.36C1091.79 403.36 1089.48 407.808 1089.48 412.576C1089.48 417.344 1091.79 421.792 1097.23 421.792ZM1113.75 414.016C1113.75 420.448 1116.28 425.024 1118.9 428.512H1116.28C1113.5 425.216 1111.19 420.384 1111.19 414.016C1111.19 407.712 1113.43 403.04 1116.06 399.712H1118.68C1116.12 403.2 1113.75 407.68 1113.75 414.016ZM1136.02 424H1133.3V414.336C1133.3 411.36 1131.93 409.888 1129.21 409.888C1126.33 409.888 1124.41 412.416 1124.41 415.264V424L1121.69 424V407.872H1124.31V409.6H1125.01C1125.91 408.352 1127.7 407.456 1129.88 407.456C1133.85 407.456 1136.02 409.888 1136.02 413.76V424ZM1149.91 400.736H1152.63V424H1149.91V400.736ZM1164.82 407.456C1169.84 407.456 1172.75 411.168 1172.75 415.936C1172.75 420.704 1169.84 424.416 1164.82 424.416C1159.76 424.416 1156.88 420.704 1156.88 415.936C1156.88 411.168 1159.76 407.456 1164.82 407.456ZM1164.82 422.048C1168.37 422.048 1170.03 419.104 1170.03 415.936C1170.03 412.768 1168.37 409.824 1164.82 409.824C1161.23 409.824 1159.6 412.768 1159.6 415.936C1159.6 419.104 1161.23 422.048 1164.82 422.048ZM1188.81 407.872H1191.43V423.2C1191.43 427.712 1188.62 430.624 1183.91 430.624C1179.78 430.624 1177.1 428.896 1176.62 425.696H1179.3C1179.78 427.616 1181.45 428.32 1183.88 428.32C1187.21 428.32 1188.71 426.304 1188.71 423.072V421.792H1188.01C1187.14 422.912 1185.61 423.936 1183.18 423.936C1178.73 423.936 1176.01 420.416 1176.01 415.712C1176.01 410.976 1178.73 407.456 1183.18 407.456C1185.7 407.456 1187.24 408.48 1188.1 409.6H1188.81V407.872ZM1183.69 421.568C1187.14 421.568 1188.78 418.784 1188.78 415.712C1188.78 412.608 1187.14 409.824 1183.69 409.824C1180.52 409.824 1178.73 412.16 1178.73 415.712C1178.73 419.2 1180.52 421.568 1183.69 421.568ZM1219.93 424H1217.21V414.336C1217.21 411.36 1215.83 409.888 1213.11 409.888C1210.23 409.888 1208.31 412.416 1208.31 415.264V424H1205.59V407.872H1208.22V409.6H1208.92C1209.82 408.352 1211.61 407.456 1213.78 407.456C1217.75 407.456 1219.93 409.888 1219.93 413.76V424ZM1227.59 414.016C1227.59 407.68 1225.23 403.2 1222.67 399.712H1225.29C1227.91 403.04 1230.15 407.712 1230.15 414.016C1230.15 420.384 1227.85 425.216 1225.07 428.512H1222.44C1225.07 425.024 1227.59 420.448 1227.59 414.016Z" fill="#274867"/>
<path d="M448.496 36.152V38.712H441.008V59H438.128V38.712H430.576V36.152H448.496ZM454.598 38.68H451.718V35.736L454.598 35.736V38.68ZM454.502 42.872V59H451.782V42.872H454.502ZM476.771 42.456C480.483 42.456 482.083 44.856 482.083 48.568V59H479.363V48.856C479.363 46.2 478.339 44.888 476.259 44.888C473.731 44.888 472.323 46.84 472.323 49.56V59H469.603V48.92C469.603 46.264 468.547 44.888 466.531 44.888C463.843 44.888 462.563 47.16 462.563 50.072V59H459.843V42.872H462.467V44.44H463.171C463.971 43.192 465.219 42.456 467.267 42.456C469.219 42.456 470.659 43.16 471.523 44.6H472.227C473.219 43.16 474.755 42.456 476.771 42.456ZM501.046 49.976V50.904H488.758C488.854 54.744 490.582 57.048 493.91 57.048C496.182 57.048 497.526 56.088 498.006 54.552H500.758C500.246 57.304 497.91 59.416 493.91 59.416C488.886 59.416 486.07 55.736 486.07 50.776C486.07 45.816 488.95 42.456 493.845 42.456C498.646 42.456 500.95 46.008 501.046 49.976ZM493.782 44.824C490.87 44.824 489.27 46.584 488.918 48.632L498.23 48.632C498.07 46.584 496.502 44.824 493.782 44.824ZM529.899 52.504H532.939C532.011 56.568 528.907 59.416 523.883 59.416C517.067 59.416 513.323 54.36 513.323 47.576C513.323 40.792 517.131 35.736 523.915 35.736C528.555 35.736 531.755 38.2 532.683 42.136H529.642C528.779 39.704 527.083 38.36 523.915 38.36C518.603 38.36 516.235 42.744 516.235 47.576C516.235 52.44 518.571 56.792 523.883 56.792C527.083 56.792 529.163 55.16 529.899 52.504ZM544.099 42.456C549.123 42.456 552.035 46.168 552.035 50.936C552.035 55.704 549.123 59.416 544.099 59.416C539.043 59.416 536.163 55.704 536.163 50.936C536.163 46.168 539.043 42.456 544.099 42.456ZM544.099 57.048C547.651 57.048 549.315 54.104 549.315 50.936C549.315 47.768 547.651 44.824 544.099 44.824C540.515 44.824 538.883 47.768 538.883 50.936C538.883 54.104 540.515 57.048 544.099 57.048ZM573.208 42.456C576.92 42.456 578.52 44.856 578.52 48.568V59H575.8V48.856C575.8 46.2 574.776 44.888 572.696 44.888C570.168 44.888 568.76 46.84 568.76 49.56V59H566.04V48.92C566.04 46.264 564.984 44.888 562.968 44.888C560.28 44.888 559 47.16 559 50.072V59H556.28V42.872H558.904V44.44H559.608C560.408 43.192 561.656 42.456 563.704 42.456C565.656 42.456 567.096 43.16 567.96 44.6H568.664C569.656 43.16 571.192 42.456 573.208 42.456ZM591.243 44.824C587.659 44.824 586.187 47.768 586.187 50.936C586.187 54.104 587.659 57.048 591.243 57.048C594.475 57.048 596.203 54.52 596.203 50.936C596.203 47.352 594.475 44.824 591.243 44.824ZM583.499 42.872H586.123V44.6H586.827C587.723 43.48 589.291 42.456 591.851 42.456C596.299 42.456 598.923 46.168 598.923 50.936C598.923 55.8 596.299 59.416 591.851 59.416C589.291 59.416 587.787 58.424 586.923 57.272H586.219V65.4H583.499V42.872ZM603.187 35.736H605.907V59H603.187V35.736ZM625.139 49.976V50.904H612.851C612.947 54.744 614.675 57.048 618.003 57.048C620.275 57.048 621.619 56.088 622.099 54.552H624.851C624.339 57.304 622.003 59.416 618.003 59.416C612.979 59.416 610.163 55.736 610.163 50.776C610.163 45.816 613.043 42.456 617.939 42.456C622.739 42.456 625.043 46.008 625.139 49.976ZM617.875 44.824C614.963 44.824 613.363 46.584 613.011 48.632H622.323C622.163 46.584 620.595 44.824 617.875 44.824ZM639.689 59L635.689 52.248H634.537L630.441 59H627.465L632.489 50.744L627.977 42.872H630.857L634.569 49.272H635.721L639.497 42.872H642.345L637.769 50.648L642.761 59L639.689 59ZM649.442 38.68H646.562V35.736H649.442V38.68ZM649.346 42.872V59H646.626V42.872H649.346ZM658.431 42.872H662.495V45.24H658.431V54.104C658.431 55.736 659.135 56.568 661.311 56.568L662.495 56.568V59L661.247 59C657.759 59 655.711 57.912 655.711 54.488V45.24H652.927V42.872H655.711V38.008H658.431V42.872ZM671.32 65.4H668.568L671.896 57.496L665.016 42.872L667.928 42.872L672.856 53.496H673.656L678.136 42.872H680.984L671.32 65.4ZM694.565 49.016C694.565 55.448 697.093 60.024 699.717 63.512H697.093C694.309 60.216 692.005 55.384 692.005 49.016C692.005 42.712 694.245 38.04 696.869 34.712H699.493C696.933 38.2 694.565 42.68 694.565 49.016ZM718.211 59L715.843 51.992H705.827L703.459 59H700.515L708.419 36.152H713.283L721.219 59H718.211ZM710.179 39.096L706.691 49.368H714.947L711.459 39.096H710.179ZM727.423 59L722.079 42.872L724.895 42.872L729.407 56.44H730.719L735.071 42.872H737.919L732.511 59L727.423 59ZM754.983 49.976V50.904L742.695 50.904C742.791 54.744 744.519 57.048 747.847 57.048C750.119 57.048 751.463 56.088 751.943 54.552H754.695C754.183 57.304 751.847 59.416 747.847 59.416C742.823 59.416 740.007 55.736 740.007 50.776C740.007 45.816 742.887 42.456 747.783 42.456C752.583 42.456 754.887 46.008 754.983 49.976ZM747.719 44.824C744.807 44.824 743.207 46.584 742.855 48.632H752.167C752.007 46.584 750.439 44.824 747.719 44.824ZM768.434 42.872V45.432H767.09C763.89 45.432 761.938 47.384 761.938 50.936V59H759.218V42.872H761.842V44.792H762.546C763.346 43.8 764.882 42.872 767.218 42.872H768.434ZM782.271 59V57.304H781.567C780.575 58.552 778.847 59.416 776.543 59.416C772.831 59.416 770.751 56.92 770.751 54.168C770.751 51.576 772.447 48.824 776.927 48.824H782.175V48.184C782.175 46.232 781.055 44.824 778.239 44.824C775.839 44.824 774.623 45.752 774.495 47.16H771.775C771.999 44.184 774.559 42.456 778.175 42.456C782.239 42.456 784.831 44.408 784.831 48.024V59H782.271ZM777.215 57.048C779.903 57.048 782.175 55.032 782.175 52.472V51H777.343C774.687 51 773.471 52.152 773.471 54.072C773.471 55.896 774.815 57.048 777.215 57.048ZM801.62 42.872H804.244V58.2C804.244 62.712 801.428 65.624 796.724 65.624C792.596 65.624 789.908 63.896 789.428 60.696H792.116C792.596 62.616 794.26 63.32 796.692 63.32C800.02 63.32 801.524 61.304 801.524 58.072V56.792H800.82C799.956 57.912 798.42 58.936 795.988 58.936C791.54 58.936 788.82 55.416 788.82 50.712C788.82 45.976 791.54 42.456 795.988 42.456C798.516 42.456 800.052 43.48 800.916 44.6H801.62V42.872ZM796.5 56.568C799.956 56.568 801.588 53.784 801.588 50.712C801.588 47.608 799.956 44.824 796.5 44.824C793.332 44.824 791.54 47.16 791.54 50.712C791.54 54.2 793.332 56.568 796.5 56.568ZM823.483 49.976V50.904L811.195 50.904C811.291 54.744 813.019 57.048 816.347 57.048C818.619 57.048 819.963 56.088 820.443 54.552H823.195C822.683 57.304 820.347 59.416 816.347 59.416C811.323 59.416 808.507 55.736 808.507 50.776C808.507 45.816 811.387 42.456 816.283 42.456C821.083 42.456 823.387 46.008 823.483 49.976ZM816.219 44.824C813.307 44.824 811.707 46.584 811.355 48.632H820.667C820.507 46.584 818.939 44.824 816.219 44.824ZM830.406 49.016C830.406 42.68 828.038 38.2 825.478 34.712H828.102C830.726 38.04 832.966 42.712 832.966 49.016C832.966 55.384 830.662 60.216 827.878 63.512H825.254C827.878 60.024 830.406 55.448 830.406 49.016Z" fill="#274867"/>
<path d="M954.496 36.152V38.712H947.008V59H944.128V38.712H936.576V36.152H954.496ZM960.598 38.68H957.718V35.736L960.598 35.736V38.68ZM960.502 42.872V59H957.782V42.872H960.502ZM982.771 42.456C986.483 42.456 988.083 44.856 988.083 48.568V59H985.363V48.856C985.363 46.2 984.339 44.888 982.259 44.888C979.731 44.888 978.323 46.84 978.323 49.56V59H975.603V48.92C975.603 46.264 974.547 44.888 972.531 44.888C969.843 44.888 968.563 47.16 968.563 50.072V59H965.843V42.872H968.467V44.44H969.171C969.971 43.192 971.219 42.456 973.267 42.456C975.219 42.456 976.659 43.16 977.523 44.6H978.227C979.219 43.16 980.755 42.456 982.771 42.456ZM1007.05 49.976V50.904H994.758C994.854 54.744 996.582 57.048 999.91 57.048C1002.18 57.048 1003.53 56.088 1004.01 54.552H1006.76C1006.25 57.304 1003.91 59.416 999.91 59.416C994.886 59.416 992.07 55.736 992.07 50.776C992.07 45.816 994.95 42.456 999.845 42.456C1004.65 42.456 1006.95 46.008 1007.05 49.976ZM999.782 44.824C996.87 44.824 995.27 46.584 994.918 48.632L1004.23 48.632C1004.07 46.584 1002.5 44.824 999.782 44.824ZM1035.9 52.504H1038.94C1038.01 56.568 1034.91 59.416 1029.88 59.416C1023.07 59.416 1019.32 54.36 1019.32 47.576C1019.32 40.792 1023.13 35.736 1029.91 35.736C1034.55 35.736 1037.75 38.2 1038.68 42.136H1035.64C1034.78 39.704 1033.08 38.36 1029.91 38.36C1024.6 38.36 1022.23 42.744 1022.23 47.576C1022.23 52.44 1024.57 56.792 1029.88 56.792C1033.08 56.792 1035.16 55.16 1035.9 52.504ZM1050.1 42.456C1055.12 42.456 1058.04 46.168 1058.04 50.936C1058.04 55.704 1055.12 59.416 1050.1 59.416C1045.04 59.416 1042.16 55.704 1042.16 50.936C1042.16 46.168 1045.04 42.456 1050.1 42.456ZM1050.1 57.048C1053.65 57.048 1055.32 54.104 1055.32 50.936C1055.32 47.768 1053.65 44.824 1050.1 44.824C1046.52 44.824 1044.88 47.768 1044.88 50.936C1044.88 54.104 1046.52 57.048 1050.1 57.048ZM1079.21 42.456C1082.92 42.456 1084.52 44.856 1084.52 48.568V59H1081.8V48.856C1081.8 46.2 1080.78 44.888 1078.7 44.888C1076.17 44.888 1074.76 46.84 1074.76 49.56V59H1072.04V48.92C1072.04 46.264 1070.98 44.888 1068.97 44.888C1066.28 44.888 1065 47.16 1065 50.072V59H1062.28V42.872H1064.9V44.44H1065.61C1066.41 43.192 1067.66 42.456 1069.7 42.456C1071.66 42.456 1073.1 43.16 1073.96 44.6H1074.66C1075.66 43.16 1077.19 42.456 1079.21 42.456ZM1097.24 44.824C1093.66 44.824 1092.19 47.768 1092.19 50.936C1092.19 54.104 1093.66 57.048 1097.24 57.048C1100.48 57.048 1102.2 54.52 1102.2 50.936C1102.2 47.352 1100.48 44.824 1097.24 44.824ZM1089.5 42.872H1092.12V44.6H1092.83C1093.72 43.48 1095.29 42.456 1097.85 42.456C1102.3 42.456 1104.92 46.168 1104.92 50.936C1104.92 55.8 1102.3 59.416 1097.85 59.416C1095.29 59.416 1093.79 58.424 1092.92 57.272H1092.22V65.4H1089.5V42.872ZM1109.19 35.736H1111.91V59H1109.19V35.736ZM1131.14 49.976V50.904H1118.85C1118.95 54.744 1120.68 57.048 1124 57.048C1126.28 57.048 1127.62 56.088 1128.1 54.552H1130.85C1130.34 57.304 1128 59.416 1124 59.416C1118.98 59.416 1116.16 55.736 1116.16 50.776C1116.16 45.816 1119.04 42.456 1123.94 42.456C1128.74 42.456 1131.04 46.008 1131.14 49.976ZM1123.88 44.824C1120.96 44.824 1119.36 46.584 1119.01 48.632H1128.32C1128.16 46.584 1126.6 44.824 1123.88 44.824ZM1145.69 59L1141.69 52.248H1140.54L1136.44 59H1133.47L1138.49 50.744L1133.98 42.872H1136.86L1140.57 49.272H1141.72L1145.5 42.872H1148.35L1143.77 50.648L1148.76 59L1145.69 59ZM1155.44 38.68H1152.56V35.736H1155.44V38.68ZM1155.35 42.872V59H1152.63V42.872H1155.35ZM1164.43 42.872H1168.49V45.24H1164.43V54.104C1164.43 55.736 1165.13 56.568 1167.31 56.568L1168.49 56.568V59L1167.25 59C1163.76 59 1161.71 57.912 1161.71 54.488V45.24H1158.93V42.872H1161.71V38.008H1164.43V42.872ZM1177.32 65.4H1174.57L1177.9 57.496L1171.02 42.872L1173.93 42.872L1178.86 53.496H1179.66L1184.14 42.872H1186.98L1177.32 65.4ZM1200.56 49.016C1200.56 55.448 1203.09 60.024 1205.72 63.512H1203.09C1200.31 60.216 1198 55.384 1198 49.016C1198 42.712 1200.24 38.04 1202.87 34.712H1205.49C1202.93 38.2 1200.56 42.68 1200.56 49.016ZM1217.91 43.928H1221.94L1226.1 55.768H1226.8L1229.24 36.152H1232.02L1229.14 59H1224.53L1220.28 46.776H1219.57L1215.28 59H1210.68L1207.8 36.152H1210.61L1213.04 55.768H1213.75L1217.91 43.928ZM1242.72 42.456C1247.75 42.456 1250.66 46.168 1250.66 50.936C1250.66 55.704 1247.75 59.416 1242.72 59.416C1237.67 59.416 1234.79 55.704 1234.79 50.936C1234.79 46.168 1237.67 42.456 1242.72 42.456ZM1242.72 57.048C1246.28 57.048 1247.94 54.104 1247.94 50.936C1247.94 47.768 1246.28 44.824 1242.72 44.824C1239.14 44.824 1237.51 47.768 1237.51 50.936C1237.51 54.104 1239.14 57.048 1242.72 57.048ZM1264.12 42.872V45.432H1262.78C1259.58 45.432 1257.63 47.384 1257.63 50.936V59L1254.91 59V42.872H1257.53V44.792H1258.23C1259.03 43.8 1260.57 42.872 1262.91 42.872H1264.12ZM1272.17 48.952L1273.7 49.208L1275.53 49.496C1278.34 49.976 1280.13 51.416 1280.13 54.36C1280.13 57.016 1277.86 59.416 1273.51 59.416C1268.93 59.416 1266.69 57.4 1266.34 54.328H1269.09C1269.35 56.152 1270.95 57.048 1273.38 57.048C1275.81 57.048 1277.41 56.184 1277.41 54.424C1277.41 53.016 1276.52 52.248 1274.47 51.896L1270.85 51.288C1268.55 50.872 1266.98 49.656 1266.98 47.224C1266.98 44.536 1269 42.456 1273.35 42.456C1277.16 42.456 1279.37 44.248 1279.72 47.064H1277C1276.77 45.528 1275.24 44.824 1273.22 44.824C1271.14 44.824 1269.73 45.592 1269.73 46.968C1269.73 48.216 1270.53 48.696 1272.17 48.952ZM1287.87 42.872H1291.93V45.24H1287.87V54.104C1287.87 55.736 1288.57 56.568 1290.75 56.568H1291.93V59H1290.68C1287.2 59 1285.15 57.912 1285.15 54.488V45.24H1282.36V42.872H1285.15V38.008H1287.87V42.872ZM1316.22 54.136H1318.94C1318.34 57.304 1315.9 59.416 1312.16 59.416C1307.14 59.416 1304.32 55.704 1304.32 50.936C1304.32 46.072 1307.14 42.456 1312.16 42.456C1316 42.456 1318.3 44.568 1318.85 47.544L1316.13 47.544C1315.62 45.912 1314.37 44.824 1312.16 44.824C1308.51 44.824 1307.04 47.672 1307.04 50.872C1307.04 54.104 1308.54 57.048 1312.16 57.048C1314.46 57.048 1315.81 55.928 1316.22 54.136ZM1333.27 59V57.304H1332.57C1331.58 58.552 1329.85 59.416 1327.54 59.416C1323.83 59.416 1321.75 56.92 1321.75 54.168C1321.75 51.576 1323.45 48.824 1327.93 48.824H1333.18V48.184C1333.18 46.232 1332.06 44.824 1329.24 44.824C1326.84 44.824 1325.62 45.752 1325.5 47.16H1322.78C1323 44.184 1325.56 42.456 1329.18 42.456C1333.24 42.456 1335.83 44.408 1335.83 48.024V59H1333.27ZM1328.22 57.048C1330.9 57.048 1333.18 55.032 1333.18 52.472V51H1328.34C1325.69 51 1324.47 52.152 1324.47 54.072C1324.47 55.896 1325.82 57.048 1328.22 57.048ZM1345.29 48.952L1346.83 49.208L1348.65 49.496C1351.47 49.976 1353.26 51.416 1353.26 54.36C1353.26 57.016 1350.99 59.416 1346.64 59.416C1342.06 59.416 1339.82 57.4 1339.47 54.328H1342.22C1342.48 56.152 1344.08 57.048 1346.51 57.048C1348.94 57.048 1350.54 56.184 1350.54 54.424C1350.54 53.016 1349.64 52.248 1347.6 51.896L1343.98 51.288C1341.68 50.872 1340.11 49.656 1340.11 47.224C1340.11 44.536 1342.12 42.456 1346.48 42.456C1350.28 42.456 1352.49 44.248 1352.84 47.064L1350.12 47.064C1349.9 45.528 1348.36 44.824 1346.35 44.824C1344.27 44.824 1342.86 45.592 1342.86 46.968C1342.86 48.216 1343.66 48.696 1345.29 48.952ZM1371.23 49.976V50.904H1358.95C1359.04 54.744 1360.77 57.048 1364.1 57.048C1366.37 57.048 1367.71 56.088 1368.19 54.552H1370.95C1370.43 57.304 1368.1 59.416 1364.1 59.416C1359.07 59.416 1356.26 55.736 1356.26 50.776C1356.26 45.816 1359.14 42.456 1364.03 42.456C1368.83 42.456 1371.14 46.008 1371.23 49.976ZM1363.97 44.824C1361.06 44.824 1359.46 46.584 1359.11 48.632H1368.42C1368.26 46.584 1366.69 44.824 1363.97 44.824ZM1378.16 49.016C1378.16 42.68 1375.79 38.2 1373.23 34.712H1375.85C1378.48 38.04 1380.72 42.712 1380.72 49.016C1380.72 55.384 1378.41 60.216 1375.63 63.512H1373C1375.63 60.024 1378.16 55.448 1378.16 49.016Z" fill="#274867"/>
</g>
<defs>
<clipPath id="clip0_257_1956">
<rect width="1474" height="464" fill="white"/>
</clipPath>
</defs>
</svg>
