<svg width="1474" height="1487" viewBox="0 0 1474 1487" fill="none" xmlns="http://www.w3.org/2000/svg">
<g clip-path="url(#clip0_250_1285)">
<rect width="1474" height="1487" fill="white"/>
<line x1="157" y1="215" x2="1409" y2="215" stroke="#CCE5FF" stroke-width="4"/>
<line x1="281" y1="90" x2="281" y2="1342" stroke="#CCE5FF" stroke-width="4"/>
<line x1="284" y1="90" x2="284" y2="1342" stroke="#CCE5FF" stroke-width="2"/>
<line x1="847" y1="90" x2="847" y2="1342" stroke="#CCE5FF" stroke-width="2"/>
<line x1="1098" y1="90" x2="1098" y2="1342" stroke="#CCE5FF" stroke-width="2"/>
<line x1="168" y1="90" x2="168" y2="1342" stroke="#CCE5FF" stroke-width="2"/>
<line x1="180" y1="90" x2="180" y2="1342" stroke="#CCE5FF" stroke-width="2"/>
<line x1="193" y1="90" x2="193" y2="1342" stroke="#CCE5FF" stroke-width="2"/>
<line x1="206" y1="90" x2="206" y2="1342" stroke="#CCE5FF" stroke-width="2"/>
<line x1="219" y1="90" x2="219" y2="1342" stroke="#CCE5FF" stroke-width="2"/>
<line x1="232" y1="90" x2="232" y2="1342" stroke="#CCE5FF" stroke-width="2"/>
<line x1="244" y1="90" x2="244" y2="1342" stroke="#CCE5FF" stroke-width="2"/>
<line x1="257" y1="90" x2="257" y2="1342" stroke="#CCE5FF" stroke-width="2"/>
<line x1="269" y1="90" x2="269" y2="1342" stroke="#CCE5FF" stroke-width="2"/>
<line x1="294" y1="90" x2="294" y2="1342" stroke="#CCE5FF" stroke-width="2"/>
<line x1="306" y1="90" x2="306" y2="1342" stroke="#CCE5FF" stroke-width="2"/>
<line x1="319" y1="90" x2="319" y2="1342" stroke="#CCE5FF" stroke-width="2"/>
<line x1="332" y1="90" x2="332" y2="1342" stroke="#CCE5FF" stroke-width="2"/>
<line x1="345" y1="90" x2="345" y2="1342" stroke="#CCE5FF" stroke-width="2"/>
<line x1="357" y1="90" x2="357" y2="1342" stroke="#CCE5FF" stroke-width="2"/>
<line x1="369" y1="90" x2="369" y2="1342" stroke="#CCE5FF" stroke-width="2"/>
<line x1="381" y1="90" x2="381" y2="1342" stroke="#CCE5FF" stroke-width="2"/>
<line x1="394" y1="90" x2="394" y2="1342" stroke="#CCE5FF" stroke-width="2"/>
<line x1="420" y1="90" x2="420" y2="1342" stroke="#CCE5FF" stroke-width="2"/>
<line x1="431" y1="90" x2="431" y2="1342" stroke="#CCE5FF" stroke-width="2"/>
<line x1="444" y1="90" x2="444" y2="1342" stroke="#CCE5FF" stroke-width="2"/>
<line x1="457" y1="90" x2="457" y2="1342" stroke="#CCE5FF" stroke-width="2"/>
<line x1="470" y1="90" x2="470" y2="1342" stroke="#CCE5FF" stroke-width="2"/>
<line x1="483" y1="90" x2="483" y2="1342" stroke="#CCE5FF" stroke-width="2"/>
<line x1="496" y1="90" x2="496" y2="1342" stroke="#CCE5FF" stroke-width="2"/>
<line x1="509" y1="90" x2="509" y2="1342" stroke="#CCE5FF" stroke-width="2"/>
<line x1="522" y1="90" x2="522" y2="1342" stroke="#CCE5FF" stroke-width="2"/>
<line x1="546" y1="90" x2="546" y2="1342" stroke="#CCE5FF" stroke-width="2"/>
<line x1="558" y1="90" x2="558" y2="1342" stroke="#CCE5FF" stroke-width="2"/>
<line x1="570" y1="90" x2="570" y2="1342" stroke="#CCE5FF" stroke-width="2"/>
<line x1="582" y1="90" x2="582" y2="1342" stroke="#CCE5FF" stroke-width="2"/>
<line x1="594" y1="90" x2="594" y2="1342" stroke="#CCE5FF" stroke-width="2"/>
<line x1="606" y1="90" x2="606" y2="1342" stroke="#CCE5FF" stroke-width="2"/>
<line x1="618" y1="90" x2="618" y2="1342" stroke="#CCE5FF" stroke-width="2"/>
<line x1="632" y1="90" x2="632" y2="1342" stroke="#CCE5FF" stroke-width="2"/>
<line x1="644" y1="90" x2="644" y2="1342" stroke="#CCE5FF" stroke-width="2"/>
<line x1="671" y1="90" x2="671" y2="1342" stroke="#CCE5FF" stroke-width="2"/>
<line x1="683" y1="90" x2="683" y2="1342" stroke="#CCE5FF" stroke-width="2"/>
<line x1="695" y1="90" x2="695" y2="1342" stroke="#CCE5FF" stroke-width="2"/>
<line x1="707" y1="90" x2="707" y2="1342" stroke="#CCE5FF" stroke-width="2"/>
<line x1="720" y1="90" x2="720" y2="1342" stroke="#CCE5FF" stroke-width="2"/>
<line x1="733" y1="90" x2="733" y2="1342" stroke="#CCE5FF" stroke-width="2"/>
<line x1="746" y1="90" x2="746" y2="1342" stroke="#CCE5FF" stroke-width="2"/>
<line x1="759" y1="90" x2="759" y2="1342" stroke="#CCE5FF" stroke-width="2"/>
<line x1="772" y1="90" x2="772" y2="1342" stroke="#CCE5FF" stroke-width="2"/>
<line x1="795" y1="90" x2="795" y2="1342" stroke="#CCE5FF" stroke-width="2"/>
<line x1="808" y1="90" x2="808" y2="1342" stroke="#CCE5FF" stroke-width="2"/>
<line x1="821" y1="90" x2="821" y2="1342" stroke="#CCE5FF" stroke-width="2"/>
<line x1="834" y1="90" x2="834" y2="1342" stroke="#CCE5FF" stroke-width="2"/>
<line x1="858" y1="90" x2="858" y2="1342" stroke="#CCE5FF" stroke-width="2"/>
<line x1="871" y1="90" x2="871" y2="1342" stroke="#CCE5FF" stroke-width="2"/>
<line x1="883" y1="90" x2="883" y2="1342" stroke="#CCE5FF" stroke-width="2"/>
<line x1="895" y1="90" x2="895" y2="1342" stroke="#CCE5FF" stroke-width="2"/>
<line x1="922" y1="90" x2="922" y2="1342" stroke="#CCE5FF" stroke-width="2"/>
<line x1="934" y1="90" x2="934" y2="1342" stroke="#CCE5FF" stroke-width="2"/>
<line x1="946" y1="90" x2="946" y2="1342" stroke="#CCE5FF" stroke-width="2"/>
<line x1="958" y1="90" x2="958" y2="1342" stroke="#CCE5FF" stroke-width="2"/>
<line x1="971" y1="90" x2="971" y2="1342" stroke="#CCE5FF" stroke-width="2"/>
<line x1="984" y1="90" x2="984" y2="1342" stroke="#CCE5FF" stroke-width="2"/>
<line x1="997" y1="90" x2="997" y2="1342" stroke="#CCE5FF" stroke-width="2"/>
<line x1="1010" y1="90" x2="1010" y2="1342" stroke="#CCE5FF" stroke-width="2"/>
<line x1="1023" y1="90" x2="1023" y2="1342" stroke="#CCE5FF" stroke-width="2"/>
<line x1="1046" y1="90" x2="1046" y2="1342" stroke="#CCE5FF" stroke-width="2"/>
<line x1="1059" y1="90" x2="1059" y2="1342" stroke="#CCE5FF" stroke-width="2"/>
<line x1="1072" y1="90" x2="1072" y2="1342" stroke="#CCE5FF" stroke-width="2"/>
<line x1="1085" y1="90" x2="1085" y2="1342" stroke="#CCE5FF" stroke-width="2"/>
<line x1="1110" y1="90" x2="1110" y2="1342" stroke="#CCE5FF" stroke-width="2"/>
<line x1="1122" y1="90" x2="1122" y2="1342" stroke="#CCE5FF" stroke-width="2"/>
<line x1="1134" y1="90" x2="1134" y2="1342" stroke="#CCE5FF" stroke-width="2"/>
<line x1="1146" y1="90" x2="1146" y2="1342" stroke="#CCE5FF" stroke-width="2"/>
<line x1="1171" y1="90" x2="1171" y2="1342" stroke="#CCE5FF" stroke-width="2"/>
<line x1="1183" y1="90" x2="1183" y2="1342" stroke="#CCE5FF" stroke-width="2"/>
<line x1="1196" y1="90" x2="1196" y2="1342" stroke="#CCE5FF" stroke-width="2"/>
<line x1="1209" y1="90" x2="1209" y2="1342" stroke="#CCE5FF" stroke-width="2"/>
<line x1="1222" y1="90" x2="1222" y2="1342" stroke="#CCE5FF" stroke-width="2"/>
<line x1="1235" y1="90" x2="1235" y2="1342" stroke="#CCE5FF" stroke-width="2"/>
<line x1="1248" y1="90" x2="1248" y2="1342" stroke="#CCE5FF" stroke-width="2"/>
<line x1="1261" y1="90" x2="1261" y2="1342" stroke="#CCE5FF" stroke-width="2"/>
<line x1="1274" y1="90" x2="1274" y2="1342" stroke="#CCE5FF" stroke-width="2"/>
<line x1="1297" y1="90" x2="1297" y2="1342" stroke="#CCE5FF" stroke-width="2"/>
<line x1="1309" y1="90" x2="1309" y2="1342" stroke="#CCE5FF" stroke-width="2"/>
<line x1="1322" y1="90" x2="1322" y2="1343" stroke="#CCE5FF" stroke-width="2"/>
<line x1="1335" y1="90" x2="1335" y2="1343" stroke="#CCE5FF" stroke-width="2"/>
<line x1="1348" y1="90" x2="1348" y2="1343" stroke="#CCE5FF" stroke-width="2"/>
<line x1="1360" y1="90" x2="1360" y2="1343" stroke="#CCE5FF" stroke-width="2"/>
<line x1="1372" y1="90" x2="1372" y2="1343" stroke="#CCE5FF" stroke-width="2"/>
<line x1="1385" y1="90" x2="1385" y2="1343" stroke="#CCE5FF" stroke-width="2"/>
<line x1="1398" y1="90" x2="1398" y2="1343" stroke="#CCE5FF" stroke-width="2"/>
<line x1="1408.5" y1="102.5" x2="156.5" y2="102.5" stroke="#CCE5FF" stroke-width="2"/>
<line x1="1408.5" y1="114.5" x2="156.5" y2="114.5" stroke="#CCE5FF" stroke-width="2"/>
<line x1="1408.5" y1="127.5" x2="156.5" y2="127.5" stroke="#CCE5FF" stroke-width="2"/>
<line x1="1408.5" y1="140.5" x2="156.5" y2="140.5" stroke="#CCE5FF" stroke-width="2"/>
<line x1="1408.5" y1="153.5" x2="156.5" y2="153.5" stroke="#CCE5FF" stroke-width="2"/>
<line x1="1408.5" y1="166.5" x2="156.5" y2="166.5" stroke="#CCE5FF" stroke-width="2"/>
<line x1="1408.5" y1="178.5" x2="156.5" y2="178.5" stroke="#CCE5FF" stroke-width="2"/>
<line x1="1408.5" y1="191.5" x2="156.5" y2="191.5" stroke="#CCE5FF" stroke-width="2"/>
<line x1="1408.5" y1="203.5" x2="156.5" y2="203.5" stroke="#CCE5FF" stroke-width="2"/>
<line x1="1408.5" y1="228.5" x2="156.5" y2="228.5" stroke="#CCE5FF" stroke-width="2"/>
<line x1="1408.5" y1="240.5" x2="156.5" y2="240.5" stroke="#CCE5FF" stroke-width="2"/>
<line x1="1408.5" y1="253.5" x2="156.5" y2="253.5" stroke="#CCE5FF" stroke-width="2"/>
<line x1="1408.5" y1="266.5" x2="156.5" y2="266.5" stroke="#CCE5FF" stroke-width="2"/>
<line x1="1408.5" y1="279.5" x2="156.5" y2="279.5" stroke="#CCE5FF" stroke-width="2"/>
<line x1="1408.5" y1="291.5" x2="156.5" y2="291.5" stroke="#CCE5FF" stroke-width="2"/>
<line x1="1408.5" y1="303.5" x2="156.5" y2="303.5" stroke="#CCE5FF" stroke-width="2"/>
<line x1="1408.5" y1="315.5" x2="156.5" y2="315.5" stroke="#CCE5FF" stroke-width="2"/>
<line x1="1408.5" y1="328.5" x2="156.5" y2="328.5" stroke="#CCE5FF" stroke-width="2"/>
<line x1="1408.5" y1="354.5" x2="156.5" y2="354.5" stroke="#CCE5FF" stroke-width="2"/>
<line x1="1408.5" y1="365.5" x2="156.5" y2="365.5" stroke="#CCE5FF" stroke-width="2"/>
<line x1="1408.5" y1="378.5" x2="156.5" y2="378.5" stroke="#CCE5FF" stroke-width="2"/>
<line x1="1408.5" y1="391.5" x2="156.5" y2="391.5" stroke="#CCE5FF" stroke-width="2"/>
<line x1="1408.5" y1="404.5" x2="156.5" y2="404.5" stroke="#CCE5FF" stroke-width="2"/>
<line x1="1408.5" y1="417.5" x2="156.5" y2="417.5" stroke="#CCE5FF" stroke-width="2"/>
<line x1="1408.5" y1="430.5" x2="156.5" y2="430.5" stroke="#CCE5FF" stroke-width="2"/>
<line x1="1408.5" y1="443.5" x2="156.5" y2="443.5" stroke="#CCE5FF" stroke-width="2"/>
<line x1="1408.5" y1="456.5" x2="156.5" y2="456.5" stroke="#CCE5FF" stroke-width="2"/>
<line x1="1408.5" y1="480.5" x2="156.5" y2="480.5" stroke="#CCE5FF" stroke-width="2"/>
<line x1="1408.5" y1="492.5" x2="156.5" y2="492.5" stroke="#CCE5FF" stroke-width="2"/>
<line x1="1408.5" y1="504.5" x2="156.5" y2="504.5" stroke="#CCE5FF" stroke-width="2"/>
<line x1="1408.5" y1="516.5" x2="156.5" y2="516.5" stroke="#CCE5FF" stroke-width="2"/>
<line x1="1408.5" y1="528.5" x2="156.5" y2="528.5" stroke="#CCE5FF" stroke-width="2"/>
<line x1="1408.5" y1="540.5" x2="156.5" y2="540.5" stroke="#CCE5FF" stroke-width="2"/>
<line x1="1408.5" y1="552.5" x2="156.5" y2="552.5" stroke="#CCE5FF" stroke-width="2"/>
<line x1="1408.5" y1="566.5" x2="156.5" y2="566.5" stroke="#CCE5FF" stroke-width="2"/>
<line x1="1408.5" y1="578.5" x2="156.5" y2="578.5" stroke="#CCE5FF" stroke-width="2"/>
<line x1="1408.5" y1="605.5" x2="156.5" y2="605.5" stroke="#CCE5FF" stroke-width="2"/>
<line x1="1408.5" y1="617.5" x2="156.5" y2="617.5" stroke="#CCE5FF" stroke-width="2"/>
<line x1="1408.5" y1="629.5" x2="156.5" y2="629.5" stroke="#CCE5FF" stroke-width="2"/>
<line x1="1408.5" y1="641.5" x2="156.5" y2="641.5" stroke="#CCE5FF" stroke-width="2"/>
<line x1="1408.5" y1="654.5" x2="156.5" y2="654.5" stroke="#CCE5FF" stroke-width="2"/>
<line x1="1408.5" y1="667.5" x2="156.5" y2="667.5" stroke="#CCE5FF" stroke-width="2"/>
<line x1="1408.5" y1="680.5" x2="156.5" y2="680.5" stroke="#CCE5FF" stroke-width="2"/>
<line x1="1408.5" y1="693.5" x2="156.5" y2="693.5" stroke="#CCE5FF" stroke-width="2"/>
<line x1="1408.5" y1="706.5" x2="156.5" y2="706.5" stroke="#CCE5FF" stroke-width="2"/>
<line x1="1408.5" y1="729.5" x2="156.5" y2="729.5" stroke="#CCE5FF" stroke-width="2"/>
<line x1="1408.5" y1="742.5" x2="156.5" y2="742.5" stroke="#CCE5FF" stroke-width="2"/>
<line x1="1408.5" y1="755.5" x2="156.5" y2="755.5" stroke="#CCE5FF" stroke-width="2"/>
<line x1="1408.5" y1="768.5" x2="156.5" y2="768.5" stroke="#CCE5FF" stroke-width="2"/>
<line x1="1408.5" y1="780.5" x2="156.5" y2="780.5" stroke="#CCE5FF" stroke-width="2"/>
<line x1="1408.5" y1="792.5" x2="156.5" y2="792.5" stroke="#CCE5FF" stroke-width="2"/>
<line x1="1408.5" y1="805.5" x2="156.5" y2="805.5" stroke="#CCE5FF" stroke-width="2"/>
<line x1="1408.5" y1="817.5" x2="156.5" y2="817.5" stroke="#CCE5FF" stroke-width="2"/>
<line x1="1408.5" y1="829.5" x2="156.5" y2="829.5" stroke="#CCE5FF" stroke-width="2"/>
<line x1="1408.5" y1="856.5" x2="156.5" y2="856.5" stroke="#CCE5FF" stroke-width="2"/>
<line x1="1408.5" y1="868.5" x2="156.5" y2="868.5" stroke="#CCE5FF" stroke-width="2"/>
<line x1="1408.5" y1="880.5" x2="156.5" y2="880.5" stroke="#CCE5FF" stroke-width="2"/>
<line x1="1408.5" y1="892.5" x2="156.5" y2="892.5" stroke="#CCE5FF" stroke-width="2"/>
<line x1="1408.5" y1="905.5" x2="156.5" y2="905.5" stroke="#CCE5FF" stroke-width="2"/>
<line x1="1408.5" y1="918.5" x2="156.5" y2="918.5" stroke="#CCE5FF" stroke-width="2"/>
<line x1="1408.5" y1="931.5" x2="156.5" y2="931.5" stroke="#CCE5FF" stroke-width="2"/>
<line x1="1408.5" y1="944.5" x2="156.5" y2="944.5" stroke="#CCE5FF" stroke-width="2"/>
<line x1="1408.5" y1="957.5" x2="156.5" y2="957.5" stroke="#CCE5FF" stroke-width="2"/>
<line x1="1408.5" y1="980.5" x2="156.5" y2="980.5" stroke="#CCE5FF" stroke-width="2"/>
<line x1="1408.5" y1="993.5" x2="156.5" y2="993.5" stroke="#CCE5FF" stroke-width="2"/>
<line x1="1408.5" y1="1006.5" x2="156.5" y2="1006.5" stroke="#CCE5FF" stroke-width="2"/>
<line x1="1408.5" y1="1019.5" x2="156.5" y2="1019.5" stroke="#CCE5FF" stroke-width="2"/>
<line x1="1408.5" y1="1044.5" x2="156.5" y2="1044.5" stroke="#CCE5FF" stroke-width="2"/>
<line x1="1408.5" y1="1031.5" x2="156.5" y2="1031.5" stroke="#CCE5FF" stroke-width="2"/>
<line x1="1408.5" y1="1056.5" x2="156.5" y2="1056.5" stroke="#CCE5FF" stroke-width="2"/>
<line x1="1408.5" y1="1068.5" x2="156.5" y2="1068.5" stroke="#CCE5FF" stroke-width="2"/>
<line x1="1408.5" y1="1080.5" x2="156.5" y2="1080.5" stroke="#CCE5FF" stroke-width="2"/>
<line x1="1408.5" y1="1105.5" x2="156.5" y2="1105.5" stroke="#CCE5FF" stroke-width="2"/>
<line x1="1408.5" y1="1117.5" x2="156.5" y2="1117.5" stroke="#CCE5FF" stroke-width="2"/>
<line x1="1408.5" y1="1130.5" x2="156.5" y2="1130.5" stroke="#CCE5FF" stroke-width="2"/>
<line x1="1408.5" y1="1143.5" x2="156.5" y2="1143.5" stroke="#CCE5FF" stroke-width="2"/>
<line x1="1408.5" y1="1156.5" x2="156.5" y2="1156.5" stroke="#CCE5FF" stroke-width="2"/>
<line x1="1408.5" y1="1169.5" x2="156.5" y2="1169.5" stroke="#CCE5FF" stroke-width="2"/>
<line x1="1408.5" y1="1182.5" x2="156.5" y2="1182.5" stroke="#CCE5FF" stroke-width="2"/>
<line x1="1408.5" y1="1195.5" x2="156.5" y2="1195.5" stroke="#CCE5FF" stroke-width="2"/>
<line x1="1408.5" y1="1206.5" x2="156.5" y2="1206.5" stroke="#CCE5FF" stroke-width="2"/>
<line x1="1408.5" y1="1231.5" x2="156.5" y2="1231.5" stroke="#CCE5FF" stroke-width="2"/>
<line x1="1408.5" y1="1243.5" x2="156.5" y2="1243.5" stroke="#CCE5FF" stroke-width="2"/>
<line x1="1408.5" y1="1256.5" x2="155.5" y2="1256.5" stroke="#CCE5FF" stroke-width="2"/>
<line x1="1408.5" y1="1269.5" x2="155.5" y2="1269.5" stroke="#CCE5FF" stroke-width="2"/>
<line x1="1408.5" y1="1282.5" x2="155.5" y2="1282.5" stroke="#CCE5FF" stroke-width="2"/>
<line x1="1408.5" y1="1294.5" x2="155.5" y2="1294.5" stroke="#CCE5FF" stroke-width="2"/>
<line x1="1408.5" y1="1306.5" x2="155.5" y2="1306.5" stroke="#CCE5FF" stroke-width="2"/>
<line x1="1408.5" y1="1319.5" x2="155.5" y2="1319.5" stroke="#CCE5FF" stroke-width="2"/>
<line x1="1408.5" y1="1332.5" x2="155.5" y2="1332.5" stroke="#CCE5FF" stroke-width="2"/>
<line x1="408" y1="90" x2="408" y2="1342" stroke="#CCE5FF" stroke-width="4"/>
<line x1="535" y1="90" x2="535" y2="1342" stroke="#CCE5FF" stroke-width="4"/>
<line x1="659" y1="90" x2="659" y2="1342" stroke="#CCE5FF" stroke-width="4"/>
<line x1="783" y1="90" x2="783" y2="1342" stroke="#CCE5FF" stroke-width="4"/>
<line x1="909" y1="90" x2="909" y2="1342" stroke="#CCE5FF" stroke-width="4"/>
<line x1="1035" y1="90" x2="1035" y2="1342" stroke="#CCE5FF" stroke-width="4"/>
<line x1="1159" y1="90" x2="1159" y2="1342" stroke="#CCE5FF" stroke-width="4"/>
<line x1="1285" y1="90" x2="1285" y2="1342" stroke="#CCE5FF" stroke-width="4"/>
<line x1="157" y1="343" x2="1409" y2="343" stroke="#CCE5FF" stroke-width="4"/>
<line x1="157" y1="468" x2="1409" y2="468" stroke="#CCE5FF" stroke-width="4"/>
<line x1="157" y1="593" x2="1409" y2="593" stroke="#CCE5FF" stroke-width="4"/>
<line x1="157" y1="718" x2="1409" y2="718" stroke="#CCE5FF" stroke-width="4"/>
<line x1="157" y1="843" x2="1409" y2="843" stroke="#CCE5FF" stroke-width="4"/>
<line x1="157" y1="968" x2="1409" y2="968" stroke="#CCE5FF" stroke-width="4"/>
<line x1="157" y1="1093" x2="1409" y2="1093" stroke="#CCE5FF" stroke-width="4"/>
<line x1="157" y1="1218" x2="1409" y2="1218" stroke="#CCE5FF" stroke-width="4"/>
<path d="M215.5 89.4987C215.5 89.4987 210.917 362.686 210.002 653.499C209.501 812.482 206.247 977.959 202.002 1105.5C197.418 1243.25 190.716 1336.75 158.003 1330" stroke="black" stroke-width="4" stroke-dasharray="8 8"/>
<path d="M236.999 91.9999C236.999 91.9999 228.415 360.687 227.5 651.499C226.999 810.483 212.244 981.46 207.999 1109C203.415 1246.75 174 1320 158.5 1325.5" stroke="#855A43" stroke-width="4" stroke-dasharray="16 16"/>
<path d="M278 92C278 92 265.5 352.5 249 643C239.5 804.5 221.501 971.5 211.499 1097.5C197.999 1236 175 1333.5 159.5 1339" stroke="#FF0000" stroke-width="4" stroke-dasharray="22 8"/>
<path d="M436 92C436 92 397 299 352.5 559C330.5 717.5 282.5 908 257 1039.5C225 1181 185 1333.5 169.5 1339" stroke="#FAC906" stroke-width="4"/>
<path d="M1407 91.5L158.002 1341" stroke="#00C514" stroke-width="4" stroke-dasharray="16 9"/>
<path d="M1405 1220C1405 1220 207 1269 158.002 1341" stroke="#007BFF" stroke-width="4" stroke-dasharray="16 9"/>
<path d="M1402.5 1260C1402.5 1260 207 1269 158.002 1341" stroke="#274867" stroke-width="4" stroke-dasharray="16 9"/>
<path d="M1402.5 1260C1402.5 1260 207 1269 158.002 1341" stroke="#EC48BE" stroke-width="4" stroke-dasharray="16 9"/>
<path d="M1405 1329.5C1405 1329.5 193 1328.5 157.5 1333.5" stroke="#6E3AA3" stroke-width="4" stroke-dasharray="16 9"/>
<rect x="156" y="90" width="1251" height="1252" stroke="#CCE5FF" stroke-width="4"/>
<path d="M55.245 111V106.71H64.375V77.56H63.275L55.19 83.005V77.945L63.22 72.5H69.215V106.71H77.63V111H55.245ZM96.8748 71.73C105.015 71.73 111.065 77.89 111.065 91.75C111.065 105.61 105.015 111.715 96.8748 111.715C88.7348 111.715 82.7398 105.61 82.7398 91.75C82.7398 77.89 88.7348 71.73 96.8748 71.73ZM96.8748 107.425C103.31 107.425 106.225 101.265 106.225 91.75C106.225 82.18 103.31 76.02 96.8748 76.02C90.4948 76.02 87.5798 82.18 87.5798 91.75C87.5798 101.265 90.4948 107.425 96.8748 107.425ZM131.25 71.73C139.39 71.73 145.44 77.89 145.44 91.75C145.44 105.61 139.39 111.715 131.25 111.715C123.11 111.715 117.115 105.61 117.115 91.75C117.115 77.89 123.11 71.73 131.25 71.73ZM131.25 107.425C137.685 107.425 140.6 101.265 140.6 91.75C140.6 82.18 137.685 76.02 131.25 76.02C124.87 76.02 121.955 82.18 121.955 91.75C121.955 101.265 124.87 107.425 131.25 107.425Z" fill="#274867"/>
<path d="M79.685 223.525C72.645 223.525 67.365 218.3 67.365 210.985C67.365 203.67 72.26 197.73 80.455 197.73C88.65 197.73 94.59 202.79 94.59 216.65C94.59 228.365 90.025 237.715 79.96 237.715C73.415 237.715 69.29 233.81 68.41 228.53H73.195C74.13 231.775 76.22 233.425 79.96 233.425C86.12 233.425 89.64 228.2 89.915 219.785H88.705C87.385 221.38 84.305 223.525 79.685 223.525ZM80.51 202.02C75.835 202.02 72.205 205.045 72.205 210.765C72.205 216.485 75.945 219.29 80.62 219.29C85.24 219.29 88.98 216.32 88.98 210.82C88.98 205.21 85.185 202.02 80.51 202.02ZM114.763 197.73C122.903 197.73 128.953 203.89 128.953 217.75C128.953 231.61 122.903 237.715 114.763 237.715C106.623 237.715 100.628 231.61 100.628 217.75C100.628 203.89 106.623 197.73 114.763 197.73ZM114.763 233.425C121.198 233.425 124.113 227.265 124.113 217.75C124.113 208.18 121.198 202.02 114.763 202.02C108.383 202.02 105.468 208.18 105.468 217.75C105.468 227.265 108.383 233.425 114.763 233.425Z" fill="#274867"/>
<path d="M89.695 343.1V344.31C92.225 345.19 95.69 348.38 95.69 353.495C95.69 359.875 90.245 364.715 81.775 364.715C73.305 364.715 67.86 359.875 67.86 353.495C67.86 348.435 71.27 345.19 73.855 344.31V343.1C71.82 342.22 69.015 339.415 69.015 335.015C69.015 328.91 74.295 324.73 81.775 324.73C89.255 324.73 94.535 328.91 94.535 335.015C94.535 339.305 91.675 342.22 89.695 343.1ZM81.775 328.91C77.375 328.91 73.745 331.11 73.745 335.235C73.745 339.36 77.375 341.615 81.775 341.615C86.175 341.615 89.805 339.36 89.805 335.235C89.805 331.11 86.175 328.91 81.775 328.91ZM81.775 360.425C87.44 360.425 90.905 357.51 90.905 353.055C90.905 348.49 87.44 345.795 81.775 345.795C76.11 345.795 72.645 348.49 72.645 353.055C72.645 357.51 76.11 360.425 81.775 360.425ZM115.783 324.73C123.923 324.73 129.973 330.89 129.973 344.75C129.973 358.61 123.923 364.715 115.783 364.715C107.643 364.715 101.648 358.61 101.648 344.75C101.648 330.89 107.643 324.73 115.783 324.73ZM115.783 360.425C122.218 360.425 125.133 354.265 125.133 344.75C125.133 335.18 122.218 329.02 115.783 329.02C109.403 329.02 106.488 335.18 106.488 344.75C106.488 354.265 109.403 360.425 115.783 360.425Z" fill="#274867"/>
<path d="M92.225 454.89L75.56 488H70.5L87.22 454.89V453.68H67.695V449.5H92.225V454.89ZM110.842 448.73C118.982 448.73 125.032 454.89 125.032 468.75C125.032 482.61 118.982 488.715 110.842 488.715C102.702 488.715 96.7066 482.61 96.7066 468.75C96.7066 454.89 102.702 448.73 110.842 448.73ZM110.842 484.425C117.277 484.425 120.192 478.265 120.192 468.75C120.192 459.18 117.277 453.02 110.842 453.02C104.462 453.02 101.547 459.18 101.547 468.75C101.547 478.265 104.462 484.425 110.842 484.425Z" fill="#274867"/>
<path d="M82.93 589.92C89.97 589.92 95.25 595.145 95.25 602.46C95.25 609.775 90.355 615.715 82.16 615.715C73.965 615.715 68.025 610.655 68.025 596.795C68.025 585.08 72.59 575.73 82.655 575.73C89.2 575.73 93.325 579.635 94.205 584.915H89.42C88.485 581.67 86.395 580.02 82.655 580.02C76.495 580.02 72.975 585.245 72.7 593.66H73.91C75.23 592.065 78.31 589.92 82.93 589.92ZM82.105 611.425C86.78 611.425 90.41 608.4 90.41 602.68C90.41 596.96 86.67 594.155 81.995 594.155C77.375 594.155 73.635 597.125 73.635 602.625C73.635 608.235 77.43 611.425 82.105 611.425ZM114.763 575.73C122.903 575.73 128.953 581.89 128.953 595.75C128.953 609.61 122.903 615.715 114.763 615.715C106.623 615.715 100.628 609.61 100.628 595.75C100.628 581.89 106.623 575.73 114.763 575.73ZM114.763 611.425C121.198 611.425 124.113 605.265 124.113 595.75C124.113 586.18 121.198 580.02 114.763 580.02C108.383 580.02 105.468 586.18 105.468 595.75C105.468 605.265 108.383 611.425 114.763 611.425Z" fill="#274867"/>
<path d="M82.435 713.095C90.135 713.095 94.81 718.815 94.81 725.965C94.81 734.325 89.42 739.715 81.61 739.715C73.14 739.715 68.63 734.71 68.19 728.22H72.975C73.58 733.005 76.715 735.425 81.39 735.425C86.505 735.425 89.97 731.905 89.97 726.185C89.97 720.905 86.725 717.165 81.555 717.165C78.09 717.165 75.56 718.375 73.91 720.795H69.07L70.775 700.5H92.775V704.68H74.68L73.8 715.79H75.01C76.77 714.195 78.86 713.095 82.435 713.095ZM114.87 699.73C123.01 699.73 129.06 705.89 129.06 719.75C129.06 733.61 123.01 739.715 114.87 739.715C106.73 739.715 100.735 733.61 100.735 719.75C100.735 705.89 106.73 699.73 114.87 699.73ZM114.87 735.425C121.305 735.425 124.22 729.265 124.22 719.75C124.22 710.18 121.305 704.02 114.87 704.02C108.49 704.02 105.575 710.18 105.575 719.75C105.575 729.265 108.49 735.425 114.87 735.425Z" fill="#274867"/>
<path d="M90.905 853.69H96.185V857.98H90.905V867H86.175V857.98H67.145V852.48L84.14 828.5H90.905V853.69ZM72.205 853.69H86.23V833.945H85.02L72.205 852.48V853.69ZM115.837 827.73C123.977 827.73 130.027 833.89 130.027 847.75C130.027 861.61 123.977 867.715 115.837 867.715C107.697 867.715 101.702 861.61 101.702 847.75C101.702 833.89 107.697 827.73 115.837 827.73ZM115.837 863.425C122.272 863.425 125.187 857.265 125.187 847.75C125.187 838.18 122.272 832.02 115.837 832.02C109.457 832.02 106.542 838.18 106.542 847.75C106.542 857.265 109.457 863.425 115.837 863.425Z" fill="#274867"/>
<path d="M646.905 1390.69H652.185V1394.98H646.905V1404H642.175V1394.98H623.145V1389.48L640.14 1365.5H646.905V1390.69ZM628.205 1390.69H642.23V1370.94H641.02L628.205 1389.48V1390.69ZM671.837 1364.73C679.977 1364.73 686.027 1370.89 686.027 1384.75C686.027 1398.61 679.977 1404.72 671.837 1404.72C663.697 1404.72 657.702 1398.61 657.702 1384.75C657.702 1370.89 663.697 1364.73 671.837 1364.73ZM671.837 1400.42C678.272 1400.42 681.187 1394.26 681.187 1384.75C681.187 1375.18 678.272 1369.02 671.837 1369.02C665.457 1369.02 662.542 1375.18 662.542 1384.75C662.542 1394.26 665.457 1400.42 671.837 1400.42Z" fill="#274867"/>
<path d="M765.435 1378.09C773.135 1378.09 777.81 1383.81 777.81 1390.96C777.81 1399.32 772.42 1404.72 764.61 1404.72C756.14 1404.72 751.63 1399.71 751.19 1393.22H755.975C756.58 1398 759.715 1400.42 764.39 1400.42C769.505 1400.42 772.97 1396.9 772.97 1391.18C772.97 1385.9 769.725 1382.16 764.555 1382.16C761.09 1382.16 758.56 1383.37 756.91 1385.79H752.07L753.775 1365.5H775.775V1369.68H757.68L756.8 1380.79H758.01C759.77 1379.19 761.86 1378.09 765.435 1378.09ZM797.87 1364.73C806.01 1364.73 812.06 1370.89 812.06 1384.75C812.06 1398.61 806.01 1404.72 797.87 1404.72C789.73 1404.72 783.735 1398.61 783.735 1384.75C783.735 1370.89 789.73 1364.73 797.87 1364.73ZM797.87 1400.42C804.305 1400.42 807.22 1394.26 807.22 1384.75C807.22 1375.18 804.305 1369.02 797.87 1369.02C791.49 1369.02 788.575 1375.18 788.575 1384.75C788.575 1394.26 791.49 1400.42 797.87 1400.42Z" fill="#274867"/>
<path d="M892.93 1378.92C899.97 1378.92 905.25 1384.14 905.25 1391.46C905.25 1398.77 900.355 1404.72 892.16 1404.72C883.965 1404.72 878.025 1399.65 878.025 1385.79C878.025 1374.08 882.59 1364.73 892.655 1364.73C899.2 1364.73 903.325 1368.63 904.205 1373.91H899.42C898.485 1370.67 896.395 1369.02 892.655 1369.02C886.495 1369.02 882.975 1374.24 882.7 1382.66H883.91C885.23 1381.06 888.31 1378.92 892.93 1378.92ZM892.105 1400.42C896.78 1400.42 900.41 1397.4 900.41 1391.68C900.41 1385.96 896.67 1383.15 891.995 1383.15C887.375 1383.15 883.635 1386.12 883.635 1391.62C883.635 1397.23 887.43 1400.42 892.105 1400.42ZM924.763 1364.73C932.903 1364.73 938.953 1370.89 938.953 1384.75C938.953 1398.61 932.903 1404.72 924.763 1404.72C916.623 1404.72 910.628 1398.61 910.628 1384.75C910.628 1370.89 916.623 1364.73 924.763 1364.73ZM924.763 1400.42C931.198 1400.42 934.113 1394.26 934.113 1384.75C934.113 1375.18 931.198 1369.02 924.763 1369.02C918.383 1369.02 915.468 1375.18 915.468 1384.75C915.468 1394.26 918.383 1400.42 924.763 1400.42Z" fill="#274867"/>
<path d="M857.875 1453H853.2L856.005 1436.99C856.17 1436.06 856.335 1434.96 856.335 1433.91C856.335 1430.56 854.575 1428.74 850.45 1428.74C845.39 1428.74 841.705 1432.76 840.825 1438.09L838.185 1453H833.51L838.405 1425.28H842.97L842.42 1428.19H843.63C845.335 1426.16 848.085 1424.56 852.1 1424.56C857.875 1424.56 861.065 1427.86 861.065 1433.09C861.065 1434.13 860.9 1435.51 860.735 1436.61L857.875 1453Z" fill="#274867"/>
<path d="M1358.88 74H1354.2L1357.01 57.995C1357.17 57.06 1357.34 55.96 1357.34 54.915C1357.34 51.56 1355.58 49.745 1351.45 49.745C1346.39 49.745 1342.71 53.76 1341.83 59.095L1339.19 74H1334.51L1339.41 46.28H1343.97L1343.42 49.195H1344.63C1346.34 47.16 1349.09 45.565 1353.1 45.565C1358.88 45.565 1362.07 48.865 1362.07 54.09C1362.07 55.135 1361.9 56.51 1361.74 57.61L1358.88 74Z" fill="#00C414"/>
<path d="M460.875 75H456.2L459.005 58.995C459.17 58.06 459.335 56.96 459.335 55.915C459.335 52.56 457.575 50.745 453.45 50.745C448.39 50.745 444.705 54.76 443.825 60.095L441.185 75H436.51L441.405 47.28H445.97L445.42 50.195H446.63C448.335 48.16 451.085 46.565 455.1 46.565C460.875 46.565 464.065 49.865 464.065 55.09C464.065 56.135 463.9 57.51 463.735 58.61L460.875 75Z" fill="#FAC906"/>
<path d="M613.875 75H609.2L612.005 58.995C612.17 58.06 612.335 56.96 612.335 55.915C612.335 52.56 610.575 50.745 606.45 50.745C601.39 50.745 597.705 54.76 596.825 60.095L594.185 75H589.51L594.405 47.28H598.97L598.42 50.195H599.63C601.335 48.16 604.085 46.565 608.1 46.565C613.875 46.565 617.065 49.865 617.065 55.09C617.065 56.135 616.9 57.51 616.735 58.61L613.875 75Z" fill="#FAC906"/>
<path d="M1380.88 1307H1376.2L1379.01 1290.99C1379.17 1290.06 1379.34 1288.96 1379.34 1287.91C1379.34 1284.56 1377.58 1282.74 1373.45 1282.74C1368.39 1282.74 1364.71 1286.76 1363.83 1292.09L1361.19 1307H1356.51L1361.41 1279.28H1365.97L1365.42 1282.19H1366.63C1368.34 1280.16 1371.09 1278.56 1375.1 1278.56C1380.88 1278.56 1384.07 1281.86 1384.07 1287.09C1384.07 1288.13 1383.9 1289.51 1383.74 1290.61L1380.88 1307Z" fill="#EC48BE"/>
<path d="M1289.1 1179.28H1293.39L1300.21 1201.94H1301.36L1312.25 1168.5H1320.94V1172.29H1315.28L1303.89 1207H1297.62L1289.1 1179.28ZM1346.22 1207H1341.54L1344.35 1190.99C1344.51 1190.06 1344.68 1188.96 1344.68 1187.91C1344.68 1184.56 1342.92 1182.74 1338.79 1182.74C1333.73 1182.74 1330.05 1186.76 1329.17 1192.09L1326.53 1207H1321.85L1326.75 1179.28H1331.31L1330.76 1182.19H1331.97C1333.68 1180.16 1336.43 1178.56 1340.44 1178.56C1346.22 1178.56 1349.41 1181.86 1349.41 1187.09C1349.41 1188.13 1349.24 1189.51 1349.08 1190.61L1346.22 1207Z" fill="#007BFF"/>
<path d="M313.875 75H309.2L312.005 58.995C312.17 58.06 312.335 56.96 312.335 55.915C312.335 52.56 310.575 50.745 306.45 50.745C301.39 50.745 297.705 54.76 296.825 60.095L294.185 75H289.51L294.405 47.28H298.97L298.42 50.195H299.63C301.335 48.16 304.085 46.565 308.1 46.565C313.875 46.565 317.065 49.865 317.065 55.09C317.065 56.135 316.9 57.51 316.735 58.61L313.875 75Z" fill="#FF0000"/>
<path d="M192.875 75H188.2L191.005 58.995C191.17 58.06 191.335 56.96 191.335 55.915C191.335 52.56 189.575 50.745 185.45 50.745C180.39 50.745 176.705 54.76 175.825 60.095L173.185 75H168.51L173.405 47.28H177.97L177.42 50.195H178.63C180.335 48.16 183.085 46.565 187.1 46.565C192.875 46.565 196.065 49.865 196.065 55.09C196.065 56.135 195.9 57.51 195.735 58.61L192.875 75ZM203.14 35.73H207.98V51.955L207.045 64.605H204.02L203.14 51.955V35.73ZM208.42 75H202.7V68.62H208.42V75Z" fill="black"/>
<path d="M232.935 47.115H228.15C229.635 39.36 235.19 35.73 242.065 35.73C248.39 35.73 253.23 39.525 253.23 45.685C253.23 52.45 248.17 57.015 243.495 60.7C242.01 61.855 239.26 64 236.62 65.925C235.135 67.08 233.54 68.235 231.835 69.5L231.67 70.71H250.755L250.04 75H223.915L224.85 69.555L231.065 64.935C234.475 62.405 238.545 59.435 241.13 57.4C244.43 54.87 248.445 51.515 248.445 46.07C248.445 42.11 245.42 40.02 241.46 40.02C237.06 40.02 233.98 42.275 232.935 47.115Z" fill="#855A43"/>
<path d="M484.51 35.015H489.185V75H484.51V35.015ZM510.141 46.565C518.776 46.565 523.781 52.945 523.781 61.14C523.781 69.335 518.776 75.715 510.141 75.715C501.451 75.715 496.501 69.335 496.501 61.14C496.501 52.945 501.451 46.565 510.141 46.565ZM510.141 71.645C516.246 71.645 519.106 66.585 519.106 61.14C519.106 55.695 516.246 50.635 510.141 50.635C503.981 50.635 501.176 55.695 501.176 61.14C501.176 66.585 503.981 71.645 510.141 71.645ZM551.372 47.28H555.882V73.625C555.882 81.38 551.042 86.385 542.957 86.385C535.862 86.385 531.242 83.415 530.417 77.915H535.037C535.862 81.215 538.722 82.425 542.902 82.425C548.622 82.425 551.207 78.96 551.207 73.405V71.205H549.997C548.512 73.13 545.872 74.89 541.692 74.89C534.047 74.89 529.372 68.84 529.372 60.755C529.372 52.615 534.047 46.565 541.692 46.565C546.037 46.565 548.677 48.325 550.162 50.25H551.372V47.28ZM542.572 70.82C548.512 70.82 551.317 66.035 551.317 60.755C551.317 55.42 548.512 50.635 542.572 50.635C537.127 50.635 534.047 54.65 534.047 60.755C534.047 66.75 537.127 70.82 542.572 70.82Z" fill="#FAC906"/>
<path d="M1251.51 1267.01H1256.19V1307H1251.51V1267.01ZM1277.14 1278.56C1285.78 1278.56 1290.78 1284.94 1290.78 1293.14C1290.78 1301.33 1285.78 1307.72 1277.14 1307.72C1268.45 1307.72 1263.5 1301.33 1263.5 1293.14C1263.5 1284.94 1268.45 1278.56 1277.14 1278.56ZM1277.14 1303.64C1283.25 1303.64 1286.11 1298.58 1286.11 1293.14C1286.11 1287.69 1283.25 1282.63 1277.14 1282.63C1270.98 1282.63 1268.18 1287.69 1268.18 1293.14C1268.18 1298.58 1270.98 1303.64 1277.14 1303.64ZM1318.37 1279.28H1322.88V1305.62C1322.88 1313.38 1318.04 1318.39 1309.96 1318.39C1302.86 1318.39 1298.24 1315.42 1297.42 1309.92H1302.04C1302.86 1313.22 1305.72 1314.43 1309.9 1314.43C1315.62 1314.43 1318.21 1310.96 1318.21 1305.4V1303.2H1317C1315.51 1305.13 1312.87 1306.89 1308.69 1306.89C1301.05 1306.89 1296.37 1300.84 1296.37 1292.75C1296.37 1284.61 1301.05 1278.56 1308.69 1278.56C1313.04 1278.56 1315.68 1280.32 1317.16 1282.25H1318.37V1279.28ZM1309.57 1302.82C1315.51 1302.82 1318.32 1298.03 1318.32 1292.75C1318.32 1287.42 1315.51 1282.63 1309.57 1282.63C1304.13 1282.63 1301.05 1286.65 1301.05 1292.75C1301.05 1298.75 1304.13 1302.82 1309.57 1302.82Z" fill="#EC48BE"/>
<path d="M834.245 1326V1321.71H843.375V1292.56H842.275L834.19 1298V1292.94L842.22 1287.5H848.215V1321.71H856.63V1326H834.245Z" fill="#6E3AA3"/>
<path d="M570.845 80.57H566.785C567.065 75.53 570.495 73.01 575.36 73.01C580.12 73.01 583.585 75.67 583.585 80.675C583.585 84 581.415 86.765 578.615 89.005L572.945 93.59V94.43H584.285V98H566.82V93.625L575.605 86.695C577.425 85.26 579.49 83.3 579.49 80.71C579.49 78.015 577.775 76.65 575.255 76.65C572.875 76.65 571.125 77.875 570.845 80.57Z" fill="#FAC906"/>
<path d="M1337.85 1312.57H1333.79C1334.07 1307.53 1337.5 1305.01 1342.36 1305.01C1347.12 1305.01 1350.59 1307.67 1350.59 1312.67C1350.59 1316 1348.42 1318.76 1345.62 1321.01L1339.95 1325.59V1326.43H1351.28V1330H1333.82V1325.62L1342.61 1318.69C1344.43 1317.26 1346.49 1315.3 1346.49 1312.71C1346.49 1310.01 1344.78 1308.65 1342.26 1308.65C1339.88 1308.65 1338.13 1309.87 1337.85 1312.57Z" fill="#EC48BE"/>
<path d="M328.845 37.57H324.785C325.065 32.53 328.495 30.01 333.36 30.01C338.12 30.01 341.585 32.67 341.585 37.675C341.585 41 339.415 43.765 336.615 46.005L330.945 50.59V51.43H342.285V55H324.82V50.625L333.605 43.695C335.425 42.26 337.49 40.3 337.49 37.71C337.49 35.015 335.775 33.65 333.255 33.65C330.875 33.65 329.125 34.875 328.845 37.57Z" fill="#FF0000"/>
<path d="M280.375 55H277.4L279.185 44.815C279.29 44.22 279.395 43.52 279.395 42.855C279.395 40.72 278.275 39.565 275.65 39.565C272.43 39.565 270.085 42.12 269.525 45.515L267.845 55H264.87L267.985 37.36H270.89L270.54 39.215H271.31C272.395 37.92 274.145 36.905 276.7 36.905C280.375 36.905 282.405 39.005 282.405 42.33C282.405 42.995 282.3 43.87 282.195 44.57L280.375 55Z" fill="#855A43"/>
<path d="M53.72 634.73H58.505L51.63 674H44.095L31.775 641.165H30.565L24.79 674H20.005L26.88 634.73H34.415L46.735 667.565H47.945L53.72 634.73Z" fill="#274867"/>
<path d="M1029.23 1370.89L1012.56 1404H1007.5L1024.22 1370.89V1369.68H1004.7V1365.5H1029.23V1370.89ZM1047.84 1364.73C1055.98 1364.73 1062.03 1370.89 1062.03 1384.75C1062.03 1398.61 1055.98 1404.72 1047.84 1404.72C1039.7 1404.72 1033.71 1398.61 1033.71 1384.75C1033.71 1370.89 1039.7 1364.73 1047.84 1364.73ZM1047.84 1400.42C1054.28 1400.42 1057.19 1394.26 1057.19 1384.75C1057.19 1375.18 1054.28 1369.02 1047.84 1369.02C1041.46 1369.02 1038.55 1375.18 1038.55 1384.75C1038.55 1394.26 1041.46 1400.42 1047.84 1400.42Z" fill="#274867"/>
<path d="M1143.7 1383.1V1384.31C1146.23 1385.19 1149.69 1388.38 1149.69 1393.49C1149.69 1399.87 1144.25 1404.72 1135.78 1404.72C1127.31 1404.72 1121.86 1399.87 1121.86 1393.49C1121.86 1388.43 1125.27 1385.19 1127.86 1384.31V1383.1C1125.82 1382.22 1123.02 1379.41 1123.02 1375.01C1123.02 1368.91 1128.3 1364.73 1135.78 1364.73C1143.26 1364.73 1148.54 1368.91 1148.54 1375.01C1148.54 1379.3 1145.68 1382.22 1143.7 1383.1ZM1135.78 1368.91C1131.38 1368.91 1127.75 1371.11 1127.75 1375.23C1127.75 1379.36 1131.38 1381.61 1135.78 1381.61C1140.18 1381.61 1143.81 1379.36 1143.81 1375.23C1143.81 1371.11 1140.18 1368.91 1135.78 1368.91ZM1135.78 1400.42C1141.44 1400.42 1144.91 1397.51 1144.91 1393.05C1144.91 1388.49 1141.44 1385.79 1135.78 1385.79C1130.11 1385.79 1126.65 1388.49 1126.65 1393.05C1126.65 1397.51 1130.11 1400.42 1135.78 1400.42ZM1169.78 1364.73C1177.92 1364.73 1183.97 1370.89 1183.97 1384.75C1183.97 1398.61 1177.92 1404.72 1169.78 1404.72C1161.64 1404.72 1155.65 1398.61 1155.65 1384.75C1155.65 1370.89 1161.64 1364.73 1169.78 1364.73ZM1169.78 1400.42C1176.22 1400.42 1179.13 1394.26 1179.13 1384.75C1179.13 1375.18 1176.22 1369.02 1169.78 1369.02C1163.4 1369.02 1160.49 1375.18 1160.49 1384.75C1160.49 1394.26 1163.4 1400.42 1169.78 1400.42Z" fill="#274867"/>
<path d="M1260.69 1390.52C1253.65 1390.52 1248.37 1385.3 1248.37 1377.98C1248.37 1370.67 1253.26 1364.73 1261.46 1364.73C1269.65 1364.73 1275.59 1369.79 1275.59 1383.65C1275.59 1395.36 1271.03 1404.72 1260.96 1404.72C1254.42 1404.72 1250.29 1400.81 1249.41 1395.53H1254.2C1255.13 1398.77 1257.22 1400.42 1260.96 1400.42C1267.12 1400.42 1270.64 1395.2 1270.92 1386.78H1269.71C1268.39 1388.38 1265.31 1390.52 1260.69 1390.52ZM1261.51 1369.02C1256.84 1369.02 1253.21 1372.04 1253.21 1377.76C1253.21 1383.48 1256.95 1386.29 1261.62 1386.29C1266.24 1386.29 1269.98 1383.32 1269.98 1377.82C1269.98 1372.21 1266.19 1369.02 1261.51 1369.02ZM1295.76 1364.73C1303.9 1364.73 1309.95 1370.89 1309.95 1384.75C1309.95 1398.61 1303.9 1404.72 1295.76 1404.72C1287.62 1404.72 1281.63 1398.61 1281.63 1384.75C1281.63 1370.89 1287.62 1364.73 1295.76 1364.73ZM1295.76 1400.42C1302.2 1400.42 1305.11 1394.26 1305.11 1384.75C1305.11 1375.18 1302.2 1369.02 1295.76 1369.02C1289.38 1369.02 1286.47 1375.18 1286.47 1384.75C1286.47 1394.26 1289.38 1400.42 1295.76 1400.42Z" fill="#274867"/>
<path d="M1356.25 1404V1399.71H1365.38V1370.56H1364.28L1356.19 1376V1370.94L1364.22 1365.5H1370.22V1399.71H1378.63V1404H1356.25ZM1397.87 1364.73C1406.01 1364.73 1412.06 1370.89 1412.06 1384.75C1412.06 1398.61 1406.01 1404.72 1397.87 1404.72C1389.73 1404.72 1383.74 1398.61 1383.74 1384.75C1383.74 1370.89 1389.73 1364.73 1397.87 1364.73ZM1397.87 1400.42C1404.31 1400.42 1407.22 1394.26 1407.22 1384.75C1407.22 1375.18 1404.31 1369.02 1397.87 1369.02C1391.49 1369.02 1388.58 1375.18 1388.58 1384.75C1388.58 1394.26 1391.49 1400.42 1397.87 1400.42ZM1432.25 1364.73C1440.39 1364.73 1446.44 1370.89 1446.44 1384.75C1446.44 1398.61 1440.39 1404.72 1432.25 1404.72C1424.11 1404.72 1418.11 1398.61 1418.11 1384.75C1418.11 1370.89 1424.11 1364.73 1432.25 1364.73ZM1432.25 1400.42C1438.68 1400.42 1441.6 1394.26 1441.6 1384.75C1441.6 1375.18 1438.68 1369.02 1432.25 1369.02C1425.87 1369.02 1422.95 1375.18 1422.95 1384.75C1422.95 1394.26 1425.87 1400.42 1432.25 1400.42Z" fill="#274867"/>
<path d="M69.345 951.5H91.84V956.89L82.215 965.14V966.295C88.815 966.46 93.655 970.585 93.655 978.01C93.655 985.985 87.935 990.715 80.07 990.715C72.26 990.715 67.035 985.765 66.595 979.22H71.435C71.875 983.62 75.45 986.425 80.07 986.425C85.35 986.425 88.815 983.29 88.815 978.01C88.815 972.95 85.79 969.815 80.125 969.815C78.75 969.815 77.65 969.925 76.77 970.145V965.03L86.175 956.89V955.68H69.345V951.5ZM113.473 950.73C121.613 950.73 127.663 956.89 127.663 970.75C127.663 984.61 121.613 990.715 113.473 990.715C105.333 990.715 99.3385 984.61 99.3385 970.75C99.3385 956.89 105.333 950.73 113.473 950.73ZM113.473 986.425C119.908 986.425 122.823 980.265 122.823 970.75C122.823 961.18 119.908 955.02 113.473 955.02C107.093 955.02 104.178 961.18 104.178 970.75C104.178 980.265 107.093 986.425 113.473 986.425Z" fill="#274867"/>
<path d="M501.345 1365.5H523.84V1370.89L514.215 1379.14V1380.29C520.815 1380.46 525.655 1384.58 525.655 1392.01C525.655 1399.98 519.935 1404.72 512.07 1404.72C504.26 1404.72 499.035 1399.76 498.595 1393.22H503.435C503.875 1397.62 507.45 1400.42 512.07 1400.42C517.35 1400.42 520.815 1397.29 520.815 1392.01C520.815 1386.95 517.79 1383.81 512.125 1383.81C510.75 1383.81 509.65 1383.92 508.77 1384.14V1379.03L518.175 1370.89V1369.68H501.345V1365.5ZM545.473 1364.73C553.613 1364.73 559.663 1370.89 559.663 1384.75C559.663 1398.61 553.613 1404.72 545.473 1404.72C537.333 1404.72 531.338 1398.61 531.338 1384.75C531.338 1370.89 537.333 1364.73 545.473 1364.73ZM545.473 1400.42C551.908 1400.42 554.823 1394.26 554.823 1384.75C554.823 1375.18 551.908 1369.02 545.473 1369.02C539.093 1369.02 536.178 1375.18 536.178 1384.75C536.178 1394.26 539.093 1400.42 545.473 1400.42Z" fill="#274867"/>
<path d="M72.755 1087.11H67.915C68.355 1079.41 73.91 1075.73 80.73 1075.73C87.935 1075.73 93.215 1079.74 93.215 1087.44C93.215 1092.67 89.255 1097.56 84.69 1101.36L75.01 1109.5V1110.71H94.425V1115H67.97V1109.55L73.635 1104.93C76.715 1102.46 80.345 1099.38 82.38 1097.51C85.02 1095.14 88.375 1092.01 88.375 1087.44C88.375 1082.6 85.295 1080.02 80.62 1080.02C76.275 1080.02 73.25 1082.27 72.755 1087.11ZM114.172 1075.73C122.312 1075.73 128.362 1081.89 128.362 1095.75C128.362 1109.61 122.312 1115.72 114.172 1115.72C106.032 1115.72 100.037 1109.61 100.037 1095.75C100.037 1081.89 106.032 1075.73 114.172 1075.73ZM114.172 1111.42C120.607 1111.42 123.522 1105.26 123.522 1095.75C123.522 1086.18 120.607 1080.02 114.172 1080.02C107.792 1080.02 104.877 1086.18 104.877 1095.75C104.877 1105.26 107.792 1111.42 114.172 1111.42Z" fill="#274867"/>
<path d="M379.755 1376.11H374.915C375.355 1368.41 380.91 1364.73 387.73 1364.73C394.935 1364.73 400.215 1368.74 400.215 1376.44C400.215 1381.67 396.255 1386.56 391.69 1390.36L382.01 1398.5V1399.71H401.425V1404H374.97V1398.55L380.635 1393.93C383.715 1391.46 387.345 1388.38 389.38 1386.51C392.02 1384.14 395.375 1381.01 395.375 1376.44C395.375 1371.6 392.295 1369.02 387.62 1369.02C383.275 1369.02 380.25 1371.27 379.755 1376.11ZM421.172 1364.73C429.312 1364.73 435.362 1370.89 435.362 1384.75C435.362 1398.61 429.312 1404.72 421.172 1404.72C413.032 1404.72 407.037 1398.61 407.037 1384.75C407.037 1370.89 413.032 1364.73 421.172 1364.73ZM421.172 1400.42C427.607 1400.42 430.522 1394.26 430.522 1384.75C430.522 1375.18 427.607 1369.02 421.172 1369.02C414.792 1369.02 411.877 1375.18 411.877 1384.75C411.877 1394.26 414.792 1400.42 421.172 1400.42Z" fill="#274867"/>
<path d="M70.245 1241V1236.71H79.375V1207.56H78.275L70.19 1213V1207.94L78.22 1202.5H84.215V1236.71H92.63V1241H70.245ZM111.875 1201.73C120.015 1201.73 126.065 1207.89 126.065 1221.75C126.065 1235.61 120.015 1241.72 111.875 1241.72C103.735 1241.72 97.7398 1235.61 97.7398 1221.75C97.7398 1207.89 103.735 1201.73 111.875 1201.73ZM111.875 1237.42C118.31 1237.42 121.225 1231.26 121.225 1221.75C121.225 1212.18 118.31 1206.02 111.875 1206.02C105.495 1206.02 102.58 1212.18 102.58 1221.75C102.58 1231.26 105.495 1237.42 111.875 1237.42Z" fill="#274867"/>
<path d="M254.245 1407V1402.71H263.375V1373.56H262.275L254.19 1379V1373.94L262.22 1368.5H268.215V1402.71H276.63V1407H254.245ZM295.875 1367.73C304.015 1367.73 310.065 1373.89 310.065 1387.75C310.065 1401.61 304.015 1407.72 295.875 1407.72C287.735 1407.72 281.74 1401.61 281.74 1387.75C281.74 1373.89 287.735 1367.73 295.875 1367.73ZM295.875 1403.42C302.31 1403.42 305.225 1397.26 305.225 1387.75C305.225 1378.18 302.31 1372.02 295.875 1372.02C289.495 1372.02 286.58 1378.18 286.58 1387.75C286.58 1397.26 289.495 1403.42 295.875 1403.42Z" fill="#274867"/>
<path d="M99.16 1326.73C107.3 1326.73 113.35 1332.89 113.35 1346.75C113.35 1360.61 107.3 1366.72 99.16 1366.72C91.02 1366.72 85.025 1360.61 85.025 1346.75C85.025 1332.89 91.02 1326.73 99.16 1326.73ZM99.16 1362.42C105.595 1362.42 108.51 1356.26 108.51 1346.75C108.51 1337.18 105.595 1331.02 99.16 1331.02C92.78 1331.02 89.865 1337.18 89.865 1346.75C89.865 1356.26 92.78 1362.42 99.16 1362.42Z" fill="#274867"/>
<path d="M155.16 1364.73C163.3 1364.73 169.35 1370.89 169.35 1384.75C169.35 1398.61 163.3 1404.72 155.16 1404.72C147.02 1404.72 141.025 1398.61 141.025 1384.75C141.025 1370.89 147.02 1364.73 155.16 1364.73ZM155.16 1400.42C161.595 1400.42 164.51 1394.26 164.51 1384.75C164.51 1375.18 161.595 1369.02 155.16 1369.02C148.78 1369.02 145.865 1375.18 145.865 1384.75C145.865 1394.26 148.78 1400.42 155.16 1400.42Z" fill="#274867"/>
</g>
<defs>
<clipPath id="clip0_250_1285">
<rect width="1474" height="1487" fill="white"/>
</clipPath>
</defs>
</svg>
