<svg width="1474" height="673" viewBox="0 0 1474 673" fill="none" xmlns="http://www.w3.org/2000/svg">
<g clip-path="url(#clip0_206_2987)">
<rect width="1474" height="673" fill="white"/>
<path d="M444.96 8.87V12.47H434.43V41H430.38V12.47L419.76 12.47V8.87L444.96 8.87ZM451.7 50H447.83L452.51 38.885L442.835 18.32L446.93 18.32L453.86 33.26H454.985L461.285 18.32H465.29L451.7 50ZM480.684 21.065C475.644 21.065 473.574 25.205 473.574 29.66C473.574 34.115 475.644 38.255 480.684 38.255C485.229 38.255 487.659 34.7 487.659 29.66C487.659 24.62 485.229 21.065 480.684 21.065ZM469.794 18.32H473.484V20.75H474.474C475.734 19.175 477.939 17.735 481.539 17.735C487.794 17.735 491.484 22.955 491.484 29.66C491.484 36.5 487.794 41.585 481.539 41.585C477.939 41.585 475.824 40.19 474.609 38.57H473.619V50H469.794V18.32ZM517.144 28.31V29.615H499.864C499.999 35.015 502.429 38.255 507.109 38.255C510.304 38.255 512.194 36.905 512.869 34.745H516.739C516.019 38.615 512.734 41.585 507.109 41.585C500.044 41.585 496.084 36.41 496.084 29.435C496.084 22.46 500.134 17.735 507.019 17.735C513.769 17.735 517.009 22.73 517.144 28.31ZM506.929 21.065C502.834 21.065 500.584 23.54 500.089 26.42H513.184C512.959 23.54 510.754 21.065 506.929 21.065ZM529.399 26.87L531.559 27.23L534.124 27.635C538.084 28.31 540.604 30.335 540.604 34.475C540.604 38.21 537.409 41.585 531.289 41.585C524.854 41.585 521.704 38.75 521.209 34.43H525.079C525.439 36.995 527.689 38.255 531.109 38.255C534.529 38.255 536.779 37.04 536.779 34.565C536.779 32.585 535.519 31.505 532.639 31.01L527.554 30.155C524.314 29.57 522.109 27.86 522.109 24.44C522.109 20.66 524.944 17.735 531.064 17.735C536.419 17.735 539.524 20.255 540.019 24.215H536.194C535.879 22.055 533.719 21.065 530.884 21.065C527.959 21.065 525.979 22.145 525.979 24.08C525.979 25.835 527.104 26.51 529.399 26.87ZM568.504 17.735C575.569 17.735 579.664 22.955 579.664 29.66C579.664 36.365 575.569 41.585 568.504 41.585C561.394 41.585 557.344 36.365 557.344 29.66C557.344 22.955 561.394 17.735 568.504 17.735ZM568.504 38.255C573.499 38.255 575.839 34.115 575.839 29.66C575.839 25.205 573.499 21.065 568.504 21.065C563.464 21.065 561.169 25.205 561.169 29.66C561.169 34.115 563.464 38.255 568.504 38.255ZM597.063 21.65H590.898V41H587.073V21.65H583.158V18.32H587.073V15.71C587.073 10.535 589.953 8.285 594.858 8.285H597.063V11.615H594.903C591.888 11.615 590.898 13.505 590.898 15.845V18.32H597.063V21.65ZM636.82 31.865H641.095C639.79 37.58 635.425 41.585 628.36 41.585C618.775 41.585 613.51 34.475 613.51 24.935C613.51 15.395 618.865 8.285 628.405 8.285C634.93 8.285 639.43 11.75 640.735 17.285H636.46C635.245 13.865 632.86 11.975 628.405 11.975C620.935 11.975 617.605 18.14 617.605 24.935C617.605 31.775 620.89 37.895 628.36 37.895C632.86 37.895 635.785 35.6 636.82 31.865ZM656.79 17.735C663.855 17.735 667.95 22.955 667.95 29.66C667.95 36.365 663.855 41.585 656.79 41.585C649.68 41.585 645.63 36.365 645.63 29.66C645.63 22.955 649.68 17.735 656.79 17.735ZM656.79 38.255C661.785 38.255 664.125 34.115 664.125 29.66C664.125 25.205 661.785 21.065 656.79 21.065C651.75 21.065 649.455 25.205 649.455 29.66C649.455 34.115 651.75 38.255 656.79 38.255ZM694.079 41H690.254V27.41C690.254 23.225 688.319 21.155 684.494 21.155C680.444 21.155 677.744 24.71 677.744 28.715V41H673.919V18.32H677.609V20.75H678.599C679.859 18.995 682.379 17.735 685.439 17.735C691.019 17.735 694.079 21.155 694.079 26.6V41ZM706.343 18.32L712.058 18.32V21.65L706.343 21.65V34.115C706.343 36.41 707.333 37.58 710.393 37.58H712.058V41H710.303C705.398 41 702.518 39.47 702.518 34.655V21.65L698.603 21.65V18.32L702.518 18.32V11.48H706.343V18.32ZM732.793 41V38.615H731.803C730.408 40.37 727.978 41.585 724.738 41.585C719.518 41.585 716.593 38.075 716.593 34.205C716.593 30.56 718.978 26.69 725.278 26.69H732.658V25.79C732.658 23.045 731.083 21.065 727.123 21.065C723.748 21.065 722.038 22.37 721.858 24.35H718.033C718.348 20.165 721.948 17.735 727.033 17.735C732.748 17.735 736.393 20.48 736.393 25.565V41H732.793ZM725.683 38.255C729.463 38.255 732.658 35.42 732.658 31.82V29.75H725.863C722.128 29.75 720.418 31.37 720.418 34.07C720.418 36.635 722.308 38.255 725.683 38.255ZM747.447 12.425H743.397V8.285L747.447 8.285V12.425ZM747.312 18.32V41H743.487V18.32L747.312 18.32ZM774.983 41H771.158V27.41C771.158 23.225 769.223 21.155 765.398 21.155C761.348 21.155 758.648 24.71 758.648 28.715V41H754.823V18.32L758.513 18.32V20.75H759.503C760.763 18.995 763.283 17.735 766.343 17.735C771.923 17.735 774.983 21.155 774.983 26.6V41ZM801.646 28.31V29.615H784.366C784.501 35.015 786.931 38.255 791.611 38.255C794.806 38.255 796.696 36.905 797.371 34.745H801.241C800.521 38.615 797.236 41.585 791.611 41.585C784.546 41.585 780.586 36.41 780.586 29.435C780.586 22.46 784.636 17.735 791.521 17.735C798.271 17.735 801.511 22.73 801.646 28.31ZM791.431 21.065C787.336 21.065 785.086 23.54 784.591 26.42H797.686C797.461 23.54 795.256 21.065 791.431 21.065ZM820.561 18.32V21.92H818.671C814.171 21.92 811.426 24.665 811.426 29.66V41H807.601V18.32H811.291V21.02H812.281C813.406 19.625 815.566 18.32 818.851 18.32H820.561ZM831.875 26.87L834.035 27.23L836.6 27.635C840.56 28.31 843.08 30.335 843.08 34.475C843.08 38.21 839.885 41.585 833.765 41.585C827.33 41.585 824.18 38.75 823.685 34.43L827.555 34.43C827.915 36.995 830.165 38.255 833.585 38.255C837.005 38.255 839.255 37.04 839.255 34.565C839.255 32.585 837.995 31.505 835.115 31.01L830.03 30.155C826.79 29.57 824.585 27.86 824.585 24.44C824.585 20.66 827.42 17.735 833.54 17.735C838.895 17.735 842 20.255 842.495 24.215H838.67C838.355 22.055 836.195 21.065 833.36 21.065C830.435 21.065 828.455 22.145 828.455 24.08C828.455 25.835 829.58 26.51 831.875 26.87Z" fill="#274867"/>
<path d="M22.0188 240.785C23.4138 241.01 26.4288 241.64 28.0938 242C32.9088 243.08 36.1488 245.555 36.1488 251.045C36.1488 256.085 32.1438 260.585 23.9988 260.585C16.4838 260.585 11.5788 256.625 11.0838 251.045H15.1788C15.8988 255.41 19.7688 256.895 24.1788 256.895C28.6338 256.895 32.0538 254.825 32.0538 251.135C32.0538 247.67 29.7588 246.365 26.6088 245.645C24.9888 245.285 21.8388 244.7 20.2638 244.34C15.5838 243.395 12.4788 240.875 12.4788 236.195C12.4788 231.2 16.5288 227.285 23.7738 227.285C30.4338 227.285 34.7088 230.795 35.4288 235.97H31.3338C30.5688 232.73 28.3638 230.975 23.6838 230.975C19.8138 230.975 16.5738 232.73 16.5738 236.105C16.5738 239.21 19.3188 240.2 22.0188 240.785ZM62.1616 247.31V248.615H44.8816C45.0166 254.015 47.4466 257.255 52.1266 257.255C55.3216 257.255 57.2116 255.905 57.8866 253.745H61.7566C61.0366 257.615 57.7516 260.585 52.1266 260.585C45.0616 260.585 41.1016 255.41 41.1016 248.435C41.1016 241.46 45.1516 236.735 52.0366 236.735C58.7866 236.735 62.0266 241.73 62.1616 247.31ZM51.9466 240.065C47.8516 240.065 45.6016 242.54 45.1066 245.42H58.2016C57.9766 242.54 55.7716 240.065 51.9466 240.065ZM77.5218 240.065C72.9768 240.065 70.5468 243.62 70.5468 248.66C70.5468 253.7 72.9768 257.255 77.5218 257.255C82.5618 257.255 84.6318 253.115 84.6318 248.66C84.6318 244.205 82.5618 240.065 77.5218 240.065ZM84.7218 237.32H88.4118V269H84.5868V257.57H83.5968C82.3368 259.19 80.2668 260.585 76.6668 260.585C70.4118 260.585 66.7218 255.5 66.7218 248.66C66.7218 241.955 70.4118 236.735 76.6668 236.735C80.2668 236.735 82.4718 238.175 83.7318 239.75H84.7218V237.32ZM95.4423 237.32H99.2673V250.91C99.2673 255.095 101.202 257.165 105.027 257.165C109.032 257.165 111.777 253.7 111.777 249.605V237.32H115.602V260H111.912V257.57H110.922C109.662 259.325 107.142 260.585 104.082 260.585C98.5023 260.585 95.4423 257.165 95.4423 251.72V237.32ZM142.626 247.31V248.615H125.346C125.481 254.015 127.911 257.255 132.591 257.255C135.786 257.255 137.676 255.905 138.351 253.745H142.221C141.501 257.615 138.216 260.585 132.591 260.585C125.526 260.585 121.566 255.41 121.566 248.435C121.566 241.46 125.616 236.735 132.501 236.735C139.251 236.735 142.491 241.73 142.626 247.31ZM132.411 240.065C128.316 240.065 126.066 242.54 125.571 245.42H138.666C138.441 242.54 136.236 240.065 132.411 240.065ZM168.741 260H164.916V246.41C164.916 242.225 162.981 240.155 159.156 240.155C155.106 240.155 152.406 243.71 152.406 247.715V260H148.581V237.32H152.271V239.75H153.261C154.521 237.995 157.041 236.735 160.101 236.735C165.681 236.735 168.741 240.155 168.741 245.6V260ZM181.004 237.32H186.719V240.65H181.004V253.115C181.004 255.41 181.994 256.58 185.054 256.58H186.719V260H184.964C180.059 260 177.179 258.47 177.179 253.655V240.65H173.264V237.32H177.179V230.48H181.004V237.32ZM197.059 231.425H193.009V227.285H197.059V231.425ZM196.924 237.32V260H193.099V237.32H196.924ZM218.88 260V257.615H217.89C216.495 259.37 214.065 260.585 210.825 260.585C205.605 260.585 202.68 257.075 202.68 253.205C202.68 249.56 205.065 245.69 211.365 245.69H218.745V244.79C218.745 242.045 217.17 240.065 213.21 240.065C209.835 240.065 208.125 241.37 207.945 243.35H204.12C204.435 239.165 208.035 236.735 213.12 236.735C218.835 236.735 222.48 239.48 222.48 244.565V260H218.88ZM211.77 257.255C215.55 257.255 218.745 254.42 218.745 250.82V248.75H211.95C208.215 248.75 206.505 250.37 206.505 253.07C206.505 255.635 208.395 257.255 211.77 257.255ZM229.484 227.285H233.309V260H229.484V227.285Z" fill="#274867"/>
<path d="M13.3889 442V438.49H23.6939L23.6939 414.64H22.7939L15.5489 419.365V415.225L22.7489 410.5H27.6539L27.6539 438.49H36.2039V442H13.3889ZM47.0436 442H42.3636V436.78H47.0436V442ZM91.285 442L87.955 432.145H73.87L70.54 442H66.4L77.515 409.87H84.355L95.515 442H91.285ZM79.99 414.01L75.085 428.455H86.695L81.79 414.01H79.99ZM113.044 419.32V422.92H111.154C106.654 422.92 103.909 425.665 103.909 430.66V442H100.084V419.32H103.774V422.02H104.764C105.889 420.625 108.049 419.32 111.334 419.32H113.044ZM131.017 419.32V422.92H129.127C124.627 422.92 121.882 425.665 121.882 430.66V442H118.057V419.32H121.747V422.02H122.737C123.862 420.625 126.022 419.32 129.307 419.32H131.017ZM150.476 442V439.615H149.486C148.091 441.37 145.661 442.585 142.421 442.585C137.201 442.585 134.276 439.075 134.276 435.205C134.276 431.56 136.661 427.69 142.961 427.69H150.341V426.79C150.341 424.045 148.766 422.065 144.806 422.065C141.431 422.065 139.721 423.37 139.541 425.35H135.716C136.031 421.165 139.631 418.735 144.716 418.735C150.431 418.735 154.076 421.48 154.076 426.565V442H150.476ZM143.366 439.255C147.146 439.255 150.341 436.42 150.341 432.82V430.75H143.546C139.811 430.75 138.101 432.37 138.101 435.07C138.101 437.635 139.991 439.255 143.366 439.255ZM167.2 451H163.33L168.01 439.885L158.335 419.32H162.43L169.36 434.26H170.485L176.785 419.32H180.79L167.2 451ZM17.8889 474.185H13.9289C14.2889 467.885 18.8339 464.87 24.4139 464.87C30.3089 464.87 34.6289 468.155 34.6289 474.455C34.6289 478.73 31.3889 482.735 27.6539 485.84L19.7339 492.5V493.49H35.6189V497H13.9739V492.545L18.6089 488.765C21.1289 486.74 24.0989 484.22 25.7639 482.69C27.9239 480.755 30.6689 478.19 30.6689 474.455C30.6689 470.495 28.1489 468.38 24.3239 468.38C20.7689 468.38 18.2939 470.225 17.8889 474.185ZM47.0436 497H42.3636V491.78H47.0436V497ZM76.66 497L66.4 464.87H70.675L79.45 492.86H81.7L90.475 464.87H94.66L84.4 497H76.66ZM116.936 484.31V485.615H99.6561C99.7911 491.015 102.221 494.255 106.901 494.255C110.096 494.255 111.986 492.905 112.661 490.745H116.531C115.811 494.615 112.526 497.585 106.901 497.585C99.8361 497.585 95.8761 492.41 95.8761 485.435C95.8761 478.46 99.9261 473.735 106.811 473.735C113.561 473.735 116.801 478.73 116.936 484.31ZM106.721 477.065C102.626 477.065 100.376 479.54 99.8811 482.42H112.976C112.751 479.54 110.546 477.065 106.721 477.065ZM138.236 490.16H142.061C141.206 494.615 137.786 497.585 132.521 497.585C125.456 497.585 121.496 492.365 121.496 485.66C121.496 478.82 125.456 473.735 132.521 473.735C137.921 473.735 141.161 476.705 141.926 480.89H138.101C137.381 478.595 135.626 477.065 132.521 477.065C127.391 477.065 125.321 481.07 125.321 485.57C125.321 490.115 127.436 494.255 132.521 494.255C135.761 494.255 137.651 492.68 138.236 490.16ZM153.029 474.32H158.744V477.65H153.029L153.029 490.115C153.029 492.41 154.019 493.58 157.079 493.58H158.744V497H156.989C152.084 497 149.204 495.47 149.204 490.655L149.204 477.65H145.289V474.32H149.204V467.48H153.029V474.32ZM174.448 473.735C181.513 473.735 185.608 478.955 185.608 485.66C185.608 492.365 181.513 497.585 174.448 497.585C167.338 497.585 163.288 492.365 163.288 485.66C163.288 478.955 167.338 473.735 174.448 473.735ZM174.448 494.255C179.443 494.255 181.783 490.115 181.783 485.66C181.783 481.205 179.443 477.065 174.448 477.065C169.408 477.065 167.113 481.205 167.113 485.66C167.113 490.115 169.408 494.255 174.448 494.255ZM204.538 474.32V477.92H202.648C198.148 477.92 195.403 480.665 195.403 485.66L195.403 497H191.578L191.578 474.32H195.268V477.02H196.258C197.383 475.625 199.543 474.32 202.828 474.32H204.538ZM15.3689 520.5H33.7739V524.91L25.8989 531.66V532.605C31.2989 532.74 35.2589 536.115 35.2589 542.19C35.2589 548.715 30.5789 552.585 24.1439 552.585C17.7539 552.585 13.4789 548.535 13.1189 543.18H17.0789C17.4389 546.78 20.3639 549.075 24.1439 549.075C28.4639 549.075 31.2989 546.51 31.2989 542.19C31.2989 538.05 28.8239 535.485 24.1889 535.485C23.0639 535.485 22.1639 535.575 21.4439 535.755V531.57L29.1389 524.91V523.92H15.3689V520.5ZM47.0436 552H42.3636V546.78H47.0436V552ZM69.595 519.87H81.61C91.465 519.87 96.46 526.26 96.46 535.935C96.46 545.565 91.465 552 81.61 552H69.595L69.595 519.87ZM73.645 548.31H81.61C89.395 548.31 92.365 542.64 92.365 535.935C92.365 529.23 89.395 523.56 81.61 523.56H73.645L73.645 548.31ZM122.297 539.31V540.615H105.017C105.152 546.015 107.582 549.255 112.262 549.255C115.457 549.255 117.347 547.905 118.022 545.745H121.892C121.172 549.615 117.887 552.585 112.262 552.585C105.197 552.585 101.237 547.41 101.237 540.435C101.237 533.46 105.287 528.735 112.172 528.735C118.922 528.735 122.162 533.73 122.297 539.31ZM112.082 532.065C107.987 532.065 105.737 534.54 105.242 537.42H118.337C118.112 534.54 115.907 532.065 112.082 532.065ZM137.658 532.065C133.113 532.065 130.683 535.62 130.683 540.66C130.683 545.7 133.113 549.255 137.658 549.255C142.698 549.255 144.768 545.115 144.768 540.66C144.768 536.205 142.698 532.065 137.658 532.065ZM144.858 529.32H148.548V561H144.723V549.57H143.733C142.473 551.19 140.403 552.585 136.803 552.585C130.548 552.585 126.858 547.5 126.858 540.66C126.858 533.955 130.548 528.735 136.803 528.735C140.403 528.735 142.608 530.175 143.868 531.75H144.858V529.32ZM155.578 529.32H159.403V542.91C159.403 547.095 161.338 549.165 165.163 549.165C169.168 549.165 171.913 545.7 171.913 541.605V529.32H175.738V552H172.048V549.57H171.058C169.798 551.325 167.278 552.585 164.218 552.585C158.638 552.585 155.578 549.165 155.578 543.72V529.32ZM202.761 539.31V540.615H185.481C185.616 546.015 188.046 549.255 192.726 549.255C195.921 549.255 197.811 547.905 198.486 545.745H202.356C201.636 549.615 198.351 552.585 192.726 552.585C185.661 552.585 181.701 547.41 181.701 540.435C181.701 533.46 185.751 528.735 192.636 528.735C199.386 528.735 202.626 533.73 202.761 539.31ZM192.546 532.065C188.451 532.065 186.201 534.54 185.706 537.42H198.801C198.576 534.54 196.371 532.065 192.546 532.065ZM32.3339 596.11H36.6539L36.6539 599.62H32.3339V607H28.4639V599.62H12.8939V595.12L26.7989 575.5H32.3339V596.11ZM17.0339 596.11H28.5089L28.5089 579.955H27.5189L17.0339 595.12V596.11ZM47.0436 607H42.3636V601.78H47.0436V607ZM73.645 603.175H91.69V607H69.595V574.87H73.645V603.175ZM101.277 578.425H97.2271V574.285H101.277V578.425ZM101.142 584.32V607H97.3171V584.32H101.142ZM114.953 592.87L117.113 593.23L119.678 593.635C123.638 594.31 126.158 596.335 126.158 600.475C126.158 604.21 122.963 607.585 116.843 607.585C110.408 607.585 107.258 604.75 106.763 600.43H110.633C110.993 602.995 113.243 604.255 116.663 604.255C120.083 604.255 122.333 603.04 122.333 600.565C122.333 598.585 121.073 597.505 118.193 597.01L113.108 596.155C109.868 595.57 107.663 593.86 107.663 590.44C107.663 586.66 110.498 583.735 116.618 583.735C121.973 583.735 125.078 586.255 125.573 590.215H121.748C121.433 588.055 119.273 587.065 116.438 587.065C113.513 587.065 111.533 588.145 111.533 590.08C111.533 591.835 112.658 592.51 114.953 592.87ZM137.033 584.32H142.748V587.65H137.033V600.115C137.033 602.41 138.023 603.58 141.083 603.58H142.748V607H140.993C136.088 607 133.208 605.47 133.208 600.655V587.65H129.293V584.32H133.208V577.48H137.033V584.32ZM25.6289 640.805C31.9289 640.805 35.7539 645.485 35.7539 651.335C35.7539 658.175 31.3439 662.585 24.9539 662.585C18.0239 662.585 14.3339 658.49 13.9739 653.18H17.8889C18.3839 657.095 20.9489 659.075 24.7739 659.075C28.9589 659.075 31.7939 656.195 31.7939 651.515C31.7939 647.195 29.1389 644.135 24.9089 644.135C22.0739 644.135 20.0039 645.125 18.6539 647.105H14.6939L16.0889 630.5H34.0889V633.92H19.2839L18.5639 643.01H19.5539C20.9939 641.705 22.7039 640.805 25.6289 640.805ZM47.0436 662H42.3636V656.78H47.0436V662ZM92.05 633.56H73.645V644H88.54V647.69H73.645V662H69.595V629.87H92.05V633.56ZM105.41 638.735C112.475 638.735 116.57 643.955 116.57 650.66C116.57 657.365 112.475 662.585 105.41 662.585C98.3001 662.585 94.2501 657.365 94.2501 650.66C94.2501 643.955 98.3001 638.735 105.41 638.735ZM105.41 659.255C110.405 659.255 112.745 655.115 112.745 650.66C112.745 646.205 110.405 642.065 105.41 642.065C100.37 642.065 98.0751 646.205 98.0751 650.66C98.0751 655.115 100.37 659.255 105.41 659.255ZM135.5 639.32V642.92H133.61C129.11 642.92 126.365 645.665 126.365 650.66V662H122.54V639.32H126.23V642.02H127.22C128.345 640.625 130.505 639.32 133.79 639.32H135.5ZM151.064 646.745H155.924L159.704 657.95H160.694L163.304 639.32H166.994L163.709 662H157.859L153.899 650.525H152.954L148.994 662H143.054L139.814 639.32H143.504L146.204 657.95H147.194L151.064 646.745ZM187.082 662V659.615H186.092C184.697 661.37 182.267 662.585 179.027 662.585C173.807 662.585 170.882 659.075 170.882 655.205C170.882 651.56 173.267 647.69 179.567 647.69H186.947V646.79C186.947 644.045 185.372 642.065 181.412 642.065C178.037 642.065 176.327 643.37 176.147 645.35H172.322C172.637 641.165 176.237 638.735 181.322 638.735C187.037 638.735 190.682 641.48 190.682 646.565V662H187.082ZM179.972 659.255C183.752 659.255 186.947 656.42 186.947 652.82V650.75H180.152C176.417 650.75 174.707 652.37 174.707 655.07C174.707 657.635 176.597 659.255 179.972 659.255ZM210.646 639.32V642.92H208.756C204.256 642.92 201.511 645.665 201.511 650.66V662H197.686V639.32H201.376V642.02H202.366C203.491 640.625 205.651 639.32 208.936 639.32H210.646ZM232.13 629.285H235.955V662H232.265V659.57H231.275C230.015 661.145 227.81 662.585 224.21 662.585C217.955 662.585 214.265 657.365 214.265 650.66C214.265 643.82 217.955 638.735 224.21 638.735C227.81 638.735 229.88 640.13 231.14 641.75H232.13V629.285ZM225.065 659.255C230.105 659.255 232.175 655.115 232.175 650.66C232.175 646.205 230.105 642.065 225.065 642.065C220.52 642.065 218.09 645.62 218.09 650.66C218.09 655.7 220.52 659.255 225.065 659.255ZM255.87 629.285H259.695V662H255.87V629.285ZM271.126 633.425H267.076V629.285H271.126V633.425ZM270.991 639.32V662H267.166V639.32H270.991ZM284.802 647.87L286.962 648.23L289.527 648.635C293.487 649.31 296.007 651.335 296.007 655.475C296.007 659.21 292.812 662.585 286.692 662.585C280.257 662.585 277.107 659.75 276.612 655.43H280.482C280.842 657.995 283.092 659.255 286.512 659.255C289.932 659.255 292.182 658.04 292.182 655.565C292.182 653.585 290.922 652.505 288.042 652.01L282.957 651.155C279.717 650.57 277.512 648.86 277.512 645.44C277.512 641.66 280.347 638.735 286.467 638.735C291.822 638.735 294.927 641.255 295.422 645.215H291.597C291.282 643.055 289.122 642.065 286.287 642.065C283.362 642.065 281.382 643.145 281.382 645.08C281.382 646.835 282.507 647.51 284.802 647.87ZM306.882 639.32H312.597V642.65H306.882V655.115C306.882 657.41 307.872 658.58 310.932 658.58H312.597V662H310.842C305.937 662 303.057 660.47 303.057 655.655V642.65H299.142V639.32H303.057V632.48H306.882V639.32Z" fill="#274867"/>
<path d="M515.389 442V438.49H525.694V414.64H524.794L517.549 419.365V415.225L524.749 410.5H529.654V438.49H538.204V442H515.389ZM549.044 442H544.364V436.78H549.044V442ZM580.595 422.785C581.99 423.01 585.005 423.64 586.67 424C591.485 425.08 594.725 427.555 594.725 433.045C594.725 438.085 590.72 442.585 582.575 442.585C575.06 442.585 570.155 438.625 569.66 433.045H573.755C574.475 437.41 578.345 438.895 582.755 438.895C587.21 438.895 590.63 436.825 590.63 433.135C590.63 429.67 588.335 428.365 585.185 427.645C583.565 427.285 580.415 426.7 578.84 426.34C574.16 425.395 571.055 422.875 571.055 418.195C571.055 413.2 575.105 409.285 582.35 409.285C589.01 409.285 593.285 412.795 594.005 417.97H589.91C589.145 414.73 586.94 412.975 582.26 412.975C578.39 412.975 575.15 414.73 575.15 418.105C575.15 421.21 577.895 422.2 580.595 422.785ZM620.738 429.31V430.615H603.458C603.593 436.015 606.023 439.255 610.703 439.255C613.898 439.255 615.788 437.905 616.463 435.745H620.333C619.613 439.615 616.328 442.585 610.703 442.585C603.638 442.585 599.678 437.41 599.678 430.435C599.678 423.46 603.728 418.735 610.613 418.735C617.363 418.735 620.603 423.73 620.738 429.31ZM610.523 422.065C606.428 422.065 604.178 424.54 603.683 427.42H616.778C616.553 424.54 614.348 422.065 610.523 422.065ZM631.958 419.32H637.673V422.65H631.958V435.115C631.958 437.41 632.948 438.58 636.008 438.58H637.673V442H635.918C631.013 442 628.133 440.47 628.133 435.655V422.65H624.218V419.32H628.133V412.48H631.958V419.32ZM519.889 474.185H515.929C516.289 467.885 520.834 464.87 526.414 464.87C532.309 464.87 536.629 468.155 536.629 474.455C536.629 478.73 533.389 482.735 529.654 485.84L521.734 492.5V493.49H537.619V497H515.974V492.545L520.609 488.765C523.129 486.74 526.099 484.22 527.764 482.69C529.924 480.755 532.669 478.19 532.669 474.455C532.669 470.495 530.149 468.38 526.324 468.38C522.769 468.38 520.294 470.225 519.889 474.185ZM549.044 497H544.364V491.78H549.044V497ZM571.595 497V464.87H578.345L586.445 479.945H587.435L595.4 464.87H602.195V497H598.235V469.46H597.245L589.01 484.715H584.78L576.545 469.46H575.555V497H571.595ZM624.439 497V494.615H623.449C622.054 496.37 619.624 497.585 616.384 497.585C611.164 497.585 608.239 494.075 608.239 490.205C608.239 486.56 610.624 482.69 616.924 482.69H624.304V481.79C624.304 479.045 622.729 477.065 618.769 477.065C615.394 477.065 613.684 478.37 613.504 480.35H609.679C609.994 476.165 613.594 473.735 618.679 473.735C624.394 473.735 628.039 476.48 628.039 481.565V497H624.439ZM617.329 494.255C621.109 494.255 624.304 491.42 624.304 487.82V485.75H617.509C613.774 485.75 612.064 487.37 612.064 490.07C612.064 492.635 613.954 494.255 617.329 494.255ZM645.933 477.065C640.893 477.065 638.823 481.205 638.823 485.66C638.823 490.115 640.893 494.255 645.933 494.255C650.478 494.255 652.908 490.7 652.908 485.66C652.908 480.62 650.478 477.065 645.933 477.065ZM635.043 474.32H638.733V476.75H639.723C640.983 475.175 643.188 473.735 646.788 473.735C653.043 473.735 656.733 478.955 656.733 485.66C656.733 492.5 653.043 497.585 646.788 497.585C643.188 497.585 641.073 496.19 639.858 494.57H638.868V506H635.043V474.32ZM517.369 520.5H535.774V524.91L527.899 531.66V532.605C533.299 532.74 537.259 536.115 537.259 542.19C537.259 548.715 532.579 552.585 526.144 552.585C519.754 552.585 515.479 548.535 515.119 543.18H519.079C519.439 546.78 522.364 549.075 526.144 549.075C530.464 549.075 533.299 546.51 533.299 542.19C533.299 538.05 530.824 535.485 526.189 535.485C525.064 535.485 524.164 535.575 523.444 535.755V531.57L531.139 524.91V523.92H517.369V520.5ZM549.044 552H544.364V546.78H549.044V552ZM571.595 552V519.87H578.345L586.445 534.945H587.435L595.4 519.87H602.195V552H598.235V524.46H597.245L589.01 539.715H584.78L576.545 524.46H575.555V552H571.595ZM609.634 529.32H613.459V542.91C613.459 547.095 615.394 549.165 619.219 549.165C623.224 549.165 625.969 545.7 625.969 541.605V529.32H629.794V552H626.104V549.57H625.114C623.854 551.325 621.334 552.585 618.274 552.585C612.694 552.585 609.634 549.165 609.634 543.72V529.32ZM637.152 519.285H640.977V552H637.152V519.285ZM653.623 529.32H659.338V532.65H653.623V545.115C653.623 547.41 654.613 548.58 657.673 548.58H659.338V552H657.583C652.678 552 649.798 550.47 649.798 545.655V532.65H645.883V529.32H649.798V522.48H653.623V529.32ZM669.678 523.425H665.628V519.285H669.678V523.425ZM669.543 529.32V552H665.718V529.32H669.543ZM683.354 537.87L685.514 538.23L688.079 538.635C692.039 539.31 694.559 541.335 694.559 545.475C694.559 549.21 691.364 552.585 685.244 552.585C678.809 552.585 675.659 549.75 675.164 545.43H679.034C679.394 547.995 681.644 549.255 685.064 549.255C688.484 549.255 690.734 548.04 690.734 545.565C690.734 543.585 689.474 542.505 686.594 542.01L681.509 541.155C678.269 540.57 676.064 538.86 676.064 535.44C676.064 531.66 678.899 528.735 685.019 528.735C690.374 528.735 693.479 531.255 693.974 535.215H690.149C689.834 533.055 687.674 532.065 684.839 532.065C681.914 532.065 679.934 533.145 679.934 535.08C679.934 536.835 681.059 537.51 683.354 537.87ZM719.834 539.31V540.615H702.554C702.689 546.015 705.119 549.255 709.799 549.255C712.994 549.255 714.884 547.905 715.559 545.745H719.429C718.709 549.615 715.424 552.585 709.799 552.585C702.734 552.585 698.774 547.41 698.774 540.435C698.774 533.46 702.824 528.735 709.709 528.735C716.459 528.735 719.699 533.73 719.834 539.31ZM709.619 532.065C705.524 532.065 703.274 534.54 702.779 537.42H715.874C715.649 534.54 713.444 532.065 709.619 532.065ZM731.055 529.32H736.77V532.65H731.055V545.115C731.055 547.41 732.045 548.58 735.105 548.58H736.77V552H735.015C730.11 552 727.23 550.47 727.23 545.655V532.65H723.315V529.32H727.23V522.48H731.055V529.32ZM534.334 596.11H538.654V599.62H534.334V607H530.464V599.62H514.894V595.12L528.799 575.5H534.334V596.11ZM519.034 596.11H530.509V579.955H529.519L519.034 595.12V596.11ZM549.044 607H544.364V601.78H549.044V607ZM571.595 607V574.87H578.345L586.445 589.945H587.435L595.4 574.87H602.195V607H598.235V579.46H597.245L589.01 594.715H584.78L576.545 579.46H575.555V607H571.595ZM609.634 584.32H613.459V597.91C613.459 602.095 615.394 604.165 619.219 604.165C623.224 604.165 625.969 600.7 625.969 596.605V584.32H629.794V607H626.104V604.57H625.114C623.854 606.325 621.334 607.585 618.274 607.585C612.694 607.585 609.634 604.165 609.634 598.72V584.32ZM637.152 574.285H640.977V607H637.152V574.285ZM653.623 584.32H659.338V587.65H653.623V600.115C653.623 602.41 654.613 603.58 657.673 603.58H659.338V607H657.583C652.678 607 649.798 605.47 649.798 600.655V587.65H645.883V584.32H649.798V577.48H653.623V584.32ZM669.678 578.425H665.628V574.285H669.678V578.425ZM669.543 584.32V607H665.718V584.32H669.543ZM700.859 583.735C706.079 583.735 708.329 587.11 708.329 592.33V607H704.504V592.735C704.504 589 703.064 587.155 700.139 587.155C696.584 587.155 694.604 589.9 694.604 593.725V607H690.779V592.825C690.779 589.09 689.294 587.155 686.459 587.155C682.679 587.155 680.879 590.35 680.879 594.445V607H677.054V584.32H680.744V586.525H681.734C682.859 584.77 684.614 583.735 687.494 583.735C690.239 583.735 692.264 584.725 693.479 586.75H694.469C695.864 584.725 698.024 583.735 700.859 583.735ZM729.776 607V604.615H728.786C727.391 606.37 724.961 607.585 721.721 607.585C716.501 607.585 713.576 604.075 713.576 600.205C713.576 596.56 715.961 592.69 722.261 592.69H729.641V591.79C729.641 589.045 728.066 587.065 724.106 587.065C720.731 587.065 719.021 588.37 718.841 590.35H715.016C715.331 586.165 718.931 583.735 724.016 583.735C729.731 583.735 733.376 586.48 733.376 591.565V607H729.776ZM722.666 604.255C726.446 604.255 729.641 601.42 729.641 597.82V595.75H722.846C719.111 595.75 717.401 597.37 717.401 600.07C717.401 602.635 719.291 604.255 722.666 604.255ZM751.269 587.065C746.229 587.065 744.159 591.205 744.159 595.66C744.159 600.115 746.229 604.255 751.269 604.255C755.814 604.255 758.244 600.7 758.244 595.66C758.244 590.62 755.814 587.065 751.269 587.065ZM740.379 584.32H744.069V586.75H745.059C746.319 585.175 748.524 583.735 752.124 583.735C758.379 583.735 762.069 588.955 762.069 595.66C762.069 602.5 758.379 607.585 752.124 607.585C748.524 607.585 746.409 606.19 745.194 604.57H744.204V616H740.379V584.32Z" fill="#274867"/>
<path d="M976.389 442V438.49H986.694V414.64H985.794L978.549 419.365V415.225L985.749 410.5H990.654V438.49H999.204V442H976.389ZM1010.04 442H1005.36V436.78H1010.04V442ZM1053.75 409.87H1057.8V430.525C1057.8 438.13 1053.39 442.585 1045.15 442.585C1036.92 442.585 1032.51 438.13 1032.51 430.525V409.87H1036.56V430.48C1036.56 435.52 1039.53 438.895 1045.15 438.895C1050.78 438.895 1053.75 435.52 1053.75 430.48V409.87ZM1085.66 442H1081.84V428.41C1081.84 424.225 1079.9 422.155 1076.08 422.155C1072.03 422.155 1069.33 425.71 1069.33 429.715V442H1065.5V419.32H1069.19V421.75H1070.18C1071.44 419.995 1073.96 418.735 1077.02 418.735C1082.6 418.735 1085.66 422.155 1085.66 427.6V442ZM1102.42 418.735C1109.49 418.735 1113.58 423.955 1113.58 430.66C1113.58 437.365 1109.49 442.585 1102.42 442.585C1095.31 442.585 1091.26 437.365 1091.26 430.66C1091.26 423.955 1095.31 418.735 1102.42 418.735ZM1102.42 439.255C1107.42 439.255 1109.76 435.115 1109.76 430.66C1109.76 426.205 1107.42 422.065 1102.42 422.065C1097.38 422.065 1095.09 426.205 1095.09 430.66C1095.09 435.115 1097.38 439.255 1102.42 439.255ZM1132.51 419.32V422.92H1130.62C1126.12 422.92 1123.38 425.665 1123.38 430.66V442H1119.55V419.32H1123.24V422.02H1124.23C1125.36 420.625 1127.52 419.32 1130.8 419.32H1132.51ZM1154 409.285H1157.82V442H1154.13V439.57H1153.14C1151.88 441.145 1149.68 442.585 1146.08 442.585C1139.82 442.585 1136.13 437.365 1136.13 430.66C1136.13 423.82 1139.82 418.735 1146.08 418.735C1149.68 418.735 1151.75 420.13 1153.01 421.75H1154V409.285ZM1146.93 439.255C1151.97 439.255 1154.04 435.115 1154.04 430.66C1154.04 426.205 1151.97 422.065 1146.93 422.065C1142.39 422.065 1139.96 425.62 1139.96 430.66C1139.96 435.7 1142.39 439.255 1146.93 439.255ZM1184.88 429.31V430.615H1167.6C1167.73 436.015 1170.16 439.255 1174.84 439.255C1178.04 439.255 1179.93 437.905 1180.6 435.745H1184.47C1183.75 439.615 1180.47 442.585 1174.84 442.585C1167.78 442.585 1163.82 437.41 1163.82 430.435C1163.82 423.46 1167.87 418.735 1174.75 418.735C1181.5 418.735 1184.74 423.73 1184.88 429.31ZM1174.66 422.065C1170.57 422.065 1168.32 424.54 1167.82 427.42H1180.92C1180.69 424.54 1178.49 422.065 1174.66 422.065ZM1203.79 419.32V422.92H1201.9C1197.4 422.92 1194.66 425.665 1194.66 430.66V442H1190.83V419.32H1194.52V422.02H1195.51C1196.64 420.625 1198.8 419.32 1202.08 419.32H1203.79ZM1228.47 429.31V430.615H1211.19C1211.33 436.015 1213.76 439.255 1218.44 439.255C1221.63 439.255 1223.52 437.905 1224.2 435.745H1228.07C1227.35 439.615 1224.06 442.585 1218.44 442.585C1211.37 442.585 1207.41 437.41 1207.41 430.435C1207.41 423.46 1211.46 418.735 1218.35 418.735C1225.1 418.735 1228.34 423.73 1228.47 429.31ZM1218.26 422.065C1214.16 422.065 1211.91 424.54 1211.42 427.42H1224.51C1224.29 424.54 1222.08 422.065 1218.26 422.065ZM1250.9 409.285H1254.72V442H1251.03V439.57H1250.04C1248.78 441.145 1246.58 442.585 1242.98 442.585C1236.72 442.585 1233.03 437.365 1233.03 430.66C1233.03 423.82 1236.72 418.735 1242.98 418.735C1246.58 418.735 1248.65 420.13 1249.91 421.75H1250.9V409.285ZM1243.83 439.255C1248.87 439.255 1250.94 435.115 1250.94 430.66C1250.94 426.205 1248.87 422.065 1243.83 422.065C1239.29 422.065 1236.86 425.62 1236.86 430.66C1236.86 435.7 1239.29 439.255 1243.83 439.255ZM1284.04 422.785C1285.44 423.01 1288.45 423.64 1290.12 424C1294.93 425.08 1298.17 427.555 1298.17 433.045C1298.17 438.085 1294.17 442.585 1286.02 442.585C1278.51 442.585 1273.6 438.625 1273.11 433.045H1277.2C1277.92 437.41 1281.79 438.895 1286.2 438.895C1290.66 438.895 1294.08 436.825 1294.08 433.135C1294.08 429.67 1291.78 428.365 1288.63 427.645C1287.01 427.285 1283.86 426.7 1282.29 426.34C1277.61 425.395 1274.5 422.875 1274.5 418.195C1274.5 413.2 1278.55 409.285 1285.8 409.285C1292.46 409.285 1296.73 412.795 1297.45 417.97H1293.36C1292.59 414.73 1290.39 412.975 1285.71 412.975C1281.84 412.975 1278.6 414.73 1278.6 418.105C1278.6 421.21 1281.34 422.2 1284.04 422.785ZM1324.18 429.31V430.615H1306.9C1307.04 436.015 1309.47 439.255 1314.15 439.255C1317.34 439.255 1319.23 437.905 1319.91 435.745H1323.78C1323.06 439.615 1319.77 442.585 1314.15 442.585C1307.08 442.585 1303.12 437.41 1303.12 430.435C1303.12 423.46 1307.17 418.735 1314.06 418.735C1320.81 418.735 1324.05 423.73 1324.18 429.31ZM1313.97 422.065C1309.87 422.065 1307.62 424.54 1307.13 427.42H1320.22C1320 424.54 1317.79 422.065 1313.97 422.065ZM1335.4 419.32H1341.12V422.65H1335.4V435.115C1335.4 437.41 1336.39 438.58 1339.45 438.58H1341.12V442H1339.36C1334.46 442 1331.58 440.47 1331.58 435.655V422.65H1327.66V419.32H1331.58V412.48H1335.4V419.32ZM980.889 474.185H976.929C977.289 467.885 981.834 464.87 987.414 464.87C993.309 464.87 997.629 468.155 997.629 474.455C997.629 478.73 994.389 482.735 990.654 485.84L982.734 492.5V493.49H998.619V497H976.974V492.545L981.609 488.765C984.129 486.74 987.099 484.22 988.764 482.69C990.924 480.755 993.669 478.19 993.669 474.455C993.669 470.495 991.149 468.38 987.324 468.38C983.769 468.38 981.294 470.225 980.889 474.185ZM1010.04 497H1005.36V491.78H1010.04V497ZM1053.75 464.87H1057.8V485.525C1057.8 493.13 1053.39 497.585 1045.15 497.585C1036.92 497.585 1032.51 493.13 1032.51 485.525V464.87H1036.56V485.48C1036.56 490.52 1039.53 493.895 1045.15 493.895C1050.78 493.895 1053.75 490.52 1053.75 485.48V464.87ZM1085.66 497H1081.84V483.41C1081.84 479.225 1079.9 477.155 1076.08 477.155C1072.03 477.155 1069.33 480.71 1069.33 484.715V497H1065.5V474.32H1069.19V476.75H1070.18C1071.44 474.995 1073.96 473.735 1077.02 473.735C1082.6 473.735 1085.66 477.155 1085.66 482.6V497ZM1102.42 473.735C1109.49 473.735 1113.58 478.955 1113.58 485.66C1113.58 492.365 1109.49 497.585 1102.42 497.585C1095.31 497.585 1091.26 492.365 1091.26 485.66C1091.26 478.955 1095.31 473.735 1102.42 473.735ZM1102.42 494.255C1107.42 494.255 1109.76 490.115 1109.76 485.66C1109.76 481.205 1107.42 477.065 1102.42 477.065C1097.38 477.065 1095.09 481.205 1095.09 485.66C1095.09 490.115 1097.38 494.255 1102.42 494.255ZM1132.51 474.32V477.92H1130.62C1126.12 477.92 1123.38 480.665 1123.38 485.66V497H1119.55V474.32H1123.24V477.02H1124.23C1125.36 475.625 1127.52 474.32 1130.8 474.32H1132.51ZM1154 464.285H1157.82V497H1154.13V494.57H1153.14C1151.88 496.145 1149.68 497.585 1146.08 497.585C1139.82 497.585 1136.13 492.365 1136.13 485.66C1136.13 478.82 1139.82 473.735 1146.08 473.735C1149.68 473.735 1151.75 475.13 1153.01 476.75H1154V464.285ZM1146.93 494.255C1151.97 494.255 1154.04 490.115 1154.04 485.66C1154.04 481.205 1151.97 477.065 1146.93 477.065C1142.39 477.065 1139.96 480.62 1139.96 485.66C1139.96 490.7 1142.39 494.255 1146.93 494.255ZM1184.88 484.31V485.615L1167.6 485.615C1167.73 491.015 1170.16 494.255 1174.84 494.255C1178.04 494.255 1179.93 492.905 1180.6 490.745L1184.47 490.745C1183.75 494.615 1180.47 497.585 1174.84 497.585C1167.78 497.585 1163.82 492.41 1163.82 485.435C1163.82 478.46 1167.87 473.735 1174.75 473.735C1181.5 473.735 1184.74 478.73 1184.88 484.31ZM1174.66 477.065C1170.57 477.065 1168.32 479.54 1167.82 482.42H1180.92C1180.69 479.54 1178.49 477.065 1174.66 477.065ZM1203.79 474.32V477.92H1201.9C1197.4 477.92 1194.66 480.665 1194.66 485.66V497H1190.83V474.32H1194.52V477.02H1195.51C1196.64 475.625 1198.8 474.32 1202.08 474.32H1203.79ZM1228.47 484.31V485.615H1211.19C1211.33 491.015 1213.76 494.255 1218.44 494.255C1221.63 494.255 1223.52 492.905 1224.2 490.745H1228.07C1227.35 494.615 1224.06 497.585 1218.44 497.585C1211.37 497.585 1207.41 492.41 1207.41 485.435C1207.41 478.46 1211.46 473.735 1218.35 473.735C1225.1 473.735 1228.34 478.73 1228.47 484.31ZM1218.26 477.065C1214.16 477.065 1211.91 479.54 1211.42 482.42H1224.51C1224.29 479.54 1222.08 477.065 1218.26 477.065ZM1250.9 464.285H1254.72V497H1251.03V494.57H1250.04C1248.78 496.145 1246.58 497.585 1242.98 497.585C1236.72 497.585 1233.03 492.365 1233.03 485.66C1233.03 478.82 1236.72 473.735 1242.98 473.735C1246.58 473.735 1248.65 475.13 1249.91 476.75H1250.9V464.285ZM1243.83 494.255C1248.87 494.255 1250.94 490.115 1250.94 485.66C1250.94 481.205 1248.87 477.065 1243.83 477.065C1239.29 477.065 1236.86 480.62 1236.86 485.66C1236.86 490.7 1239.29 494.255 1243.83 494.255ZM1275.04 497V464.87H1281.79L1289.89 479.945H1290.88L1298.85 464.87H1305.64V497H1301.68V469.46H1300.69L1292.46 484.715H1288.23L1279.99 469.46H1279V497H1275.04ZM1327.89 497V494.615H1326.9C1325.5 496.37 1323.07 497.585 1319.83 497.585C1314.61 497.585 1311.69 494.075 1311.69 490.205C1311.69 486.56 1314.07 482.69 1320.37 482.69H1327.75V481.79C1327.75 479.045 1326.18 477.065 1322.22 477.065C1318.84 477.065 1317.13 478.37 1316.95 480.35H1313.13C1313.44 476.165 1317.04 473.735 1322.13 473.735C1327.84 473.735 1331.49 476.48 1331.49 481.565V497H1327.89ZM1320.78 494.255C1324.56 494.255 1327.75 491.42 1327.75 487.82V485.75H1320.96C1317.22 485.75 1315.51 487.37 1315.51 490.07C1315.51 492.635 1317.4 494.255 1320.78 494.255ZM1349.38 477.065C1344.34 477.065 1342.27 481.205 1342.27 485.66C1342.27 490.115 1344.34 494.255 1349.38 494.255C1353.92 494.255 1356.35 490.7 1356.35 485.66C1356.35 480.62 1353.92 477.065 1349.38 477.065ZM1338.49 474.32H1342.18V476.75H1343.17C1344.43 475.175 1346.63 473.735 1350.23 473.735C1356.49 473.735 1360.18 478.955 1360.18 485.66C1360.18 492.5 1356.49 497.585 1350.23 497.585C1346.63 497.585 1344.52 496.19 1343.3 494.57H1342.31V506H1338.49V474.32ZM978.369 520.5H996.774V524.91L988.899 531.66V532.605C994.299 532.74 998.259 536.115 998.259 542.19C998.259 548.715 993.579 552.585 987.144 552.585C980.754 552.585 976.479 548.535 976.119 543.18H980.079C980.439 546.78 983.364 549.075 987.144 549.075C991.464 549.075 994.299 546.51 994.299 542.19C994.299 538.05 991.824 535.485 987.189 535.485C986.064 535.485 985.164 535.575 984.444 535.755V531.57L992.139 524.91V523.92H978.369V520.5ZM1010.04 552H1005.36V546.78H1010.04V552ZM1053.75 519.87H1057.8V540.525C1057.8 548.13 1053.39 552.585 1045.15 552.585C1036.92 552.585 1032.51 548.13 1032.51 540.525V519.87H1036.56V540.48C1036.56 545.52 1039.53 548.895 1045.15 548.895C1050.78 548.895 1053.75 545.52 1053.75 540.48V519.87ZM1085.66 552H1081.84V538.41C1081.84 534.225 1079.9 532.155 1076.08 532.155C1072.03 532.155 1069.33 535.71 1069.33 539.715V552H1065.5V529.32H1069.19V531.75H1070.18C1071.44 529.995 1073.96 528.735 1077.02 528.735C1082.6 528.735 1085.66 532.155 1085.66 537.6V552ZM1102.42 528.735C1109.49 528.735 1113.58 533.955 1113.58 540.66C1113.58 547.365 1109.49 552.585 1102.42 552.585C1095.31 552.585 1091.26 547.365 1091.26 540.66C1091.26 533.955 1095.31 528.735 1102.42 528.735ZM1102.42 549.255C1107.42 549.255 1109.76 545.115 1109.76 540.66C1109.76 536.205 1107.42 532.065 1102.42 532.065C1097.38 532.065 1095.09 536.205 1095.09 540.66C1095.09 545.115 1097.38 549.255 1102.42 549.255ZM1132.51 529.32V532.92H1130.62C1126.12 532.92 1123.38 535.665 1123.38 540.66V552H1119.55V529.32H1123.24V532.02H1124.23C1125.36 530.625 1127.52 529.32 1130.8 529.32H1132.51ZM1154 519.285H1157.82V552H1154.13V549.57H1153.14C1151.88 551.145 1149.68 552.585 1146.08 552.585C1139.82 552.585 1136.13 547.365 1136.13 540.66C1136.13 533.82 1139.82 528.735 1146.08 528.735C1149.68 528.735 1151.75 530.13 1153.01 531.75H1154V519.285ZM1146.93 549.255C1151.97 549.255 1154.04 545.115 1154.04 540.66C1154.04 536.205 1151.97 532.065 1146.93 532.065C1142.39 532.065 1139.96 535.62 1139.96 540.66C1139.96 545.7 1142.39 549.255 1146.93 549.255ZM1184.88 539.31V540.615H1167.6C1167.73 546.015 1170.16 549.255 1174.84 549.255C1178.04 549.255 1179.93 547.905 1180.6 545.745H1184.47C1183.75 549.615 1180.47 552.585 1174.84 552.585C1167.78 552.585 1163.82 547.41 1163.82 540.435C1163.82 533.46 1167.87 528.735 1174.75 528.735C1181.5 528.735 1184.74 533.73 1184.88 539.31ZM1174.66 532.065C1170.57 532.065 1168.32 534.54 1167.82 537.42H1180.92C1180.69 534.54 1178.49 532.065 1174.66 532.065ZM1203.79 529.32V532.92H1201.9C1197.4 532.92 1194.66 535.665 1194.66 540.66V552H1190.83V529.32H1194.52V532.02H1195.51C1196.64 530.625 1198.8 529.32 1202.08 529.32H1203.79ZM1228.47 539.31V540.615H1211.19C1211.33 546.015 1213.76 549.255 1218.44 549.255C1221.63 549.255 1223.52 547.905 1224.2 545.745H1228.07C1227.35 549.615 1224.06 552.585 1218.44 552.585C1211.37 552.585 1207.41 547.41 1207.41 540.435C1207.41 533.46 1211.46 528.735 1218.35 528.735C1225.1 528.735 1228.34 533.73 1228.47 539.31ZM1218.26 532.065C1214.16 532.065 1211.91 534.54 1211.42 537.42H1224.51C1224.29 534.54 1222.08 532.065 1218.26 532.065ZM1250.9 519.285H1254.72V552H1251.03V549.57H1250.04C1248.78 551.145 1246.58 552.585 1242.98 552.585C1236.72 552.585 1233.03 547.365 1233.03 540.66C1233.03 533.82 1236.72 528.735 1242.98 528.735C1246.58 528.735 1248.65 530.13 1249.91 531.75H1250.9V519.285ZM1243.83 549.255C1248.87 549.255 1250.94 545.115 1250.94 540.66C1250.94 536.205 1248.87 532.065 1243.83 532.065C1239.29 532.065 1236.86 535.62 1236.86 540.66C1236.86 545.7 1239.29 549.255 1243.83 549.255ZM1275.04 552V519.87H1281.79L1289.89 534.945H1290.88L1298.85 519.87H1305.64V552H1301.68V524.46H1300.69L1292.46 539.715H1288.23L1279.99 524.46H1279V552H1275.04ZM1313.08 529.32H1316.91V542.91C1316.91 547.095 1318.84 549.165 1322.67 549.165C1326.67 549.165 1329.42 545.7 1329.42 541.605V529.32H1333.24V552H1329.55V549.57H1328.56C1327.3 551.325 1324.78 552.585 1321.72 552.585C1316.14 552.585 1313.08 549.165 1313.08 543.72V529.32ZM1340.6 519.285H1344.42V552H1340.6V519.285ZM1357.07 529.32H1362.78V532.65H1357.07V545.115C1357.07 547.41 1358.06 548.58 1361.12 548.58H1362.78V552H1361.03C1356.12 552 1353.24 550.47 1353.24 545.655V532.65H1349.33V529.32H1353.24V522.48H1357.07V529.32ZM1373.12 523.425H1369.07V519.285H1373.12V523.425ZM1372.99 529.32V552H1369.16V529.32H1372.99ZM1386.8 537.87L1388.96 538.23L1391.53 538.635C1395.49 539.31 1398.01 541.335 1398.01 545.475C1398.01 549.21 1394.81 552.585 1388.69 552.585C1382.26 552.585 1379.11 549.75 1378.61 545.43H1382.48C1382.84 547.995 1385.09 549.255 1388.51 549.255C1391.93 549.255 1394.18 548.04 1394.18 545.565C1394.18 543.585 1392.92 542.505 1390.04 542.01L1384.96 541.155C1381.72 540.57 1379.51 538.86 1379.51 535.44C1379.51 531.66 1382.35 528.735 1388.47 528.735C1393.82 528.735 1396.93 531.255 1397.42 535.215H1393.6C1393.28 533.055 1391.12 532.065 1388.29 532.065C1385.36 532.065 1383.38 533.145 1383.38 535.08C1383.38 536.835 1384.51 537.51 1386.8 537.87ZM1423.28 539.31V540.615H1406C1406.14 546.015 1408.57 549.255 1413.25 549.255C1416.44 549.255 1418.33 547.905 1419.01 545.745H1422.88C1422.16 549.615 1418.87 552.585 1413.25 552.585C1406.18 552.585 1402.22 547.41 1402.22 540.435C1402.22 533.46 1406.27 528.735 1413.16 528.735C1419.91 528.735 1423.15 533.73 1423.28 539.31ZM1413.07 532.065C1408.97 532.065 1406.72 534.54 1406.23 537.42H1419.32C1419.1 534.54 1416.89 532.065 1413.07 532.065ZM1434.5 529.32H1440.22V532.65H1434.5V545.115C1434.5 547.41 1435.49 548.58 1438.55 548.58H1440.22V552H1438.46C1433.56 552 1430.68 550.47 1430.68 545.655V532.65H1426.76V529.32H1430.68V522.48H1434.5V529.32ZM995.334 596.11H999.654V599.62H995.334V607H991.464V599.62H975.894V595.12L989.799 575.5H995.334V596.11ZM980.034 596.11H991.509V579.955H990.519L980.034 595.12V596.11ZM1010.04 607H1005.36V601.78H1010.04V607ZM1053.75 574.87H1057.8V595.525C1057.8 603.13 1053.39 607.585 1045.15 607.585C1036.92 607.585 1032.51 603.13 1032.51 595.525V574.87H1036.56V595.48C1036.56 600.52 1039.53 603.895 1045.15 603.895C1050.78 603.895 1053.75 600.52 1053.75 595.48V574.87ZM1085.66 607H1081.84V593.41C1081.84 589.225 1079.9 587.155 1076.08 587.155C1072.03 587.155 1069.33 590.71 1069.33 594.715V607H1065.5V584.32H1069.19V586.75H1070.18C1071.44 584.995 1073.96 583.735 1077.02 583.735C1082.6 583.735 1085.66 587.155 1085.66 592.6V607ZM1102.42 583.735C1109.49 583.735 1113.58 588.955 1113.58 595.66C1113.58 602.365 1109.49 607.585 1102.42 607.585C1095.31 607.585 1091.26 602.365 1091.26 595.66C1091.26 588.955 1095.31 583.735 1102.42 583.735ZM1102.42 604.255C1107.42 604.255 1109.76 600.115 1109.76 595.66C1109.76 591.205 1107.42 587.065 1102.42 587.065C1097.38 587.065 1095.09 591.205 1095.09 595.66C1095.09 600.115 1097.38 604.255 1102.42 604.255ZM1132.51 584.32V587.92H1130.62C1126.12 587.92 1123.38 590.665 1123.38 595.66V607H1119.55V584.32H1123.24V587.02H1124.23C1125.36 585.625 1127.52 584.32 1130.8 584.32H1132.51ZM1154 574.285H1157.82V607H1154.13V604.57H1153.14C1151.88 606.145 1149.68 607.585 1146.08 607.585C1139.82 607.585 1136.13 602.365 1136.13 595.66C1136.13 588.82 1139.82 583.735 1146.08 583.735C1149.68 583.735 1151.75 585.13 1153.01 586.75H1154V574.285ZM1146.93 604.255C1151.97 604.255 1154.04 600.115 1154.04 595.66C1154.04 591.205 1151.97 587.065 1146.93 587.065C1142.39 587.065 1139.96 590.62 1139.96 595.66C1139.96 600.7 1142.39 604.255 1146.93 604.255ZM1184.88 594.31V595.615H1167.6C1167.73 601.015 1170.16 604.255 1174.84 604.255C1178.04 604.255 1179.93 602.905 1180.6 600.745H1184.47C1183.75 604.615 1180.47 607.585 1174.84 607.585C1167.78 607.585 1163.82 602.41 1163.82 595.435C1163.82 588.46 1167.87 583.735 1174.75 583.735C1181.5 583.735 1184.74 588.73 1184.88 594.31ZM1174.66 587.065C1170.57 587.065 1168.32 589.54 1167.82 592.42H1180.92C1180.69 589.54 1178.49 587.065 1174.66 587.065ZM1203.79 584.32V587.92H1201.9C1197.4 587.92 1194.66 590.665 1194.66 595.66V607H1190.83V584.32H1194.52V587.02H1195.51C1196.64 585.625 1198.8 584.32 1202.08 584.32H1203.79ZM1228.47 594.31V595.615H1211.19C1211.33 601.015 1213.76 604.255 1218.44 604.255C1221.63 604.255 1223.52 602.905 1224.2 600.745H1228.07C1227.35 604.615 1224.06 607.585 1218.44 607.585C1211.37 607.585 1207.41 602.41 1207.41 595.435C1207.41 588.46 1211.46 583.735 1218.35 583.735C1225.1 583.735 1228.34 588.73 1228.47 594.31ZM1218.26 587.065C1214.16 587.065 1211.91 589.54 1211.42 592.42H1224.51C1224.29 589.54 1222.08 587.065 1218.26 587.065ZM1250.9 574.285H1254.72V607H1251.03V604.57H1250.04C1248.78 606.145 1246.58 607.585 1242.98 607.585C1236.72 607.585 1233.03 602.365 1233.03 595.66C1233.03 588.82 1236.72 583.735 1242.98 583.735C1246.58 583.735 1248.65 585.13 1249.91 586.75H1250.9V574.285ZM1243.83 604.255C1248.87 604.255 1250.94 600.115 1250.94 595.66C1250.94 591.205 1248.87 587.065 1243.83 587.065C1239.29 587.065 1236.86 590.62 1236.86 595.66C1236.86 600.7 1239.29 604.255 1243.83 604.255ZM1275.04 607V574.87H1281.79L1289.89 589.945H1290.88L1298.85 574.87H1305.64V607H1301.68V579.46H1300.69L1292.46 594.715H1288.23L1279.99 579.46H1279V607H1275.04ZM1313.08 584.32H1316.91V597.91C1316.91 602.095 1318.84 604.165 1322.67 604.165C1326.67 604.165 1329.42 600.7 1329.42 596.605V584.32H1333.24V607H1329.55V604.57H1328.56C1327.3 606.325 1324.78 607.585 1321.72 607.585C1316.14 607.585 1313.08 604.165 1313.08 598.72V584.32ZM1340.6 574.285H1344.42V607H1340.6V574.285ZM1357.07 584.32H1362.78V587.65H1357.07V600.115C1357.07 602.41 1358.06 603.58 1361.12 603.58H1362.78V607H1361.03C1356.12 607 1353.24 605.47 1353.24 600.655V587.65H1349.33V584.32H1353.24V577.48H1357.07V584.32ZM1373.12 578.425H1369.07V574.285H1373.12V578.425ZM1372.99 584.32V607H1369.16V584.32H1372.99ZM1404.31 583.735C1409.53 583.735 1411.78 587.11 1411.78 592.33V607H1407.95V592.735C1407.95 589 1406.51 587.155 1403.59 587.155C1400.03 587.155 1398.05 589.9 1398.05 593.725V607H1394.23V592.825C1394.23 589.09 1392.74 587.155 1389.91 587.155C1386.13 587.155 1384.33 590.35 1384.33 594.445V607H1380.5V584.32H1384.19V586.525H1385.18C1386.31 584.77 1388.06 583.735 1390.94 583.735C1393.69 583.735 1395.71 584.725 1396.93 586.75H1397.92C1399.31 584.725 1401.47 583.735 1404.31 583.735ZM1433.22 607V604.615H1432.23C1430.84 606.37 1428.41 607.585 1425.17 607.585C1419.95 607.585 1417.02 604.075 1417.02 600.205C1417.02 596.56 1419.41 592.69 1425.71 592.69H1433.09V591.79C1433.09 589.045 1431.51 587.065 1427.55 587.065C1424.18 587.065 1422.47 588.37 1422.29 590.35H1418.46C1418.78 586.165 1422.38 583.735 1427.46 583.735C1433.18 583.735 1436.82 586.48 1436.82 591.565V607H1433.22ZM1426.11 604.255C1429.89 604.255 1433.09 601.42 1433.09 597.82V595.75H1426.29C1422.56 595.75 1420.85 597.37 1420.85 600.07C1420.85 602.635 1422.74 604.255 1426.11 604.255ZM1454.72 587.065C1449.68 587.065 1447.61 591.205 1447.61 595.66C1447.61 600.115 1449.68 604.255 1454.72 604.255C1459.26 604.255 1461.69 600.7 1461.69 595.66C1461.69 590.62 1459.26 587.065 1454.72 587.065ZM1443.83 584.32H1447.52V586.75H1448.51C1449.77 585.175 1451.97 583.735 1455.57 583.735C1461.83 583.735 1465.52 588.955 1465.52 595.66C1465.52 602.5 1461.83 607.585 1455.57 607.585C1451.97 607.585 1449.86 606.19 1448.64 604.57H1447.65V616H1443.83V584.32Z" fill="#274867"/>
<path d="M536.196 258L532.866 248.145H518.781L515.451 258H511.311L522.426 225.87H529.266L540.426 258H536.196ZM524.901 230.01L519.996 244.455H531.606L526.701 230.01H524.901ZM551.295 243.87L553.455 244.23L556.02 244.635C559.98 245.31 562.5 247.335 562.5 251.475C562.5 255.21 559.305 258.585 553.185 258.585C546.75 258.585 543.6 255.75 543.105 251.43H546.975C547.335 253.995 549.585 255.255 553.005 255.255C556.425 255.255 558.675 254.04 558.675 251.565C558.675 249.585 557.415 248.505 554.535 248.01L549.45 247.155C546.21 246.57 544.005 244.86 544.005 241.44C544.005 237.66 546.84 234.735 552.96 234.735C558.315 234.735 561.42 237.255 561.915 241.215H558.09C557.775 239.055 555.615 238.065 552.78 238.065C549.855 238.065 547.875 239.145 547.875 241.08C547.875 242.835 549 243.51 551.295 243.87ZM574.41 243.87L576.57 244.23L579.135 244.635C583.095 245.31 585.615 247.335 585.615 251.475C585.615 255.21 582.42 258.585 576.3 258.585C569.865 258.585 566.715 255.75 566.22 251.43H570.09C570.45 253.995 572.7 255.255 576.12 255.255C579.54 255.255 581.79 254.04 581.79 251.565C581.79 249.585 580.53 248.505 577.65 248.01L572.565 247.155C569.325 246.57 567.12 244.86 567.12 241.44C567.12 237.66 569.955 234.735 576.075 234.735C581.43 234.735 584.535 237.255 585.03 241.215H581.205C580.89 239.055 578.73 238.065 575.895 238.065C572.97 238.065 570.99 239.145 570.99 241.08C570.99 242.835 572.115 243.51 574.41 243.87ZM600.99 234.735C608.055 234.735 612.15 239.955 612.15 246.66C612.15 253.365 608.055 258.585 600.99 258.585C593.88 258.585 589.83 253.365 589.83 246.66C589.83 239.955 593.88 234.735 600.99 234.735ZM600.99 255.255C605.985 255.255 608.325 251.115 608.325 246.66C608.325 242.205 605.985 238.065 600.99 238.065C595.95 238.065 593.655 242.205 593.655 246.66C593.655 251.115 595.95 255.255 600.99 255.255ZM633.465 251.16H637.29C636.435 255.615 633.015 258.585 627.75 258.585C620.685 258.585 616.725 253.365 616.725 246.66C616.725 239.82 620.685 234.735 627.75 234.735C633.15 234.735 636.39 237.705 637.155 241.89H633.33C632.61 239.595 630.855 238.065 627.75 238.065C622.62 238.065 620.55 242.07 620.55 246.57C620.55 251.115 622.665 255.255 627.75 255.255C630.99 255.255 632.88 253.68 633.465 251.16ZM647.043 229.425H642.993V225.285H647.043V229.425ZM646.908 235.32V258H643.083V235.32H646.908ZM668.864 258V255.615H667.874C666.479 257.37 664.049 258.585 660.809 258.585C655.589 258.585 652.664 255.075 652.664 251.205C652.664 247.56 655.049 243.69 661.349 243.69H668.729V242.79C668.729 240.045 667.154 238.065 663.194 238.065C659.819 238.065 658.109 239.37 657.929 241.35H654.104C654.419 237.165 658.019 234.735 663.104 234.735C668.819 234.735 672.464 237.48 672.464 242.565V258H668.864ZM661.754 255.255C665.534 255.255 668.729 252.42 668.729 248.82V246.75H661.934C658.199 246.75 656.489 248.37 656.489 251.07C656.489 253.635 658.379 255.255 661.754 255.255ZM684.732 235.32H690.447V238.65H684.732V251.115C684.732 253.41 685.722 254.58 688.782 254.58H690.447V258H688.692C683.787 258 680.907 256.47 680.907 251.655V238.65H676.992V235.32H680.907V228.48H684.732V235.32ZM700.788 229.425H696.738V225.285H700.788V229.425ZM700.653 235.32V258H696.828V235.32H700.653ZM712.979 258L705.464 235.32H709.424L715.769 254.4H717.614L723.734 235.32H727.739L720.134 258H712.979ZM751.735 245.31V246.615H734.455C734.59 252.015 737.02 255.255 741.7 255.255C744.895 255.255 746.785 253.905 747.46 251.745H751.33C750.61 255.615 747.325 258.585 741.7 258.585C734.635 258.585 730.675 253.41 730.675 246.435C730.675 239.46 734.725 234.735 741.61 234.735C748.36 234.735 751.6 239.73 751.735 245.31ZM741.52 238.065C737.425 238.065 735.175 240.54 734.68 243.42H747.775C747.55 240.54 745.345 238.065 741.52 238.065Z" fill="#274867"/>
<path d="M996.323 227.87H1000.37V248.525C1000.37 256.13 995.963 260.585 987.728 260.585C979.493 260.585 975.083 256.13 975.083 248.525V227.87H979.133V248.48C979.133 253.52 982.103 256.895 987.728 256.895C993.353 256.895 996.323 253.52 996.323 248.48V227.87ZM1028.24 260H1024.41V246.41C1024.41 242.225 1022.48 240.155 1018.65 240.155C1014.6 240.155 1011.9 243.71 1011.9 247.715V260H1008.08V237.32H1011.77V239.75H1012.76C1014.02 237.995 1016.54 236.735 1019.6 236.735C1025.18 236.735 1028.24 240.155 1028.24 245.6V260ZM1045 236.735C1052.07 236.735 1056.16 241.955 1056.16 248.66C1056.16 255.365 1052.07 260.585 1045 260.585C1037.89 260.585 1033.84 255.365 1033.84 248.66C1033.84 241.955 1037.89 236.735 1045 236.735ZM1045 257.255C1050 257.255 1052.34 253.115 1052.34 248.66C1052.34 244.205 1050 240.065 1045 240.065C1039.96 240.065 1037.67 244.205 1037.67 248.66C1037.67 253.115 1039.96 257.255 1045 257.255ZM1075.09 237.32V240.92H1073.2C1068.7 240.92 1065.96 243.665 1065.96 248.66V260H1062.13V237.32L1065.82 237.32V240.02H1066.81C1067.94 238.625 1070.1 237.32 1073.38 237.32H1075.09ZM1096.58 227.285H1100.4V260H1096.71V257.57H1095.72C1094.46 259.145 1092.26 260.585 1088.66 260.585C1082.4 260.585 1078.71 255.365 1078.71 248.66C1078.71 241.82 1082.4 236.735 1088.66 236.735C1092.26 236.735 1094.33 238.13 1095.59 239.75H1096.58V227.285ZM1089.51 257.255C1094.55 257.255 1096.62 253.115 1096.62 248.66C1096.62 244.205 1094.55 240.065 1089.51 240.065C1084.97 240.065 1082.54 243.62 1082.54 248.66C1082.54 253.7 1084.97 257.255 1089.51 257.255ZM1127.46 247.31V248.615H1110.18C1110.31 254.015 1112.74 257.255 1117.42 257.255C1120.62 257.255 1122.51 255.905 1123.18 253.745H1127.05C1126.33 257.615 1123.05 260.585 1117.42 260.585C1110.36 260.585 1106.4 255.41 1106.4 248.435C1106.4 241.46 1110.45 236.735 1117.33 236.735C1124.08 236.735 1127.32 241.73 1127.46 247.31ZM1117.24 240.065C1113.15 240.065 1110.9 242.54 1110.4 245.42H1123.5C1123.27 242.54 1121.07 240.065 1117.24 240.065ZM1146.37 237.32V240.92H1144.48C1139.98 240.92 1137.24 243.665 1137.24 248.66V260H1133.41V237.32H1137.1V240.02H1138.09C1139.22 238.625 1141.38 237.32 1144.66 237.32H1146.37ZM1171.05 247.31V248.615H1153.77C1153.9 254.015 1156.33 257.255 1161.01 257.255C1164.21 257.255 1166.1 255.905 1166.77 253.745H1170.64C1169.92 257.615 1166.64 260.585 1161.01 260.585C1153.95 260.585 1149.99 255.41 1149.99 248.435C1149.99 241.46 1154.04 236.735 1160.92 236.735C1167.67 236.735 1170.91 241.73 1171.05 247.31ZM1160.83 240.065C1156.74 240.065 1154.49 242.54 1153.99 245.42H1167.09C1166.86 242.54 1164.66 240.065 1160.83 240.065ZM1193.47 227.285H1197.3V260H1193.61V257.57H1192.62C1191.36 259.145 1189.15 260.585 1185.55 260.585C1179.3 260.585 1175.61 255.365 1175.61 248.66C1175.61 241.82 1179.3 236.735 1185.55 236.735C1189.15 236.735 1191.22 238.13 1192.48 239.75H1193.47V227.285ZM1186.41 257.255C1191.45 257.255 1193.52 253.115 1193.52 248.66C1193.52 244.205 1191.45 240.065 1186.41 240.065C1181.86 240.065 1179.43 243.62 1179.43 248.66C1179.43 253.7 1181.86 257.255 1186.41 257.255Z" fill="#274867"/>
<path d="M632.078 198.043L632.078 62" stroke="#007BFF" stroke-width="2"/>
<path d="M622 181.031L642 181.031L631.895 204.561L622 181.031Z" fill="#007BFF"/>
<path d="M123.578 198.043L123.578 119.5L1086 119.5L1086 182.5" stroke="#007BFF" stroke-width="2"/>
<path d="M113 181.031L133 181.031L122.895 204.561L113 181.031Z" fill="#007BFF"/>
<path d="M1076 181.031L1096 181.031L1085.89 204.561L1076 181.031Z" fill="#007BFF"/>
<path d="M632.078 380.043L632.078 274.5" stroke="#007BFF" stroke-width="2"/>
<path d="M622 363.031L642 363.031L631.895 386.561L622 363.031Z" fill="#007BFF"/>
<path d="M123.078 380.043L123.078 274.5" stroke="#007BFF" stroke-width="2"/>
<path d="M113 363.031L133 363.031L122.895 386.561L113 363.031Z" fill="#007BFF"/>
<path d="M1086.08 380.043L1086.08 274.5" stroke="#007BFF" stroke-width="2"/>
<path d="M1076 363.031L1096 363.031L1085.89 386.561L1076 363.031Z" fill="#007BFF"/>
</g>
<defs>
<clipPath id="clip0_206_2987">
<rect width="1474" height="673" fill="white"/>
</clipPath>
</defs>
</svg>
