<svg width="1474" height="998" viewBox="0 0 1474 998" fill="none" xmlns="http://www.w3.org/2000/svg">
<g clip-path="url(#clip0_2777_1509)">
<rect width="1474" height="998" fill="white"/>
<path d="M1326.05 714.663L75.9408 952.803L34.0494 122.954L1368.43 63.5486L1326.05 714.663Z" stroke="#274867" stroke-width="2" stroke-linejoin="round"/>
<path d="M75 953L54 929.5L15.5002 116.498L1310.5 59.9975L1368 63.5" stroke="#274867" stroke-width="2" stroke-linecap="round"/>
<path d="M16.0007 139.998L35.0007 147.498L1367 81.9983" stroke="#274867" stroke-width="2"/>
<path d="M26.0006 347.999L46.0006 359.499L1356.5 246.999" stroke="#274867" stroke-width="2"/>
<path d="M35.9993 547.999L56.0016 564.499L1346 407.502" stroke="#274867" stroke-width="2"/>
<path d="M45.5002 741.501L66.001 762.499L1335.5 563.5" stroke="#274867" stroke-width="2"/>
<path d="M52.9982 910.001L75 932.5L1327 698.998" stroke="#274867" stroke-width="2"/>
<path d="M26.0018 325.999L46.0018 337.499L1357.5 228.499" stroke="#274867" stroke-width="2"/>
<path d="M34.9988 526.499L55.0019 540.498L1347 389.499" stroke="#274867" stroke-width="2"/>
<path d="M44.5008 720.501L65.0037 738.499L1336.5 547.002" stroke="#274867" stroke-width="2"/>
<line x1="60.9991" y1="145.958" x2="68.9991" y2="335.958" stroke="#274867" stroke-width="2"/>
<path d="M68.9982 357.957L77.5004 538" stroke="#274867" stroke-width="2"/>
<path d="M78.9993 560.957L87.0027 735.5" stroke="#274867" stroke-width="2"/>
<path d="M88.5 759L96.0007 928.498" stroke="#274867" stroke-width="2"/>
<path d="M232.5 543L237 693" stroke="#274867" stroke-width="2"/>
<path d="M238.5 735L243.156 875" stroke="#274867" stroke-width="2"/>
<path d="M1284 571.5L1277.5 686.5" stroke="#274867" stroke-width="2"/>
<path d="M1159.5 591.5L1154.5 708.5" stroke="#274867" stroke-width="2"/>
<path d="M888 634.5L885 758" stroke="#274867" stroke-width="2"/>
<path d="M414 520.5L418 665" stroke="#274867" stroke-width="2"/>
<path d="M583.5 500.5L583.5 640.5" stroke="#274867" stroke-width="2"/>
<path d="M743.5 481L743.5 616.5" stroke="#274867" stroke-width="2"/>
<path d="M1034 445.5L1030 574.5" stroke="#274867" stroke-width="2"/>
<path d="M1167 428.5L1163.43 554" stroke="#274867" stroke-width="2"/>
<path d="M1293.5 413.5L1285.5 535.5" stroke="#274867" stroke-width="2"/>
<path d="M891.5 463L889 594.5" stroke="#274867" stroke-width="2"/>
<path d="M259.002 709.5L237 693.001L85.5004 715.001" stroke="#274867" stroke-width="2"/>
<path d="M263.997 896.999L243.155 875.001L95 902" stroke="#274867" stroke-width="2"/>
<path d="M1313.87 701L1277.5 686.499L1205 700" stroke="#274867" stroke-width="2"/>
<path d="M1188.5 724.5L1154 709.502L933.5 749.5" stroke="#274867" stroke-width="2"/>
<path d="M915.869 774.998L885 758.499L285 867.5" stroke="#274867" stroke-width="2"/>
<path d="M440.002 681.5L418 665.001L279.5 685.5" stroke="#274867" stroke-width="2"/>
<path d="M611.003 656L583.501 641L460.501 659.001" stroke="#274867" stroke-width="2"/>
<path d="M771.003 632L743.501 617L630.5 633.5" stroke="#274867" stroke-width="2"/>
<path d="M1062.99 588L1029.5 574.501L937.997 588.501" stroke="#274867" stroke-width="2"/>
<path d="M1196.42 567.5L1162.93 554.001L1080 566.5" stroke="#274867" stroke-width="2"/>
<path d="M1322.8 547.998L1285.5 536L1212.5 547.5" stroke="#274867" stroke-width="2"/>
<path d="M921.004 609.001L889 595L788.501 610.001" stroke="#274867" stroke-width="2"/>
<path d="M744.5 85.0007L779 89.5011L776.5 297.001" stroke="#274867" stroke-width="2"/>
<path d="M899.5 78.2281L934 82.5969L931.5 284.031" stroke="#274867" stroke-width="2"/>
<path d="M1048.5 71.4323L1083 75.6707L1076.5 270.5" stroke="#274867" stroke-width="2"/>
<path d="M1184.5 66.1024L1222 70.4999L1212.5 259.522" stroke="#274867" stroke-width="2"/>
<path d="M765.5 84.0011L796.499 88.9996L794.499 295" stroke="#274867" stroke-width="2" stroke-linecap="round"/>
<path d="M920.5 77.2563L951.499 82.1086L949.499 282.087" stroke="#274867" stroke-width="2" stroke-linecap="round"/>
<path d="M1069.5 70.4943L1100.5 75.1957L1092.5 269.5" stroke="#274867" stroke-width="2" stroke-linecap="round"/>
<path d="M1206.5 64.5016L1236.5 69.7587L1229 257.501" stroke="#274867" stroke-width="2" stroke-linecap="round"/>
<path d="M1354 83.0703L1343.5 229.5" stroke="#274867" stroke-width="2"/>
<path d="M1314 85.0686L1305.5 222.998L1343 228.5" stroke="#274867" stroke-width="2"/>
<path d="M1184 96.0686L1178 233.5L1213 239.5" stroke="#274867" stroke-width="2"/>
<path d="M1046.5 98.0009L1042 244.501L1077 250.501" stroke="#274867" stroke-width="2"/>
<path d="M901.499 105.001L897.002 256.502L932.002 262.502" stroke="#274867" stroke-width="2"/>
<path d="M747 112.999L743 269.501L776.998 276.501" stroke="#274867" stroke-width="2"/>
<path d="M1230.92 228.004L1305.5 223" stroke="#274867" stroke-width="2"/>
<path d="M1094 240L1178 233.5" stroke="#274867" stroke-width="2"/>
<path d="M950 251.5L1042 244.5" stroke="#274867" stroke-width="2"/>
<path d="M795.5 264.5L896.999 256.501" stroke="#274867" stroke-width="2"/>
<path d="M68.5 322L742.998 269.502" stroke="#274867" stroke-width="2"/>
<path d="M76.9999 522.503L1296.5 381.504L1334.5 391" stroke="#274867" stroke-width="2"/>
<path d="M611 119V97.5L575.5 92" stroke="#274867" stroke-width="2"/>
<path d="M433 127V105.5L397.5 100" stroke="#274867" stroke-width="2"/>
<path d="M242 137V113.5L206.5 108" stroke="#274867" stroke-width="2"/>
<path d="M247.5 343V321L225.5 309.5" stroke="#274867" stroke-width="2"/>
<path d="M444 883V863.5L420 843" stroke="#274867" stroke-width="2"/>
<path d="M610 852.5V833L586 812.5" stroke="#274867" stroke-width="2"/>
<path d="M768 823.5V804L739 785" stroke="#274867" stroke-width="2"/>
<path d="M1056 766V750L1023.5 733" stroke="#274867" stroke-width="2"/>
<path d="M437 327V305L411.5 295.5" stroke="#274867" stroke-width="2"/>
<path d="M611.5 311V291L586 281.5" stroke="#274867" stroke-width="2"/>
<path d="M631 118V96.5L597.5 91" stroke="#274867" stroke-width="2"/>
<path d="M453 126V104.5L419.5 99" stroke="#274867" stroke-width="2"/>
<path d="M262 135.5V112.5L228.5 107" stroke="#274867" stroke-width="2"/>
<path d="M267.5 341.5V318.5L247 308" stroke="#274867" stroke-width="2"/>
<path d="M463 878.5L463.5 860L439 839.5" stroke="#274867" stroke-width="2"/>
<path d="M629 848L629.5 829.5L605 809" stroke="#274867" stroke-width="2"/>
<path d="M787 819L787.5 800.5L756.5 782" stroke="#274867" stroke-width="2"/>
<path d="M1071 763V747L1038 730.5" stroke="#274867" stroke-width="2"/>
<path d="M457 325.5V302.5L431 294" stroke="#274867" stroke-width="2"/>
<path d="M631.5 309.5V288.5L605.5 280" stroke="#274867" stroke-width="2"/>
<line x1="1343" y1="248.063" x2="1334" y2="391.063" stroke="#274867" stroke-width="2"/>
<path d="M1332 410.063L1323.5 549" stroke="#274867" stroke-width="2"/>
<path d="M1322 565.498L1313.5 701" stroke="#274867" stroke-width="2"/>
<path d="M1304 252.061L1296 381.5" stroke="#274867" stroke-width="2"/>
<path d="M231.999 504.5L253.5 517.5L264.5 916" stroke="#274867" stroke-width="2"/>
<path d="M415.999 483.5L437.5 496.5L441.5 703" stroke="#274867" stroke-width="2"/>
<path d="M585.999 463.935L611 475.5L611.5 677.001" stroke="#274867" stroke-width="2"/>
<path d="M745.997 445.001L771.999 457.043L771.999 652" stroke="#274867" stroke-width="2"/>
<path d="M1042.5 411.001L1067.49 422.583L1062.5 606" stroke="#274867" stroke-width="2"/>
<path d="M897.493 427.54L923.495 439.582L916 792.5" stroke="#274867" stroke-width="2"/>
<path d="M1169.5 396.503L1205 406.001L1188.5 740.5" stroke="#274867" stroke-width="2"/>
<path d="M252.501 502.001L275 515L285.771 912.602" stroke="#274867" stroke-width="2"/>
<path d="M436.501 481.001L459 494L461 700" stroke="#274867" stroke-width="2"/>
<path d="M601.999 462.004L629.999 473.502L631 674.09" stroke="#274867" stroke-width="2"/>
<path d="M761.999 443.503L790.999 455.07L788.5 649.5" stroke="#274867" stroke-width="2"/>
<path d="M1057.49 409.042L1086.5 420.609L1078.5 603.5" stroke="#274867" stroke-width="2"/>
<path d="M913.495 426.042L942.496 437.609L932 789.5" stroke="#274867" stroke-width="2"/>
<path d="M1186 394.498L1220 404.497L1202.5 737.499" stroke="#274867" stroke-width="2"/>
<path d="M271 842.5L931 725.5" stroke="#274867" stroke-width="2"/>
<path d="M41.5 77L793.5 49" stroke="#274867" stroke-width="2"/>
<path d="M61 484L1345.5 345.5" stroke="#274867" stroke-width="2"/>
<path d="M930.003 712.997L906.003 743.499" stroke="#274867" stroke-width="2"/>
<path d="M1348.74 331.001L1324.74 361.503" stroke="#274867" stroke-width="2"/>
<path d="M296.737 825.001L272.738 855.503" stroke="#274867" stroke-width="2"/>
<path d="M66.7374 61.501L42.7376 92.0033" stroke="#274867" stroke-width="2"/>
<path d="M790.964 34.001L766.964 64.5033" stroke="#274867" stroke-width="2"/>
<path d="M963.886 24.001L939.886 54.5033" stroke="#274867" stroke-width="2"/>
<path d="M1095.74 17.001L1071.74 47.5033" stroke="#274867" stroke-width="2"/>
<path d="M983.81 35.8359L945 36.3229" stroke="#274867" stroke-width="2"/>
<path d="M1093.81 31.8359L1055 32.3229" stroke="#274867" stroke-width="2"/>
<path d="M55.5 66L59.5011 141.504" stroke="#274867" stroke-width="2"/>
<path d="M779.725 38.5019L778.999 89.5033" stroke="#274867" stroke-width="2"/>
<path d="M952.649 28.5004L951.503 86.4996" stroke="#274867" stroke-width="2"/>
<path d="M1085.31 23.9985L1083 79.4989" stroke="#274867" stroke-width="2"/>
<path d="M86.7374 466.501L62.7376 497.003" stroke="#274867" stroke-width="2"/>
<path d="M293.76 903.237L298.145 894.25L285.169 893.541L293.76 903.237Z" fill="#274867"/>
<path d="M295.23 898.457L408 949.5L448.5 949.5" stroke="#274867" stroke-width="2"/>
<path d="M932.063 784.291L941.73 781.734L933.785 771.451L932.063 784.291Z" fill="#274867"/>
<path d="M936.641 782.281L968.5 897L1005 897" stroke="#274867" stroke-width="2"/>
<path d="M1039.48 905.098H1042.71C1041.73 909.416 1038.43 912.442 1033.09 912.442C1025.85 912.442 1021.87 907.07 1021.87 899.862C1021.87 892.654 1025.92 887.282 1033.12 887.282C1038.05 887.282 1041.45 889.9 1042.44 894.082H1039.21C1038.29 891.498 1036.49 890.07 1033.12 890.07C1027.48 890.07 1024.96 894.728 1024.96 899.862C1024.96 905.03 1027.45 909.654 1033.09 909.654C1036.49 909.654 1038.7 907.92 1039.48 905.098ZM1062.05 902.412V903.398H1048.99C1049.1 907.478 1050.93 909.926 1054.47 909.926C1056.88 909.926 1058.31 908.906 1058.82 907.274H1061.74C1061.2 910.198 1058.72 912.442 1054.47 912.442C1049.13 912.442 1046.14 908.532 1046.14 903.262C1046.14 897.992 1049.2 894.422 1054.4 894.422C1059.5 894.422 1061.95 898.196 1062.05 902.412ZM1054.33 896.938C1051.24 896.938 1049.54 898.808 1049.16 900.984H1059.06C1058.89 898.808 1057.22 896.938 1054.33 896.938ZM1066.55 887.282H1069.44V912H1066.55V887.282ZM1075.02 887.282H1077.91V912H1075.02V887.282ZM1103.86 912V910.198H1103.11C1102.06 911.524 1100.22 912.442 1097.77 912.442C1093.83 912.442 1091.62 909.79 1091.62 906.866C1091.62 904.112 1093.42 901.188 1098.18 901.188H1103.76V900.508C1103.76 898.434 1102.57 896.938 1099.58 896.938C1097.03 896.938 1095.73 897.924 1095.6 899.42H1092.71C1092.95 896.258 1095.67 894.422 1099.51 894.422C1103.83 894.422 1106.58 896.496 1106.58 900.338V912H1103.86ZM1098.49 909.926C1101.34 909.926 1103.76 907.784 1103.76 905.064V903.5H1098.62C1095.8 903.5 1094.51 904.724 1094.51 906.764C1094.51 908.702 1095.94 909.926 1098.49 909.926ZM1124.32 887.282H1127.21V912H1124.42V910.164H1123.67C1122.72 911.354 1121.05 912.442 1118.33 912.442C1113.61 912.442 1110.82 908.498 1110.82 903.432C1110.82 898.264 1113.61 894.422 1118.33 894.422C1121.05 894.422 1122.62 895.476 1123.57 896.7H1124.32V887.282ZM1118.98 909.926C1122.79 909.926 1124.35 906.798 1124.35 903.432C1124.35 900.066 1122.79 896.938 1118.98 896.938C1115.54 896.938 1113.71 899.624 1113.71 903.432C1113.71 907.24 1115.54 909.926 1118.98 909.926ZM1145.23 887.282H1148.12V912H1145.34V910.164H1144.59C1143.64 911.354 1141.97 912.442 1139.25 912.442C1134.52 912.442 1131.74 908.498 1131.74 903.432C1131.74 898.264 1134.52 894.422 1139.25 894.422C1141.97 894.422 1143.53 895.476 1144.49 896.7H1145.23V887.282ZM1139.9 909.926C1143.7 909.926 1145.27 906.798 1145.27 903.432C1145.27 900.066 1143.7 896.938 1139.9 896.938C1136.46 896.938 1134.63 899.624 1134.63 903.432C1134.63 907.24 1136.46 909.926 1139.9 909.926ZM1163.5 894.864V897.584H1162.07C1158.67 897.584 1156.6 899.658 1156.6 903.432V912H1153.71V894.864H1156.5V896.904H1157.24C1158.09 895.85 1159.73 894.864 1162.21 894.864H1163.5ZM1182.15 902.412V903.398H1169.09C1169.19 907.478 1171.03 909.926 1174.56 909.926C1176.98 909.926 1178.41 908.906 1178.92 907.274H1181.84C1181.3 910.198 1178.81 912.442 1174.56 912.442C1169.23 912.442 1166.23 908.532 1166.23 903.262C1166.23 897.992 1169.29 894.422 1174.5 894.422C1179.6 894.422 1182.04 898.196 1182.15 902.412ZM1174.43 896.938C1171.33 896.938 1169.63 898.808 1169.26 900.984H1179.15C1178.98 898.808 1177.32 896.938 1174.43 896.938ZM1191.41 901.324L1193.04 901.596L1194.98 901.902C1197.97 902.412 1199.87 903.942 1199.87 907.07C1199.87 909.892 1197.46 912.442 1192.83 912.442C1187.97 912.442 1185.59 910.3 1185.22 907.036H1188.14C1188.41 908.974 1190.11 909.926 1192.7 909.926C1195.28 909.926 1196.98 909.008 1196.98 907.138C1196.98 905.642 1196.03 904.826 1193.85 904.452L1190.01 903.806C1187.56 903.364 1185.9 902.072 1185.9 899.488C1185.9 896.632 1188.04 894.422 1192.66 894.422C1196.71 894.422 1199.06 896.326 1199.43 899.318H1196.54C1196.3 897.686 1194.67 896.938 1192.53 896.938C1190.32 896.938 1188.82 897.754 1188.82 899.216C1188.82 900.542 1189.67 901.052 1191.41 901.324ZM1208.87 901.324L1210.5 901.596L1212.44 901.902C1215.43 902.412 1217.34 903.942 1217.34 907.07C1217.34 909.892 1214.92 912.442 1210.3 912.442C1205.44 912.442 1203.06 910.3 1202.68 907.036H1205.61C1205.88 908.974 1207.58 909.926 1210.16 909.926C1212.75 909.926 1214.45 909.008 1214.45 907.138C1214.45 905.642 1213.49 904.826 1211.32 904.452L1207.48 903.806C1205.03 903.364 1203.36 902.072 1203.36 899.488C1203.36 896.632 1205.5 894.422 1210.13 894.422C1214.17 894.422 1216.52 896.326 1216.89 899.318H1214C1213.77 897.686 1212.13 896.938 1209.99 896.938C1207.78 896.938 1206.29 897.754 1206.29 899.216C1206.29 900.542 1207.14 901.052 1208.87 901.324ZM1238.86 887.724C1243.89 887.724 1247.63 891.532 1247.63 900.1C1247.63 908.668 1243.89 912.442 1238.86 912.442C1233.83 912.442 1230.12 908.668 1230.12 900.1C1230.12 891.532 1233.83 887.724 1238.86 887.724ZM1238.86 909.79C1242.84 909.79 1244.64 905.982 1244.64 900.1C1244.64 894.184 1242.84 890.376 1238.86 890.376C1234.91 890.376 1233.11 894.184 1233.11 900.1C1233.11 905.982 1234.91 909.79 1238.86 909.79ZM1263.48 912L1259.23 904.826H1258.01L1253.65 912H1250.49L1255.83 903.228L1251.04 894.864H1254.1L1258.04 901.664H1259.26L1263.28 894.864H1266.3L1261.44 903.126L1266.74 912H1263.48ZM1270.68 888.2H1284.59V891.532L1278.64 896.632V897.346C1282.72 897.448 1285.71 899.998 1285.71 904.588C1285.71 909.518 1282.17 912.442 1277.31 912.442C1272.48 912.442 1269.25 909.382 1268.98 905.336H1271.97C1272.24 908.056 1274.45 909.79 1277.31 909.79C1280.57 909.79 1282.72 907.852 1282.72 904.588C1282.72 901.46 1280.85 899.522 1277.34 899.522C1276.49 899.522 1275.81 899.59 1275.27 899.726V896.564L1281.08 891.532V890.784H1270.68V888.2ZM1297.96 887.724C1302.99 887.724 1306.73 891.532 1306.73 900.1C1306.73 908.668 1302.99 912.442 1297.96 912.442C1292.93 912.442 1289.22 908.668 1289.22 900.1C1289.22 891.532 1292.93 887.724 1297.96 887.724ZM1297.96 909.79C1301.94 909.79 1303.74 905.982 1303.74 900.1C1303.74 894.184 1301.94 890.376 1297.96 890.376C1294.02 890.376 1292.21 894.184 1292.21 900.1C1292.21 905.982 1294.02 909.79 1297.96 909.79ZM1317.68 903.67C1313.33 903.67 1310.06 900.44 1310.06 895.918C1310.06 891.396 1313.09 887.724 1318.16 887.724C1323.22 887.724 1326.89 890.852 1326.89 899.42C1326.89 906.662 1324.07 912.442 1317.85 912.442C1313.8 912.442 1311.25 910.028 1310.71 906.764H1313.67C1314.25 908.77 1315.54 909.79 1317.85 909.79C1321.66 909.79 1323.83 906.56 1324 901.358H1323.26C1322.44 902.344 1320.54 903.67 1317.68 903.67ZM1318.19 890.376C1315.3 890.376 1313.06 892.246 1313.06 895.782C1313.06 899.318 1315.37 901.052 1318.26 901.052C1321.11 901.052 1323.43 899.216 1323.43 895.816C1323.43 892.348 1321.08 890.376 1318.19 890.376ZM1331.44 888.2H1345.35V891.532L1339.4 896.632V897.346C1343.48 897.448 1346.47 899.998 1346.47 904.588C1346.47 909.518 1342.93 912.442 1338.07 912.442C1333.24 912.442 1330.01 909.382 1329.74 905.336H1332.73C1333.01 908.056 1335.22 909.79 1338.07 909.79C1341.34 909.79 1343.48 907.852 1343.48 904.588C1343.48 901.46 1341.61 899.522 1338.11 899.522C1337.26 899.522 1336.58 899.59 1336.03 899.726V896.564L1341.85 891.532V890.784H1331.44V888.2ZM1362.5 906.832H1365.39C1364.74 910.198 1362.16 912.442 1358.18 912.442C1352.84 912.442 1349.85 908.498 1349.85 903.432C1349.85 898.264 1352.84 894.422 1358.18 894.422C1362.26 894.422 1364.71 896.666 1365.28 899.828H1362.39C1361.85 898.094 1360.52 896.938 1358.18 896.938C1354.3 896.938 1352.74 899.964 1352.74 903.364C1352.74 906.798 1354.34 909.926 1358.18 909.926C1360.63 909.926 1362.05 908.736 1362.5 906.832ZM1384.55 902.412V903.398H1371.5C1371.6 907.478 1373.43 909.926 1376.97 909.926C1379.38 909.926 1380.81 908.906 1381.32 907.274H1384.25C1383.7 910.198 1381.22 912.442 1376.97 912.442C1371.63 912.442 1368.64 908.532 1368.64 903.262C1368.64 897.992 1371.7 894.422 1376.9 894.422C1382 894.422 1384.45 898.196 1384.55 902.412ZM1376.83 896.938C1373.74 896.938 1372.04 898.808 1371.67 900.984H1381.56C1381.39 898.808 1379.72 896.938 1376.83 896.938ZM1399.97 912V910.198H1399.22C1398.16 911.524 1396.33 912.442 1393.88 912.442C1389.94 912.442 1387.73 909.79 1387.73 906.866C1387.73 904.112 1389.53 901.188 1394.29 901.188H1399.86V900.508C1399.86 898.434 1398.67 896.938 1395.68 896.938C1393.13 896.938 1391.84 897.924 1391.7 899.42H1388.81C1389.05 896.258 1391.77 894.422 1395.61 894.422C1399.93 894.422 1402.69 896.496 1402.69 900.338V912H1399.97ZM1394.59 909.926C1397.45 909.926 1399.86 907.784 1399.86 905.064V903.5H1394.73C1391.91 903.5 1390.62 904.724 1390.62 906.764C1390.62 908.702 1392.04 909.926 1394.59 909.926ZM1414.27 903.67C1409.92 903.67 1406.65 900.44 1406.65 895.918C1406.65 891.396 1409.68 887.724 1414.74 887.724C1419.81 887.724 1423.48 890.852 1423.48 899.42C1423.48 906.662 1420.66 912.442 1414.44 912.442C1410.39 912.442 1407.84 910.028 1407.3 906.764H1410.26C1410.83 908.77 1412.13 909.79 1414.44 909.79C1418.25 909.79 1420.42 906.56 1420.59 901.358H1419.84C1419.03 902.344 1417.12 903.67 1414.27 903.67ZM1414.78 890.376C1411.89 890.376 1409.64 892.246 1409.64 895.782C1409.64 899.318 1411.96 901.052 1414.85 901.052C1417.7 901.052 1420.01 899.216 1420.01 895.816C1420.01 892.348 1417.67 890.376 1414.78 890.376ZM1440.61 899.08V899.828C1442.17 900.372 1444.32 902.344 1444.32 905.506C1444.32 909.45 1440.95 912.442 1435.71 912.442C1430.48 912.442 1427.11 909.45 1427.11 905.506C1427.11 902.378 1429.22 900.372 1430.82 899.828V899.08C1429.56 898.536 1427.83 896.802 1427.83 894.082C1427.83 890.308 1431.09 887.724 1435.71 887.724C1440.34 887.724 1443.6 890.308 1443.6 894.082C1443.6 896.734 1441.83 898.536 1440.61 899.08ZM1435.71 890.308C1432.99 890.308 1430.75 891.668 1430.75 894.218C1430.75 896.768 1432.99 898.162 1435.71 898.162C1438.43 898.162 1440.68 896.768 1440.68 894.218C1440.68 891.668 1438.43 890.308 1435.71 890.308ZM1435.71 909.79C1439.22 909.79 1441.36 907.988 1441.36 905.234C1441.36 902.412 1439.22 900.746 1435.71 900.746C1432.21 900.746 1430.07 902.412 1430.07 905.234C1430.07 907.988 1432.21 909.79 1435.71 909.79Z" fill="#274867"/>
<path d="M482.482 956.098H485.712C484.726 960.416 481.428 963.442 476.09 963.442C468.848 963.442 464.87 958.07 464.87 950.862C464.87 943.654 468.916 938.282 476.124 938.282C481.054 938.282 484.454 940.9 485.44 945.082H482.21C481.292 942.498 479.49 941.07 476.124 941.07C470.48 941.07 467.964 945.728 467.964 950.862C467.964 956.03 470.446 960.654 476.09 960.654C479.49 960.654 481.7 958.92 482.482 956.098ZM505.05 953.412V954.398H491.994C492.096 958.478 493.932 960.926 497.468 960.926C499.882 960.926 501.31 959.906 501.82 958.274H504.744C504.2 961.198 501.718 963.442 497.468 963.442C492.13 963.442 489.138 959.532 489.138 954.262C489.138 948.992 492.198 945.422 497.4 945.422C502.5 945.422 504.948 949.196 505.05 953.412ZM497.332 947.938C494.238 947.938 492.538 949.808 492.164 951.984H502.058C501.888 949.808 500.222 947.938 497.332 947.938ZM509.55 938.282H512.44V963H509.55V938.282ZM518.017 938.282H520.907V963H518.017V938.282ZM546.86 963V961.198H546.112C545.058 962.524 543.222 963.442 540.774 963.442C536.83 963.442 534.62 960.79 534.62 957.866C534.62 955.112 536.422 952.188 541.182 952.188H546.758V951.508C546.758 949.434 545.568 947.938 542.576 947.938C540.026 947.938 538.734 948.924 538.598 950.42H535.708C535.946 947.258 538.666 945.422 542.508 945.422C546.826 945.422 549.58 947.496 549.58 951.338V963H546.86ZM541.488 960.926C544.344 960.926 546.758 958.784 546.758 956.064V954.5H541.624C538.802 954.5 537.51 955.724 537.51 957.764C537.51 959.702 538.938 960.926 541.488 960.926ZM567.316 938.282H570.206V963H567.418V961.164H566.67C565.718 962.354 564.052 963.442 561.332 963.442C556.606 963.442 553.818 959.498 553.818 954.432C553.818 949.264 556.606 945.422 561.332 945.422C564.052 945.422 565.616 946.476 566.568 947.7H567.316V938.282ZM561.978 960.926C565.786 960.926 567.35 957.798 567.35 954.432C567.35 951.066 565.786 947.938 561.978 947.938C558.544 947.938 556.708 950.624 556.708 954.432C556.708 958.24 558.544 960.926 561.978 960.926ZM588.234 938.282H591.124V963H588.336V961.164H587.588C586.636 962.354 584.97 963.442 582.25 963.442C577.524 963.442 574.736 959.498 574.736 954.432C574.736 949.264 577.524 945.422 582.25 945.422C584.97 945.422 586.534 946.476 587.486 947.7H588.234V938.282ZM582.896 960.926C586.704 960.926 588.268 957.798 588.268 954.432C588.268 951.066 586.704 947.938 582.896 947.938C579.462 947.938 577.626 950.624 577.626 954.432C577.626 958.24 579.462 960.926 582.896 960.926ZM606.5 945.864V948.584H605.072C601.672 948.584 599.598 950.658 599.598 954.432V963H596.708V945.864H599.496V947.904H600.244C601.094 946.85 602.726 945.864 605.208 945.864H606.5ZM625.146 953.412V954.398H612.09C612.192 958.478 614.028 960.926 617.564 960.926C619.978 960.926 621.406 959.906 621.916 958.274H624.84C624.296 961.198 621.814 963.442 617.564 963.442C612.226 963.442 609.234 959.532 609.234 954.262C609.234 948.992 612.294 945.422 617.496 945.422C622.596 945.422 625.044 949.196 625.146 953.412ZM617.428 947.938C614.334 947.938 612.634 949.808 612.26 951.984H622.154C621.984 949.808 620.318 947.938 617.428 947.938ZM634.405 952.324L636.037 952.596L637.975 952.902C640.967 953.412 642.871 954.942 642.871 958.07C642.871 960.892 640.457 963.442 635.833 963.442C630.971 963.442 628.591 961.3 628.217 958.036H631.141C631.413 959.974 633.113 960.926 635.697 960.926C638.281 960.926 639.981 960.008 639.981 958.138C639.981 956.642 639.029 955.826 636.853 955.452L633.011 954.806C630.563 954.364 628.897 953.072 628.897 950.488C628.897 947.632 631.039 945.422 635.663 945.422C639.709 945.422 642.055 947.326 642.429 950.318H639.539C639.301 948.686 637.669 947.938 635.527 947.938C633.317 947.938 631.821 948.754 631.821 950.216C631.821 951.542 632.671 952.052 634.405 952.324ZM651.87 952.324L653.502 952.596L655.44 952.902C658.432 953.412 660.336 954.942 660.336 958.07C660.336 960.892 657.922 963.442 653.298 963.442C648.436 963.442 646.056 961.3 645.682 958.036H648.606C648.878 959.974 650.578 960.926 653.162 960.926C655.746 960.926 657.446 960.008 657.446 958.138C657.446 956.642 656.494 955.826 654.318 955.452L650.476 954.806C648.028 954.364 646.362 953.072 646.362 950.488C646.362 947.632 648.504 945.422 653.128 945.422C657.174 945.422 659.52 947.326 659.894 950.318H657.004C656.766 948.686 655.134 947.938 652.992 947.938C650.782 947.938 649.286 948.754 649.286 950.216C649.286 951.542 650.136 952.052 651.87 952.324ZM681.858 938.724C686.89 938.724 690.63 942.532 690.63 951.1C690.63 959.668 686.89 963.442 681.858 963.442C676.826 963.442 673.12 959.668 673.12 951.1C673.12 942.532 676.826 938.724 681.858 938.724ZM681.858 960.79C685.836 960.79 687.638 956.982 687.638 951.1C687.638 945.184 685.836 941.376 681.858 941.376C677.914 941.376 676.112 945.184 676.112 951.1C676.112 956.982 677.914 960.79 681.858 960.79ZM706.48 963L702.23 955.826H701.006L696.654 963H693.492L698.83 954.228L694.036 945.864H697.096L701.04 952.664H702.264L706.276 945.864H709.302L704.44 954.126L709.744 963H706.48ZM713.68 939.2H727.586V942.532L721.636 947.632V948.346C725.716 948.448 728.708 950.998 728.708 955.588C728.708 960.518 725.172 963.442 720.31 963.442C715.482 963.442 712.252 960.382 711.98 956.336H714.972C715.244 959.056 717.454 960.79 720.31 960.79C723.574 960.79 725.716 958.852 725.716 955.588C725.716 952.46 723.846 950.522 720.344 950.522C719.494 950.522 718.814 950.59 718.27 950.726V947.564L724.084 942.532V941.784H713.68V939.2ZM740.96 938.724C745.992 938.724 749.732 942.532 749.732 951.1C749.732 959.668 745.992 963.442 740.96 963.442C735.928 963.442 732.222 959.668 732.222 951.1C732.222 942.532 735.928 938.724 740.96 938.724ZM740.96 960.79C744.938 960.79 746.74 956.982 746.74 951.1C746.74 945.184 744.938 941.376 740.96 941.376C737.016 941.376 735.214 945.184 735.214 951.1C735.214 956.982 737.016 960.79 740.96 960.79ZM766.868 950.08V950.828C768.432 951.372 770.574 953.344 770.574 956.506C770.574 960.45 767.208 963.442 761.972 963.442C756.736 963.442 753.37 960.45 753.37 956.506C753.37 953.378 755.478 951.372 757.076 950.828V950.08C755.818 949.536 754.084 947.802 754.084 945.082C754.084 941.308 757.348 938.724 761.972 938.724C766.596 938.724 769.86 941.308 769.86 945.082C769.86 947.734 768.092 949.536 766.868 950.08ZM761.972 941.308C759.252 941.308 757.008 942.668 757.008 945.218C757.008 947.768 759.252 949.162 761.972 949.162C764.692 949.162 766.936 947.768 766.936 945.218C766.936 942.668 764.692 941.308 761.972 941.308ZM761.972 960.79C765.474 960.79 767.616 958.988 767.616 956.234C767.616 953.412 765.474 951.746 761.972 951.746C758.47 951.746 756.328 953.412 756.328 956.234C756.328 958.988 758.47 960.79 761.972 960.79ZM781.465 954.67C777.113 954.67 773.849 951.44 773.849 946.918C773.849 942.396 776.875 938.724 781.941 938.724C787.007 938.724 790.679 941.852 790.679 950.42C790.679 957.662 787.857 963.442 781.635 963.442C777.589 963.442 775.039 961.028 774.495 957.764H777.453C778.031 959.77 779.323 960.79 781.635 960.79C785.443 960.79 787.619 957.56 787.789 952.358H787.041C786.225 953.344 784.321 954.67 781.465 954.67ZM781.975 941.376C779.085 941.376 776.841 943.246 776.841 946.782C776.841 950.318 779.153 952.052 782.043 952.052C784.899 952.052 787.211 950.216 787.211 946.816C787.211 943.348 784.865 941.376 781.975 941.376ZM795.227 939.2H809.133V942.532L803.183 947.632V948.346C807.263 948.448 810.255 950.998 810.255 955.588C810.255 960.518 806.719 963.442 801.857 963.442C797.029 963.442 793.799 960.382 793.527 956.336H796.519C796.791 959.056 799.001 960.79 801.857 960.79C805.121 960.79 807.263 958.852 807.263 955.588C807.263 952.46 805.393 950.522 801.891 950.522C801.041 950.522 800.361 950.59 799.817 950.726V947.564L805.631 942.532V941.784H795.227V939.2ZM827.13 938.282H830.02V963H827.232V961.164H826.484C825.532 962.354 823.866 963.442 821.146 963.442C816.42 963.442 813.632 959.498 813.632 954.432C813.632 949.264 816.42 945.422 821.146 945.422C823.866 945.422 825.43 946.476 826.382 947.7H827.13V938.282ZM821.792 960.926C825.6 960.926 827.164 957.798 827.164 954.432C827.164 951.066 825.6 947.938 821.792 947.938C818.358 947.938 816.522 950.624 816.522 954.432C816.522 958.24 818.358 960.926 821.792 960.926ZM846.518 963V961.198H845.77C844.716 962.524 842.88 963.442 840.432 963.442C836.488 963.442 834.278 960.79 834.278 957.866C834.278 955.112 836.08 952.188 840.84 952.188H846.416V951.508C846.416 949.434 845.226 947.938 842.234 947.938C839.684 947.938 838.392 948.924 838.256 950.42H835.366C835.604 947.258 838.324 945.422 842.166 945.422C846.484 945.422 849.238 947.496 849.238 951.338V963H846.518ZM841.146 960.926C844.002 960.926 846.416 958.784 846.416 956.064V954.5H841.282C838.46 954.5 837.168 955.724 837.168 957.764C837.168 959.702 838.596 960.926 841.146 960.926ZM860.82 954.67C856.468 954.67 853.204 951.44 853.204 946.918C853.204 942.396 856.23 938.724 861.296 938.724C866.362 938.724 870.034 941.852 870.034 950.42C870.034 957.662 867.212 963.442 860.99 963.442C856.944 963.442 854.394 961.028 853.85 957.764H856.808C857.386 959.77 858.678 960.79 860.99 960.79C864.798 960.79 866.974 957.56 867.144 952.358H866.396C865.58 953.344 863.676 954.67 860.82 954.67ZM861.33 941.376C858.44 941.376 856.196 943.246 856.196 946.782C856.196 950.318 858.508 952.052 861.398 952.052C864.254 952.052 866.566 950.216 866.566 946.816C866.566 943.348 864.22 941.376 861.33 941.376ZM887.91 954.772H891.174V957.424H887.91V963H884.986V957.424H873.222V954.024L883.728 939.2H887.91V954.772ZM876.35 954.772H885.02V942.566H884.272L876.35 954.024V954.772Z" fill="#274867"/>
<path d="M761.54 706V701.32H771.5V669.52H770.3L761.48 675.46V669.94L770.24 664H776.78V701.32H785.96V706H761.54ZM806.954 663.16C815.834 663.16 822.434 669.88 822.434 685C822.434 700.12 815.834 706.78 806.954 706.78C798.074 706.78 791.534 700.12 791.534 685C791.534 669.88 798.074 663.16 806.954 663.16ZM806.954 702.1C813.974 702.1 817.154 695.38 817.154 685C817.154 674.56 813.974 667.84 806.954 667.84C799.994 667.84 796.814 674.56 796.814 685C796.814 695.38 799.994 702.1 806.954 702.1ZM844.454 663.16C853.334 663.16 859.934 669.88 859.934 685C859.934 700.12 853.334 706.78 844.454 706.78C835.574 706.78 829.034 700.12 829.034 685C829.034 669.88 835.574 663.16 844.454 663.16ZM844.454 702.1C851.474 702.1 854.654 695.38 854.654 685C854.654 674.56 851.474 667.84 844.454 667.84C837.494 667.84 834.314 674.56 834.314 685C834.314 695.38 837.494 702.1 844.454 702.1Z" fill="#274867"/>
<path d="M997.74 312H1022.28V317.88L1011.78 326.88V328.14C1018.98 328.32 1024.26 332.82 1024.26 340.92C1024.26 349.62 1018.02 354.78 1009.44 354.78C1000.92 354.78 995.22 349.38 994.74 342.24H1000.02C1000.5 347.04 1004.4 350.1 1009.44 350.1C1015.2 350.1 1018.98 346.68 1018.98 340.92C1018.98 335.4 1015.68 331.98 1009.5 331.98C1008 331.98 1006.8 332.1 1005.84 332.34V326.76L1016.1 317.88V316.56H997.74V312ZM1037.14 354H1030.9V347.04H1037.14V354ZM1045.29 354V349.32H1055.25V317.52H1054.05L1045.23 323.46V317.94L1053.99 312H1060.53V349.32H1069.71V354H1045.29ZM1100.24 339.48H1106V344.16H1100.24V354H1095.08V344.16H1074.32V338.16L1092.86 312H1100.24V339.48ZM1079.84 339.48H1095.14V317.94H1093.82L1079.84 338.16V339.48Z" fill="#274867"/>
<path d="M998.38 199.88H1003.48C1002.34 205.82 997.78 209.78 990.76 209.78C981.34 209.78 976.06 202.82 976.06 193.88C976.06 184.76 981.34 177.98 990.76 177.98C997.96 177.98 1002.28 181.94 1003.3 187.52H998.2C997.24 184.46 994.9 182.42 990.76 182.42C983.92 182.42 981.16 187.76 981.16 193.76C981.16 199.82 983.98 205.34 990.76 205.34C995.08 205.34 997.6 203.24 998.38 199.88Z" fill="#274867"/>
<path d="M295.84 204.02C306.2 204.02 313.9 211.86 313.9 229.5C313.9 247.14 306.2 254.91 295.84 254.91C285.48 254.91 277.85 247.14 277.85 229.5C277.85 211.86 285.48 204.02 295.84 204.02ZM295.84 249.45C304.03 249.45 307.74 241.61 307.74 229.5C307.74 217.32 304.03 209.48 295.84 209.48C287.72 209.48 284.01 217.32 284.01 229.5C284.01 241.61 287.72 249.45 295.84 249.45ZM336.44 236.85C327.48 236.85 320.76 230.2 320.76 220.89C320.76 211.58 326.99 204.02 337.42 204.02C347.85 204.02 355.41 210.46 355.41 228.1C355.41 243.01 349.6 254.91 336.79 254.91C328.46 254.91 323.21 249.94 322.09 243.22H328.18C329.37 247.35 332.03 249.45 336.79 249.45C344.63 249.45 349.11 242.8 349.46 232.09H347.92C346.24 234.12 342.32 236.85 336.44 236.85ZM337.49 209.48C331.54 209.48 326.92 213.33 326.92 220.61C326.92 227.89 331.68 231.46 337.63 231.46C343.51 231.46 348.27 227.68 348.27 220.68C348.27 213.54 343.44 209.48 337.49 209.48ZM381.084 204.02C391.444 204.02 399.144 211.86 399.144 229.5C399.144 247.14 391.444 254.91 381.084 254.91C370.724 254.91 363.094 247.14 363.094 229.5C363.094 211.86 370.724 204.02 381.084 204.02ZM381.084 249.45C389.274 249.45 392.984 241.61 392.984 229.5C392.984 217.32 389.274 209.48 381.084 209.48C372.964 209.48 369.254 217.32 369.254 229.5C369.254 241.61 372.964 249.45 381.084 249.45ZM425.184 221.03C434.984 221.03 440.934 228.31 440.934 237.41C440.934 248.05 434.074 254.91 424.134 254.91C413.354 254.91 407.614 248.54 407.054 240.28H413.144C413.914 246.37 417.904 249.45 423.854 249.45C430.364 249.45 434.774 244.97 434.774 237.69C434.774 230.97 430.644 226.21 424.064 226.21C419.654 226.21 416.434 227.75 414.334 230.83H408.174L410.344 205H438.344V210.32H415.314L414.194 224.46H415.734C417.974 222.43 420.634 221.03 425.184 221.03ZM454.495 218.51H448.335C448.895 208.71 455.965 204.02 464.645 204.02C473.815 204.02 480.535 209.13 480.535 218.93C480.535 225.58 475.495 231.81 469.685 236.64L457.365 247V248.54H482.075V254H448.405V247.07L455.615 241.19C459.535 238.04 464.155 234.12 466.745 231.74C470.105 228.73 474.375 224.74 474.375 218.93C474.375 212.77 470.455 209.48 464.505 209.48C458.975 209.48 455.125 212.35 454.495 218.51ZM507.207 204.02C517.567 204.02 525.267 211.86 525.267 229.5C525.267 247.14 517.567 254.91 507.207 254.91C496.847 254.91 489.217 247.14 489.217 229.5C489.217 211.86 496.847 204.02 507.207 204.02ZM507.207 249.45C515.397 249.45 519.107 241.61 519.107 229.5C519.107 217.32 515.397 209.48 507.207 209.48C499.087 209.48 495.377 217.32 495.377 229.5C495.377 241.61 499.087 249.45 507.207 249.45ZM538.987 218.51H532.827C533.387 208.71 540.457 204.02 549.137 204.02C558.307 204.02 565.027 209.13 565.027 218.93C565.027 225.58 559.987 231.81 554.177 236.64L541.857 247V248.54H566.567V254H532.897V247.07L540.107 241.19C544.027 238.04 548.647 234.12 551.237 231.74C554.597 228.73 558.867 224.74 558.867 218.93C558.867 212.77 554.947 209.48 548.997 209.48C543.467 209.48 539.617 212.35 538.987 218.51ZM579.729 218.51H573.569C574.129 208.71 581.199 204.02 589.879 204.02C599.049 204.02 605.769 209.13 605.769 218.93C605.769 225.58 600.729 231.81 594.919 236.64L582.599 247V248.54H607.309V254H573.639V247.07L580.849 241.19C584.769 238.04 589.389 234.12 591.979 231.74C595.339 228.73 599.609 224.74 599.609 218.93C599.609 212.77 595.689 209.48 589.739 209.48C584.209 209.48 580.359 212.35 579.729 218.51Z" fill="#274867"/>
<path d="M482.95 571.8H489.3V575.5H482.95V589.35C482.95 591.9 484.05 593.2 487.45 593.2H489.3V597H487.35C481.9 597 478.7 595.3 478.7 589.95V575.5H474.35V571.8H478.7V564.2H482.95V571.8ZM510.689 571.8V575.8H508.589C503.589 575.8 500.539 578.85 500.539 584.4V597H496.289V571.8H500.389V574.8H501.489C502.739 573.25 505.139 571.8 508.789 571.8H510.689ZM515.86 571.8H520.11V586.9C520.11 591.55 522.26 593.85 526.51 593.85C530.96 593.85 534.01 590 534.01 585.45V571.8H538.26V597H534.16V594.3H533.06C531.66 596.25 528.86 597.65 525.46 597.65C519.26 597.65 515.86 593.85 515.86 587.8V571.8ZM568.286 582.9V584.35H549.086C549.236 590.35 551.936 593.95 557.136 593.95C560.686 593.95 562.786 592.45 563.536 590.05H567.836C567.036 594.35 563.386 597.65 557.136 597.65C549.286 597.65 544.886 591.9 544.886 584.15C544.886 576.4 549.386 571.15 557.036 571.15C564.536 571.15 568.136 576.7 568.286 582.9ZM556.936 574.85C552.386 574.85 549.886 577.6 549.336 580.8H563.886C563.636 577.6 561.186 574.85 556.936 574.85Z" fill="#274867"/>
<path d="M411.561 795.619L414.775 795.05L415.237 797.662L412.023 798.23L412.994 803.721L410.115 804.23L409.144 798.74L397.559 800.789L396.967 797.44L404.731 781.013L408.849 780.285L411.561 795.619ZM400.178 797.632L408.715 796.122L406.589 784.103L405.853 784.233L400.048 796.896L400.178 797.632ZM435.466 781.896C440.119 781.073 443.534 784.371 444.434 789.46C445.316 794.448 443.258 798.817 438.604 799.641C435.926 800.114 434.096 799.333 432.951 798.327L432.214 798.457L432.534 800.265L429.789 800.751L425.484 776.411L428.33 775.907L429.97 785.181L430.706 785.051C431.397 783.686 432.787 782.37 435.466 781.896ZM437.53 797.275C440.911 796.677 442.251 793.713 441.588 789.963C440.925 786.213 438.649 783.888 435.268 784.486C431.518 785.149 430.523 788.502 431.109 791.816C431.695 795.131 433.78 797.939 437.53 797.275ZM456.125 802.998L453.245 803.508L455.265 794.622L445.36 780.595L448.407 780.056L455.529 790.259L456.366 790.111L459.087 778.167L462.067 777.64L456.125 802.998ZM469.335 776.354L473.587 775.602L474.025 778.08L469.773 778.832L471.414 788.106C471.716 789.814 472.606 790.554 474.883 790.151L476.122 789.932L476.572 792.477L475.266 792.707C471.616 793.353 469.272 792.594 468.639 789.011L466.927 779.335L464.015 779.85L463.576 777.373L466.489 776.858L465.589 771.769L468.435 771.265L469.335 776.354ZM493.951 779.666L494.123 780.637L481.266 782.911C482.078 786.911 484.312 789.001 487.794 788.385C490.171 787.965 491.399 786.712 491.617 785.016L494.497 784.507C494.47 787.481 492.417 790.123 488.232 790.863C482.976 791.793 479.348 788.464 478.43 783.274C477.513 778.085 479.904 774.036 485.027 773.13C490.049 772.242 493.117 775.532 493.951 779.666ZM485.398 775.62C482.351 776.159 481.003 778.296 481.013 780.504L490.756 778.781C490.21 776.668 488.244 775.116 485.398 775.62ZM502.88 776.982L504.534 776.965L506.496 776.929C509.531 776.91 511.672 778.085 512.217 781.166C512.708 783.944 510.775 786.876 506.222 787.681C501.434 788.528 498.718 786.833 497.781 783.684L500.66 783.175C501.266 785.036 503.106 785.677 505.65 785.227C508.195 784.777 509.709 783.577 509.383 781.736C509.122 780.263 508.043 779.625 505.835 779.636L501.939 779.669C499.452 779.66 497.586 778.678 497.136 776.133C496.639 773.321 498.363 770.772 502.916 769.966C506.9 769.262 509.542 770.728 510.432 773.609L507.586 774.112C507.067 772.547 505.33 772.094 503.221 772.467C501.044 772.852 499.713 773.916 499.968 775.356C500.199 776.662 501.125 777.016 502.88 776.982ZM518.756 785.015L517.082 785.312L516.395 781.428L519.877 780.812L520.677 785.332L519.37 788.878L517.562 789.197L518.869 785.652L518.756 785.015ZM534.453 760.314L531.439 760.847L530.895 757.767L533.908 757.234L534.453 760.314ZM535.128 764.718L538.112 781.592L535.267 782.095L532.282 765.221L535.128 764.718ZM558.7 777.951L555.854 778.454L554.066 768.343C553.515 765.229 551.803 763.944 548.957 764.447C545.944 764.98 544.403 767.98 544.93 770.96L546.546 780.1L543.7 780.604L540.716 763.73L543.461 763.244L543.781 765.052L544.518 764.922C545.224 763.45 546.933 762.181 549.21 761.778C553.362 761.044 556.088 763.186 556.805 767.237L558.7 777.951ZM564.839 759.463L569.091 758.711L569.529 761.188L565.277 761.941L566.918 771.215C567.22 772.922 568.11 773.662 570.387 773.26L571.626 773.041L572.076 775.585L570.77 775.816C567.121 776.461 564.776 775.702 564.143 772.12L562.432 762.444L559.519 762.959L559.081 760.481L561.993 759.966L561.093 754.877L563.939 754.374L564.839 759.463ZM589.455 762.774L589.627 763.745L576.771 766.019C577.582 770.019 579.816 772.11 583.298 771.494C585.675 771.074 586.903 769.82 587.121 768.125L590.001 767.615C589.974 770.589 587.921 773.231 583.736 773.972C578.48 774.901 574.852 771.572 573.935 766.383C573.017 761.193 575.408 757.145 580.531 756.239C585.553 755.351 588.621 758.641 589.455 762.774ZM580.902 758.728C577.855 759.267 576.507 761.405 576.518 763.612L586.26 761.889C585.714 759.776 583.748 758.225 580.902 758.728ZM604.926 752.373L607.671 751.887L610.507 767.925C611.342 772.645 608.935 776.213 604.013 777.084C599.694 777.847 596.562 776.537 595.468 773.278L598.28 772.78C599.138 774.7 601.009 775.129 603.553 774.679C607.035 774.063 608.236 771.675 607.638 768.294L607.401 766.955L606.664 767.085C605.968 768.417 604.55 769.772 602.006 770.222C597.352 771.045 593.855 767.866 592.984 762.944C592.108 757.989 594.302 753.803 598.956 752.98C601.601 752.512 603.398 753.299 604.509 754.311L605.245 754.181L604.926 752.373ZM602.103 767.65C605.719 767.011 606.911 763.796 606.343 760.582C605.769 757.334 603.546 754.723 599.93 755.363C596.615 755.949 595.173 758.725 595.83 762.441C596.476 766.09 598.789 768.236 602.103 767.65ZM629.115 755.76L629.287 756.731L616.43 759.005C617.241 763.005 619.476 765.095 622.958 764.48C625.335 764.059 626.563 762.806 626.781 761.11L629.661 760.601C629.634 763.575 627.581 766.217 623.396 766.957C618.139 767.887 614.512 764.558 613.594 759.368C612.677 754.179 615.068 750.13 620.19 749.224C625.213 748.336 628.28 751.626 629.115 755.76ZM620.562 751.714C617.515 752.253 616.167 754.39 616.177 756.598L625.92 754.875C625.374 752.762 623.408 751.21 620.562 751.714ZM641.874 745.838L642.347 748.517L640.941 748.765C637.593 749.357 635.912 751.761 636.569 755.477L638.061 763.914L635.216 764.418L632.231 747.544L634.977 747.058L635.332 749.067L636.068 748.937C636.722 747.751 638.157 746.495 640.601 746.063L641.874 745.838ZM663.864 744.504L659.277 745.315L661.824 759.712L658.978 760.215L656.432 745.818L653.519 746.334L653.081 743.856L655.993 743.341L655.65 741.399C654.969 737.549 656.816 735.496 660.465 734.85L662.106 734.56L662.544 737.038L660.937 737.322C658.693 737.719 658.206 739.255 658.514 740.996L658.839 742.838L663.426 742.026L663.864 744.504ZM669.079 736.503L666.065 737.036L665.521 733.956L668.534 733.423L669.079 736.503ZM669.754 740.907L672.738 757.781L669.892 758.285L666.908 741.41L669.754 740.907ZM679.274 739.223L683.526 738.471L683.964 740.949L679.712 741.701L681.352 750.975C681.654 752.682 682.545 753.423 684.822 753.02L686.06 752.801L686.51 755.345L685.205 755.576C681.555 756.222 679.211 755.462 678.578 751.88L676.866 742.204L673.954 742.719L673.515 740.242L676.428 739.727L675.528 734.638L678.374 734.134L679.274 739.223ZM694.019 743.176L695.673 743.159L697.635 743.123C700.67 743.104 702.811 744.279 703.356 747.359C703.847 750.138 701.914 753.07 697.361 753.875C692.573 754.722 689.857 753.027 688.92 749.878L691.799 749.369C692.405 751.23 694.244 751.871 696.789 751.421C699.333 750.971 700.848 749.771 700.522 747.93C700.261 746.457 699.182 745.819 696.974 745.83L693.078 745.863C690.591 745.854 688.725 744.872 688.275 742.327C687.778 739.515 689.502 736.965 694.055 736.16C698.039 735.455 700.681 736.922 701.571 739.803L698.725 740.306C698.206 738.741 696.469 738.288 694.36 738.661C692.183 739.046 690.852 740.11 691.107 741.55C691.338 742.856 692.264 743.21 694.019 743.176ZM732.706 747.175L729.86 747.678L728.072 737.567C727.533 734.52 725.809 733.168 722.963 733.671C719.95 734.204 718.409 737.205 718.936 740.184L720.553 749.324L717.707 749.828L713.402 725.488L716.248 724.984L717.888 734.258L718.625 734.128C719.298 732.662 720.973 731.399 723.25 730.997C727.368 730.268 730.095 732.41 730.811 736.461L732.706 747.175ZM750.874 734.225L751.046 735.196L738.189 737.47C739 741.47 741.234 743.56 744.716 742.945C747.093 742.524 748.322 741.271 748.54 739.575L751.419 739.066C751.393 742.04 749.34 744.682 745.155 745.422C739.898 746.352 736.271 743.023 735.353 737.833C734.435 732.644 736.827 728.595 741.949 727.689C746.971 726.801 750.039 730.091 750.874 734.225ZM742.32 730.179C739.274 730.718 737.925 732.855 737.936 735.063L747.679 733.34C747.132 731.227 745.166 729.675 742.32 730.179ZM763.632 724.303L764.106 726.982L762.7 727.23C759.352 727.822 757.671 730.226 758.328 733.942L759.82 742.379L756.974 742.883L753.99 726.009L756.735 725.523L757.091 727.532L757.827 727.402C758.481 726.216 759.916 724.96 762.36 724.528L763.632 724.303ZM783.308 728.488L783.48 729.459L770.623 731.733C771.434 735.733 773.669 737.824 777.15 737.208C779.528 736.788 780.756 735.534 780.974 733.839L783.853 733.329C783.827 736.303 781.774 738.945 777.589 739.686C772.332 740.615 768.705 737.286 767.787 732.097C766.869 726.907 769.261 722.859 774.383 721.953C779.405 721.065 782.473 724.355 783.308 728.488ZM774.755 724.442C771.708 724.981 770.359 727.119 770.37 729.326L780.113 727.603C779.567 725.49 777.6 723.939 774.755 724.442Z" fill="#274867"/>
<path d="M256.957 44.4795L260.218 44.3358L260.335 46.9853L257.074 47.1289L257.319 52.6995L254.398 52.8283L254.153 47.2577L242.4 47.7755L242.25 44.3788L252.093 29.1067L256.271 28.9226L256.957 44.4795ZM245.408 44.9884L254.07 44.6067L253.532 32.4126L252.785 32.4455L245.375 44.2411L245.408 44.9884ZM282.449 33.9971C287.171 33.7891 290.125 37.5046 290.353 42.6676C290.576 47.7287 287.964 51.7916 283.243 51.9996C280.525 52.1194 278.813 51.1058 277.81 49.9588L277.062 49.9918L277.143 51.826L274.358 51.9487L273.27 27.2547L276.157 27.1275L276.572 36.5363L277.319 36.5034C278.182 35.2402 279.732 34.1169 282.449 33.9971ZM282.487 49.5145C285.917 49.3633 287.633 46.5991 287.466 42.7948C287.298 38.9905 285.345 36.3879 281.915 36.5391C278.111 36.7067 276.686 39.9006 276.834 43.2633C276.982 46.626 278.682 49.6822 282.487 49.5145ZM300.174 57.6177L297.253 57.7464L300.416 49.2009L292.429 33.9998L295.52 33.8636L301.248 44.9101L302.097 44.8727L306.356 33.3861L309.379 33.2529L300.174 57.6177ZM316.753 32.928L321.066 32.7379L321.177 35.2514L316.863 35.4415L317.278 44.8504C317.354 46.5827 318.14 47.4329 320.45 47.3312L321.707 47.2758L321.821 49.8573L320.496 49.9156C316.794 50.0788 314.569 49.0197 314.409 45.3852L313.976 35.5688L311.021 35.699L310.91 33.1854L313.865 33.0552L313.638 27.8922L316.525 27.765L316.753 32.928ZM340.725 39.4269L340.768 40.412L327.725 40.9867C328.007 45.0583 329.949 47.4231 333.481 47.2674C335.893 47.1612 337.275 46.0793 337.712 44.4264L340.633 44.2977C340.219 47.2428 337.838 49.5939 333.592 49.781C328.259 50.016 325.098 46.2415 324.866 40.9766C324.634 35.7117 327.534 32.0105 332.731 31.7815C337.826 31.557 340.438 35.2195 340.725 39.4269ZM332.774 34.298C329.683 34.4342 328.067 36.3772 327.789 38.5676L337.673 38.132C337.407 35.9656 335.661 34.1708 332.774 34.298ZM349.928 37.9324L351.57 38.1323L353.52 38.3527C356.531 38.7305 358.501 40.1752 358.638 43.3001C358.763 46.1194 356.463 48.7732 351.844 48.9767C346.986 49.1908 344.514 47.1556 343.997 43.9113L346.918 43.7825C347.275 45.7067 349.016 46.5829 351.597 46.4692C354.179 46.3554 355.836 45.3635 355.754 43.4953C355.688 42.0007 354.701 41.2274 352.511 40.9496L348.644 40.4733C346.179 40.1395 344.458 38.9221 344.344 36.3406C344.218 33.4874 346.261 31.1853 350.881 30.9817C354.923 30.8036 357.35 32.6025 357.856 35.5751L354.968 35.7023C354.659 34.0824 352.995 33.4069 350.855 33.5012C348.648 33.5985 347.189 34.4796 347.253 35.9402C347.312 37.2649 348.183 37.737 349.928 37.9324ZM364.619 47.9714L362.92 48.0462L362.747 44.106L366.279 43.9504L366.481 48.5359L364.723 51.8806L362.889 51.9614L364.647 48.6168L364.619 47.9714ZM383.408 25.5325L380.351 25.6672L380.213 22.5422L383.27 22.4075L383.408 25.5325ZM383.502 29.9867L384.256 47.1061L381.369 47.2333L380.615 30.1139L383.502 29.9867ZM405.143 46.1857L402.255 46.3129L401.803 36.0549C401.664 32.8959 400.135 31.3978 397.248 31.525C394.191 31.6597 392.271 34.4329 392.404 37.456L392.813 46.729L389.925 46.8562L389.171 29.7369L391.956 29.6141L392.037 31.4483L392.784 31.4154C393.677 30.0488 395.537 29.0139 397.847 28.9121C402.059 28.7265 404.483 31.2062 404.664 35.3162L405.143 46.1857ZM413.645 28.6584L417.959 28.4683L418.069 30.9819L413.756 31.172L414.17 40.5808C414.247 42.3132 415.033 43.1634 417.342 43.0616L418.599 43.0062L418.713 45.5877L417.388 45.6461C413.686 45.8092 411.461 44.7501 411.301 41.1157L410.868 31.2992L407.913 31.4294L407.802 28.9159L410.758 28.7856L410.53 23.6226L413.417 23.4954L413.645 28.6584ZM437.617 35.1574L437.661 36.1424L424.617 36.7172C424.899 40.7887 426.841 43.1535 430.373 42.9979C432.785 42.8916 434.167 41.8097 434.605 40.1569L437.526 40.0281C437.111 42.9733 434.73 45.3243 430.484 45.5114C425.151 45.7464 421.99 41.9719 421.758 36.707C421.526 31.4422 424.426 27.7409 429.623 27.5119C434.718 27.2874 437.33 30.95 437.617 35.1574ZM429.666 30.0285C426.575 30.1647 424.959 32.1077 424.681 34.298L434.565 33.8625C434.3 31.6961 432.553 29.9012 429.666 30.0285ZM454.314 26.8663L457.099 26.7436L457.816 43.0138C458.027 47.8032 455.174 51.0259 450.181 51.2459C445.799 51.439 442.865 49.7305 442.206 46.3562L445.059 46.2305C445.659 48.2461 447.458 48.9155 450.039 48.8018C453.572 48.6461 455.074 46.4358 454.923 43.0052L454.863 41.6465L454.116 41.6794C453.251 42.9087 451.669 44.0675 449.087 44.1812C444.366 44.3893 441.314 40.7801 441.094 35.787C440.872 30.7598 443.595 26.8962 448.316 26.6882C451 26.5699 452.678 27.585 453.648 28.7335L454.395 28.7005L454.314 26.8663ZM449.52 41.6437C453.188 41.482 454.79 38.4506 454.647 35.1897C454.502 31.8949 452.639 29.0161 448.971 29.1778C445.608 29.326 443.815 31.8894 443.981 35.6597C444.144 39.3621 446.157 41.7919 449.52 41.6437ZM477.854 33.3844L477.897 34.3694L464.854 34.9442C465.135 39.0157 467.077 41.3805 470.61 41.2249C473.021 41.1186 474.403 40.0367 474.841 38.3838L477.762 38.2551C477.347 41.2002 474.966 43.5513 470.721 43.7384C465.388 43.9734 462.227 40.1989 461.995 34.934C461.763 29.6691 464.662 25.9679 469.859 25.7389C474.954 25.5144 477.566 29.1769 477.854 33.3844ZM469.902 28.2554C466.811 28.3916 465.195 30.3347 464.917 32.525L474.802 32.0895C474.536 29.9231 472.789 28.1282 469.902 28.2554ZM491.799 25.2145L491.919 27.9319L490.492 27.9948C487.095 28.1444 485.115 30.3077 485.281 34.0781L485.658 42.6378L482.771 42.765L482.016 25.6456L484.802 25.5229L484.892 27.5609L485.639 27.528C486.442 26.4376 488.029 25.3807 490.508 25.2714L491.799 25.2145ZM513.775 26.7646L509.122 26.9696L509.766 41.5755L506.878 41.7027L506.235 27.0969L503.28 27.2271L503.169 24.7135L506.124 24.5833L506.037 22.6132C505.865 18.707 507.964 16.9129 511.667 16.7497L513.331 16.6764L513.442 19.1899L511.811 19.2618C509.536 19.3621 508.851 20.8216 508.929 22.5879L509.011 24.4561L513.665 24.251L513.775 26.7646ZM519.99 19.514L516.933 19.6487L516.796 16.5237L519.853 16.389L519.99 19.514ZM520.085 23.9681L520.839 41.0875L517.952 41.2148L517.197 24.0954L520.085 23.9681ZM529.743 23.5425L534.057 23.3525L534.168 25.866L529.854 26.0561L530.268 35.465C530.345 37.1973 531.131 38.0475 533.441 37.9457L534.698 37.8903L534.811 40.4718L533.487 40.5302C529.784 40.6934 527.559 39.6343 527.399 35.9998L526.967 26.1833L524.012 26.3135L523.901 23.8L526.856 23.6698L526.628 18.5068L529.516 18.3795L529.743 23.5425ZM543.845 29.3874L545.487 29.5873L547.437 29.8077C550.448 30.1855 552.418 31.6302 552.556 34.7551C552.68 37.5744 550.38 40.2282 545.761 40.4318C540.904 40.6458 538.432 38.6107 537.914 35.3663L540.836 35.2376C541.193 37.1617 542.933 38.0379 545.514 37.9242C548.096 37.8104 549.754 36.8185 549.671 34.9503C549.606 33.4558 548.619 32.6825 546.428 32.4046L542.562 31.9284C540.096 31.5946 538.375 30.3772 538.261 27.7957C538.136 24.9424 540.178 22.6403 544.798 22.4367C548.84 22.2586 551.267 24.0575 551.773 27.0301L548.886 27.1573C548.576 25.5374 546.913 24.862 544.773 24.9563C542.565 25.0536 541.106 25.9346 541.171 27.3952C541.229 28.7199 542.101 29.192 543.845 29.3874ZM581.678 38.4066L578.791 38.5339L578.339 28.2758C578.203 25.1848 576.671 23.6188 573.783 23.746C570.726 23.8807 568.806 26.6539 568.94 29.677L569.348 38.95L566.461 39.0772L565.373 14.3831L568.26 14.2559L568.675 23.6648L569.422 23.6319C570.281 22.2667 572.107 21.2333 574.417 21.1316C578.595 20.9475 581.018 23.4272 581.199 27.5372L581.678 38.4066ZM601.382 27.9411L601.426 28.9261L588.382 29.5009C588.664 33.5724 590.606 35.9372 594.138 35.7816C596.55 35.6753 597.932 34.5934 598.369 32.9406L601.291 32.8118C600.876 35.757 598.495 38.108 594.249 38.2951C588.916 38.5301 585.755 34.7556 585.523 29.4907C585.291 24.2258 588.191 20.5246 593.388 20.2956C598.483 20.0711 601.095 23.7337 601.382 27.9411ZM593.431 22.8122C590.34 22.9484 588.724 24.8914 588.446 27.0817L598.33 26.6462C598.065 24.4798 596.318 22.6849 593.431 22.8122ZM615.328 19.7713L615.447 22.4886L614.021 22.5515C610.624 22.7012 608.643 24.8645 608.809 28.6348L609.187 37.1945L606.299 37.3217L605.545 20.2023L608.33 20.0796L608.42 22.1176L609.167 22.0847C609.97 20.9943 611.557 19.9374 614.037 19.8281L615.328 19.7713ZM634.288 26.4911L634.331 27.4761L621.288 28.0509C621.569 32.1225 623.511 34.4873 627.044 34.3316C629.456 34.2253 630.837 33.1434 631.275 31.4906L634.196 31.3619C633.781 34.307 631.401 36.6581 627.155 36.8452C621.822 37.0801 618.661 33.3056 618.429 28.0408C618.197 22.7759 621.097 19.0746 626.294 18.8456C631.389 18.6211 634 22.2837 634.288 26.4911ZM626.336 21.3622C623.245 21.4984 621.629 23.4414 621.351 25.6318L631.236 25.1962C630.97 23.0298 629.224 21.2349 626.336 21.3622Z" fill="#274867"/>
<path d="M535.088 403.266L535.168 404.01C536.781 404.384 539.122 406.115 539.46 409.259C539.883 413.18 536.856 416.515 531.65 417.075C526.444 417.636 522.777 415.021 522.355 411.1C522.021 407.99 523.902 405.77 525.432 405.058L525.352 404.314C524.043 403.908 522.134 402.369 521.843 399.665C521.439 395.913 524.408 392.994 529.005 392.499C533.602 392.005 537.124 394.224 537.528 397.977C537.812 400.614 536.247 402.594 535.088 403.266ZM529.282 395.069C526.577 395.36 524.492 396.952 524.764 399.487C525.037 402.023 527.418 403.169 530.122 402.877C532.826 402.586 534.908 400.96 534.635 398.425C534.363 395.89 531.986 394.778 529.282 395.069ZM531.366 414.439C534.848 414.064 536.785 412.043 536.49 409.305C536.188 406.499 533.88 405.072 530.398 405.447C526.917 405.821 524.965 407.707 525.267 410.513C525.562 413.251 527.884 414.813 531.366 414.439ZM561.081 395.784C565.78 395.278 568.963 398.8 569.516 403.938C570.058 408.975 567.708 413.195 563.009 413.7C560.305 413.991 558.532 413.088 557.458 412.007L556.714 412.087L556.911 413.912L554.139 414.211L551.494 389.634L554.367 389.325L555.375 398.689L556.119 398.609C556.9 397.294 558.376 396.075 561.081 395.784ZM562.097 411.268C565.512 410.901 567.05 408.033 566.642 404.247C566.235 400.461 564.122 397.987 560.708 398.355C556.922 398.762 555.701 402.039 556.061 405.386C556.422 408.733 558.311 411.675 562.097 411.268ZM580.262 418.238L577.354 418.551L579.971 409.823L571.041 395.156L574.117 394.825L580.531 405.488L581.376 405.397L584.901 393.665L587.909 393.341L580.262 418.238ZM595.248 392.551L599.541 392.089L599.81 394.591L595.517 395.053L596.525 404.417C596.71 406.141 597.549 406.94 599.847 406.692L601.098 406.557L601.375 409.127L600.056 409.269C596.372 409.665 594.084 408.749 593.695 405.131L592.644 395.362L589.703 395.678L589.433 393.177L592.374 392.86L591.821 387.722L594.695 387.413L595.248 392.551ZM619.583 397.524L619.688 398.504L606.707 399.901C607.245 403.947 609.333 406.184 612.848 405.806C615.249 405.547 616.559 404.381 616.892 402.703L619.799 402.39C619.571 405.356 617.343 407.853 613.118 408.307C607.81 408.879 604.417 405.311 603.853 400.071C603.289 394.832 605.95 390.955 611.122 390.398C616.193 389.852 619.03 393.343 619.583 397.524ZM611.323 392.907C608.247 393.238 606.757 395.279 606.618 397.483L616.455 396.424C616.053 394.279 614.197 392.598 611.323 392.907ZM628.673 395.451L630.324 395.547L632.284 395.644C635.313 395.831 637.37 397.148 637.705 400.258C638.007 403.064 635.88 405.858 631.282 406.352C626.448 406.873 623.853 404.998 623.131 401.792L626.039 401.479C626.517 403.377 628.309 404.142 630.878 403.865C633.447 403.589 635.039 402.494 634.839 400.635C634.679 399.147 633.645 398.438 631.441 398.299L627.552 398.068C625.071 397.89 623.276 396.784 623 394.215C622.694 391.375 624.587 388.949 629.185 388.454C633.208 388.021 635.744 389.663 636.436 392.598L633.563 392.907C633.151 391.31 631.449 390.741 629.319 390.97C627.122 391.207 625.722 392.178 625.878 393.632C626.02 394.95 626.92 395.366 628.673 395.451ZM643.968 404.542L642.278 404.724L641.856 400.803L645.372 400.425L645.863 404.988L644.319 408.437L642.494 408.634L644.037 405.185L643.968 404.542ZM667.593 387.295L662.962 387.794L664.526 402.33L661.653 402.639L660.088 388.103L657.147 388.42L656.878 385.918L659.819 385.601L659.608 383.641C659.189 379.753 661.171 377.83 664.856 377.434L666.512 377.255L666.781 379.757L665.159 379.932C662.894 380.175 662.303 381.675 662.492 383.433L662.692 385.292L667.324 384.794L667.593 387.295ZM669.96 376.884L672.834 376.575L675.479 401.151L672.605 401.46L669.96 376.884ZM686.493 382.286C691.801 381.715 695.299 385.305 695.841 390.342C696.383 395.379 693.729 399.631 688.422 400.203C683.08 400.777 679.616 397.184 679.074 392.147C678.532 387.11 681.152 382.861 686.493 382.286ZM688.152 397.701C691.905 397.297 693.328 393.998 692.968 390.651C692.607 387.305 690.515 384.384 686.762 384.788C682.976 385.195 681.587 388.491 681.947 391.837C682.307 395.184 684.366 398.109 688.152 397.701ZM712.094 397.21L711.901 395.419L711.157 395.499C710.251 396.93 708.524 398.039 706.09 398.301C702.168 398.723 699.687 396.323 699.374 393.416C699.08 390.677 700.559 387.577 705.291 387.068L710.835 386.471L710.762 385.795C710.54 383.733 709.197 382.373 706.222 382.693C703.687 382.966 702.508 384.085 702.533 385.587L699.659 385.896C699.558 382.727 702.066 380.61 705.886 380.199C710.179 379.737 713.139 381.504 713.55 385.324L714.798 396.919L712.094 397.21ZM706.53 395.723C709.37 395.417 711.541 393.029 711.25 390.325L711.083 388.77L705.978 389.319C703.172 389.621 702.019 390.977 702.237 393.005C702.444 394.932 703.995 395.996 706.53 395.723ZM722.181 378.89L726.474 378.428L726.743 380.929L722.45 381.391L723.458 390.755C723.643 392.479 724.482 393.278 726.78 393.031L728.031 392.896L728.308 395.465L726.989 395.607C723.305 396.004 721.017 395.087 720.628 391.47L719.577 381.7L716.636 382.017L716.366 379.515L719.307 379.199L718.754 374.061L721.628 373.751L722.181 378.89ZM740.273 385.97L731.045 386.963L730.772 384.428L740 383.435L740.273 385.97ZM752.147 377.75C748.361 378.158 747.141 381.435 747.501 384.782C747.861 388.129 749.751 391.071 753.537 390.664C756.951 390.296 758.489 387.429 758.082 383.643C757.674 379.857 755.561 377.383 752.147 377.75ZM743.744 376.569L746.516 376.27L746.713 378.096L747.456 378.016C748.276 376.731 749.816 375.471 752.52 375.18C757.219 374.674 760.413 378.297 760.955 383.334C761.508 388.472 759.147 392.591 754.448 393.096C751.744 393.387 750.042 392.51 748.999 391.392L748.255 391.472L749.179 400.058L746.306 400.367L743.744 376.569ZM771.83 373.101C777.138 372.53 780.636 376.12 781.178 381.157C781.72 386.194 779.066 390.447 773.759 391.018C768.418 391.593 764.953 387.999 764.411 382.962C763.869 377.925 766.489 373.676 771.83 373.101ZM773.49 388.516C777.242 388.113 778.665 384.813 778.305 381.467C777.945 378.12 775.852 375.199 772.1 375.603C768.314 376.01 766.924 379.306 767.284 382.653C767.645 385.999 769.703 388.924 773.49 388.516ZM787.312 367.4L784.269 367.727L783.934 364.617L786.977 364.29L787.312 367.4ZM787.687 371.839L789.521 388.877L786.647 389.186L784.813 372.149L787.687 371.839ZM810.307 386.64L807.434 386.949L806.335 376.74C805.997 373.596 804.376 372.198 801.502 372.507C798.46 372.834 796.719 375.723 797.043 378.732L798.036 387.96L795.163 388.27L793.329 371.232L796.101 370.934L796.297 372.759L797.041 372.679C797.846 371.259 799.637 370.109 801.936 369.861C806.128 369.41 808.703 371.732 809.143 375.822L810.307 386.64ZM817.686 368.611L821.979 368.149L822.248 370.65L817.955 371.112L818.963 380.476C819.148 382.2 819.987 382.999 822.286 382.752L823.536 382.617L823.813 385.186L822.494 385.328C818.81 385.725 816.522 384.808 816.133 381.191L815.082 371.421L812.141 371.738L811.871 369.236L814.812 368.92L814.259 363.782L817.133 363.472L817.686 368.611ZM844.969 368.205L840.338 368.703L841.902 383.239L839.029 383.549L837.464 369.013L834.523 369.329L834.254 366.827L837.195 366.511L836.984 364.55C836.566 360.663 838.547 358.74 842.232 358.343L843.888 358.165L844.157 360.666L842.535 360.841C840.27 361.085 839.679 362.585 839.868 364.342L840.068 366.202L844.7 365.703L844.969 368.205ZM850.713 360.576L847.671 360.904L847.336 357.794L850.379 357.466L850.713 360.576ZM851.089 365.016L852.922 382.053L850.049 382.362L848.215 365.325L851.089 365.016ZM860.701 363.981L864.994 363.519L865.264 366.021L860.97 366.483L861.978 375.847C862.164 377.571 863.002 378.369 865.301 378.122L866.552 377.987L866.828 380.557L865.51 380.698C861.825 381.095 859.538 380.179 859.148 376.561L858.097 366.792L855.156 367.108L854.887 364.607L857.828 364.29L857.275 359.152L860.148 358.843L860.701 363.981ZM875.144 368.924L876.796 369.02L878.755 369.117C881.785 369.303 883.841 370.621 884.176 373.731C884.478 376.537 882.351 379.33 877.753 379.825C872.919 380.346 870.324 378.471 869.603 375.265L872.51 374.952C872.988 376.85 874.78 377.615 877.349 377.338C879.918 377.062 881.51 375.967 881.31 374.108C881.15 372.62 880.116 371.911 877.912 371.772L874.023 371.541C871.542 371.363 869.747 370.257 869.471 367.688C869.165 364.848 871.059 362.422 875.656 361.927C879.679 361.494 882.215 363.136 882.907 366.071L880.034 366.38C879.622 364.783 877.92 364.214 875.79 364.443C873.593 364.68 872.193 365.651 872.349 367.105C872.491 368.423 873.391 368.839 875.144 368.924ZM913.471 375.536L910.598 375.846L909.499 365.637C909.168 362.56 907.54 361.094 904.666 361.404C901.624 361.731 899.883 364.62 900.207 367.629L901.2 376.857L898.327 377.166L895.682 352.59L898.555 352.281L899.563 361.645L900.307 361.565C901.077 360.148 902.835 359.002 905.134 358.754C909.292 358.307 911.867 360.629 912.307 364.719L913.471 375.536ZM932.475 363.848L932.581 364.828L919.6 366.225C920.138 370.271 922.225 372.508 925.741 372.13C928.141 371.872 929.451 370.705 929.784 369.028L932.691 368.715C932.463 371.68 930.236 374.177 926.01 374.632C920.703 375.203 917.309 371.635 916.745 366.396C916.181 361.156 918.842 357.279 924.014 356.722C929.085 356.177 931.923 359.667 932.475 363.848ZM924.216 359.231C921.139 359.562 919.649 361.603 919.51 363.807L929.347 362.748C928.946 360.603 927.089 358.922 924.216 359.231ZM945.877 354.814L946.168 357.518L944.748 357.671C941.368 358.035 939.527 360.319 939.931 364.071L940.848 372.59L937.975 372.899L936.141 355.862L938.913 355.563L939.131 357.592L939.875 357.512C940.607 356.373 942.124 355.218 944.592 354.952L945.877 354.814ZM965.223 360.323L965.329 361.304L952.348 362.701C952.886 366.746 954.973 368.984 958.489 368.605C960.889 368.347 962.2 367.18 962.532 365.503L965.44 365.19C965.212 368.155 962.984 370.652 958.758 371.107C953.451 371.678 950.058 368.111 949.494 362.871C948.93 357.631 951.59 353.754 956.762 353.198C961.833 352.652 964.671 356.142 965.223 360.323ZM956.964 355.706C953.888 356.038 952.398 358.079 952.259 360.282L962.096 359.224C961.694 357.078 959.837 355.397 956.964 355.706Z" fill="#274867"/>
<path d="M987.357 42V40.206H991.175V28.016H990.715L987.334 30.293V28.177L990.692 25.9H993.199V40.206H996.718V42H987.357ZM1011.88 30.109C1015.08 30.109 1016.96 32.708 1016.96 36.204C1016.96 39.631 1015.08 42.299 1011.88 42.299C1010.04 42.299 1008.91 41.563 1008.27 40.758H1007.76V42H1005.88V25.279H1007.83V31.65H1008.34C1008.96 30.822 1010.04 30.109 1011.88 30.109ZM1011.44 40.597C1013.77 40.597 1015.01 38.78 1015.01 36.204C1015.01 33.628 1013.77 31.811 1011.44 31.811C1008.87 31.811 1007.81 33.927 1007.81 36.204C1007.81 38.481 1008.87 40.597 1011.44 40.597ZM1023.16 46.6H1021.18L1023.57 40.919L1018.62 30.408H1020.72L1024.26 38.044H1024.83L1028.05 30.408H1030.1L1023.16 46.6ZM1035.09 30.408H1038.02V32.11H1035.09V38.481C1035.09 39.654 1035.6 40.252 1037.16 40.252H1038.02V42H1037.12C1034.61 42 1033.14 41.218 1033.14 38.757V32.11H1031.14V30.408H1033.14V26.912H1035.09V30.408ZM1051.1 35.514V36.181H1042.27C1042.34 38.941 1043.58 40.597 1045.97 40.597C1047.61 40.597 1048.57 39.907 1048.92 38.803H1050.9C1050.53 40.781 1048.85 42.299 1045.97 42.299C1042.36 42.299 1040.34 39.654 1040.34 36.089C1040.34 32.524 1042.41 30.109 1045.93 30.109C1049.38 30.109 1051.03 32.662 1051.1 35.514ZM1045.88 31.811C1043.79 31.811 1042.64 33.076 1042.39 34.548H1049.08C1048.96 33.076 1047.84 31.811 1045.88 31.811Z" fill="#274867"/>
</g>
<defs>
<clipPath id="clip0_2777_1509">
<rect width="1474" height="998" fill="white"/>
</clipPath>
</defs>
</svg>
